<svg width="20" height="21" viewBox="0 0 20 21" fill="none" xmlns="http://www.w3.org/2000/svg">
<rect y="0.625" width="20" height="20" fill="#89909A"/>
<path fill-rule="evenodd" clip-rule="evenodd" d="M3.88084 8.76446C3.66474 8.76446 3.48956 8.93965 3.48956 9.15575C3.48956 9.37185 3.66474 9.54703 3.88084 9.54703C4.09694 9.54703 4.27213 9.37185 4.27213 9.15575C4.27213 8.93965 4.09694 8.76446 3.88084 8.76446ZM3.88084 8.27536C3.39462 8.27536 3.00046 8.66952 3.00046 9.15575C3.00046 9.64197 3.39462 10.0361 3.88084 10.0361C4.36707 10.0361 4.76123 9.64197 4.76123 9.15575C4.76123 8.66952 4.36707 8.27536 3.88084 8.27536Z" fill="white"/>
<path fill-rule="evenodd" clip-rule="evenodd" d="M6.36233 7.33059C6.18381 6.8996 5.94199 6.49859 5.64552 6.14052L6.01358 5.77246C6.35728 6.17972 6.63671 6.63824 6.84132 7.13219C7.10186 7.7612 7.23596 8.43538 7.23596 9.11621C7.23596 9.79705 7.10186 10.4712 6.84132 11.1002C6.62971 11.6111 6.33807 12.084 5.97807 12.5016L5.61035 12.1339C5.9229 11.7653 6.1768 11.3498 6.36233 10.9018C6.59682 10.3357 6.71751 9.72897 6.71751 9.11621C6.71751 8.50346 6.59682 7.8967 6.36233 7.33059Z" fill="white"/>
<path fill-rule="evenodd" clip-rule="evenodd" d="M8.63161 6.36121C8.33225 5.6385 7.9195 4.9695 7.40991 4.37903L7.80066 3.98828C8.36083 4.63065 8.8138 5.36064 9.14087 6.15027C9.53661 7.10565 9.74029 8.12963 9.74029 9.16373C9.74029 10.1978 9.53661 11.2218 9.14087 12.1772C8.81527 12.9633 8.3649 13.6902 7.80821 14.3305L7.41742 13.9397C7.92355 13.3514 8.33373 12.6854 8.63161 11.9663C8.99964 11.0777 9.18907 10.1255 9.18907 9.16373C9.18907 8.20202 8.99964 7.24972 8.63161 6.36121Z" fill="white"/>
<path fill-rule="evenodd" clip-rule="evenodd" d="M16.1194 13.0422C16.3355 13.0422 16.5107 12.867 16.5107 12.6509C16.5107 12.4348 16.3355 12.2596 16.1194 12.2596C15.9033 12.2596 15.7281 12.4348 15.7281 12.6509C15.7281 12.867 15.9033 13.0422 16.1194 13.0422ZM16.1194 13.5313C16.6056 13.5313 16.9998 13.1371 16.9998 12.6509C16.9998 12.1647 16.6056 11.7705 16.1194 11.7705C15.6332 11.7705 15.239 12.1647 15.239 12.6509C15.239 13.1371 15.6332 13.5313 16.1194 13.5313Z" fill="white"/>
<path fill-rule="evenodd" clip-rule="evenodd" d="M13.6379 14.4777C13.8163 14.9084 14.0579 15.3092 14.3541 15.6671L13.9861 16.0352C13.6426 15.6281 13.3634 15.1698 13.1589 14.6761C12.8984 14.0471 12.7643 13.3729 12.7643 12.6921C12.7643 12.0113 12.8984 11.3371 13.1589 10.7081C13.3705 10.1973 13.662 9.72446 14.0219 9.30697L14.3896 9.67469C14.0772 10.0432 13.8234 10.4587 13.6379 10.9065C13.4034 11.4726 13.2827 12.0793 13.2827 12.6921C13.2827 13.3049 13.4034 13.9116 13.6379 14.4777Z" fill="white"/>
<path fill-rule="evenodd" clip-rule="evenodd" d="M11.3688 15.4455C11.6683 16.1686 12.0814 16.8379 12.5913 17.4286L12.2006 17.8193C11.64 17.1767 11.1868 16.4464 10.8596 15.6564C10.4638 14.7011 10.2601 13.6771 10.2601 12.643C10.2601 11.6089 10.4638 10.5849 10.8596 9.6295C11.1851 8.84367 11.6353 8.11689 12.1917 7.47676L12.5825 7.86756C12.0766 8.45576 11.6666 9.12152 11.3688 9.84045C11.0008 10.729 10.8114 11.6813 10.8114 12.643C10.8114 13.6047 11.0008 14.557 11.3688 15.4455Z" fill="white"/>
</svg>
