<svg width="16" height="18" viewBox="0 0 16 18" fill="none" xmlns="http://www.w3.org/2000/svg">
<path d="M1.77778 18C1.28889 18 0.870222 17.8043 0.521778 17.413C0.173926 17.021 0 16.55 0 16V2C0 1.45 0.173926 0.979 0.521778 0.587C0.870222 0.195667 1.28889 0 1.77778 0H9.77778V5H11.5556V7H16V16C16 16.55 15.8261 17.021 15.4782 17.413C15.1298 17.8043 14.7111 18 14.2222 18H1.77778ZM2.66667 14H13.3333L10 9L7.33333 13L5.33333 10L2.66667 14ZM12.4444 6V4H10.6667V2H12.4444V0H14.2222V2H16V4H14.2222V6H12.4444Z" fill="#00AA00"/>
</svg>
