<svg width="18" height="20" viewBox="0 0 18 20" fill="none" xmlns="http://www.w3.org/2000/svg">
<path d="M8 20C5.68333 19.4167 3.771 18.0873 2.263 16.012C0.754333 13.9373 0 11.6333 0 9.1V3L8 0L16 3V8.675C15.5667 8.45833 15.0793 8.29167 14.538 8.175C13.996 8.05833 13.4833 8 13 8C11.0667 8 9.41667 8.68333 8.05 10.05C6.68333 11.4167 6 13.0667 6 15C6 16.0333 6.196 16.9667 6.588 17.8C6.97933 18.6333 7.475 19.3583 8.075 19.975C8.05833 19.975 8.046 19.9793 8.038 19.988C8.02933 19.996 8.01667 20 8 20ZM13 20C11.6167 20 10.4377 19.5127 9.463 18.538C8.48767 17.5627 8 16.3833 8 15C8 13.6167 8.48767 12.4373 9.463 11.462C10.4377 10.4873 11.6167 10 13 10C14.3833 10 15.5627 10.4873 16.538 11.462C17.5127 12.4373 18 13.6167 18 15C18 16.3833 17.5127 17.5627 16.538 18.538C15.5627 19.5127 14.3833 20 13 20ZM13 18C13.5167 18 13.9917 17.879 14.425 17.637C14.8583 17.3957 15.2083 17.075 15.475 16.675C15.1083 16.4583 14.7167 16.2917 14.3 16.175C13.8833 16.0583 13.45 16 13 16C12.55 16 12.1167 16.0583 11.7 16.175C11.2833 16.2917 10.8917 16.4583 10.525 16.675C10.7917 17.075 11.1417 17.3957 11.575 17.637C12.0083 17.879 12.4833 18 13 18ZM13 15C13.4167 15 13.7707 14.854 14.062 14.562C14.354 14.2707 14.5 13.9167 14.5 13.5C14.5 13.0833 14.354 12.7293 14.062 12.438C13.7707 12.146 13.4167 12 13 12C12.5833 12 12.2293 12.146 11.938 12.438C11.646 12.7293 11.5 13.0833 11.5 13.5C11.5 13.9167 11.646 14.2707 11.938 14.562C12.2293 14.854 12.5833 15 13 15Z" fill="#89909A"/>
</svg>
