<svg width="21" height="21" viewBox="0 0 21 21" fill="none" xmlns="http://www.w3.org/2000/svg">
<path d="M11.925 9.04995L7.675 4.79995L9.1 3.39995L11.925 6.22495L17.6 0.574951L19 1.97495L11.925 9.04995ZM13 20.5L6 18.5499V8.99995H7.95L14.15 11.3C14.7 11.5 15.146 11.85 15.488 12.35C15.8293 12.85 16 13.4 16 14H14C13.3 14 12.75 13.975 12.35 13.925C11.95 13.875 11.6 13.8 11.3 13.7L9.3 13.05L9 14L10.575 14.575C11.0417 14.7583 11.4667 14.875 11.85 14.925C12.2333 14.975 12.6833 15 13.2 15H18C19.1 15 19.875 15.1793 20.325 15.538C20.775 15.896 21 16.3833 21 17V18L13 20.5ZM0 20V8.99995H4V20H0Z" fill="#89909A"/>
</svg>
