<svg width="336" height="383" viewBox="0 0 336 383" fill="none" xmlns="http://www.w3.org/2000/svg">
<path d="M44.3414 260L53.9894 234.8H57.1934L66.7694 260H63.7094L57.5534 243.656C57.3854 243.2 57.1934 242.672 56.9774 242.072C56.7854 241.448 56.5694 240.812 56.3294 240.164C56.1134 239.492 55.8974 238.844 55.6814 238.22C55.4894 237.596 55.3094 237.044 55.1414 236.564H55.8614C55.6694 237.164 55.4654 237.776 55.2494 238.4C55.0574 239 54.8534 239.612 54.6374 240.236C54.4214 240.836 54.2054 241.436 53.9894 242.036C53.7734 242.636 53.5574 243.236 53.3414 243.836L47.2214 260H44.3414ZM48.4454 253.052L49.4894 250.316H61.4054L62.5574 253.052H48.4454ZM76.6005 260.36C75.1605 260.36 73.9365 260.072 72.9285 259.496C71.9445 258.896 71.1885 258.032 70.6605 256.904C70.1565 255.776 69.9045 254.372 69.9045 252.692V241.208H72.6405V252.152C72.6405 253.424 72.8085 254.492 73.1445 255.356C73.5045 256.196 74.0325 256.832 74.7285 257.264C75.4485 257.696 76.3245 257.912 77.3565 257.912C78.1485 257.912 78.8805 257.78 79.5525 257.516C80.2245 257.228 80.8125 256.844 81.3165 256.364C81.8205 255.884 82.2165 255.32 82.5045 254.672C82.7925 254.024 82.9365 253.34 82.9365 252.62V241.208H85.6365V260H82.9725L82.8645 256.04L83.2965 255.824C83.0085 256.664 82.5285 257.432 81.8565 258.128C81.1845 258.8 80.3805 259.34 79.4445 259.748C78.5325 260.156 77.5845 260.36 76.6005 260.36ZM93.4856 260V236.276H96.1856V260H93.4856ZM89.2376 243.8V241.208H100.938V243.8H89.2376ZM104.253 260V233.36H106.953V245.312L106.413 245.852C106.677 244.868 107.169 244.004 107.889 243.26C108.609 242.492 109.449 241.892 110.409 241.46C111.393 241.028 112.389 240.812 113.397 240.812C114.837 240.812 116.037 241.088 116.997 241.64C117.957 242.192 118.665 243.044 119.121 244.196C119.601 245.348 119.841 246.812 119.841 248.588V260H117.105V248.732C117.105 247.484 116.937 246.464 116.601 245.672C116.289 244.856 115.797 244.256 115.125 243.872C114.453 243.488 113.613 243.308 112.605 243.332C111.813 243.332 111.069 243.476 110.373 243.764C109.677 244.028 109.077 244.4 108.573 244.88C108.069 245.36 107.673 245.912 107.385 246.536C107.097 247.16 106.953 247.832 106.953 248.552V260H105.621C105.453 260 105.261 260 105.045 260C104.829 260 104.565 260 104.253 260ZM133.275 260.36C131.403 260.36 129.735 259.952 128.271 259.136C126.831 258.32 125.703 257.18 124.887 255.716C124.071 254.252 123.663 252.572 123.663 250.676C123.663 249.212 123.891 247.892 124.347 246.716C124.803 245.516 125.439 244.472 126.255 243.584C127.095 242.696 128.091 242.012 129.243 241.532C130.395 241.028 131.643 240.776 132.987 240.776C134.259 240.776 135.411 241.004 136.443 241.46C137.499 241.916 138.399 242.552 139.143 243.368C139.911 244.16 140.487 245.108 140.871 246.212C141.255 247.316 141.423 248.528 141.375 249.848L141.339 251.108H125.679L125.283 248.84H139.287L138.639 249.452V248.588C138.591 247.724 138.339 246.896 137.883 246.104C137.427 245.288 136.779 244.628 135.939 244.124C135.123 243.62 134.139 243.368 132.987 243.368C131.643 243.368 130.479 243.644 129.495 244.196C128.511 244.724 127.755 245.516 127.227 246.572C126.699 247.628 126.435 248.936 126.435 250.496C126.435 251.984 126.723 253.28 127.299 254.384C127.875 255.464 128.691 256.304 129.747 256.904C130.827 257.504 132.123 257.804 133.635 257.804C134.523 257.804 135.399 257.66 136.263 257.372C137.151 257.06 138.123 256.46 139.179 255.572L140.583 257.516C140.031 258.068 139.371 258.56 138.603 258.992C137.835 259.4 136.995 259.736 136.083 260C135.171 260.24 134.235 260.36 133.275 260.36ZM145.21 260V241.208H147.874L147.982 245.132L147.55 245.312C147.79 244.496 148.258 243.752 148.954 243.08C149.65 242.408 150.478 241.868 151.438 241.46C152.422 241.028 153.43 240.812 154.462 240.812C155.854 240.812 157.018 241.088 157.954 241.64C158.89 242.192 159.598 243.044 160.078 244.196C160.558 245.348 160.798 246.812 160.798 248.588V260H158.062V248.732C158.062 247.484 157.894 246.464 157.558 245.672C157.246 244.856 156.754 244.256 156.082 243.872C155.41 243.488 154.582 243.308 153.598 243.332C152.782 243.332 152.026 243.476 151.33 243.764C150.634 244.028 150.034 244.4 149.53 244.88C149.026 245.36 148.63 245.912 148.342 246.536C148.054 247.16 147.91 247.832 147.91 248.552V260H146.578C146.41 260 146.218 260 146.002 260C145.786 260 145.522 260 145.21 260ZM168.544 260V236.276H171.244V260H168.544ZM164.296 243.8V241.208H175.996V243.8H164.296ZM180.032 260V241.208H182.732V260H180.032ZM181.364 237.14C180.692 237.14 180.176 236.972 179.816 236.636C179.48 236.276 179.312 235.796 179.312 235.196C179.312 234.596 179.492 234.116 179.852 233.756C180.212 233.396 180.716 233.216 181.364 233.216C182.012 233.216 182.516 233.396 182.876 233.756C183.236 234.092 183.416 234.572 183.416 235.196C183.416 235.772 183.236 236.24 182.876 236.6C182.516 236.96 182.012 237.14 181.364 237.14ZM196.548 260.36C194.772 260.36 193.188 259.94 191.796 259.1C190.404 258.236 189.3 257.072 188.484 255.608C187.692 254.12 187.296 252.44 187.296 250.568C187.296 248.696 187.692 247.028 188.484 245.564C189.3 244.076 190.404 242.912 191.796 242.072C193.188 241.232 194.784 240.812 196.584 240.812C198.192 240.812 199.656 241.136 200.976 241.784C202.296 242.408 203.352 243.284 204.144 244.412L202.56 246.356C202.104 245.756 201.552 245.228 200.904 244.772C200.28 244.316 199.596 243.968 198.852 243.728C198.132 243.464 197.412 243.332 196.692 243.332C195.42 243.332 194.28 243.656 193.272 244.304C192.264 244.928 191.46 245.78 190.86 246.86C190.284 247.94 189.996 249.176 189.996 250.568C189.996 251.96 190.284 253.208 190.86 254.312C191.46 255.392 192.264 256.244 193.272 256.868C194.28 257.492 195.408 257.804 196.656 257.804C197.376 257.804 198.084 257.696 198.78 257.48C199.476 257.24 200.136 256.904 200.76 256.472C201.384 256.04 201.96 255.5 202.488 254.852L204.072 256.796C203.256 257.876 202.164 258.74 200.796 259.388C199.428 260.036 198.012 260.36 196.548 260.36ZM214.921 260.36C213.289 260.36 211.813 259.94 210.493 259.1C209.173 258.236 208.129 257.072 207.361 255.608C206.593 254.12 206.209 252.44 206.209 250.568C206.209 248.672 206.605 246.992 207.397 245.528C208.189 244.064 209.245 242.912 210.565 242.072C211.909 241.232 213.409 240.812 215.065 240.812C216.049 240.812 216.961 240.956 217.801 241.244C218.641 241.532 219.385 241.94 220.033 242.468C220.705 242.972 221.257 243.572 221.689 244.268C222.145 244.94 222.457 245.672 222.625 246.464L221.833 246.068L221.941 241.208H224.641V260H221.905V255.392L222.625 254.924C222.457 255.644 222.133 256.34 221.653 257.012C221.173 257.66 220.585 258.236 219.889 258.74C219.217 259.244 218.449 259.64 217.585 259.928C216.745 260.216 215.857 260.36 214.921 260.36ZM215.533 257.768C216.781 257.768 217.897 257.468 218.881 256.868C219.865 256.244 220.633 255.392 221.185 254.312C221.761 253.208 222.049 251.96 222.049 250.568C222.049 249.176 221.761 247.94 221.185 246.86C220.633 245.78 219.865 244.928 218.881 244.304C217.897 243.68 216.781 243.368 215.533 243.368C214.261 243.368 213.133 243.68 212.149 244.304C211.189 244.928 210.421 245.78 209.845 246.86C209.293 247.94 209.017 249.176 209.017 250.568C209.017 251.936 209.293 253.172 209.845 254.276C210.397 255.356 211.165 256.208 212.149 256.832C213.133 257.456 214.261 257.768 215.533 257.768ZM232.493 260V236.276H235.193V260H232.493ZM228.245 243.8V241.208H239.945V243.8H228.245ZM243.981 260V241.208H246.681V260H243.981ZM245.313 237.14C244.641 237.14 244.125 236.972 243.765 236.636C243.429 236.276 243.261 235.796 243.261 235.196C243.261 234.596 243.441 234.116 243.801 233.756C244.161 233.396 244.665 233.216 245.313 233.216C245.961 233.216 246.465 233.396 246.825 233.756C247.185 234.092 247.365 234.572 247.365 235.196C247.365 235.772 247.185 236.24 246.825 236.6C246.465 236.96 245.961 237.14 245.313 237.14ZM260.893 260.36C259.021 260.36 257.353 259.94 255.889 259.1C254.449 258.26 253.309 257.096 252.469 255.608C251.653 254.12 251.245 252.428 251.245 250.532C251.245 248.66 251.653 246.992 252.469 245.528C253.309 244.064 254.449 242.912 255.889 242.072C257.353 241.232 259.021 240.812 260.893 240.812C262.741 240.812 264.385 241.232 265.825 242.072C267.289 242.912 268.429 244.064 269.245 245.528C270.085 246.992 270.505 248.66 270.505 250.532C270.505 252.428 270.085 254.12 269.245 255.608C268.429 257.096 267.289 258.26 265.825 259.1C264.385 259.94 262.741 260.36 260.893 260.36ZM260.893 257.804C262.213 257.804 263.389 257.492 264.421 256.868C265.453 256.22 266.257 255.356 266.833 254.276C267.409 253.172 267.697 251.924 267.697 250.532C267.697 249.14 267.409 247.904 266.833 246.824C266.257 245.744 265.453 244.904 264.421 244.304C263.389 243.68 262.213 243.368 260.893 243.368C259.573 243.368 258.385 243.68 257.329 244.304C256.297 244.904 255.481 245.756 254.881 246.86C254.305 247.94 254.029 249.164 254.053 250.532C254.029 251.924 254.305 253.172 254.881 254.276C255.481 255.356 256.297 256.22 257.329 256.868C258.385 257.492 259.573 257.804 260.893 257.804ZM274.444 260V241.208H277.108L277.216 245.132L276.784 245.312C277.024 244.496 277.492 243.752 278.188 243.08C278.884 242.408 279.712 241.868 280.672 241.46C281.656 241.028 282.664 240.812 283.696 240.812C285.088 240.812 286.252 241.088 287.188 241.64C288.124 242.192 288.832 243.044 289.312 244.196C289.792 245.348 290.032 246.812 290.032 248.588V260H287.296V248.732C287.296 247.484 287.128 246.464 286.792 245.672C286.48 244.856 285.988 244.256 285.316 243.872C284.644 243.488 283.816 243.308 282.832 243.332C282.016 243.332 281.26 243.476 280.564 243.764C279.868 244.028 279.268 244.4 278.764 244.88C278.26 245.36 277.864 245.912 277.576 246.536C277.288 247.16 277.144 247.832 277.144 248.552V260H275.812C275.644 260 275.452 260 275.236 260C275.02 260 274.756 260 274.444 260ZM93.1751 306.36C91.5431 306.36 90.0671 305.94 88.7471 305.1C87.4271 304.236 86.3831 303.072 85.6151 301.608C84.8471 300.12 84.4631 298.44 84.4631 296.568C84.4631 294.672 84.8591 292.992 85.6511 291.528C86.4431 290.064 87.4991 288.912 88.8191 288.072C90.1631 287.232 91.6631 286.812 93.3191 286.812C94.3031 286.812 95.2151 286.956 96.0551 287.244C96.8951 287.532 97.6391 287.94 98.2871 288.468C98.9591 288.972 99.5111 289.572 99.9431 290.268C100.399 290.94 100.711 291.672 100.879 292.464L100.087 292.068L100.195 287.208H102.895V306H100.159V301.392L100.879 300.924C100.711 301.644 100.387 302.34 99.9071 303.012C99.4271 303.66 98.8391 304.236 98.1431 304.74C97.4711 305.244 96.7031 305.64 95.8391 305.928C94.9991 306.216 94.1111 306.36 93.1751 306.36ZM93.7871 303.768C95.0351 303.768 96.1511 303.468 97.1351 302.868C98.1191 302.244 98.8871 301.392 99.4391 300.312C100.015 299.208 100.303 297.96 100.303 296.568C100.303 295.176 100.015 293.94 99.4391 292.86C98.8871 291.78 98.1191 290.928 97.1351 290.304C96.1511 289.68 95.0351 289.368 93.7871 289.368C92.5151 289.368 91.3871 289.68 90.4031 290.304C89.4431 290.928 88.6751 291.78 88.0991 292.86C87.5471 293.94 87.2711 295.176 87.2711 296.568C87.2711 297.936 87.5471 299.172 88.0991 300.276C88.6511 301.356 89.4191 302.208 90.4031 302.832C91.3871 303.456 92.5151 303.768 93.7871 303.768ZM116.075 306.36C114.299 306.36 112.715 305.94 111.323 305.1C109.931 304.236 108.827 303.072 108.011 301.608C107.219 300.12 106.823 298.44 106.823 296.568C106.823 294.696 107.219 293.028 108.011 291.564C108.827 290.076 109.931 288.912 111.323 288.072C112.715 287.232 114.311 286.812 116.111 286.812C117.719 286.812 119.183 287.136 120.503 287.784C121.823 288.408 122.879 289.284 123.671 290.412L122.087 292.356C121.631 291.756 121.079 291.228 120.431 290.772C119.807 290.316 119.123 289.968 118.379 289.728C117.659 289.464 116.939 289.332 116.219 289.332C114.947 289.332 113.807 289.656 112.799 290.304C111.791 290.928 110.987 291.78 110.387 292.86C109.811 293.94 109.523 295.176 109.523 296.568C109.523 297.96 109.811 299.208 110.387 300.312C110.987 301.392 111.791 302.244 112.799 302.868C113.807 303.492 114.935 303.804 116.183 303.804C116.903 303.804 117.611 303.696 118.307 303.48C119.003 303.24 119.663 302.904 120.287 302.472C120.911 302.04 121.487 301.5 122.015 300.852L123.599 302.796C122.783 303.876 121.691 304.74 120.323 305.388C118.955 306.036 117.539 306.36 116.075 306.36ZM129.697 306V282.276H132.397V306H129.697ZM125.449 289.8V287.208H137.149V289.8H125.449ZM141.184 306V287.208H143.884V306H141.184ZM142.516 283.14C141.844 283.14 141.328 282.972 140.968 282.636C140.632 282.276 140.464 281.796 140.464 281.196C140.464 280.596 140.644 280.116 141.004 279.756C141.364 279.396 141.868 279.216 142.516 279.216C143.164 279.216 143.668 279.396 144.028 279.756C144.388 280.092 144.568 280.572 144.568 281.196C144.568 281.772 144.388 282.24 144.028 282.6C143.668 282.96 143.164 283.14 142.516 283.14ZM155.612 306L147.692 287.208H150.68L156.944 302.58L156.224 302.976L163.1 287.208H165.98L157.556 306H155.612ZM175.968 306.36C174.336 306.36 172.86 305.94 171.54 305.1C170.22 304.236 169.176 303.072 168.408 301.608C167.64 300.12 167.256 298.44 167.256 296.568C167.256 294.672 167.652 292.992 168.444 291.528C169.236 290.064 170.292 288.912 171.612 288.072C172.956 287.232 174.456 286.812 176.112 286.812C177.096 286.812 178.008 286.956 178.848 287.244C179.688 287.532 180.432 287.94 181.08 288.468C181.752 288.972 182.304 289.572 182.736 290.268C183.192 290.94 183.504 291.672 183.672 292.464L182.88 292.068L182.988 287.208H185.688V306H182.952V301.392L183.672 300.924C183.504 301.644 183.18 302.34 182.7 303.012C182.22 303.66 181.632 304.236 180.936 304.74C180.264 305.244 179.496 305.64 178.632 305.928C177.792 306.216 176.904 306.36 175.968 306.36ZM176.58 303.768C177.828 303.768 178.944 303.468 179.928 302.868C180.912 302.244 181.68 301.392 182.232 300.312C182.808 299.208 183.096 297.96 183.096 296.568C183.096 295.176 182.808 293.94 182.232 292.86C181.68 291.78 180.912 290.928 179.928 290.304C178.944 289.68 177.828 289.368 176.58 289.368C175.308 289.368 174.18 289.68 173.196 290.304C172.236 290.928 171.468 291.78 170.892 292.86C170.34 293.94 170.064 295.176 170.064 296.568C170.064 297.936 170.34 299.172 170.892 300.276C171.444 301.356 172.212 302.208 173.196 302.832C174.18 303.456 175.308 303.768 176.58 303.768ZM193.54 306V282.276H196.24V306H193.54ZM189.292 289.8V287.208H200.992V289.8H189.292ZM212.412 306.36C210.54 306.36 208.872 305.952 207.408 305.136C205.968 304.32 204.84 303.18 204.024 301.716C203.208 300.252 202.8 298.572 202.8 296.676C202.8 295.212 203.028 293.892 203.484 292.716C203.94 291.516 204.576 290.472 205.392 289.584C206.232 288.696 207.228 288.012 208.38 287.532C209.532 287.028 210.78 286.776 212.124 286.776C213.396 286.776 214.548 287.004 215.58 287.46C216.636 287.916 217.536 288.552 218.28 289.368C219.048 290.16 219.624 291.108 220.008 292.212C220.392 293.316 220.56 294.528 220.512 295.848L220.476 297.108H204.816L204.42 294.84H218.424L217.776 295.452V294.588C217.728 293.724 217.476 292.896 217.02 292.104C216.564 291.288 215.916 290.628 215.076 290.124C214.26 289.62 213.276 289.368 212.124 289.368C210.78 289.368 209.616 289.644 208.632 290.196C207.648 290.724 206.892 291.516 206.364 292.572C205.836 293.628 205.572 294.936 205.572 296.496C205.572 297.984 205.86 299.28 206.436 300.384C207.012 301.464 207.828 302.304 208.884 302.904C209.964 303.504 211.26 303.804 212.772 303.804C213.66 303.804 214.536 303.66 215.4 303.372C216.288 303.06 217.26 302.46 218.316 301.572L219.72 303.516C219.168 304.068 218.508 304.56 217.74 304.992C216.972 305.4 216.132 305.736 215.22 306C214.308 306.24 213.372 306.36 212.412 306.36ZM231.979 306.36C230.275 306.36 228.739 305.94 227.371 305.1C226.027 304.26 224.959 303.108 224.167 301.644C223.399 300.156 223.015 298.476 223.015 296.604C223.015 294.708 223.411 293.028 224.203 291.564C224.995 290.076 226.063 288.912 227.407 288.072C228.751 287.232 230.263 286.812 231.943 286.812C232.879 286.812 233.779 286.956 234.643 287.244C235.531 287.532 236.323 287.94 237.019 288.468C237.715 288.972 238.291 289.56 238.747 290.232C239.203 290.88 239.479 291.564 239.575 292.284L238.747 291.996V279.36H241.447V306H238.783L238.711 301.32L239.395 301.068C239.299 301.74 239.023 302.4 238.567 303.048C238.135 303.672 237.583 304.236 236.911 304.74C236.239 305.244 235.471 305.64 234.607 305.928C233.767 306.216 232.891 306.36 231.979 306.36ZM232.375 303.876C233.623 303.876 234.739 303.564 235.723 302.94C236.707 302.316 237.475 301.452 238.027 300.348C238.603 299.244 238.891 297.984 238.891 296.568C238.891 295.152 238.603 293.904 238.027 292.824C237.475 291.72 236.707 290.856 235.723 290.232C234.739 289.584 233.623 289.26 232.375 289.26C231.079 289.26 229.939 289.584 228.955 290.232C227.995 290.856 227.227 291.72 226.651 292.824C226.099 293.904 225.823 295.152 225.823 296.568C225.823 297.96 226.099 299.208 226.651 300.312C227.203 301.416 227.971 302.292 228.955 302.94C229.939 303.564 231.079 303.876 232.375 303.876ZM247.714 297.324C247.546 295.812 247.414 294.252 247.318 292.644C247.222 291.012 247.15 289.404 247.102 287.82C247.054 286.236 247.03 284.736 247.03 283.32V280.8H249.946V283.32C249.946 284.808 249.922 286.368 249.874 288C249.826 289.632 249.742 291.252 249.622 292.86C249.526 294.444 249.394 295.932 249.226 297.324H247.714ZM248.362 306.36C247.714 306.36 247.21 306.168 246.85 305.784C246.514 305.4 246.346 304.848 246.346 304.128C246.346 303.48 246.526 302.952 246.886 302.544C247.27 302.112 247.762 301.896 248.362 301.896C249.01 301.896 249.502 302.1 249.838 302.508C250.198 302.892 250.378 303.432 250.378 304.128C250.378 304.8 250.186 305.34 249.802 305.748C249.442 306.156 248.962 306.36 248.362 306.36Z" fill="#0A0A0A"/>
<path d="M43.7479 350V344.416L43.8599 345.2L39.3319 338.8H41.4119L44.8679 343.76L44.4679 343.712L47.5879 338.8H49.5719L45.2359 345.376L45.4759 344.288V350H43.7479ZM53.3811 350.16C52.5598 350.16 51.8238 349.973 51.1731 349.6C50.5331 349.216 50.0265 348.699 49.6531 348.048C49.2798 347.387 49.0931 346.635 49.0931 345.792C49.0931 344.949 49.2798 344.203 49.6531 343.552C50.0265 342.891 50.5331 342.373 51.1731 342C51.8238 341.616 52.5598 341.424 53.3811 341.424C54.1918 341.424 54.9171 341.616 55.5571 342C56.2078 342.373 56.7198 342.891 57.0931 343.552C57.4665 344.203 57.6531 344.949 57.6531 345.792C57.6531 346.635 57.4665 347.387 57.0931 348.048C56.7198 348.699 56.2078 349.216 55.5571 349.6C54.9171 349.973 54.1918 350.16 53.3811 350.16ZM53.3811 348.656C53.8825 348.656 54.3305 348.533 54.7251 348.288C55.1198 348.032 55.4291 347.691 55.6531 347.264C55.8771 346.827 55.9838 346.336 55.9731 345.792C55.9838 345.237 55.8771 344.747 55.6531 344.32C55.4291 343.883 55.1198 343.541 54.7251 343.296C54.3305 343.051 53.8825 342.928 53.3811 342.928C52.8798 342.928 52.4265 343.056 52.0211 343.312C51.6265 343.557 51.3171 343.899 51.0931 344.336C50.8691 344.763 50.7625 345.248 50.7731 345.792C50.7625 346.336 50.8691 346.827 51.0931 347.264C51.3171 347.691 51.6265 348.032 52.0211 348.288C52.4265 348.533 52.8798 348.656 53.3811 348.656ZM62.3929 350.16C61.7955 350.16 61.2729 350.021 60.8249 349.744C60.3875 349.467 60.0462 349.077 59.8009 348.576C59.5662 348.075 59.4489 347.477 59.4489 346.784V341.6H61.0969V346.336C61.0969 346.827 61.1715 347.253 61.3209 347.616C61.4809 347.968 61.7049 348.24 61.9929 348.432C62.2915 348.624 62.6489 348.72 63.0649 348.72C63.3742 348.72 63.6569 348.672 63.9129 348.576C64.1689 348.469 64.3875 348.325 64.5689 348.144C64.7609 347.963 64.9102 347.744 65.0169 347.488C65.1235 347.232 65.1769 346.955 65.1769 346.656V341.6H66.8249V350H65.1769V348.24L65.4649 348.048C65.3369 348.443 65.1182 348.8 64.8089 349.12C64.5102 349.44 64.1529 349.696 63.7369 349.888C63.3209 350.069 62.8729 350.16 62.3929 350.16ZM77.1888 350.16C76.4101 350.16 75.7114 349.968 75.0928 349.584C74.4848 349.2 73.9994 348.677 73.6368 348.016C73.2848 347.355 73.1088 346.613 73.1088 345.792C73.1088 344.971 73.2848 344.229 73.6368 343.568C73.9994 342.907 74.4848 342.384 75.0928 342C75.7114 341.616 76.4101 341.424 77.1888 341.424C77.9354 341.424 78.6128 341.579 79.2208 341.888C79.8394 342.187 80.3088 342.597 80.6288 343.12L79.7168 344.24C79.5461 343.995 79.3274 343.771 79.0608 343.568C78.7941 343.365 78.5114 343.205 78.2128 343.088C77.9141 342.971 77.6261 342.912 77.3488 342.912C76.8368 342.912 76.3781 343.04 75.9728 343.296C75.5781 343.541 75.2634 343.883 75.0288 344.32C74.7941 344.757 74.6768 345.248 74.6768 345.792C74.6768 346.336 74.7994 346.827 75.0448 347.264C75.2901 347.691 75.6154 348.032 76.0208 348.288C76.4261 348.544 76.8741 348.672 77.3648 348.672C77.6528 348.672 77.9301 348.624 78.1968 348.528C78.4741 348.432 78.7408 348.288 78.9968 348.096C79.2528 347.904 79.4928 347.669 79.7168 347.392L80.6288 348.512C80.2874 348.992 79.7968 349.387 79.1568 349.696C78.5274 350.005 77.8714 350.16 77.1888 350.16ZM85.4153 350.16C84.7219 350.16 84.0873 349.968 83.5113 349.584C82.9459 349.2 82.4926 348.677 82.1513 348.016C81.8099 347.355 81.6393 346.608 81.6393 345.776C81.6393 344.933 81.8099 344.187 82.1513 343.536C82.5033 342.875 82.9726 342.357 83.5593 341.984C84.1566 341.611 84.8233 341.424 85.5593 341.424C85.9966 341.424 86.3966 341.488 86.7593 341.616C87.1219 341.744 87.4366 341.925 87.7033 342.16C87.9806 342.384 88.2046 342.645 88.3753 342.944C88.5566 343.243 88.6686 343.563 88.7113 343.904L88.3433 343.776V341.6H90.0073V350H88.3433V348L88.7273 347.888C88.6633 348.176 88.5299 348.459 88.3273 348.736C88.1353 349.003 87.8846 349.243 87.5753 349.456C87.2766 349.669 86.9406 349.84 86.5673 349.968C86.2046 350.096 85.8206 350.16 85.4153 350.16ZM85.8473 348.64C86.3486 348.64 86.7913 348.517 87.1753 348.272C87.5593 348.027 87.8579 347.691 88.0713 347.264C88.2953 346.827 88.4073 346.331 88.4073 345.776C88.4073 345.232 88.2953 344.747 88.0713 344.32C87.8579 343.893 87.5593 343.557 87.1753 343.312C86.7913 343.067 86.3486 342.944 85.8473 342.944C85.3566 342.944 84.9193 343.067 84.5353 343.312C84.1619 343.557 83.8633 343.893 83.6393 344.32C83.4259 344.747 83.3193 345.232 83.3193 345.776C83.3193 346.331 83.4259 346.827 83.6393 347.264C83.8633 347.691 84.1619 348.027 84.5353 348.272C84.9193 348.517 85.3566 348.64 85.8473 348.64ZM92.3083 350V341.6H93.9563V343.328L93.6683 343.52C93.7749 343.147 93.9829 342.805 94.2923 342.496C94.6016 342.176 94.9696 341.92 95.3963 341.728C95.8229 341.525 96.2603 341.424 96.7083 341.424C97.3483 341.424 97.8816 341.552 98.3083 341.808C98.7349 342.053 99.0549 342.432 99.2683 342.944C99.4816 343.456 99.5883 344.101 99.5883 344.88V350H97.9403V344.992C97.9403 344.512 97.8763 344.117 97.7483 343.808C97.6203 343.488 97.4229 343.259 97.1563 343.12C96.8896 342.971 96.5589 342.907 96.1643 342.928C95.8443 342.928 95.5509 342.981 95.2843 343.088C95.0176 343.184 94.7829 343.323 94.5803 343.504C94.3883 343.685 94.2336 343.899 94.1163 344.144C94.0096 344.379 93.9563 344.635 93.9563 344.912V350H93.1403C93.0016 350 92.8629 350 92.7243 350C92.5856 350 92.4469 350 92.3083 350ZM109.108 350.16C108.404 350.16 107.77 350.037 107.204 349.792C106.639 349.547 106.17 349.184 105.796 348.704L106.916 347.744C107.236 348.117 107.583 348.389 107.956 348.56C108.34 348.72 108.772 348.8 109.252 348.8C109.444 348.8 109.62 348.779 109.78 348.736C109.951 348.683 110.095 348.608 110.212 348.512C110.34 348.416 110.436 348.304 110.5 348.176C110.564 348.037 110.596 347.888 110.596 347.728C110.596 347.451 110.495 347.227 110.292 347.056C110.186 346.981 110.015 346.901 109.78 346.816C109.556 346.72 109.263 346.624 108.9 346.528C108.282 346.368 107.775 346.187 107.38 345.984C106.986 345.781 106.682 345.552 106.468 345.296C106.308 345.093 106.191 344.875 106.116 344.64C106.042 344.395 106.004 344.128 106.004 343.84C106.004 343.488 106.079 343.168 106.228 342.88C106.388 342.581 106.602 342.325 106.868 342.112C107.146 341.888 107.466 341.717 107.828 341.6C108.202 341.483 108.596 341.424 109.012 341.424C109.407 341.424 109.796 341.477 110.18 341.584C110.575 341.691 110.938 341.845 111.268 342.048C111.599 342.251 111.876 342.491 112.1 342.768L111.156 343.808C110.954 343.605 110.73 343.429 110.484 343.28C110.25 343.12 110.01 342.997 109.764 342.912C109.519 342.827 109.295 342.784 109.092 342.784C108.868 342.784 108.666 342.805 108.484 342.848C108.303 342.891 108.148 342.955 108.02 343.04C107.903 343.125 107.812 343.232 107.748 343.36C107.684 343.488 107.652 343.632 107.652 343.792C107.663 343.931 107.695 344.064 107.748 344.192C107.812 344.309 107.898 344.411 108.004 344.496C108.122 344.581 108.298 344.672 108.532 344.768C108.767 344.864 109.066 344.955 109.428 345.04C109.962 345.179 110.399 345.333 110.74 345.504C111.092 345.664 111.37 345.851 111.572 346.064C111.786 346.267 111.935 346.501 112.02 346.768C112.106 347.035 112.148 347.333 112.148 347.664C112.148 348.144 112.01 348.576 111.732 348.96C111.466 349.333 111.103 349.627 110.644 349.84C110.186 350.053 109.674 350.16 109.108 350.16ZM114.237 350V341.6H115.885V350H114.237ZM115.037 339.744C114.685 339.744 114.413 339.653 114.221 339.472C114.029 339.291 113.933 339.035 113.933 338.704C113.933 338.395 114.029 338.144 114.221 337.952C114.423 337.76 114.695 337.664 115.037 337.664C115.389 337.664 115.661 337.755 115.853 337.936C116.045 338.117 116.141 338.373 116.141 338.704C116.141 339.013 116.039 339.264 115.837 339.456C115.645 339.648 115.378 339.744 115.037 339.744ZM122.178 353.68C121.58 353.68 120.983 353.584 120.386 353.392C119.799 353.211 119.324 352.971 118.962 352.672L119.57 351.392C119.783 351.552 120.034 351.691 120.322 351.808C120.61 351.936 120.914 352.032 121.234 352.096C121.554 352.171 121.868 352.208 122.178 352.208C122.764 352.208 123.255 352.112 123.65 351.92C124.044 351.728 124.343 351.445 124.546 351.072C124.748 350.699 124.85 350.235 124.85 349.68V348.064L125.026 348.176C124.972 348.507 124.796 348.827 124.498 349.136C124.21 349.435 123.847 349.68 123.41 349.872C122.972 350.064 122.524 350.16 122.066 350.16C121.266 350.16 120.551 349.973 119.922 349.6C119.303 349.216 118.812 348.699 118.45 348.048C118.087 347.387 117.906 346.635 117.906 345.792C117.906 344.949 118.082 344.203 118.434 343.552C118.796 342.891 119.287 342.373 119.906 342C120.535 341.616 121.239 341.424 122.018 341.424C122.338 341.424 122.647 341.467 122.946 341.552C123.244 341.627 123.522 341.739 123.778 341.888C124.034 342.027 124.263 342.181 124.466 342.352C124.668 342.523 124.834 342.704 124.962 342.896C125.09 343.088 125.17 343.269 125.202 343.44L124.85 343.568V341.6H126.498V349.488C126.498 350.16 126.396 350.752 126.194 351.264C126.002 351.787 125.719 352.224 125.346 352.576C124.972 352.939 124.519 353.211 123.986 353.392C123.452 353.584 122.85 353.68 122.178 353.68ZM122.242 348.64C122.764 348.64 123.228 348.517 123.634 348.272C124.039 348.027 124.354 347.691 124.578 347.264C124.802 346.837 124.914 346.347 124.914 345.792C124.914 345.237 124.796 344.747 124.562 344.32C124.338 343.883 124.023 343.541 123.618 343.296C123.223 343.051 122.764 342.928 122.242 342.928C121.73 342.928 121.271 343.056 120.866 343.312C120.471 343.557 120.156 343.899 119.922 344.336C119.698 344.763 119.586 345.248 119.586 345.792C119.586 346.336 119.698 346.827 119.922 347.264C120.156 347.691 120.471 348.027 120.866 348.272C121.271 348.517 121.73 348.64 122.242 348.64ZM128.808 350V341.6H130.456V343.328L130.168 343.52C130.275 343.147 130.483 342.805 130.792 342.496C131.102 342.176 131.47 341.92 131.896 341.728C132.323 341.525 132.76 341.424 133.208 341.424C133.848 341.424 134.382 341.552 134.808 341.808C135.235 342.053 135.555 342.432 135.768 342.944C135.982 343.456 136.088 344.101 136.088 344.88V350H134.44V344.992C134.44 344.512 134.376 344.117 134.248 343.808C134.12 343.488 133.923 343.259 133.656 343.12C133.39 342.971 133.059 342.907 132.664 342.928C132.344 342.928 132.051 342.981 131.784 343.088C131.518 343.184 131.283 343.323 131.08 343.504C130.888 343.685 130.734 343.899 130.616 344.144C130.51 344.379 130.456 344.635 130.456 344.912V350H129.64C129.502 350 129.363 350 129.224 350C129.086 350 128.947 350 128.808 350ZM143.08 350V341.6H144.728V350H143.08ZM143.88 339.744C143.528 339.744 143.256 339.653 143.064 339.472C142.872 339.291 142.776 339.035 142.776 338.704C142.776 338.395 142.872 338.144 143.064 337.952C143.267 337.76 143.539 337.664 143.88 337.664C144.232 337.664 144.504 337.755 144.696 337.936C144.888 338.117 144.984 338.373 144.984 338.704C144.984 339.013 144.883 339.264 144.68 339.456C144.488 339.648 144.222 339.744 143.88 339.744ZM147.261 350V341.6H148.909V343.328L148.621 343.52C148.728 343.147 148.936 342.805 149.245 342.496C149.555 342.176 149.923 341.92 150.349 341.728C150.776 341.525 151.213 341.424 151.661 341.424C152.301 341.424 152.835 341.552 153.261 341.808C153.688 342.053 154.008 342.432 154.221 342.944C154.435 343.456 154.541 344.101 154.541 344.88V350H152.893V344.992C152.893 344.512 152.829 344.117 152.701 343.808C152.573 343.488 152.376 343.259 152.109 343.12C151.843 342.971 151.512 342.907 151.117 342.928C150.797 342.928 150.504 342.981 150.237 343.088C149.971 343.184 149.736 343.323 149.533 343.504C149.341 343.685 149.187 343.899 149.069 344.144C148.963 344.379 148.909 344.635 148.909 344.912V350H148.093C147.955 350 147.816 350 147.677 350C147.539 350 147.4 350 147.261 350ZM164.205 350.16C163.608 350.16 163.085 350.021 162.637 349.744C162.2 349.467 161.859 349.077 161.613 348.576C161.379 348.075 161.261 347.477 161.261 346.784V341.6H162.909V346.336C162.909 346.827 162.984 347.253 163.133 347.616C163.293 347.968 163.517 348.24 163.805 348.432C164.104 348.624 164.461 348.72 164.877 348.72C165.187 348.72 165.469 348.672 165.725 348.576C165.981 348.469 166.2 348.325 166.381 348.144C166.573 347.963 166.723 347.744 166.829 347.488C166.936 347.232 166.989 346.955 166.989 346.656V341.6H168.637V350H166.989V348.24L167.277 348.048C167.149 348.443 166.931 348.8 166.621 349.12C166.323 349.44 165.965 349.696 165.549 349.888C165.133 350.069 164.685 350.16 164.205 350.16ZM173.749 350.16C173.045 350.16 172.41 350.037 171.845 349.792C171.28 349.547 170.81 349.184 170.437 348.704L171.557 347.744C171.877 348.117 172.224 348.389 172.597 348.56C172.981 348.72 173.413 348.8 173.893 348.8C174.085 348.8 174.261 348.779 174.421 348.736C174.592 348.683 174.736 348.608 174.853 348.512C174.981 348.416 175.077 348.304 175.141 348.176C175.205 348.037 175.237 347.888 175.237 347.728C175.237 347.451 175.136 347.227 174.933 347.056C174.826 346.981 174.656 346.901 174.421 346.816C174.197 346.72 173.904 346.624 173.541 346.528C172.922 346.368 172.416 346.187 172.021 345.984C171.626 345.781 171.322 345.552 171.109 345.296C170.949 345.093 170.832 344.875 170.757 344.64C170.682 344.395 170.645 344.128 170.645 343.84C170.645 343.488 170.72 343.168 170.869 342.88C171.029 342.581 171.242 342.325 171.509 342.112C171.786 341.888 172.106 341.717 172.469 341.6C172.842 341.483 173.237 341.424 173.653 341.424C174.048 341.424 174.437 341.477 174.821 341.584C175.216 341.691 175.578 341.845 175.909 342.048C176.24 342.251 176.517 342.491 176.741 342.768L175.797 343.808C175.594 343.605 175.37 343.429 175.125 343.28C174.89 343.12 174.65 342.997 174.405 342.912C174.16 342.827 173.936 342.784 173.733 342.784C173.509 342.784 173.306 342.805 173.125 342.848C172.944 342.891 172.789 342.955 172.661 343.04C172.544 343.125 172.453 343.232 172.389 343.36C172.325 343.488 172.293 343.632 172.293 343.792C172.304 343.931 172.336 344.064 172.389 344.192C172.453 344.309 172.538 344.411 172.645 344.496C172.762 344.581 172.938 344.672 173.173 344.768C173.408 344.864 173.706 344.955 174.069 345.04C174.602 345.179 175.04 345.333 175.381 345.504C175.733 345.664 176.01 345.851 176.213 346.064C176.426 346.267 176.576 346.501 176.661 346.768C176.746 347.035 176.789 347.333 176.789 347.664C176.789 348.144 176.65 348.576 176.373 348.96C176.106 349.333 175.744 349.627 175.285 349.84C174.826 350.053 174.314 350.16 173.749 350.16ZM178.877 350V341.6H180.525V350H178.877ZM179.677 339.744C179.325 339.744 179.053 339.653 178.861 339.472C178.669 339.291 178.573 339.035 178.573 338.704C178.573 338.395 178.669 338.144 178.861 337.952C179.064 337.76 179.336 337.664 179.677 337.664C180.029 337.664 180.301 337.755 180.493 337.936C180.685 338.117 180.781 338.373 180.781 338.704C180.781 339.013 180.68 339.264 180.477 339.456C180.285 339.648 180.018 339.744 179.677 339.744ZM183.058 350V341.6H184.706V343.328L184.418 343.52C184.525 343.147 184.733 342.805 185.042 342.496C185.352 342.176 185.72 341.92 186.146 341.728C186.573 341.525 187.01 341.424 187.458 341.424C188.098 341.424 188.632 341.552 189.058 341.808C189.485 342.053 189.805 342.432 190.018 342.944C190.232 343.456 190.338 344.101 190.338 344.88V350H188.69V344.992C188.69 344.512 188.626 344.117 188.498 343.808C188.37 343.488 188.173 343.259 187.906 343.12C187.64 342.971 187.309 342.907 186.914 342.928C186.594 342.928 186.301 342.981 186.034 343.088C185.768 343.184 185.533 343.323 185.33 343.504C185.138 343.685 184.984 343.899 184.866 344.144C184.76 344.379 184.706 344.635 184.706 344.912V350H183.89C183.752 350 183.613 350 183.474 350C183.336 350 183.197 350 183.058 350ZM196.334 353.68C195.737 353.68 195.139 353.584 194.542 353.392C193.955 353.211 193.481 352.971 193.118 352.672L193.726 351.392C193.939 351.552 194.19 351.691 194.478 351.808C194.766 351.936 195.07 352.032 195.39 352.096C195.71 352.171 196.025 352.208 196.334 352.208C196.921 352.208 197.411 352.112 197.806 351.92C198.201 351.728 198.499 351.445 198.702 351.072C198.905 350.699 199.006 350.235 199.006 349.68V348.064L199.182 348.176C199.129 348.507 198.953 348.827 198.654 349.136C198.366 349.435 198.003 349.68 197.566 349.872C197.129 350.064 196.681 350.16 196.222 350.16C195.422 350.16 194.707 349.973 194.078 349.6C193.459 349.216 192.969 348.699 192.606 348.048C192.243 347.387 192.062 346.635 192.062 345.792C192.062 344.949 192.238 344.203 192.59 343.552C192.953 342.891 193.443 342.373 194.062 342C194.691 341.616 195.395 341.424 196.174 341.424C196.494 341.424 196.803 341.467 197.102 341.552C197.401 341.627 197.678 341.739 197.934 341.888C198.19 342.027 198.419 342.181 198.622 342.352C198.825 342.523 198.99 342.704 199.118 342.896C199.246 343.088 199.326 343.269 199.358 343.44L199.006 343.568V341.6H200.654V349.488C200.654 350.16 200.553 350.752 200.35 351.264C200.158 351.787 199.875 352.224 199.502 352.576C199.129 352.939 198.675 353.211 198.142 353.392C197.609 353.584 197.006 353.68 196.334 353.68ZM196.398 348.64C196.921 348.64 197.385 348.517 197.79 348.272C198.195 348.027 198.51 347.691 198.734 347.264C198.958 346.837 199.07 346.347 199.07 345.792C199.07 345.237 198.953 344.747 198.718 344.32C198.494 343.883 198.179 343.541 197.774 343.296C197.379 343.051 196.921 342.928 196.398 342.928C195.886 342.928 195.427 343.056 195.022 343.312C194.627 343.557 194.313 343.899 194.078 344.336C193.854 344.763 193.742 345.248 193.742 345.792C193.742 346.336 193.854 346.827 194.078 347.264C194.313 347.691 194.627 348.027 195.022 348.272C195.427 348.517 195.886 348.64 196.398 348.64ZM208.857 353.68L210.553 349.76L210.569 351.072L206.377 341.6H208.297L210.921 347.776C210.974 347.883 211.038 348.048 211.113 348.272C211.188 348.485 211.252 348.699 211.305 348.912L210.889 349.008C210.974 348.784 211.054 348.56 211.129 348.336C211.214 348.112 211.294 347.888 211.369 347.664L213.561 341.6H215.513L212.057 350L210.633 353.68H208.857ZM220.366 350.16C219.544 350.16 218.808 349.973 218.158 349.6C217.518 349.216 217.011 348.699 216.638 348.048C216.264 347.387 216.078 346.635 216.078 345.792C216.078 344.949 216.264 344.203 216.638 343.552C217.011 342.891 217.518 342.373 218.158 342C218.808 341.616 219.544 341.424 220.366 341.424C221.176 341.424 221.902 341.616 222.542 342C223.192 342.373 223.704 342.891 224.078 343.552C224.451 344.203 224.638 344.949 224.638 345.792C224.638 346.635 224.451 347.387 224.078 348.048C223.704 348.699 223.192 349.216 222.542 349.6C221.902 349.973 221.176 350.16 220.366 350.16ZM220.366 348.656C220.867 348.656 221.315 348.533 221.71 348.288C222.104 348.032 222.414 347.691 222.638 347.264C222.862 346.827 222.968 346.336 222.958 345.792C222.968 345.237 222.862 344.747 222.638 344.32C222.414 343.883 222.104 343.541 221.71 343.296C221.315 343.051 220.867 342.928 220.366 342.928C219.864 342.928 219.411 343.056 219.006 343.312C218.611 343.557 218.302 343.899 218.078 344.336C217.854 344.763 217.747 345.248 217.758 345.792C217.747 346.336 217.854 346.827 218.078 347.264C218.302 347.691 218.611 348.032 219.006 348.288C219.411 348.533 219.864 348.656 220.366 348.656ZM229.377 350.16C228.78 350.16 228.257 350.021 227.809 349.744C227.372 349.467 227.031 349.077 226.785 348.576C226.551 348.075 226.433 347.477 226.433 346.784V341.6H228.081V346.336C228.081 346.827 228.156 347.253 228.305 347.616C228.465 347.968 228.689 348.24 228.977 348.432C229.276 348.624 229.633 348.72 230.049 348.72C230.359 348.72 230.641 348.672 230.897 348.576C231.153 348.469 231.372 348.325 231.553 348.144C231.745 347.963 231.895 347.744 232.001 347.488C232.108 347.232 232.161 346.955 232.161 346.656V341.6H233.809V350H232.161V348.24L232.449 348.048C232.321 348.443 232.103 348.8 231.793 349.12C231.495 349.44 231.137 349.696 230.721 349.888C230.305 350.069 229.857 350.16 229.377 350.16ZM236.121 350V341.6H237.785V344.24L237.625 343.6C237.742 343.195 237.939 342.827 238.217 342.496C238.505 342.165 238.83 341.904 239.193 341.712C239.566 341.52 239.95 341.424 240.345 341.424C240.526 341.424 240.697 341.44 240.857 341.472C241.027 341.504 241.161 341.541 241.257 341.584L240.825 343.376C240.697 343.323 240.553 343.28 240.393 343.248C240.243 343.205 240.094 343.184 239.945 343.184C239.657 343.184 239.379 343.243 239.113 343.36C238.857 343.467 238.627 343.621 238.425 343.824C238.233 344.016 238.078 344.245 237.961 344.512C237.843 344.768 237.785 345.051 237.785 345.36V350H236.121ZM250.562 350.16C249.794 350.16 249.106 349.973 248.498 349.6C247.901 349.216 247.426 348.699 247.074 348.048C246.722 347.387 246.546 346.635 246.546 345.792C246.546 344.949 246.717 344.203 247.058 343.552C247.41 342.891 247.885 342.373 248.482 342C249.08 341.616 249.757 341.424 250.514 341.424C250.93 341.424 251.33 341.493 251.714 341.632C252.109 341.76 252.461 341.941 252.77 342.176C253.08 342.4 253.32 342.651 253.49 342.928C253.672 343.195 253.762 343.467 253.762 343.744L253.282 343.776V338.16H254.93V350H253.282V348H253.602C253.602 348.256 253.517 348.512 253.346 348.768C253.176 349.013 252.946 349.243 252.658 349.456C252.381 349.669 252.056 349.84 251.682 349.968C251.32 350.096 250.946 350.16 250.562 350.16ZM250.786 348.736C251.288 348.736 251.73 348.608 252.114 348.352C252.498 348.096 252.797 347.749 253.01 347.312C253.234 346.864 253.346 346.357 253.346 345.792C253.346 345.227 253.234 344.725 253.01 344.288C252.797 343.84 252.498 343.488 252.114 343.232C251.73 342.976 251.288 342.848 250.786 342.848C250.285 342.848 249.842 342.976 249.458 343.232C249.074 343.488 248.77 343.84 248.546 344.288C248.333 344.725 248.226 345.227 248.226 345.792C248.226 346.357 248.333 346.864 248.546 347.312C248.77 347.749 249.074 348.096 249.458 348.352C249.842 348.608 250.285 348.736 250.786 348.736ZM261.119 350.16C260.255 350.16 259.487 349.979 258.815 349.616C258.154 349.243 257.631 348.736 257.247 348.096C256.874 347.456 256.687 346.72 256.687 345.888C256.687 345.227 256.794 344.624 257.007 344.08C257.22 343.536 257.514 343.067 257.887 342.672C258.271 342.267 258.724 341.957 259.247 341.744C259.78 341.52 260.356 341.408 260.975 341.408C261.519 341.408 262.026 341.515 262.495 341.728C262.964 341.931 263.37 342.213 263.711 342.576C264.063 342.939 264.33 343.371 264.511 343.872C264.703 344.363 264.794 344.901 264.783 345.488L264.767 346.192H257.903L257.535 344.88H263.343L263.103 345.152V344.768C263.071 344.416 262.954 344.101 262.751 343.824C262.548 343.547 262.292 343.328 261.983 343.168C261.674 343.008 261.338 342.928 260.975 342.928C260.399 342.928 259.914 343.04 259.519 343.264C259.124 343.477 258.826 343.797 258.623 344.224C258.42 344.64 258.319 345.157 258.319 345.776C258.319 346.363 258.442 346.875 258.687 347.312C258.932 347.739 259.279 348.069 259.727 348.304C260.175 348.539 260.692 348.656 261.279 348.656C261.695 348.656 262.079 348.587 262.431 348.448C262.794 348.309 263.183 348.059 263.599 347.696L264.431 348.864C264.175 349.12 263.86 349.344 263.487 349.536C263.124 349.728 262.735 349.883 262.319 350C261.914 350.107 261.514 350.16 261.119 350.16ZM269.17 350L265.618 341.6H267.394L269.954 347.888L269.65 348.032L272.386 341.6H274.082L270.354 350H269.17ZM275.862 350V341.6H277.51V350H275.862ZM276.662 339.744C276.31 339.744 276.038 339.653 275.846 339.472C275.654 339.291 275.558 339.035 275.558 338.704C275.558 338.395 275.654 338.144 275.846 337.952C276.048 337.76 276.32 337.664 276.662 337.664C277.014 337.664 277.286 337.755 277.478 337.936C277.67 338.117 277.766 338.373 277.766 338.704C277.766 339.013 277.664 339.264 277.462 339.456C277.27 339.648 277.003 339.744 276.662 339.744ZM283.611 350.16C282.832 350.16 282.133 349.968 281.515 349.584C280.907 349.2 280.421 348.677 280.059 348.016C279.707 347.355 279.531 346.613 279.531 345.792C279.531 344.971 279.707 344.229 280.059 343.568C280.421 342.907 280.907 342.384 281.515 342C282.133 341.616 282.832 341.424 283.611 341.424C284.357 341.424 285.035 341.579 285.643 341.888C286.261 342.187 286.731 342.597 287.051 343.12L286.139 344.24C285.968 343.995 285.749 343.771 285.483 343.568C285.216 343.365 284.933 343.205 284.635 343.088C284.336 342.971 284.048 342.912 283.771 342.912C283.259 342.912 282.8 343.04 282.395 343.296C282 343.541 281.685 343.883 281.451 344.32C281.216 344.757 281.099 345.248 281.099 345.792C281.099 346.336 281.221 346.827 281.467 347.264C281.712 347.691 282.037 348.032 282.443 348.288C282.848 348.544 283.296 348.672 283.787 348.672C284.075 348.672 284.352 348.624 284.619 348.528C284.896 348.432 285.163 348.288 285.419 348.096C285.675 347.904 285.915 347.669 286.139 347.392L287.051 348.512C286.709 348.992 286.219 349.387 285.579 349.696C284.949 350.005 284.293 350.16 283.611 350.16ZM292.525 350.16C291.661 350.16 290.893 349.979 290.221 349.616C289.56 349.243 289.037 348.736 288.653 348.096C288.28 347.456 288.093 346.72 288.093 345.888C288.093 345.227 288.2 344.624 288.413 344.08C288.626 343.536 288.92 343.067 289.293 342.672C289.677 342.267 290.13 341.957 290.653 341.744C291.186 341.52 291.762 341.408 292.381 341.408C292.925 341.408 293.432 341.515 293.901 341.728C294.37 341.931 294.776 342.213 295.117 342.576C295.469 342.939 295.736 343.371 295.917 343.872C296.109 344.363 296.2 344.901 296.189 345.488L296.173 346.192H289.309L288.941 344.88H294.749L294.509 345.152V344.768C294.477 344.416 294.36 344.101 294.157 343.824C293.954 343.547 293.698 343.328 293.389 343.168C293.08 343.008 292.744 342.928 292.381 342.928C291.805 342.928 291.32 343.04 290.925 343.264C290.53 343.477 290.232 343.797 290.029 344.224C289.826 344.64 289.725 345.157 289.725 345.776C289.725 346.363 289.848 346.875 290.093 347.312C290.338 347.739 290.685 348.069 291.133 348.304C291.581 348.539 292.098 348.656 292.685 348.656C293.101 348.656 293.485 348.587 293.837 348.448C294.2 348.309 294.589 348.059 295.005 347.696L295.837 348.864C295.581 349.12 295.266 349.344 294.893 349.536C294.53 349.728 294.141 349.883 293.725 350C293.32 350.107 292.92 350.16 292.525 350.16ZM102.584 376.16C102.221 376.16 101.858 376.101 101.496 375.984C101.144 375.867 100.818 375.712 100.52 375.52C100.232 375.317 99.9863 375.099 99.7836 374.864C99.5916 374.619 99.4636 374.373 99.3996 374.128L99.8156 373.904V375.952H98.1676V364.16H99.8156V369.52L99.5596 369.376C99.613 369.131 99.7303 368.896 99.9116 368.672C100.093 368.437 100.322 368.229 100.6 368.048C100.888 367.856 101.197 367.707 101.528 367.6C101.858 367.483 102.194 367.424 102.536 367.424C103.293 367.424 103.965 367.611 104.552 367.984C105.138 368.357 105.602 368.875 105.944 369.536C106.285 370.187 106.456 370.933 106.456 371.776C106.456 372.619 106.285 373.371 105.944 374.032C105.613 374.693 105.154 375.216 104.568 375.6C103.981 375.973 103.32 376.16 102.584 376.16ZM102.312 374.656C102.802 374.656 103.24 374.533 103.624 374.288C104.008 374.032 104.312 373.691 104.536 373.264C104.76 372.827 104.872 372.331 104.872 371.776C104.872 371.232 104.76 370.747 104.536 370.32C104.322 369.883 104.024 369.541 103.64 369.296C103.256 369.051 102.813 368.928 102.312 368.928C101.81 368.928 101.368 369.051 100.984 369.296C100.6 369.541 100.296 369.883 100.072 370.32C99.8476 370.747 99.7356 371.232 99.7356 371.776C99.7356 372.331 99.8476 372.827 100.072 373.264C100.296 373.691 100.6 374.032 100.984 374.288C101.368 374.533 101.81 374.656 102.312 374.656ZM108.518 376V367.6H110.166V376H108.518ZM109.318 365.744C108.966 365.744 108.694 365.653 108.502 365.472C108.31 365.291 108.214 365.035 108.214 364.704C108.214 364.395 108.31 364.144 108.502 363.952C108.704 363.76 108.976 363.664 109.318 363.664C109.67 363.664 109.942 363.755 110.134 363.936C110.326 364.117 110.422 364.373 110.422 364.704C110.422 365.013 110.32 365.264 110.118 365.456C109.926 365.648 109.659 365.744 109.318 365.744ZM116.475 376.16C115.654 376.16 114.918 375.973 114.267 375.6C113.627 375.216 113.12 374.699 112.747 374.048C112.374 373.387 112.187 372.635 112.187 371.792C112.187 370.949 112.374 370.203 112.747 369.552C113.12 368.891 113.627 368.373 114.267 368C114.918 367.616 115.654 367.424 116.475 367.424C117.286 367.424 118.011 367.616 118.651 368C119.302 368.373 119.814 368.891 120.187 369.552C120.56 370.203 120.747 370.949 120.747 371.792C120.747 372.635 120.56 373.387 120.187 374.048C119.814 374.699 119.302 375.216 118.651 375.6C118.011 375.973 117.286 376.16 116.475 376.16ZM116.475 374.656C116.976 374.656 117.424 374.533 117.819 374.288C118.214 374.032 118.523 373.691 118.747 373.264C118.971 372.827 119.078 372.336 119.067 371.792C119.078 371.237 118.971 370.747 118.747 370.32C118.523 369.883 118.214 369.541 117.819 369.296C117.424 369.051 116.976 368.928 116.475 368.928C115.974 368.928 115.52 369.056 115.115 369.312C114.72 369.557 114.411 369.899 114.187 370.336C113.963 370.763 113.856 371.248 113.867 371.792C113.856 372.336 113.963 372.827 114.187 373.264C114.411 373.691 114.72 374.032 115.115 374.288C115.52 374.533 115.974 374.656 116.475 374.656ZM122.511 376V367.6H124.175V369.392L123.871 369.584C123.956 369.307 124.089 369.04 124.271 368.784C124.463 368.528 124.692 368.304 124.959 368.112C125.236 367.909 125.529 367.749 125.839 367.632C126.159 367.515 126.484 367.456 126.815 367.456C127.295 367.456 127.716 367.536 128.079 367.696C128.441 367.856 128.74 368.096 128.975 368.416C129.209 368.736 129.38 369.136 129.487 369.616L129.231 369.552L129.343 369.28C129.46 369.035 129.62 368.805 129.823 368.592C130.036 368.368 130.276 368.171 130.543 368C130.809 367.829 131.092 367.696 131.391 367.6C131.689 367.504 131.983 367.456 132.271 367.456C132.9 367.456 133.417 367.584 133.823 367.84C134.239 368.096 134.548 368.485 134.751 369.008C134.964 369.531 135.071 370.181 135.071 370.96V376H133.407V371.056C133.407 370.576 133.343 370.187 133.215 369.888C133.097 369.579 132.916 369.349 132.671 369.2C132.425 369.051 132.111 368.976 131.727 368.976C131.428 368.976 131.145 369.029 130.879 369.136C130.623 369.232 130.399 369.371 130.207 369.552C130.015 369.733 129.865 369.947 129.759 370.192C129.652 370.427 129.599 370.688 129.599 370.976V376H127.935V371.024C127.935 370.587 127.871 370.219 127.743 369.92C127.615 369.611 127.428 369.376 127.183 369.216C126.937 369.056 126.639 368.976 126.287 368.976C125.988 368.976 125.711 369.029 125.455 369.136C125.199 369.232 124.975 369.371 124.783 369.552C124.591 369.723 124.441 369.931 124.335 370.176C124.228 370.411 124.175 370.667 124.175 370.944V376H122.511ZM141.197 376.16C140.333 376.16 139.565 375.979 138.893 375.616C138.232 375.243 137.709 374.736 137.325 374.096C136.952 373.456 136.765 372.72 136.765 371.888C136.765 371.227 136.872 370.624 137.085 370.08C137.298 369.536 137.592 369.067 137.965 368.672C138.349 368.267 138.802 367.957 139.325 367.744C139.858 367.52 140.434 367.408 141.053 367.408C141.597 367.408 142.104 367.515 142.573 367.728C143.042 367.931 143.448 368.213 143.789 368.576C144.141 368.939 144.408 369.371 144.589 369.872C144.781 370.363 144.872 370.901 144.861 371.488L144.845 372.192H137.981L137.613 370.88H143.421L143.181 371.152V370.768C143.149 370.416 143.032 370.101 142.829 369.824C142.626 369.547 142.37 369.328 142.061 369.168C141.752 369.008 141.416 368.928 141.053 368.928C140.477 368.928 139.992 369.04 139.597 369.264C139.202 369.477 138.904 369.797 138.701 370.224C138.498 370.64 138.397 371.157 138.397 371.776C138.397 372.363 138.52 372.875 138.765 373.312C139.01 373.739 139.357 374.069 139.805 374.304C140.253 374.539 140.77 374.656 141.357 374.656C141.773 374.656 142.157 374.587 142.509 374.448C142.872 374.309 143.261 374.059 143.677 373.696L144.509 374.864C144.253 375.12 143.938 375.344 143.565 375.536C143.202 375.728 142.813 375.883 142.397 376C141.992 376.107 141.592 376.16 141.197 376.16ZM147.692 376V365.456H149.34V376H147.692ZM145.948 369.2V367.6H151.292V369.2H145.948ZM152.793 376V367.6H154.457V370.24L154.297 369.6C154.414 369.195 154.611 368.827 154.889 368.496C155.177 368.165 155.502 367.904 155.865 367.712C156.238 367.52 156.622 367.424 157.017 367.424C157.198 367.424 157.369 367.44 157.529 367.472C157.699 367.504 157.833 367.541 157.929 367.584L157.497 369.376C157.369 369.323 157.225 369.28 157.065 369.248C156.915 369.205 156.766 369.184 156.617 369.184C156.329 369.184 156.051 369.243 155.785 369.36C155.529 369.467 155.299 369.621 155.097 369.824C154.905 370.016 154.75 370.245 154.633 370.512C154.515 370.768 154.457 371.051 154.457 371.36V376H152.793ZM159.518 376V367.6H161.166V376H159.518ZM160.318 365.744C159.966 365.744 159.694 365.653 159.502 365.472C159.31 365.291 159.214 365.035 159.214 364.704C159.214 364.395 159.31 364.144 159.502 363.952C159.704 363.76 159.976 363.664 160.318 363.664C160.67 363.664 160.942 363.755 161.134 363.936C161.326 364.117 161.422 364.373 161.422 364.704C161.422 365.013 161.32 365.264 161.118 365.456C160.926 365.648 160.659 365.744 160.318 365.744ZM167.267 376.16C166.488 376.16 165.79 375.968 165.171 375.584C164.563 375.2 164.078 374.677 163.715 374.016C163.363 373.355 163.187 372.613 163.187 371.792C163.187 370.971 163.363 370.229 163.715 369.568C164.078 368.907 164.563 368.384 165.171 368C165.79 367.616 166.488 367.424 167.267 367.424C168.014 367.424 168.691 367.579 169.299 367.888C169.918 368.187 170.387 368.597 170.707 369.12L169.795 370.24C169.624 369.995 169.406 369.771 169.139 369.568C168.872 369.365 168.59 369.205 168.291 369.088C167.992 368.971 167.704 368.912 167.427 368.912C166.915 368.912 166.456 369.04 166.051 369.296C165.656 369.541 165.342 369.883 165.107 370.32C164.872 370.757 164.755 371.248 164.755 371.792C164.755 372.336 164.878 372.827 165.123 373.264C165.368 373.691 165.694 374.032 166.099 374.288C166.504 374.544 166.952 374.672 167.443 374.672C167.731 374.672 168.008 374.624 168.275 374.528C168.552 374.432 168.819 374.288 169.075 374.096C169.331 373.904 169.571 373.669 169.795 373.392L170.707 374.512C170.366 374.992 169.875 375.387 169.235 375.696C168.606 376.005 167.95 376.16 167.267 376.16ZM176.714 376V367.6H178.378V369.392L178.074 369.584C178.159 369.307 178.292 369.04 178.474 368.784C178.666 368.528 178.895 368.304 179.162 368.112C179.439 367.909 179.732 367.749 180.042 367.632C180.362 367.515 180.687 367.456 181.018 367.456C181.498 367.456 181.919 367.536 182.282 367.696C182.644 367.856 182.943 368.096 183.178 368.416C183.412 368.736 183.583 369.136 183.69 369.616L183.434 369.552L183.546 369.28C183.663 369.035 183.823 368.805 184.026 368.592C184.239 368.368 184.479 368.171 184.746 368C185.012 367.829 185.295 367.696 185.594 367.6C185.892 367.504 186.186 367.456 186.474 367.456C187.103 367.456 187.62 367.584 188.026 367.84C188.442 368.096 188.751 368.485 188.954 369.008C189.167 369.531 189.274 370.181 189.274 370.96V376H187.61V371.056C187.61 370.576 187.546 370.187 187.418 369.888C187.3 369.579 187.119 369.349 186.874 369.2C186.628 369.051 186.314 368.976 185.93 368.976C185.631 368.976 185.348 369.029 185.082 369.136C184.826 369.232 184.602 369.371 184.41 369.552C184.218 369.733 184.068 369.947 183.962 370.192C183.855 370.427 183.802 370.688 183.802 370.976V376H182.138V371.024C182.138 370.587 182.074 370.219 181.946 369.92C181.818 369.611 181.631 369.376 181.386 369.216C181.14 369.056 180.842 368.976 180.49 368.976C180.191 368.976 179.914 369.029 179.658 369.136C179.402 369.232 179.178 369.371 178.986 369.552C178.794 369.723 178.644 369.931 178.538 370.176C178.431 370.411 178.378 370.667 178.378 370.944V376H176.714ZM195.4 376.16C194.536 376.16 193.768 375.979 193.096 375.616C192.435 375.243 191.912 374.736 191.528 374.096C191.155 373.456 190.968 372.72 190.968 371.888C190.968 371.227 191.075 370.624 191.288 370.08C191.501 369.536 191.795 369.067 192.168 368.672C192.552 368.267 193.005 367.957 193.528 367.744C194.061 367.52 194.637 367.408 195.256 367.408C195.8 367.408 196.307 367.515 196.776 367.728C197.245 367.931 197.651 368.213 197.992 368.576C198.344 368.939 198.611 369.371 198.792 369.872C198.984 370.363 199.075 370.901 199.064 371.488L199.048 372.192H192.184L191.816 370.88H197.624L197.384 371.152V370.768C197.352 370.416 197.235 370.101 197.032 369.824C196.829 369.547 196.573 369.328 196.264 369.168C195.955 369.008 195.619 368.928 195.256 368.928C194.68 368.928 194.195 369.04 193.8 369.264C193.405 369.477 193.107 369.797 192.904 370.224C192.701 370.64 192.6 371.157 192.6 371.776C192.6 372.363 192.723 372.875 192.968 373.312C193.213 373.739 193.56 374.069 194.008 374.304C194.456 374.539 194.973 374.656 195.56 374.656C195.976 374.656 196.36 374.587 196.712 374.448C197.075 374.309 197.464 374.059 197.88 373.696L198.712 374.864C198.456 375.12 198.141 375.344 197.768 375.536C197.405 375.728 197.016 375.883 196.6 376C196.195 376.107 195.795 376.16 195.4 376.16ZM201.895 376V365.456H203.543V376H201.895ZM200.151 369.2V367.6H205.495V369.2H200.151ZM206.996 376V364.16H208.644V369.328L208.356 369.52C208.462 369.147 208.67 368.805 208.98 368.496C209.289 368.176 209.657 367.92 210.084 367.728C210.51 367.525 210.948 367.424 211.396 367.424C212.036 367.424 212.569 367.552 212.996 367.808C213.422 368.053 213.742 368.432 213.956 368.944C214.169 369.456 214.276 370.101 214.276 370.88V376H212.628V370.992C212.628 370.512 212.564 370.117 212.436 369.808C212.308 369.488 212.11 369.259 211.844 369.12C211.577 368.971 211.246 368.907 210.852 368.928C210.532 368.928 210.238 368.981 209.972 369.088C209.705 369.184 209.47 369.323 209.268 369.504C209.076 369.685 208.921 369.899 208.804 370.144C208.697 370.379 208.644 370.635 208.644 370.912V376H207.828C207.689 376 207.55 376 207.412 376C207.273 376 207.134 376 206.996 376ZM220.287 376.16C219.466 376.16 218.73 375.973 218.079 375.6C217.439 375.216 216.933 374.699 216.559 374.048C216.186 373.387 215.999 372.635 215.999 371.792C215.999 370.949 216.186 370.203 216.559 369.552C216.933 368.891 217.439 368.373 218.079 368C218.73 367.616 219.466 367.424 220.287 367.424C221.098 367.424 221.823 367.616 222.463 368C223.114 368.373 223.626 368.891 223.999 369.552C224.373 370.203 224.559 370.949 224.559 371.792C224.559 372.635 224.373 373.387 223.999 374.048C223.626 374.699 223.114 375.216 222.463 375.6C221.823 375.973 221.098 376.16 220.287 376.16ZM220.287 374.656C220.789 374.656 221.237 374.533 221.631 374.288C222.026 374.032 222.335 373.691 222.559 373.264C222.783 372.827 222.89 372.336 222.879 371.792C222.89 371.237 222.783 370.747 222.559 370.32C222.335 369.883 222.026 369.541 221.631 369.296C221.237 369.051 220.789 368.928 220.287 368.928C219.786 368.928 219.333 369.056 218.927 369.312C218.533 369.557 218.223 369.899 217.999 370.336C217.775 370.763 217.669 371.248 217.679 371.792C217.669 372.336 217.775 372.827 217.999 373.264C218.223 373.691 218.533 374.032 218.927 374.288C219.333 374.533 219.786 374.656 220.287 374.656ZM229.859 376.16C229.091 376.16 228.403 375.973 227.795 375.6C227.198 375.216 226.723 374.699 226.371 374.048C226.019 373.387 225.843 372.635 225.843 371.792C225.843 370.949 226.014 370.203 226.355 369.552C226.707 368.891 227.182 368.373 227.779 368C228.376 367.616 229.054 367.424 229.811 367.424C230.227 367.424 230.627 367.493 231.011 367.632C231.406 367.76 231.758 367.941 232.067 368.176C232.376 368.4 232.616 368.651 232.787 368.928C232.968 369.195 233.059 369.467 233.059 369.744L232.579 369.776V364.16H234.227V376H232.579V374H232.899C232.899 374.256 232.814 374.512 232.643 374.768C232.472 375.013 232.243 375.243 231.955 375.456C231.678 375.669 231.352 375.84 230.979 375.968C230.616 376.096 230.243 376.16 229.859 376.16ZM230.083 374.736C230.584 374.736 231.027 374.608 231.411 374.352C231.795 374.096 232.094 373.749 232.307 373.312C232.531 372.864 232.643 372.357 232.643 371.792C232.643 371.227 232.531 370.725 232.307 370.288C232.094 369.84 231.795 369.488 231.411 369.232C231.027 368.976 230.584 368.848 230.083 368.848C229.582 368.848 229.139 368.976 228.755 369.232C228.371 369.488 228.067 369.84 227.843 370.288C227.63 370.725 227.523 371.227 227.523 371.792C227.523 372.357 227.63 372.864 227.843 373.312C228.067 373.749 228.371 374.096 228.755 374.352C229.139 374.608 229.582 374.736 230.083 374.736ZM237.168 376.176C236.816 376.176 236.544 376.075 236.352 375.872C236.16 375.659 236.064 375.36 236.064 374.976C236.064 374.624 236.165 374.336 236.368 374.112C236.57 373.888 236.837 373.776 237.168 373.776C237.52 373.776 237.792 373.883 237.984 374.096C238.176 374.299 238.272 374.592 238.272 374.976C238.272 375.328 238.17 375.616 237.968 375.84C237.765 376.064 237.498 376.176 237.168 376.176Z" fill="#0A0A0A"/>
<rect x="104" y="56" width="128" height="128" rx="64" fill="white"/>
<rect x="113" y="65" width="110" height="110" rx="55" fill="#00AA00"/>
<path d="M162.423 135L148 120.577L152.038 116.538L162.423 126.923L184.346 105L188.385 109.038L162.423 135Z" fill="white"/>
<rect x="104" y="56" width="128" height="128" rx="64" stroke="#00AA00" stroke-width="2"/>
<path d="M79.1381 30.2035C81.4186 27.9233 81.4188 24.2257 79.138 21.9449C76.8578 19.6647 73.1603 19.6644 70.8793 21.9447C70.8792 21.9448 70.8791 21.9449 70.879 21.945M79.1381 30.2035L70.879 21.945M79.1381 30.2035C76.857 32.4843 73.1594 32.4841 70.8793 30.2038C68.5989 27.9231 68.5988 24.2259 70.879 21.945M79.1381 30.2035L70.879 21.945" fill="#32CD32" stroke="white" stroke-width="7"/>
<path d="M264.055 215.121L264.055 215.121C266.335 212.841 266.336 209.143 264.055 206.862C264.055 206.862 264.055 206.862 264.055 206.862M264.055 215.121V206.862M264.055 215.121C261.775 217.401 258.077 217.402 255.796 215.121M264.055 215.121H255.796M264.055 206.862C261.774 204.581 258.077 204.581 255.796 206.862C253.516 209.142 253.516 212.84 255.796 215.121M264.055 206.862L255.796 215.121M255.796 215.121C255.796 215.121 255.796 215.121 255.796 215.121M255.796 215.121L255.796 215.121" fill="#32CD32" stroke="white" stroke-width="7"/>
<path d="M263.133 31.0645L263.133 31.0646C260.87 33.3285 257.199 33.3285 254.936 31.0646L254.935 31.0643C252.672 28.8008 252.671 25.1307 254.936 22.8666L254.936 22.8664C257.199 20.6029 260.869 20.6026 263.134 22.8667C265.397 25.1302 265.398 28.8003 263.133 31.0645Z" fill="#32CD32" stroke="white" stroke-width="7"/>
<path d="M79.1378 206.862L79.138 206.862C81.4188 209.143 81.4186 212.84 79.1381 215.121C76.857 217.401 73.1594 217.401 70.8793 215.121C68.5987 212.84 68.599 209.142 70.8792 206.862C73.1601 204.581 76.8576 204.581 79.1378 206.862Z" fill="#32CD32" stroke="white" stroke-width="7"/>
<path d="M161.703 9.29688C161.703 6.37135 164.074 4 167 4C169.926 4 172.297 6.37135 172.297 9.29688V37.3305C172.297 40.2561 169.926 42.6274 167 42.6274C164.074 42.6274 161.703 40.2561 161.703 37.3305V9.29688Z" fill="#FFC600" stroke="white" stroke-width="8"/>
<path d="M57.2969 124.297C54.3714 124.297 52 121.926 52 119C52 116.074 54.3713 113.703 57.2969 113.703H85.3305C88.2561 113.703 90.6274 116.074 90.6274 119C90.6274 121.926 88.2561 124.297 85.3305 124.297H57.2969Z" fill="#FFC600" stroke="white" stroke-width="8"/>
<path d="M248.669 113.703H276.703C279.629 113.703 282 116.074 282 119C282 121.926 279.629 124.297 276.703 124.297H248.669C245.744 124.297 243.373 121.926 243.373 119C243.373 116.074 245.744 113.703 248.669 113.703Z" fill="#FFC600" stroke="white" stroke-width="8"/>
<path d="M113.578 58.0867C115.646 60.1548 115.646 63.5085 113.578 65.5774C111.509 67.6461 108.155 67.6459 106.087 65.5774L97.5159 57.0067L94.6875 59.8352L97.5159 57.0067C95.4477 54.9385 95.4474 51.5847 97.5161 49.5158C99.5843 47.4473 102.938 47.4471 105.007 49.516L113.578 58.0867Z" fill="#FD6300" stroke="white" stroke-width="8"/>
<path d="M228.994 188.484L228.994 188.484C230.029 189.519 231.377 190.036 232.739 190.036C234.1 190.036 235.449 189.519 236.485 188.484C236.485 188.484 236.485 188.484 236.485 188.484M228.994 188.484L236.485 188.484M228.994 188.484L220.423 179.913C220.423 179.913 220.423 179.913 220.423 179.913C218.354 177.844 218.354 174.491 220.422 172.422C222.491 170.354 225.844 170.354 227.913 172.422C227.913 172.422 227.913 172.422 227.913 172.422L236.484 180.993M228.994 188.484L236.484 180.993M236.485 188.484C238.553 186.415 238.553 183.062 236.485 180.993M236.485 188.484L236.485 180.993M236.485 180.993L236.484 180.993M236.485 180.993L236.484 180.993" fill="#FD6300" stroke="white" stroke-width="8"/>
<path d="M106.087 172.423L106.087 172.422C108.155 170.354 111.509 170.354 113.578 172.423C115.646 174.491 115.646 177.844 113.578 179.913C113.578 179.913 113.578 179.913 113.578 179.914L105.007 188.484C102.938 190.553 99.5843 190.553 97.5161 188.484L97.5159 188.484C95.4478 186.416 95.4474 183.062 97.5159 180.993C97.516 180.993 97.5161 180.993 97.5161 180.993L106.087 172.423Z" fill="#FD6300" stroke="white" stroke-width="8"/>
<path d="M228.994 49.5158L228.994 49.516L220.423 58.0867C220.423 58.0867 220.423 58.0867 220.423 58.0868C218.354 60.1558 218.354 63.5092 220.422 65.5778C220.422 65.5778 220.422 65.5779 220.422 65.5779M228.994 49.5158L220.422 65.5779M228.994 49.5158C231.061 47.4481 234.415 47.4472 236.485 49.516M228.994 49.5158L236.485 49.516M220.422 65.5779C222.491 67.6463 225.844 67.6467 227.913 65.5781L227.913 65.5779L236.484 57.0072M220.422 65.5779L236.484 57.0072M236.484 57.0072C236.484 57.0072 236.484 57.0072 236.484 57.0071C238.553 54.9382 238.553 51.5849 236.485 49.5163C236.485 49.5162 236.485 49.5161 236.485 49.516M236.484 57.0072L236.485 49.516" fill="#FD6300" stroke="white" stroke-width="8"/>
</svg>
