<svg width="83" height="60" viewBox="0 0 83 60" fill="none" xmlns="http://www.w3.org/2000/svg">
<path d="M32.5 1H14.5V9" stroke="#00AA00" stroke-width="2"/>
<path d="M32.5 59H14.5V51" stroke="#00AA00" stroke-width="2"/>
<path d="M50.5 1H68.5V9" stroke="#00AA00" stroke-width="2"/>
<path d="M50.5 59H68.5V51" stroke="#00AA00" stroke-width="2"/>
<path d="M1 18.4914V22.4709C1 23.2946 1.62323 23.9623 2.39201 23.9623C3.1608 23.9623 3.78402 23.2946 3.78402 22.4709V18.4914C3.78402 17.6677 3.1608 17 2.39201 17C1.62323 17 1 17.6677 1 18.4914Z" fill="#00AA00" stroke="white"/>
<path d="M23.9558 18.4914V22.4709C23.9558 23.2946 24.579 23.9623 25.3478 23.9623C26.1166 23.9623 26.7398 23.2946 26.7398 22.4709V18.4914C26.7398 17.6677 26.1166 17 25.3478 17C24.579 17 23.9558 17.6677 23.9558 18.4914Z" fill="#00AA00" stroke="white"/>
<path d="M3.90764 38.5845C6.62286 41.1187 9.91132 42.3975 13.6991 42.3975C17.4868 42.3975 20.7753 41.1187 23.4905 38.5845C24.0821 38.0323 24.1141 37.1051 23.5619 36.5135C23.0098 35.9219 22.0825 35.8899 21.4909 36.4421C19.3219 38.4665 16.7493 39.467 13.6991 39.467C10.6489 39.467 8.07623 38.4665 5.9072 36.4421C5.3156 35.8899 4.38839 35.9219 3.83622 36.5135C3.28406 37.1051 3.31603 38.0323 3.90764 38.5845Z" fill="#00AA00" stroke="white"/>
<path d="M13.6995 18.4653V28.7222C13.6995 29.3786 13.3787 29.6991 12.719 29.6991H11.7458C10.9365 29.6991 10.2805 30.3551 10.2805 31.1643C10.2805 31.9736 10.9365 32.6296 11.7458 32.6296H12.719C14.9964 32.6296 16.63 30.9979 16.63 28.7222V18.4653C16.63 17.656 15.974 17 15.1648 17C14.3555 17 13.6995 17.656 13.6995 18.4653Z" fill="#00AA00" stroke="white"/>
<path fill-rule="evenodd" clip-rule="evenodd" d="M80.2615 20.846C80.0418 20.846 79.8233 20.7683 79.6485 20.6081C76.9695 18.1658 73.5318 16.8208 69.9679 16.8208C66.404 16.8208 62.9663 18.1658 60.2873 20.6093C59.9146 20.948 59.3392 20.92 59.0006 20.5498C58.6619 20.1784 58.6886 19.6018 59.0601 19.2631C62.0765 16.5137 65.95 15 69.9679 15C73.9858 15 77.8593 16.5137 80.8758 19.2631C81.2472 19.6018 81.2739 20.1771 80.9352 20.5498C80.7556 20.7464 80.5092 20.846 80.2615 20.846ZM81.8051 26.7954C81.5126 26.7954 81.2237 26.6546 81.0489 26.3924C78.5216 22.6294 74.3799 20.3825 69.9699 20.3825C65.5599 20.3825 61.4182 22.6294 58.8909 26.3924C58.6105 26.8112 58.0436 26.9216 57.6272 26.6412C57.2097 26.3608 57.098 25.7952 57.3784 25.3776C60.2443 21.1108 64.9517 18.5629 69.9699 18.5629C74.988 18.5629 79.6954 21.1108 82.5614 25.3788C82.8418 25.7964 82.7313 26.362 82.3125 26.6424C82.1572 26.7456 81.9812 26.7954 81.8051 26.7954ZM66.4463 43.864C66.6248 44.0437 66.859 44.1335 67.0933 44.1335C67.3252 44.1335 67.557 44.0461 67.7342 43.8701C68.0923 43.5157 68.0948 42.9391 67.7403 42.5822C67.6966 42.5385 63.4032 38.1613 63.4032 34.3169C63.4032 30.5624 66.348 27.5083 69.969 27.5083C73.59 27.5083 76.5348 30.5624 76.5348 34.3169C76.5348 34.8195 76.9427 35.2273 77.4452 35.2273C77.9478 35.2273 78.3556 34.8195 78.3556 34.3169C78.3556 29.5586 74.5938 25.6875 69.969 25.6875C65.3441 25.6875 61.5823 29.5586 61.5823 34.3169C61.5823 38.9017 66.2473 43.6638 66.4463 43.864ZM72.8456 44.1337C70.6558 44.1337 65.5794 39.9677 65.0877 35.3283C64.9142 33.6883 65.4361 32.0107 66.4825 30.8406C67.3929 29.8233 68.6225 29.2589 69.9444 29.2516H69.9699C71.2591 29.2516 72.4778 29.7578 73.4052 30.6791C74.3739 31.6417 74.9067 32.9345 74.9067 34.3183V34.9119C74.9067 36.3746 76.0454 37.5642 77.4462 37.5642C78.847 37.5642 79.9868 36.3746 79.9868 34.9119V34.7043C79.9868 29.0355 75.8803 24.3197 70.6376 23.9701C67.9051 23.7843 65.282 24.7287 63.2584 26.6199C61.1584 28.584 59.9543 31.3905 59.9543 34.3183C59.9543 36.7266 60.77 39.0731 62.2509 40.9254C62.5641 41.3187 62.501 41.8905 62.1077 42.2049C61.7156 42.5192 61.1427 42.4561 60.8283 42.0616C59.0912 39.8876 58.1335 37.1369 58.1335 34.3171C58.1335 30.8867 59.5488 27.5959 62.0142 25.2895C64.4092 23.0487 67.5155 21.9332 70.7577 22.1517C76.9533 22.5656 81.8076 28.079 81.8076 34.7031V34.9107C81.8076 37.3773 79.8508 39.3838 77.4462 39.3838C75.0415 39.3838 73.0859 37.3773 73.0859 34.9107V34.3171C73.0859 33.4213 72.7436 32.5886 72.1221 31.9695C71.5395 31.3892 70.7759 31.0712 69.9711 31.0712H69.9542C68.9284 31.0761 68.2377 31.609 67.8396 32.0544C67.1295 32.8471 66.7774 34.0003 66.8976 35.1365C67.2994 38.9213 71.6487 42.3141 72.8456 42.3141C73.3481 42.3141 73.756 42.722 73.756 43.2245C73.756 43.727 73.3481 44.1337 72.8456 44.1337ZM68.9865 33.7234C68.9865 38.3713 72.9644 42.3528 76.2224 42.3528C76.725 42.3528 77.1328 41.945 77.1328 41.4424C77.1328 40.9399 76.725 40.532 76.2224 40.532C73.836 40.532 70.8074 37.3262 70.8074 33.7234C70.8074 33.2209 70.3995 32.813 69.897 32.813C69.3944 32.813 68.9865 33.2209 68.9865 33.7234Z" fill="#00AA00"/>
</svg>
