<svg width="24" height="24" viewBox="0 0 24 24" fill="none" xmlns="http://www.w3.org/2000/svg">
<g clip-path="url(#clip0_5007_20188)">
<path d="M23.6395 14.9031C22.0368 21.3317 15.5256 25.2441 9.09627 23.641C2.66952 22.0382 -1.24286 15.5267 0.360643 9.09847C1.96264 2.6691 8.47377 -1.24365 14.9013 0.359098C21.3303 1.96185 25.2423 8.4741 23.6395 14.9031Z" fill="#F7931A"/>
<path d="M17.2911 10.2908C17.5299 8.69402 16.3142 7.83564 14.6518 7.26302L15.1911 5.10002L13.8744 4.77189L13.3494 6.87789C13.0033 6.79164 12.6478 6.71027 12.2946 6.62964L12.8233 4.50977L11.5074 4.18164L10.9678 6.34389C10.6813 6.27864 10.4001 6.21414 10.1271 6.14627L10.1286 6.13952L8.31282 5.68614L7.96257 7.09239C7.96257 7.09239 8.93945 7.31627 8.91882 7.33014C9.45207 7.46327 9.54845 7.81614 9.53232 8.09589L8.91807 10.56C8.95482 10.5694 9.00245 10.5829 9.05495 10.6039C9.01107 10.593 8.9642 10.581 8.91582 10.5694L8.05482 14.0213C7.98957 14.1833 7.8242 14.4263 7.45145 14.334C7.46457 14.3531 6.49445 14.0951 6.49445 14.0951L5.84082 15.6023L7.5542 16.0294C7.87295 16.1093 8.18532 16.1929 8.49282 16.2716L7.94795 18.4594L9.26307 18.7875L9.8027 16.623C10.1619 16.7205 10.5107 16.8105 10.8519 16.8953L10.3142 19.0496L11.6308 19.3778L12.1757 17.1941C14.4208 17.619 16.1091 17.4476 16.8197 15.417C17.3923 13.782 16.7912 12.8389 15.6099 12.2239C16.4702 12.0255 17.1182 11.4596 17.2911 10.2908ZM14.2828 14.5091C13.8759 16.1441 11.1231 15.2603 10.2306 15.0386L10.9536 12.1403C11.8461 12.363 14.7081 12.804 14.2828 14.5091ZM14.6901 10.2671C14.3188 11.7544 12.0276 10.9988 11.2843 10.8135L11.9398 8.18477C12.6831 8.37002 15.0767 8.71577 14.6901 10.2671Z" fill="white"/>
</g>
<defs>
<clipPath id="clip0_5007_20188">
<rect width="24" height="24" fill="white"/>
</clipPath>
</defs>
</svg>
