<svg width="24" height="24" viewBox="0 0 24 24" fill="none" xmlns="http://www.w3.org/2000/svg">
<path fill-rule="evenodd" clip-rule="evenodd" d="M8.13207 10.1321V8.32495H9.9392C10.4377 8.32495 10.8428 8.72996 10.8428 9.22851C10.8428 9.72706 10.4377 10.1321 9.9392 10.1321H8.13207ZM8.13207 13.7463V11.9392H9.9392C10.4377 11.9392 10.8428 12.3442 10.8428 12.8428C10.8428 13.3413 10.4377 13.7463 9.9392 13.7463H8.13207ZM9.03564 20.0713C14.0176 20.0713 18.0713 16.0176 18.0713 11.0356C18.0713 6.05368 14.0176 2 9.03564 2C4.05368 2 0 6.05368 0 11.0356C0 16.0176 4.05368 20.0713 9.03564 20.0713ZM12.6499 9.22851C12.6499 9.9256 12.3781 10.5547 11.9449 11.0356C12.3781 11.5165 12.6499 12.1457 12.6499 12.8428C12.6499 14.3375 11.434 15.5535 9.9392 15.5535V16.457H8.13207V15.5535H5.42138V13.7463H6.32495V8.32495H5.42138V6.51782H8.13207V5.61426H9.9392V6.51782C11.434 6.51782 12.6499 7.73375 12.6499 9.22851ZM18.1459 15.0745C16.5904 18.5736 13.2097 20.6917 9.6228 20.8062C10.2336 21.3172 10.9249 21.7527 11.6888 22.0923C16.1063 24.0561 21.2793 22.0669 23.243 17.6494C25.2067 13.2319 23.2176 8.05893 18.8001 6.09519C18.2739 5.86127 17.7369 5.68344 17.196 5.55912C19.1019 8.248 19.5818 11.8443 18.1459 15.0745Z" fill="white"/>
</svg>
