<svg width="163" height="163" viewBox="0 0 163 163" fill="none" xmlns="http://www.w3.org/2000/svg">
<rect width="163" height="163" fill="#00AA00" fill-opacity="0.16"/>
<path d="M70.5477 107.16C69.7264 107.16 68.969 107.021 68.2757 106.744C67.593 106.456 66.9957 106.056 66.4837 105.544C65.9824 105.021 65.593 104.408 65.3157 103.704C65.0384 102.989 64.8997 102.211 64.8997 101.368C64.8997 100.547 65.0437 99.7893 65.3317 99.096C65.6197 98.392 66.025 97.784 66.5477 97.272C67.0704 96.7493 67.6837 96.344 68.3877 96.056C69.0917 95.768 69.8544 95.624 70.6757 95.624C71.209 95.624 71.7317 95.6987 72.2437 95.848C72.7664 95.9867 73.241 96.1947 73.6677 96.472C74.105 96.7493 74.4784 97.08 74.7877 97.464L73.2837 99.128C73.0277 98.872 72.761 98.6533 72.4837 98.472C72.217 98.28 71.929 98.136 71.6197 98.04C71.321 97.9333 71.001 97.88 70.6597 97.88C70.201 97.88 69.769 97.9653 69.3637 98.136C68.969 98.3067 68.6224 98.5467 68.3237 98.856C68.025 99.1547 67.785 99.5227 67.6037 99.96C67.433 100.387 67.3477 100.861 67.3477 101.384C67.3477 101.917 67.433 102.403 67.6037 102.84C67.7744 103.267 68.0144 103.635 68.3237 103.944C68.633 104.243 69.001 104.477 69.4277 104.648C69.865 104.808 70.345 104.888 70.8677 104.888C71.209 104.888 71.5397 104.84 71.8597 104.744C72.1797 104.648 72.473 104.515 72.7397 104.344C73.017 104.173 73.2624 103.976 73.4757 103.752L74.6437 105.624C74.3877 105.912 74.041 106.173 73.6037 106.408C73.177 106.643 72.697 106.829 72.1637 106.968C71.6304 107.096 71.0917 107.16 70.5477 107.16ZM79.5149 107.16C78.8109 107.16 78.1763 106.968 77.6109 106.584C77.0456 106.2 76.5976 105.677 76.2669 105.016C75.9363 104.355 75.7709 103.597 75.7709 102.744C75.7709 101.891 75.9363 101.139 76.2669 100.488C76.6083 99.8267 77.0669 99.3093 77.6429 98.936C78.2189 98.552 78.8749 98.36 79.6109 98.36C80.0269 98.36 80.4056 98.424 80.7469 98.552C81.0989 98.6693 81.4029 98.8347 81.6589 99.048C81.9256 99.2613 82.1496 99.5067 82.3309 99.784C82.5123 100.061 82.6403 100.36 82.7149 100.68L82.2349 100.6V98.536H84.4909V107H82.2029V104.968L82.7149 104.92C82.6296 105.219 82.4909 105.501 82.2989 105.768C82.1069 106.035 81.8669 106.275 81.5789 106.488C81.3016 106.691 80.9869 106.856 80.6349 106.984C80.2829 107.101 79.9096 107.16 79.5149 107.16ZM80.1389 105.192C80.5656 105.192 80.9389 105.091 81.2589 104.888C81.5789 104.685 81.8243 104.403 81.9949 104.04C82.1763 103.667 82.2669 103.235 82.2669 102.744C82.2669 102.264 82.1763 101.843 81.9949 101.48C81.8243 101.117 81.5789 100.835 81.2589 100.632C80.9389 100.419 80.5656 100.312 80.1389 100.312C79.7229 100.312 79.3549 100.419 79.0349 100.632C78.7256 100.835 78.4803 101.117 78.2989 101.48C78.1176 101.843 78.0269 102.264 78.0269 102.744C78.0269 103.235 78.1176 103.667 78.2989 104.04C78.4803 104.403 78.7256 104.685 79.0349 104.888C79.3549 105.091 79.7229 105.192 80.1389 105.192ZM86.7848 107V95.16H89.0568V107H86.7848ZM91.3786 107V95.16H93.6506V107H91.3786ZM44.7853 130.944L39.7313 128.046V126.912L44.7853 124.014L45.4573 125.064L40.4313 127.948V127.01L45.4573 129.894L44.7853 130.944ZM51.8649 131L55.9249 122.152L56.0929 122.6H51.1369V121.2H57.1989L57.3949 122.166L53.4889 131H51.8649ZM62.7886 131V123.65H64.2446V125.218L63.9786 125.386C64.0533 125.143 64.1699 124.91 64.3286 124.686C64.4966 124.462 64.6973 124.266 64.9306 124.098C65.1733 123.921 65.4299 123.781 65.7006 123.678C65.9806 123.575 66.2653 123.524 66.5546 123.524C66.9746 123.524 67.3433 123.594 67.6606 123.734C67.9779 123.874 68.2393 124.084 68.4446 124.364C68.6499 124.644 68.7993 124.994 68.8926 125.414L68.6686 125.358L68.7666 125.12C68.8693 124.905 69.0093 124.705 69.1866 124.518C69.3733 124.322 69.5833 124.149 69.8166 124C70.0499 123.851 70.2973 123.734 70.5586 123.65C70.8199 123.566 71.0766 123.524 71.3286 123.524C71.8793 123.524 72.3319 123.636 72.6866 123.86C73.0506 124.084 73.3213 124.425 73.4986 124.882C73.6853 125.339 73.7786 125.909 73.7786 126.59V131H72.3226V126.674C72.3226 126.254 72.2666 125.913 72.1546 125.652C72.0519 125.381 71.8933 125.181 71.6786 125.05C71.4639 124.919 71.1886 124.854 70.8526 124.854C70.5913 124.854 70.3439 124.901 70.1106 124.994C69.8866 125.078 69.6906 125.199 69.5226 125.358C69.3546 125.517 69.2239 125.703 69.1306 125.918C69.0373 126.123 68.9906 126.352 68.9906 126.604V131H67.5346V126.646C67.5346 126.263 67.4786 125.941 67.3666 125.68C67.2546 125.409 67.0913 125.204 66.8766 125.064C66.6619 124.924 66.4006 124.854 66.0926 124.854C65.8313 124.854 65.5886 124.901 65.3646 124.994C65.1406 125.078 64.9446 125.199 64.7766 125.358C64.6086 125.507 64.4779 125.689 64.3846 125.904C64.2913 126.109 64.2446 126.333 64.2446 126.576V131H62.7886ZM75.9472 131V123.65H77.3892V131H75.9472ZM76.6472 122.026C76.3392 122.026 76.1012 121.947 75.9332 121.788C75.7652 121.629 75.6812 121.405 75.6812 121.116C75.6812 120.845 75.7652 120.626 75.9332 120.458C76.1105 120.29 76.3485 120.206 76.6472 120.206C76.9552 120.206 77.1932 120.285 77.3612 120.444C77.5292 120.603 77.6132 120.827 77.6132 121.116C77.6132 121.387 77.5245 121.606 77.3472 121.774C77.1792 121.942 76.9458 122.026 76.6472 122.026ZM79.6057 131V123.65H81.0477V125.162L80.7957 125.33C80.889 125.003 81.071 124.705 81.3417 124.434C81.6123 124.154 81.9343 123.93 82.3077 123.762C82.681 123.585 83.0637 123.496 83.4557 123.496C84.0157 123.496 84.4823 123.608 84.8557 123.832C85.229 124.047 85.509 124.378 85.6957 124.826C85.8823 125.274 85.9757 125.839 85.9757 126.52V131H84.5337V126.618C84.5337 126.198 84.4777 125.853 84.3657 125.582C84.2537 125.302 84.081 125.101 83.8477 124.98C83.6143 124.849 83.325 124.793 82.9797 124.812C82.6997 124.812 82.443 124.859 82.2097 124.952C81.9763 125.036 81.771 125.157 81.5937 125.316C81.4257 125.475 81.2903 125.661 81.1877 125.876C81.0943 126.081 81.0477 126.305 81.0477 126.548V131H80.3337C80.2123 131 80.091 131 79.9697 131C79.8483 131 79.727 131 79.6057 131ZM93.6617 131L91.1557 123.65L92.6117 123.636L94.4037 129.138L94.0817 129.11L96.0277 124.812H96.8957L98.8557 129.124L98.4777 129.152L100.284 123.65H101.74L99.2617 131H98.2677L96.2237 126.324L96.5457 126.366L94.6417 131H93.6617ZM105.676 131.14C105.069 131.14 104.514 130.972 104.01 130.636C103.515 130.3 103.119 129.843 102.82 129.264C102.521 128.685 102.372 128.032 102.372 127.304C102.372 126.567 102.521 125.913 102.82 125.344C103.128 124.765 103.539 124.313 104.052 123.986C104.575 123.659 105.158 123.496 105.802 123.496C106.185 123.496 106.535 123.552 106.852 123.664C107.169 123.776 107.445 123.935 107.678 124.14C107.921 124.336 108.117 124.565 108.266 124.826C108.425 125.087 108.523 125.367 108.56 125.666L108.238 125.554V123.65H109.694V131H108.238V129.25L108.574 129.152C108.518 129.404 108.401 129.651 108.224 129.894C108.056 130.127 107.837 130.337 107.566 130.524C107.305 130.711 107.011 130.86 106.684 130.972C106.367 131.084 106.031 131.14 105.676 131.14ZM106.054 129.81C106.493 129.81 106.88 129.703 107.216 129.488C107.552 129.273 107.813 128.979 108 128.606C108.196 128.223 108.294 127.789 108.294 127.304C108.294 126.828 108.196 126.403 108 126.03C107.813 125.657 107.552 125.363 107.216 125.148C106.88 124.933 106.493 124.826 106.054 124.826C105.625 124.826 105.242 124.933 104.906 125.148C104.579 125.363 104.318 125.657 104.122 126.03C103.935 126.403 103.842 126.828 103.842 127.304C103.842 127.789 103.935 128.223 104.122 128.606C104.318 128.979 104.579 129.273 104.906 129.488C105.242 129.703 105.625 129.81 106.054 129.81ZM111.945 131V123.65H113.387V131H111.945ZM112.645 122.026C112.337 122.026 112.099 121.947 111.931 121.788C111.763 121.629 111.679 121.405 111.679 121.116C111.679 120.845 111.763 120.626 111.931 120.458C112.109 120.29 112.347 120.206 112.645 120.206C112.953 120.206 113.191 120.285 113.359 120.444C113.527 120.603 113.611 120.827 113.611 121.116C113.611 121.387 113.523 121.606 113.345 121.774C113.177 121.942 112.944 122.026 112.645 122.026ZM116.514 131V121.774H117.956V131H116.514ZM114.988 125.05V123.65H119.664V125.05H114.988Z" fill="#0A0A0A"/>
<mask id="mask0_1063_5668" style="mask-type:alpha" maskUnits="userSpaceOnUse" x="60" y="29" width="44" height="44">
<rect x="60" y="29" width="44" height="44" fill="#D9D9D9"/>
</mask>
<g mask="url(#mask0_1063_5668)">
<path d="M96.575 67.5C92.6333 67.5 88.7913 66.6212 85.0488 64.8637C81.3052 63.1073 77.9899 60.7851 75.103 57.897C72.2149 55.0101 69.8927 51.6948 68.1363 47.9512C66.3788 44.2087 65.5 40.3667 65.5 36.425C65.5 35.875 65.6833 35.4167 66.05 35.05C66.4167 34.6833 66.875 34.5 67.425 34.5H74.85C75.2778 34.5 75.6597 34.6375 75.9958 34.9125C76.3319 35.1875 76.5306 35.5389 76.5917 35.9667L77.7833 42.3833C77.8444 42.8111 77.8371 43.2004 77.7613 43.5512C77.6843 43.9032 77.5083 44.2167 77.2333 44.4917L72.8333 48.9833C74.1167 51.1833 75.7208 53.2458 77.6458 55.1708C79.5708 57.0958 81.6944 58.7611 84.0167 60.1667L88.325 55.8583C88.6 55.5833 88.9593 55.3768 89.403 55.2387C89.8454 55.1018 90.2806 55.0639 90.7083 55.125L97.0333 56.4083C97.4611 56.5 97.8125 56.7059 98.0875 57.0262C98.3625 57.3476 98.5 57.7222 98.5 58.15V65.575C98.5 66.125 98.3167 66.5833 97.95 66.95C97.5833 67.3167 97.125 67.5 96.575 67.5Z" fill="#00AA00"/>
</g>
</svg>
