<svg width="44" height="44" viewBox="0 0 44 44" fill="none" xmlns="http://www.w3.org/2000/svg">
<g filter="url(#filter0_d_1063_5568)">
<circle cx="22" cy="18" r="12" fill="#00AA00"/>
</g>
<mask id="mask0_1063_5568" style="mask-type:alpha" maskUnits="userSpaceOnUse" x="15" y="11" width="14" height="14">
<rect x="15" y="11" width="14" height="14" fill="#FFFFFF"/>
</mask>
<g mask="url(#mask0_1063_5568)">
<path d="M22.0002 21.2083C22.7294 21.2083 23.3493 20.9532 23.8599 20.443C24.3701 19.9324 24.6252 19.3125 24.6252 18.5833C24.6252 17.8542 24.3701 17.2343 23.8599 16.7237C23.3493 16.2134 22.7294 15.9583 22.0002 15.9583C21.271 15.9583 20.6511 16.2134 20.1405 16.7237C19.6303 17.2343 19.3752 17.8542 19.3752 18.5833C19.3752 19.3125 19.6303 19.9324 20.1405 20.443C20.6511 20.9532 21.271 21.2083 22.0002 21.2083ZM17.3335 23.25C17.0127 23.25 16.7381 23.1359 16.5099 22.9076C16.2812 22.6789 16.1669 22.4042 16.1669 22.0833V15.0833C16.1669 14.7625 16.2812 14.4879 16.5099 14.2597C16.7381 14.031 17.0127 13.9167 17.3335 13.9167H19.171L20.2502 12.75H23.7502L24.8294 13.9167H26.6669C26.9877 13.9167 27.2625 14.031 27.4911 14.2597C27.7194 14.4879 27.8335 14.7625 27.8335 15.0833V22.0833C27.8335 22.4042 27.7194 22.6789 27.4911 22.9076C27.2625 23.1359 26.9877 23.25 26.6669 23.25H17.3335Z" fill="white"/>
</g>
<defs>
<filter id="filter0_d_1063_5568" x="0" y="0" width="44" height="44" filterUnits="userSpaceOnUse" color-interpolation-filters="sRGB">
<feFlood flood-opacity="0" result="BackgroundImageFix"/>
<feColorMatrix in="SourceAlpha" type="matrix" values="0 0 0 0 0 0 0 0 0 0 0 0 0 0 0 0 0 0 127 0" result="hardAlpha"/>
<feOffset dy="4"/>
<feGaussianBlur stdDeviation="5"/>
<feComposite in2="hardAlpha" operator="out"/>
<feColorMatrix type="matrix" values="0 0 0 0 0 0 0 0 0 0 0 0 0 0 0 0 0 0 0.15 0"/>
<feBlend mode="normal" in2="BackgroundImageFix" result="effect1_dropShadow_1063_5568"/>
<feBlend mode="normal" in="SourceGraphic" in2="effect1_dropShadow_1063_5568" result="shape"/>
</filter>
</defs>
</svg>
