<svg width="163" height="163" viewBox="0 0 163 163" fill="none" xmlns="http://www.w3.org/2000/svg">
<rect width="163" height="163" fill="#00AA00" fill-opacity="0.16"/>
<path d="M69.0164 107.16C68.1951 107.16 67.4378 107.021 66.7444 106.744C66.0618 106.456 65.4644 106.056 64.9524 105.544C64.4511 105.021 64.0618 104.408 63.7844 103.704C63.5071 102.989 63.3684 102.211 63.3684 101.368C63.3684 100.547 63.5124 99.7893 63.8004 99.096C64.0884 98.392 64.4938 97.784 65.0164 97.272C65.5391 96.7493 66.1524 96.344 66.8564 96.056C67.5604 95.768 68.3231 95.624 69.1444 95.624C69.6778 95.624 70.2004 95.6987 70.7124 95.848C71.2351 95.9867 71.7098 96.1947 72.1364 96.472C72.5738 96.7493 72.9471 97.08 73.2564 97.464L71.7524 99.128C71.4964 98.872 71.2298 98.6533 70.9524 98.472C70.6858 98.28 70.3978 98.136 70.0884 98.04C69.7898 97.9333 69.4698 97.88 69.1284 97.88C68.6698 97.88 68.2378 97.9653 67.8324 98.136C67.4378 98.3067 67.0911 98.5467 66.7924 98.856C66.4938 99.1547 66.2538 99.5227 66.0724 99.96C65.9018 100.387 65.8164 100.861 65.8164 101.384C65.8164 101.917 65.9018 102.403 66.0724 102.84C66.2431 103.267 66.4831 103.635 66.7924 103.944C67.1018 104.243 67.4698 104.477 67.8964 104.648C68.3338 104.808 68.8138 104.888 69.3364 104.888C69.6778 104.888 70.0084 104.84 70.3284 104.744C70.6484 104.648 70.9418 104.515 71.2084 104.344C71.4858 104.173 71.7311 103.976 71.9444 103.752L73.1124 105.624C72.8564 105.912 72.5098 106.173 72.0724 106.408C71.6458 106.643 71.1658 106.829 70.6324 106.968C70.0991 107.096 69.5604 107.16 69.0164 107.16ZM74.8157 107V95.16H77.0557V100.264L76.6077 100.456C76.725 100.072 76.933 99.7253 77.2317 99.416C77.541 99.096 77.909 98.84 78.3357 98.648C78.7624 98.456 79.2104 98.36 79.6797 98.36C80.3197 98.36 80.853 98.488 81.2797 98.744C81.717 99 82.0424 99.3893 82.2557 99.912C82.4797 100.424 82.5917 101.059 82.5917 101.816V107H80.3197V101.992C80.3197 101.608 80.2664 101.288 80.1597 101.032C80.053 100.776 79.8877 100.589 79.6637 100.472C79.4504 100.344 79.1837 100.291 78.8637 100.312C78.6077 100.312 78.3677 100.355 78.1437 100.44C77.9304 100.515 77.7437 100.627 77.5837 100.776C77.4344 100.925 77.3117 101.096 77.2157 101.288C77.1304 101.48 77.0877 101.688 77.0877 101.912V107H75.9677C75.7224 107 75.5037 107 75.3117 107C75.1197 107 74.9544 107 74.8157 107ZM87.9368 107.16C87.2328 107.16 86.5981 106.968 86.0328 106.584C85.4675 106.2 85.0195 105.677 84.6888 105.016C84.3581 104.355 84.1928 103.597 84.1928 102.744C84.1928 101.891 84.3581 101.139 84.6888 100.488C85.0301 99.8267 85.4888 99.3093 86.0648 98.936C86.6408 98.552 87.2968 98.36 88.0328 98.36C88.4488 98.36 88.8275 98.424 89.1688 98.552C89.5208 98.6693 89.8248 98.8347 90.0808 99.048C90.3475 99.2613 90.5715 99.5067 90.7528 99.784C90.9341 100.061 91.0621 100.36 91.1368 100.68L90.6568 100.6V98.536H92.9128V107H90.6248V104.968L91.1368 104.92C91.0515 105.219 90.9128 105.501 90.7208 105.768C90.5288 106.035 90.2888 106.275 90.0008 106.488C89.7235 106.691 89.4088 106.856 89.0568 106.984C88.7048 107.101 88.3315 107.16 87.9368 107.16ZM88.5608 105.192C88.9875 105.192 89.3608 105.091 89.6808 104.888C90.0008 104.685 90.2461 104.403 90.4168 104.04C90.5981 103.667 90.6888 103.235 90.6888 102.744C90.6888 102.264 90.5981 101.843 90.4168 101.48C90.2461 101.117 90.0008 100.835 89.6808 100.632C89.3608 100.419 88.9875 100.312 88.5608 100.312C88.1448 100.312 87.7768 100.419 87.4568 100.632C87.1475 100.835 86.9021 101.117 86.7208 101.48C86.5395 101.843 86.4488 102.264 86.4488 102.744C86.4488 103.235 86.5395 103.667 86.7208 104.04C86.9021 104.403 87.1475 104.685 87.4568 104.888C87.7768 105.091 88.1448 105.192 88.5608 105.192ZM96.0067 107V96.392H98.2787V107H96.0067ZM94.4227 100.568V98.536H100.007V100.568H94.4227ZM46.6007 130.944L41.5467 128.046V126.912L46.6007 124.014L47.2727 125.064L42.2467 127.948V127.01L47.2727 129.894L46.6007 130.944ZM55.7103 131.098C55.0663 131.098 54.483 130.953 53.9603 130.664C53.4376 130.365 53.0036 129.941 52.6583 129.39L53.4983 128.452C53.937 128.937 54.3196 129.269 54.6463 129.446C54.973 129.623 55.3276 129.712 55.7103 129.712C56.093 129.712 56.4383 129.628 56.7463 129.46C57.0543 129.292 57.297 129.063 57.4743 128.774C57.661 128.485 57.7543 128.163 57.7543 127.808C57.7543 127.435 57.6656 127.103 57.4883 126.814C57.3203 126.515 57.0916 126.282 56.8023 126.114C56.513 125.937 56.1863 125.848 55.8223 125.848C55.645 125.848 55.477 125.862 55.3183 125.89C55.1596 125.909 54.9683 125.96 54.7443 126.044C54.5203 126.128 54.2263 126.259 53.8623 126.436L53.0643 125.358L53.6383 121.2H58.9303V122.6H54.5903L54.8843 122.334L54.4223 125.442L54.0723 125.036C54.1656 124.943 54.3243 124.854 54.5483 124.77C54.7723 124.677 55.0196 124.602 55.2903 124.546C55.5703 124.481 55.8363 124.448 56.0883 124.448C56.6856 124.448 57.2176 124.588 57.6843 124.868C58.1603 125.139 58.5336 125.517 58.8043 126.002C59.0843 126.487 59.2243 127.043 59.2243 127.668C59.2243 128.312 59.0703 128.895 58.7623 129.418C58.4543 129.931 58.0343 130.342 57.5023 130.65C56.9703 130.949 56.373 131.098 55.7103 131.098ZM64.9732 131V123.65H66.4292V125.218L66.1632 125.386C66.2378 125.143 66.3545 124.91 66.5132 124.686C66.6812 124.462 66.8818 124.266 67.1152 124.098C67.3578 123.921 67.6145 123.781 67.8852 123.678C68.1652 123.575 68.4498 123.524 68.7392 123.524C69.1592 123.524 69.5278 123.594 69.8452 123.734C70.1625 123.874 70.4238 124.084 70.6292 124.364C70.8345 124.644 70.9838 124.994 71.0772 125.414L70.8532 125.358L70.9512 125.12C71.0538 124.905 71.1938 124.705 71.3712 124.518C71.5578 124.322 71.7678 124.149 72.0012 124C72.2345 123.851 72.4818 123.734 72.7432 123.65C73.0045 123.566 73.2612 123.524 73.5132 123.524C74.0638 123.524 74.5165 123.636 74.8712 123.86C75.2352 124.084 75.5058 124.425 75.6832 124.882C75.8698 125.339 75.9632 125.909 75.9632 126.59V131H74.5072V126.674C74.5072 126.254 74.4512 125.913 74.3392 125.652C74.2365 125.381 74.0778 125.181 73.8632 125.05C73.6485 124.919 73.3732 124.854 73.0372 124.854C72.7758 124.854 72.5285 124.901 72.2952 124.994C72.0712 125.078 71.8752 125.199 71.7072 125.358C71.5392 125.517 71.4085 125.703 71.3152 125.918C71.2218 126.123 71.1752 126.352 71.1752 126.604V131H69.7192V126.646C69.7192 126.263 69.6632 125.941 69.5512 125.68C69.4392 125.409 69.2758 125.204 69.0612 125.064C68.8465 124.924 68.5852 124.854 68.2772 124.854C68.0158 124.854 67.7732 124.901 67.5492 124.994C67.3252 125.078 67.1292 125.199 66.9612 125.358C66.7932 125.507 66.6625 125.689 66.5692 125.904C66.4758 126.109 66.4292 126.333 66.4292 126.576V131H64.9732ZM78.1317 131V123.65H79.5737V131H78.1317ZM78.8317 122.026C78.5237 122.026 78.2857 121.947 78.1177 121.788C77.9497 121.629 77.8657 121.405 77.8657 121.116C77.8657 120.845 77.9497 120.626 78.1177 120.458C78.2951 120.29 78.5331 120.206 78.8317 120.206C79.1397 120.206 79.3777 120.285 79.5457 120.444C79.7137 120.603 79.7977 120.827 79.7977 121.116C79.7977 121.387 79.7091 121.606 79.5317 121.774C79.3637 121.942 79.1304 122.026 78.8317 122.026ZM81.7902 131V123.65H83.2322V125.162L82.9802 125.33C83.0736 125.003 83.2556 124.705 83.5262 124.434C83.7969 124.154 84.1189 123.93 84.4922 123.762C84.8656 123.585 85.2482 123.496 85.6402 123.496C86.2002 123.496 86.6669 123.608 87.0402 123.832C87.4136 124.047 87.6936 124.378 87.8802 124.826C88.0669 125.274 88.1602 125.839 88.1602 126.52V131H86.7182V126.618C86.7182 126.198 86.6622 125.853 86.5502 125.582C86.4382 125.302 86.2656 125.101 86.0322 124.98C85.7989 124.849 85.5096 124.793 85.1642 124.812C84.8842 124.812 84.6276 124.859 84.3942 124.952C84.1609 125.036 83.9556 125.157 83.7782 125.316C83.6102 125.475 83.4749 125.661 83.3722 125.876C83.2789 126.081 83.2322 126.305 83.2322 126.548V131H82.5182C82.3969 131 82.2756 131 82.1542 131C82.0329 131 81.9116 131 81.7902 131ZM95.8462 131L93.3402 123.65L94.7962 123.636L96.5882 129.138L96.2662 129.11L98.2122 124.812H99.0802L101.04 129.124L100.662 129.152L102.468 123.65H103.924L101.446 131H100.452L98.4082 126.324L98.7302 126.366L96.8262 131H95.8462ZM107.86 131.14C107.254 131.14 106.698 130.972 106.194 130.636C105.7 130.3 105.303 129.843 105.004 129.264C104.706 128.685 104.556 128.032 104.556 127.304C104.556 126.567 104.706 125.913 105.004 125.344C105.312 124.765 105.723 124.313 106.236 123.986C106.759 123.659 107.342 123.496 107.986 123.496C108.369 123.496 108.719 123.552 109.036 123.664C109.354 123.776 109.629 123.935 109.862 124.14C110.105 124.336 110.301 124.565 110.45 124.826C110.609 125.087 110.707 125.367 110.744 125.666L110.422 125.554V123.65H111.878V131H110.422V129.25L110.758 129.152C110.702 129.404 110.586 129.651 110.408 129.894C110.24 130.127 110.021 130.337 109.75 130.524C109.489 130.711 109.195 130.86 108.868 130.972C108.551 131.084 108.215 131.14 107.86 131.14ZM108.238 129.81C108.677 129.81 109.064 129.703 109.4 129.488C109.736 129.273 109.998 128.979 110.184 128.606C110.38 128.223 110.478 127.789 110.478 127.304C110.478 126.828 110.38 126.403 110.184 126.03C109.998 125.657 109.736 125.363 109.4 125.148C109.064 124.933 108.677 124.826 108.238 124.826C107.809 124.826 107.426 124.933 107.09 125.148C106.764 125.363 106.502 125.657 106.306 126.03C106.12 126.403 106.026 126.828 106.026 127.304C106.026 127.789 106.12 128.223 106.306 128.606C106.502 128.979 106.764 129.273 107.09 129.488C107.426 129.703 107.809 129.81 108.238 129.81ZM114.13 131V123.65H115.572V131H114.13ZM114.83 122.026C114.522 122.026 114.284 121.947 114.116 121.788C113.948 121.629 113.864 121.405 113.864 121.116C113.864 120.845 113.948 120.626 114.116 120.458C114.293 120.29 114.531 120.206 114.83 120.206C115.138 120.206 115.376 120.285 115.544 120.444C115.712 120.603 115.796 120.827 115.796 121.116C115.796 121.387 115.707 121.606 115.53 121.774C115.362 121.942 115.128 122.026 114.83 122.026ZM118.698 131V121.774H120.14V131H118.698ZM117.172 125.05V123.65H121.848V125.05H117.172Z" fill="#0A0A0A"/>
<mask id="mask0_1063_5667" style="mask-type:alpha" maskUnits="userSpaceOnUse" x="60" y="29" width="44" height="44">
<rect x="60" y="29" width="44" height="44" fill="#D9D9D9"/>
</mask>
<g mask="url(#mask0_1063_5667)">
<path d="M63.667 60.167V34.5003C63.667 33.9809 63.843 33.5452 64.195 33.1932C64.5458 32.8424 64.9809 32.667 65.5003 32.667H89.3337C89.8531 32.667 90.2882 32.8424 90.639 33.1932C90.991 33.5452 91.167 33.9809 91.167 34.5003V51.0003C91.167 51.5198 90.991 51.9549 90.639 52.3057C90.2882 52.6577 89.8531 52.8337 89.3337 52.8337H71.0003L63.667 60.167ZM72.8337 62.0003C72.3142 62.0003 71.8785 61.8243 71.5265 61.4723C71.1757 61.1215 71.0003 60.6864 71.0003 60.167V56.5003H94.8337V40.0003H98.5003C99.0198 40.0003 99.4549 40.1757 99.8057 40.5265C100.158 40.8785 100.334 41.3142 100.334 41.8337V69.3337L93.0003 62.0003H72.8337Z" fill="#00AA00"/>
</g>
</svg>
