<svg width="72" height="26" viewBox="0 0 72 26" fill="none" xmlns="http://www.w3.org/2000/svg">
<path d="M18.348 18.14C17.6667 18.14 17.0413 18.0187 16.472 17.776C15.9027 17.5333 15.408 17.188 14.988 16.74C14.568 16.2827 14.2413 15.746 14.008 15.13C13.784 14.514 13.672 13.8373 13.672 13.1C13.672 12.4 13.7933 11.7513 14.036 11.154C14.288 10.5473 14.6333 10.0153 15.072 9.558C15.5107 9.10067 16.0193 8.746 16.598 8.494C17.1767 8.242 17.802 8.116 18.474 8.116C18.95 8.116 19.412 8.19067 19.86 8.34C20.3173 8.48 20.728 8.68067 21.092 8.942C21.4653 9.194 21.7687 9.48333 22.002 9.81L20.994 10.86C20.7233 10.5893 20.448 10.3653 20.168 10.188C19.8973 10.0013 19.6173 9.86133 19.328 9.768C19.048 9.67467 18.7633 9.628 18.474 9.628C18.0167 9.628 17.5873 9.71667 17.186 9.894C16.794 10.062 16.4487 10.3 16.15 10.608C15.8607 10.916 15.632 11.2847 15.464 11.714C15.296 12.134 15.212 12.596 15.212 13.1C15.212 13.632 15.2913 14.1173 15.45 14.556C15.618 14.9853 15.8513 15.354 16.15 15.662C16.4487 15.97 16.8033 16.208 17.214 16.376C17.634 16.5347 18.096 16.614 18.6 16.614C18.908 16.614 19.2113 16.572 19.51 16.488C19.8087 16.404 20.0887 16.2827 20.35 16.124C20.6113 15.9653 20.8493 15.7787 21.064 15.564L21.82 16.796C21.6053 17.048 21.3113 17.2767 20.938 17.482C20.574 17.6873 20.1633 17.8507 19.706 17.972C19.258 18.084 18.8053 18.14 18.348 18.14ZM23.538 18V7.64H24.98V18H23.538ZM30.1909 18.14C29.4722 18.14 28.8282 17.9767 28.2589 17.65C27.6989 17.314 27.2556 16.8613 26.9289 16.292C26.6022 15.7133 26.4389 15.0553 26.4389 14.318C26.4389 13.5807 26.6022 12.9273 26.9289 12.358C27.2556 11.7793 27.6989 11.3267 28.2589 11C28.8282 10.664 29.4722 10.496 30.1909 10.496C30.9002 10.496 31.5349 10.664 32.0949 11C32.6642 11.3267 33.1122 11.7793 33.4389 12.358C33.7656 12.9273 33.9289 13.5807 33.9289 14.318C33.9289 15.0553 33.7656 15.7133 33.4389 16.292C33.1122 16.8613 32.6642 17.314 32.0949 17.65C31.5349 17.9767 30.9002 18.14 30.1909 18.14ZM30.1909 16.824C30.6296 16.824 31.0216 16.7167 31.3669 16.502C31.7122 16.278 31.9829 15.9793 32.1789 15.606C32.3749 15.2233 32.4682 14.794 32.4589 14.318C32.4682 13.8327 32.3749 13.4033 32.1789 13.03C31.9829 12.6473 31.7122 12.3487 31.3669 12.134C31.0216 11.9193 30.6296 11.812 30.1909 11.812C29.7522 11.812 29.3556 11.924 29.0009 12.148C28.6556 12.3627 28.3849 12.6613 28.1889 13.044C27.9929 13.4173 27.8996 13.842 27.9089 14.318C27.8996 14.794 27.9929 15.2233 28.1889 15.606C28.3849 15.9793 28.6556 16.278 29.0009 16.502C29.3556 16.7167 29.7522 16.824 30.1909 16.824ZM37.9502 18.14C37.3342 18.14 36.7789 18.0327 36.2842 17.818C35.7895 17.6033 35.3789 17.286 35.0522 16.866L36.0322 16.026C36.3122 16.3527 36.6155 16.5907 36.9422 16.74C37.2782 16.88 37.6562 16.95 38.0762 16.95C38.2442 16.95 38.3982 16.9313 38.5382 16.894C38.6875 16.8473 38.8135 16.782 38.9162 16.698C39.0282 16.614 39.1122 16.516 39.1682 16.404C39.2242 16.2827 39.2522 16.152 39.2522 16.012C39.2522 15.7693 39.1635 15.5733 38.9862 15.424C38.8929 15.3587 38.7435 15.2887 38.5382 15.214C38.3422 15.13 38.0855 15.046 37.7682 14.962C37.2269 14.822 36.7835 14.6633 36.4382 14.486C36.0929 14.3087 35.8269 14.108 35.6402 13.884C35.5002 13.7067 35.3975 13.5153 35.3322 13.31C35.2669 13.0953 35.2342 12.862 35.2342 12.61C35.2342 12.302 35.2995 12.022 35.4302 11.77C35.5702 11.5087 35.7569 11.2847 35.9902 11.098C36.2329 10.902 36.5129 10.7527 36.8302 10.65C37.1569 10.5473 37.5022 10.496 37.8662 10.496C38.2115 10.496 38.5522 10.5427 38.8882 10.636C39.2335 10.7293 39.5509 10.8647 39.8402 11.042C40.1295 11.2193 40.3722 11.4293 40.5682 11.672L39.7422 12.582C39.5649 12.4047 39.3689 12.2507 39.1542 12.12C38.9489 11.98 38.7389 11.8727 38.5242 11.798C38.3095 11.7233 38.1135 11.686 37.9362 11.686C37.7402 11.686 37.5629 11.7047 37.4042 11.742C37.2455 11.7793 37.1102 11.8353 36.9982 11.91C36.8955 11.9847 36.8162 12.078 36.7602 12.19C36.7042 12.302 36.6762 12.428 36.6762 12.568C36.6855 12.6893 36.7135 12.806 36.7602 12.918C36.8162 13.0207 36.8909 13.1093 36.9842 13.184C37.0869 13.2587 37.2409 13.338 37.4462 13.422C37.6515 13.506 37.9129 13.5853 38.2302 13.66C38.6969 13.7813 39.0795 13.9167 39.3782 14.066C39.6862 14.206 39.9289 14.3693 40.1062 14.556C40.2929 14.7333 40.4235 14.9387 40.4982 15.172C40.5729 15.4053 40.6102 15.6667 40.6102 15.956C40.6102 16.376 40.4889 16.754 40.2462 17.09C40.0129 17.4167 39.6955 17.6733 39.2942 17.86C38.8929 18.0467 38.4449 18.14 37.9502 18.14ZM45.6294 18.14C44.8734 18.14 44.2014 17.9813 43.6134 17.664C43.0347 17.3373 42.5774 16.894 42.2414 16.334C41.9147 15.774 41.7514 15.13 41.7514 14.402C41.7514 13.8233 41.8447 13.296 42.0314 12.82C42.2181 12.344 42.4747 11.9333 42.8014 11.588C43.1374 11.2333 43.5341 10.9627 43.9914 10.776C44.4581 10.58 44.9621 10.482 45.5034 10.482C45.9794 10.482 46.4227 10.5753 46.8334 10.762C47.2441 10.9393 47.5987 11.1867 47.8974 11.504C48.2054 11.8213 48.4387 12.1993 48.5974 12.638C48.7654 13.0673 48.8447 13.5387 48.8354 14.052L48.8214 14.668H42.8154L42.4934 13.52H47.5754L47.3654 13.758V13.422C47.3374 13.114 47.2347 12.8387 47.0574 12.596C46.8801 12.3533 46.6561 12.162 46.3854 12.022C46.1147 11.882 45.8207 11.812 45.5034 11.812C44.9994 11.812 44.5747 11.91 44.2294 12.106C43.8841 12.2927 43.6227 12.5727 43.4454 12.946C43.2681 13.31 43.1794 13.7627 43.1794 14.304C43.1794 14.8173 43.2867 15.2653 43.5014 15.648C43.7161 16.0213 44.0194 16.3107 44.4114 16.516C44.8034 16.7213 45.2561 16.824 45.7694 16.824C46.1334 16.824 46.4694 16.7633 46.7774 16.642C47.0947 16.5207 47.4354 16.3013 47.7994 15.984L48.5274 17.006C48.3034 17.23 48.0281 17.426 47.7014 17.594C47.3841 17.762 47.0434 17.8973 46.6794 18C46.3247 18.0933 45.9747 18.14 45.6294 18.14ZM53.4685 18.14C52.7965 18.14 52.1945 17.9767 51.6625 17.65C51.1399 17.314 50.7245 16.8613 50.4165 16.292C50.1085 15.7133 49.9545 15.0553 49.9545 14.318C49.9545 13.5807 50.1039 12.9273 50.4025 12.358C50.7105 11.7793 51.1259 11.3267 51.6485 11C52.1712 10.664 52.7639 10.496 53.4265 10.496C53.7905 10.496 54.1405 10.5567 54.4765 10.678C54.8219 10.79 55.1299 10.9487 55.4005 11.154C55.6712 11.35 55.8812 11.5693 56.0305 11.812C56.1892 12.0453 56.2685 12.2833 56.2685 12.526L55.8485 12.554V7.64H57.2905V18H55.8485V16.25H56.1285C56.1285 16.474 56.0539 16.698 55.9045 16.922C55.7552 17.1367 55.5545 17.3373 55.3025 17.524C55.0599 17.7107 54.7752 17.86 54.4485 17.972C54.1312 18.084 53.8045 18.14 53.4685 18.14ZM53.6645 16.894C54.1032 16.894 54.4905 16.782 54.8265 16.558C55.1625 16.334 55.4239 16.0307 55.6105 15.648C55.8065 15.256 55.9045 14.8127 55.9045 14.318C55.9045 13.8233 55.8065 13.3847 55.6105 13.002C55.4239 12.61 55.1625 12.302 54.8265 12.078C54.4905 11.854 54.1032 11.742 53.6645 11.742C53.2259 11.742 52.8385 11.854 52.5025 12.078C52.1665 12.302 51.9005 12.61 51.7045 13.002C51.5179 13.3847 51.4245 13.8233 51.4245 14.318C51.4245 14.8127 51.5179 15.256 51.7045 15.648C51.9005 16.0307 52.1665 16.334 52.5025 16.558C52.8385 16.782 53.2259 16.894 53.6645 16.894Z" fill="#89909A"/>
<rect x="0.5" y="0.5" width="71" height="25" stroke="#CED3D9"/>
</svg>
