<svg width="22" height="22" viewBox="0 0 22 22" fill="none" xmlns="http://www.w3.org/2000/svg">
<path d="M11 22C9.13333 22 7.41667 21.575 5.85 20.725C4.28333 19.875 3 18.7417 2 17.325V20H0V14H6V16H3.525C4.325 17.2 5.37933 18.1667 6.688 18.9C7.996 19.6333 9.43333 20 11 20C12.25 20 13.421 19.7627 14.513 19.288C15.6043 18.8127 16.5543 18.1707 17.363 17.362C18.171 16.554 18.8127 15.604 19.288 14.512C19.7627 13.4207 20 12.25 20 11H22C22 12.5167 21.7127 13.9417 21.138 15.275C20.5627 16.6083 19.775 17.775 18.775 18.775C17.775 19.775 16.6083 20.5623 15.275 21.137C13.9417 21.7123 12.5167 22 11 22ZM10.1 18V16.7C9.31667 16.5167 8.67933 16.1793 8.188 15.688C7.696 15.196 7.33333 14.55 7.1 13.75L8.75 13.1C8.95 13.7833 9.26267 14.2957 9.688 14.637C10.1127 14.979 10.6 15.15 11.15 15.15C11.7 15.15 12.1707 15.0207 12.562 14.762C12.954 14.504 13.15 14.1 13.15 13.55C13.15 13.0667 12.946 12.675 12.538 12.375C12.1293 12.075 11.4 11.7333 10.35 11.35C9.36667 11 8.646 10.5833 8.188 10.1C7.72933 9.61667 7.5 8.98333 7.5 8.2C7.5 7.51667 7.73767 6.89567 8.213 6.337C8.68767 5.779 9.33333 5.41667 10.15 5.25V4H11.9V5.25C12.5 5.3 13.046 5.54167 13.538 5.975C14.0293 6.40833 14.3667 6.91667 14.55 7.5L12.95 8.15C12.8167 7.76667 12.6 7.446 12.3 7.188C12 6.92933 11.5833 6.8 11.05 6.8C10.4667 6.8 10.021 6.925 9.713 7.175C9.40433 7.425 9.25 7.76667 9.25 8.2C9.25 8.63333 9.44167 8.975 9.825 9.225C10.2083 9.475 10.9 9.76667 11.9 10.1C13.1 10.5333 13.9 11.0417 14.3 11.625C14.7 12.2083 14.9 12.85 14.9 13.55C14.9 14.0333 14.8167 14.4583 14.65 14.825C14.4833 15.1917 14.2627 15.504 13.988 15.762C13.7127 16.0207 13.3917 16.229 13.025 16.387C12.6583 16.5457 12.2667 16.6667 11.85 16.75V18H10.1ZM0 11C0 9.48333 0.287667 8.05833 0.863 6.725C1.43767 5.39167 2.225 4.225 3.225 3.225C4.225 2.225 5.39167 1.43733 6.725 0.862C8.05833 0.287333 9.48333 0 11 0C12.8667 0 14.5833 0.425 16.15 1.275C17.7167 2.125 19 3.25833 20 4.675V2H22V8H16V6H18.475C17.675 4.8 16.6207 3.83333 15.312 3.1C14.004 2.36667 12.5667 2 11 2C9.75 2 8.57933 2.23733 7.488 2.712C6.396 3.18733 5.446 3.829 4.638 4.637C3.82933 5.44567 3.18733 6.39567 2.712 7.487C2.23733 8.579 2 9.75 2 11H0Z" fill="#89909A"/>
</svg>
