<svg width="336" height="319" viewBox="0 0 336 319" fill="none" xmlns="http://www.w3.org/2000/svg">
<path d="M132.003 258.36C130.155 258.36 128.439 258.036 126.855 257.388C125.271 256.74 123.879 255.84 122.679 254.688C121.479 253.536 120.543 252.18 119.871 250.62C119.223 249.036 118.899 247.32 118.899 245.472C118.899 243.624 119.223 241.92 119.871 240.36C120.543 238.776 121.455 237.408 122.607 236.256C123.783 235.104 125.151 234.216 126.711 233.592C128.295 232.944 129.987 232.62 131.787 232.62C133.059 232.62 134.307 232.8 135.531 233.16C136.779 233.52 137.907 234.024 138.915 234.672C139.923 235.32 140.739 236.052 141.363 236.868L139.491 238.776C138.819 238.08 138.063 237.48 137.223 236.976C136.383 236.472 135.495 236.076 134.559 235.788C133.647 235.5 132.735 235.356 131.823 235.356C130.407 235.356 129.087 235.608 127.863 236.112C126.663 236.616 125.607 237.324 124.695 238.236C123.783 239.124 123.075 240.192 122.571 241.44C122.067 242.664 121.815 244.008 121.815 245.472C121.815 246.888 122.067 248.22 122.571 249.468C123.099 250.692 123.831 251.772 124.767 252.708C125.727 253.62 126.831 254.328 128.079 254.832C129.327 255.336 130.671 255.588 132.111 255.588C133.239 255.588 134.295 255.42 135.279 255.084C136.287 254.748 137.163 254.28 137.907 253.68C138.651 253.056 139.227 252.336 139.635 251.52C140.043 250.704 140.247 249.828 140.247 248.892V247.632L140.823 248.352H131.967V245.58H143.055C143.079 245.772 143.103 246 143.127 246.264C143.151 246.504 143.163 246.756 143.163 247.02C143.187 247.26 143.199 247.488 143.199 247.704C143.199 249.264 142.911 250.704 142.335 252.024C141.759 253.32 140.955 254.448 139.923 255.408C138.915 256.344 137.739 257.076 136.395 257.604C135.051 258.108 133.587 258.36 132.003 258.36ZM147.255 258V239.208H149.955L150.027 244.212L149.739 243.528C150.003 242.688 150.423 241.908 150.999 241.188C151.599 240.468 152.307 239.892 153.123 239.46C153.939 239.028 154.839 238.812 155.823 238.812C156.231 238.812 156.615 238.848 156.975 238.92C157.335 238.968 157.635 239.04 157.875 239.136L157.119 242.16C156.807 242.016 156.483 241.92 156.147 241.872C155.835 241.8 155.535 241.764 155.247 241.764C154.431 241.764 153.699 241.908 153.051 242.196C152.403 242.484 151.851 242.892 151.395 243.42C150.939 243.924 150.591 244.512 150.351 245.184C150.111 245.856 149.991 246.576 149.991 247.344V258H147.255ZM168.156 258.36C166.284 258.36 164.616 257.952 163.152 257.136C161.712 256.32 160.584 255.18 159.768 253.716C158.952 252.252 158.544 250.572 158.544 248.676C158.544 247.212 158.772 245.892 159.228 244.716C159.684 243.516 160.32 242.472 161.136 241.584C161.976 240.696 162.972 240.012 164.124 239.532C165.276 239.028 166.524 238.776 167.868 238.776C169.14 238.776 170.292 239.004 171.324 239.46C172.38 239.916 173.28 240.552 174.024 241.368C174.792 242.16 175.368 243.108 175.752 244.212C176.136 245.316 176.304 246.528 176.256 247.848L176.22 249.108H160.56L160.164 246.84H174.168L173.52 247.452V246.588C173.472 245.724 173.22 244.896 172.764 244.104C172.308 243.288 171.66 242.628 170.82 242.124C170.004 241.62 169.02 241.368 167.868 241.368C166.524 241.368 165.36 241.644 164.376 242.196C163.392 242.724 162.636 243.516 162.108 244.572C161.58 245.628 161.316 246.936 161.316 248.496C161.316 249.984 161.604 251.28 162.18 252.384C162.756 253.464 163.572 254.304 164.628 254.904C165.708 255.504 167.004 255.804 168.516 255.804C169.404 255.804 170.28 255.66 171.144 255.372C172.032 255.06 173.004 254.46 174.06 253.572L175.464 255.516C174.912 256.068 174.252 256.56 173.484 256.992C172.716 257.4 171.876 257.736 170.964 258C170.052 258.24 169.116 258.36 168.156 258.36ZM187.435 258.36C185.803 258.36 184.327 257.94 183.007 257.1C181.687 256.236 180.643 255.072 179.875 253.608C179.107 252.12 178.723 250.44 178.723 248.568C178.723 246.672 179.119 244.992 179.911 243.528C180.703 242.064 181.759 240.912 183.079 240.072C184.423 239.232 185.923 238.812 187.579 238.812C188.563 238.812 189.475 238.956 190.315 239.244C191.155 239.532 191.899 239.94 192.547 240.468C193.219 240.972 193.771 241.572 194.203 242.268C194.659 242.94 194.971 243.672 195.139 244.464L194.347 244.068L194.455 239.208H197.155V258H194.419V253.392L195.139 252.924C194.971 253.644 194.647 254.34 194.167 255.012C193.687 255.66 193.099 256.236 192.403 256.74C191.731 257.244 190.963 257.64 190.099 257.928C189.259 258.216 188.371 258.36 187.435 258.36ZM188.047 255.768C189.295 255.768 190.411 255.468 191.395 254.868C192.379 254.244 193.147 253.392 193.699 252.312C194.275 251.208 194.563 249.96 194.563 248.568C194.563 247.176 194.275 245.94 193.699 244.86C193.147 243.78 192.379 242.928 191.395 242.304C190.411 241.68 189.295 241.368 188.047 241.368C186.775 241.368 185.647 241.68 184.663 242.304C183.703 242.928 182.935 243.78 182.359 244.86C181.807 245.94 181.531 247.176 181.531 248.568C181.531 249.936 181.807 251.172 182.359 252.276C182.911 253.356 183.679 254.208 184.663 254.832C185.647 255.456 186.775 255.768 188.047 255.768ZM205.007 258V234.276H207.707V258H205.007ZM200.759 241.8V239.208H212.459V241.8H200.759ZM216.782 249.324C216.614 247.812 216.482 246.252 216.386 244.644C216.29 243.012 216.218 241.404 216.17 239.82C216.122 238.236 216.098 236.736 216.098 235.32V232.8H219.014V235.32C219.014 236.808 218.99 238.368 218.942 240C218.894 241.632 218.81 243.252 218.69 244.86C218.594 246.444 218.462 247.932 218.294 249.324H216.782ZM217.43 258.36C216.782 258.36 216.278 258.168 215.918 257.784C215.582 257.4 215.414 256.848 215.414 256.128C215.414 255.48 215.594 254.952 215.954 254.544C216.338 254.112 216.83 253.896 217.43 253.896C218.078 253.896 218.57 254.1 218.906 254.508C219.266 254.892 219.446 255.432 219.446 256.128C219.446 256.8 219.254 257.34 218.87 257.748C218.51 258.156 218.03 258.36 217.43 258.36Z" fill="#0A0A0A"/>
<path d="M12.8446 302V296.416L12.9566 297.2L8.42863 290.8H9.94863L13.6606 296.112L13.3246 296.08L16.7326 290.8H18.1726L13.8366 297.376L14.0766 296.288V302H12.8446ZM22.0359 302.16C21.2039 302.16 20.4625 301.973 19.8119 301.6C19.1719 301.227 18.6652 300.709 18.2919 300.048C17.9292 299.387 17.7479 298.635 17.7479 297.792C17.7479 296.96 17.9292 296.219 18.2919 295.568C18.6652 294.917 19.1719 294.405 19.8119 294.032C20.4625 293.659 21.2039 293.472 22.0359 293.472C22.8572 293.472 23.5879 293.659 24.2279 294.032C24.8785 294.405 25.3852 294.917 25.7479 295.568C26.1212 296.219 26.3079 296.96 26.3079 297.792C26.3079 298.635 26.1212 299.387 25.7479 300.048C25.3852 300.709 24.8785 301.227 24.2279 301.6C23.5879 301.973 22.8572 302.16 22.0359 302.16ZM22.0359 301.024C22.6225 301.024 23.1452 300.885 23.6039 300.608C24.0625 300.32 24.4199 299.936 24.6759 299.456C24.9319 298.965 25.0599 298.411 25.0599 297.792C25.0599 297.173 24.9319 296.624 24.6759 296.144C24.4199 295.664 24.0625 295.291 23.6039 295.024C23.1452 294.747 22.6225 294.608 22.0359 294.608C21.4492 294.608 20.9212 294.747 20.4519 295.024C19.9932 295.291 19.6305 295.669 19.3639 296.16C19.1079 296.64 18.9852 297.184 18.9959 297.792C18.9852 298.411 19.1079 298.965 19.3639 299.456C19.6305 299.936 19.9932 300.32 20.4519 300.608C20.9212 300.885 21.4492 301.024 22.0359 301.024ZM31.0186 302.16C30.3786 302.16 29.8346 302.032 29.3866 301.776C28.9493 301.509 28.6133 301.125 28.3786 300.624C28.1546 300.123 28.0426 299.499 28.0426 298.752V293.648H29.2586V298.512C29.2586 299.077 29.3333 299.552 29.4826 299.936C29.6426 300.309 29.8773 300.592 30.1866 300.784C30.5066 300.976 30.896 301.072 31.3546 301.072C31.7066 301.072 32.032 301.013 32.3306 300.896C32.6293 300.768 32.8906 300.597 33.1146 300.384C33.3386 300.171 33.5146 299.92 33.6426 299.632C33.7706 299.344 33.8346 299.04 33.8346 298.72V293.648H35.0346V302H33.8506L33.8026 300.24L33.9946 300.144C33.8666 300.517 33.6533 300.859 33.3546 301.168C33.056 301.467 32.6986 301.707 32.2826 301.888C31.8773 302.069 31.456 302.16 31.0186 302.16ZM37.3711 302V293.648H38.5711L38.6031 295.872L38.4751 295.568C38.5925 295.195 38.7791 294.848 39.0351 294.528C39.3018 294.208 39.6165 293.952 39.9791 293.76C40.3418 293.568 40.7418 293.472 41.1791 293.472C41.3605 293.472 41.5311 293.488 41.6911 293.52C41.8511 293.541 41.9845 293.573 42.0911 293.616L41.7551 294.96C41.6165 294.896 41.4725 294.853 41.3231 294.832C41.1845 294.8 41.0511 294.784 40.9231 294.784C40.5605 294.784 40.2351 294.848 39.9471 294.976C39.6591 295.104 39.4138 295.285 39.2111 295.52C39.0085 295.744 38.8538 296.005 38.7471 296.304C38.6405 296.603 38.5871 296.923 38.5871 297.264V302H37.3711ZM48.3043 302V290.8H55.0883V292.016H49.5523V300.784H55.0563V302H48.3043ZM48.8803 296.848V295.632H54.1923V296.848H48.8803ZM57.3864 302V293.648H58.5864L58.6184 295.552L58.3784 295.632C58.4637 295.312 58.6024 295.024 58.7944 294.768C58.997 294.501 59.237 294.272 59.5144 294.08C59.7917 293.888 60.0957 293.744 60.4264 293.648C60.757 293.541 61.1037 293.488 61.4664 293.488C61.9037 293.488 62.293 293.563 62.6344 293.712C62.9864 293.851 63.2797 294.096 63.5144 294.448C63.7597 294.789 63.9464 295.243 64.0744 295.808L63.7864 295.664L63.8984 295.392C64.005 295.147 64.1597 294.912 64.3624 294.688C64.5757 294.453 64.8157 294.245 65.0824 294.064C65.3597 293.883 65.6584 293.744 65.9784 293.648C66.309 293.541 66.645 293.488 66.9864 293.488C67.573 293.488 68.069 293.616 68.4744 293.872C68.8797 294.117 69.1837 294.496 69.3864 295.008C69.5997 295.52 69.7064 296.171 69.7064 296.96V302H68.4744V297.024C68.4744 296.469 68.405 296.016 68.2664 295.664C68.1277 295.312 67.9197 295.051 67.6424 294.88C67.3757 294.699 67.0344 294.608 66.6184 294.608C66.2557 294.608 65.9197 294.672 65.6104 294.8C65.3117 294.917 65.0504 295.088 64.8264 295.312C64.613 295.525 64.4424 295.771 64.3144 296.048C64.197 296.325 64.1384 296.624 64.1384 296.944V302H62.9224V297.008C62.9224 296.475 62.8477 296.032 62.6984 295.68C62.5597 295.328 62.3517 295.061 62.0744 294.88C61.797 294.699 61.4557 294.608 61.0504 294.608C60.6984 294.608 60.373 294.672 60.0744 294.8C59.7757 294.917 59.5144 295.083 59.2904 295.296C59.077 295.509 58.9064 295.755 58.7784 296.032C58.661 296.309 58.6024 296.608 58.6024 296.928V302H57.3864ZM75.2445 302.16C74.5192 302.16 73.8632 301.973 73.2765 301.6C72.6898 301.216 72.2258 300.699 71.8845 300.048C71.5432 299.387 71.3725 298.64 71.3725 297.808C71.3725 296.965 71.5485 296.219 71.9005 295.568C72.2525 294.917 72.7218 294.405 73.3085 294.032C73.9058 293.659 74.5725 293.472 75.3085 293.472C75.7458 293.472 76.1512 293.536 76.5245 293.664C76.8978 293.792 77.2285 293.973 77.5165 294.208C77.8152 294.432 78.0605 294.699 78.2525 295.008C78.4552 295.307 78.5938 295.632 78.6685 295.984L78.3165 295.808L78.3645 293.648H79.5645V302H78.3485V299.952L78.6685 299.744C78.5938 300.064 78.4498 300.373 78.2365 300.672C78.0232 300.96 77.7618 301.216 77.4525 301.44C77.1538 301.664 76.8125 301.84 76.4285 301.968C76.0552 302.096 75.6605 302.16 75.2445 302.16ZM75.5165 301.008C76.0712 301.008 76.5672 300.875 77.0045 300.608C77.4418 300.331 77.7832 299.952 78.0285 299.472C78.2845 298.981 78.4125 298.427 78.4125 297.808C78.4125 297.189 78.2845 296.64 78.0285 296.16C77.7832 295.68 77.4418 295.301 77.0045 295.024C76.5672 294.747 76.0712 294.608 75.5165 294.608C74.9512 294.608 74.4498 294.747 74.0125 295.024C73.5858 295.301 73.2445 295.68 72.9885 296.16C72.7432 296.64 72.6205 297.189 72.6205 297.808C72.6205 298.416 72.7432 298.965 72.9885 299.456C73.2338 299.936 73.5752 300.315 74.0125 300.592C74.4498 300.869 74.9512 301.008 75.5165 301.008ZM82.2224 302V293.648H83.4224V302H82.2224ZM82.8144 291.84C82.5157 291.84 82.2864 291.765 82.1264 291.616C81.977 291.456 81.9024 291.243 81.9024 290.976C81.9024 290.709 81.9824 290.496 82.1424 290.336C82.3024 290.176 82.5264 290.096 82.8144 290.096C83.1024 290.096 83.3264 290.176 83.4864 290.336C83.6464 290.485 83.7264 290.699 83.7264 290.976C83.7264 291.232 83.6464 291.44 83.4864 291.6C83.3264 291.76 83.1024 291.84 82.8144 291.84ZM86.075 302V290.16H87.275V302H86.075ZM93.3531 302L97.6411 290.8H99.0651L103.321 302H101.961L99.2251 294.736C99.1505 294.533 99.0651 294.299 98.9691 294.032C98.8838 293.755 98.7878 293.472 98.6811 293.184C98.5851 292.885 98.4891 292.597 98.3931 292.32C98.3078 292.043 98.2278 291.797 98.1531 291.584H98.4731C98.3878 291.851 98.2971 292.123 98.2011 292.4C98.1158 292.667 98.0251 292.939 97.9291 293.216C97.8331 293.483 97.7371 293.749 97.6411 294.016C97.5451 294.283 97.4491 294.549 97.3531 294.816L94.6331 302H93.3531ZM95.1771 298.912L95.6411 297.696H100.937L101.449 298.912H95.1771ZM107.966 302.16C107.209 302.16 106.526 301.973 105.918 301.6C105.321 301.227 104.846 300.715 104.494 300.064C104.153 299.403 103.982 298.656 103.982 297.824C103.982 296.981 104.158 296.235 104.51 295.584C104.862 294.923 105.337 294.405 105.934 294.032C106.532 293.659 107.204 293.472 107.95 293.472C108.366 293.472 108.766 293.536 109.15 293.664C109.545 293.792 109.897 293.973 110.206 294.208C110.516 294.432 110.772 294.693 110.974 294.992C111.177 295.28 111.3 295.584 111.342 295.904L110.974 295.776V290.16H112.174V302H110.99L110.958 299.92L111.262 299.808C111.22 300.107 111.097 300.4 110.894 300.688C110.702 300.965 110.457 301.216 110.158 301.44C109.86 301.664 109.518 301.84 109.134 301.968C108.761 302.096 108.372 302.16 107.966 302.16ZM108.142 301.056C108.697 301.056 109.193 300.917 109.63 300.64C110.068 300.363 110.409 299.979 110.654 299.488C110.91 298.997 111.038 298.437 111.038 297.808C111.038 297.179 110.91 296.624 110.654 296.144C110.409 295.653 110.068 295.269 109.63 294.992C109.193 294.704 108.697 294.56 108.142 294.56C107.566 294.56 107.06 294.704 106.622 294.992C106.196 295.269 105.854 295.653 105.598 296.144C105.353 296.624 105.23 297.179 105.23 297.808C105.23 298.427 105.353 298.981 105.598 299.472C105.844 299.963 106.185 300.352 106.622 300.64C107.06 300.917 107.566 301.056 108.142 301.056ZM117.904 302.16C117.146 302.16 116.464 301.973 115.856 301.6C115.258 301.227 114.784 300.715 114.432 300.064C114.09 299.403 113.92 298.656 113.92 297.824C113.92 296.981 114.096 296.235 114.448 295.584C114.8 294.923 115.274 294.405 115.872 294.032C116.469 293.659 117.141 293.472 117.888 293.472C118.304 293.472 118.704 293.536 119.088 293.664C119.482 293.792 119.834 293.973 120.144 294.208C120.453 294.432 120.709 294.693 120.912 294.992C121.114 295.28 121.237 295.584 121.28 295.904L120.912 295.776V290.16H122.112V302H120.928L120.896 299.92L121.2 299.808C121.157 300.107 121.034 300.4 120.832 300.688C120.64 300.965 120.394 301.216 120.096 301.44C119.797 301.664 119.456 301.84 119.072 301.968C118.698 302.096 118.309 302.16 117.904 302.16ZM118.08 301.056C118.634 301.056 119.13 300.917 119.568 300.64C120.005 300.363 120.346 299.979 120.592 299.488C120.848 298.997 120.976 298.437 120.976 297.808C120.976 297.179 120.848 296.624 120.592 296.144C120.346 295.653 120.005 295.269 119.568 294.992C119.13 294.704 118.634 294.56 118.08 294.56C117.504 294.56 116.997 294.704 116.56 294.992C116.133 295.269 115.792 295.653 115.536 296.144C115.29 296.624 115.168 297.179 115.168 297.808C115.168 298.427 115.29 298.981 115.536 299.472C115.781 299.963 116.122 300.352 116.56 300.64C116.997 300.917 117.504 301.056 118.08 301.056ZM124.449 302V293.648H125.649L125.681 295.872L125.553 295.568C125.671 295.195 125.857 294.848 126.113 294.528C126.38 294.208 126.695 293.952 127.057 293.76C127.42 293.568 127.82 293.472 128.257 293.472C128.439 293.472 128.609 293.488 128.769 293.52C128.929 293.541 129.063 293.573 129.169 293.616L128.833 294.96C128.695 294.896 128.551 294.853 128.401 294.832C128.263 294.8 128.129 294.784 128.001 294.784C127.639 294.784 127.313 294.848 127.025 294.976C126.737 295.104 126.492 295.285 126.289 295.52C126.087 295.744 125.932 296.005 125.825 296.304C125.719 296.603 125.665 296.923 125.665 297.264V302H124.449ZM133.739 302.16C132.907 302.16 132.165 301.979 131.515 301.616C130.875 301.253 130.373 300.747 130.011 300.096C129.648 299.445 129.467 298.699 129.467 297.856C129.467 297.205 129.568 296.619 129.771 296.096C129.973 295.563 130.256 295.099 130.619 294.704C130.992 294.309 131.435 294.005 131.947 293.792C132.459 293.568 133.013 293.456 133.611 293.456C134.176 293.456 134.688 293.557 135.147 293.76C135.616 293.963 136.016 294.245 136.347 294.608C136.688 294.96 136.944 295.381 137.115 295.872C137.285 296.363 137.36 296.901 137.339 297.488L137.323 298.048H130.363L130.187 297.04H136.411L136.123 297.312V296.928C136.101 296.544 135.989 296.176 135.787 295.824C135.584 295.461 135.296 295.168 134.923 294.944C134.56 294.72 134.123 294.608 133.611 294.608C133.013 294.608 132.496 294.731 132.059 294.976C131.621 295.211 131.285 295.563 131.051 296.032C130.816 296.501 130.699 297.083 130.699 297.776C130.699 298.437 130.827 299.013 131.083 299.504C131.339 299.984 131.701 300.357 132.171 300.624C132.651 300.891 133.227 301.024 133.899 301.024C134.293 301.024 134.683 300.96 135.067 300.832C135.461 300.693 135.893 300.427 136.363 300.032L136.987 300.896C136.741 301.141 136.448 301.36 136.107 301.552C135.765 301.733 135.392 301.883 134.987 302C134.581 302.107 134.165 302.16 133.739 302.16ZM141.779 302.16C141.064 302.16 140.424 302.027 139.859 301.76C139.294 301.493 138.846 301.141 138.515 300.704L139.363 299.968C139.672 300.341 140.035 300.624 140.451 300.816C140.878 301.008 141.352 301.104 141.875 301.104C142.142 301.104 142.382 301.077 142.595 301.024C142.808 300.96 142.995 300.869 143.155 300.752C143.315 300.635 143.438 300.496 143.523 300.336C143.608 300.176 143.651 300 143.651 299.808C143.651 299.456 143.496 299.163 143.187 298.928C143.048 298.832 142.851 298.736 142.595 298.64C142.339 298.533 142.03 298.432 141.667 298.336C141.07 298.165 140.574 297.995 140.179 297.824C139.784 297.643 139.475 297.435 139.251 297.2C139.091 297.008 138.968 296.8 138.883 296.576C138.808 296.352 138.771 296.107 138.771 295.84C138.771 295.499 138.84 295.184 138.979 294.896C139.128 294.608 139.331 294.357 139.587 294.144C139.854 293.92 140.163 293.755 140.515 293.648C140.878 293.531 141.267 293.472 141.683 293.472C142.078 293.472 142.467 293.525 142.851 293.632C143.235 293.739 143.592 293.893 143.923 294.096C144.254 294.299 144.536 294.539 144.771 294.816L144.035 295.616C143.832 295.403 143.608 295.211 143.363 295.04C143.118 294.869 142.856 294.736 142.579 294.64C142.312 294.544 142.035 294.496 141.747 294.496C141.491 294.496 141.251 294.528 141.027 294.592C140.814 294.656 140.627 294.747 140.467 294.864C140.318 294.971 140.2 295.104 140.115 295.264C140.04 295.424 140.003 295.6 140.003 295.792C140.003 295.952 140.035 296.096 140.099 296.224C140.163 296.352 140.254 296.464 140.371 296.56C140.52 296.677 140.728 296.789 140.995 296.896C141.272 296.992 141.614 297.093 142.019 297.2C142.488 297.328 142.883 297.461 143.203 297.6C143.534 297.728 143.806 297.883 144.019 298.064C144.307 298.277 144.51 298.523 144.627 298.8C144.755 299.077 144.819 299.392 144.819 299.744C144.819 300.213 144.686 300.629 144.419 300.992C144.163 301.355 143.806 301.643 143.347 301.856C142.888 302.059 142.366 302.16 141.779 302.16ZM149.435 302.16C148.721 302.16 148.081 302.027 147.515 301.76C146.95 301.493 146.502 301.141 146.171 300.704L147.019 299.968C147.329 300.341 147.691 300.624 148.107 300.816C148.534 301.008 149.009 301.104 149.531 301.104C149.798 301.104 150.038 301.077 150.251 301.024C150.465 300.96 150.651 300.869 150.811 300.752C150.971 300.635 151.094 300.496 151.179 300.336C151.265 300.176 151.307 300 151.307 299.808C151.307 299.456 151.153 299.163 150.843 298.928C150.705 298.832 150.507 298.736 150.251 298.64C149.995 298.533 149.686 298.432 149.323 298.336C148.726 298.165 148.23 297.995 147.835 297.824C147.441 297.643 147.131 297.435 146.907 297.2C146.747 297.008 146.625 296.8 146.539 296.576C146.465 296.352 146.427 296.107 146.427 295.84C146.427 295.499 146.497 295.184 146.635 294.896C146.785 294.608 146.987 294.357 147.243 294.144C147.51 293.92 147.819 293.755 148.171 293.648C148.534 293.531 148.923 293.472 149.339 293.472C149.734 293.472 150.123 293.525 150.507 293.632C150.891 293.739 151.249 293.893 151.579 294.096C151.91 294.299 152.193 294.539 152.427 294.816L151.691 295.616C151.489 295.403 151.265 295.211 151.019 295.04C150.774 294.869 150.513 294.736 150.235 294.64C149.969 294.544 149.691 294.496 149.403 294.496C149.147 294.496 148.907 294.528 148.683 294.592C148.47 294.656 148.283 294.747 148.123 294.864C147.974 294.971 147.857 295.104 147.771 295.264C147.697 295.424 147.659 295.6 147.659 295.792C147.659 295.952 147.691 296.096 147.755 296.224C147.819 296.352 147.91 296.464 148.027 296.56C148.177 296.677 148.385 296.789 148.651 296.896C148.929 296.992 149.27 297.093 149.675 297.2C150.145 297.328 150.539 297.461 150.859 297.6C151.19 297.728 151.462 297.883 151.675 298.064C151.963 298.277 152.166 298.523 152.283 298.8C152.411 299.077 152.475 299.392 152.475 299.744C152.475 300.213 152.342 300.629 152.075 300.992C151.819 301.355 151.462 301.643 151.003 301.856C150.545 302.059 150.022 302.16 149.435 302.16ZM159.16 302V293.648H160.36V302H159.16ZM159.752 291.84C159.453 291.84 159.224 291.765 159.064 291.616C158.915 291.456 158.84 291.243 158.84 290.976C158.84 290.709 158.92 290.496 159.08 290.336C159.24 290.176 159.464 290.096 159.752 290.096C160.04 290.096 160.264 290.176 160.424 290.336C160.584 290.485 160.664 290.699 160.664 290.976C160.664 291.232 160.584 291.44 160.424 291.6C160.264 291.76 160.04 291.84 159.752 291.84ZM165.717 302.16C165.002 302.16 164.362 302.027 163.797 301.76C163.231 301.493 162.783 301.141 162.453 300.704L163.301 299.968C163.61 300.341 163.973 300.624 164.389 300.816C164.815 301.008 165.29 301.104 165.812 301.104C166.079 301.104 166.319 301.077 166.533 301.024C166.746 300.96 166.933 300.869 167.093 300.752C167.253 300.635 167.375 300.496 167.461 300.336C167.546 300.176 167.589 300 167.589 299.808C167.589 299.456 167.434 299.163 167.125 298.928C166.986 298.832 166.789 298.736 166.533 298.64C166.277 298.533 165.967 298.432 165.605 298.336C165.007 298.165 164.511 297.995 164.117 297.824C163.722 297.643 163.413 297.435 163.189 297.2C163.029 297.008 162.906 296.8 162.821 296.576C162.746 296.352 162.709 296.107 162.709 295.84C162.709 295.499 162.778 295.184 162.917 294.896C163.066 294.608 163.269 294.357 163.525 294.144C163.791 293.92 164.101 293.755 164.453 293.648C164.815 293.531 165.205 293.472 165.621 293.472C166.015 293.472 166.405 293.525 166.789 293.632C167.173 293.739 167.53 293.893 167.861 294.096C168.191 294.299 168.474 294.539 168.709 294.816L167.973 295.616C167.77 295.403 167.546 295.211 167.301 295.04C167.055 294.869 166.794 294.736 166.516 294.64C166.25 294.544 165.973 294.496 165.685 294.496C165.429 294.496 165.189 294.528 164.965 294.592C164.751 294.656 164.565 294.747 164.405 294.864C164.255 294.971 164.138 295.104 164.053 295.264C163.978 295.424 163.941 295.6 163.941 295.792C163.941 295.952 163.973 296.096 164.037 296.224C164.101 296.352 164.191 296.464 164.309 296.56C164.458 296.677 164.666 296.789 164.933 296.896C165.21 296.992 165.551 297.093 165.957 297.2C166.426 297.328 166.821 297.461 167.141 297.6C167.471 297.728 167.743 297.883 167.957 298.064C168.245 298.277 168.447 298.523 168.565 298.8C168.693 299.077 168.757 299.392 168.757 299.744C168.757 300.213 168.623 300.629 168.357 300.992C168.101 301.355 167.743 301.643 167.285 301.856C166.826 302.059 166.303 302.16 165.717 302.16ZM177.857 302.16C177.142 302.16 176.502 302.027 175.937 301.76C175.372 301.493 174.924 301.141 174.593 300.704L175.441 299.968C175.75 300.341 176.113 300.624 176.529 300.816C176.956 301.008 177.43 301.104 177.953 301.104C178.22 301.104 178.46 301.077 178.673 301.024C178.886 300.96 179.073 300.869 179.233 300.752C179.393 300.635 179.516 300.496 179.601 300.336C179.686 300.176 179.729 300 179.729 299.808C179.729 299.456 179.574 299.163 179.265 298.928C179.126 298.832 178.929 298.736 178.673 298.64C178.417 298.533 178.108 298.432 177.745 298.336C177.148 298.165 176.652 297.995 176.257 297.824C175.862 297.643 175.553 297.435 175.329 297.2C175.169 297.008 175.046 296.8 174.961 296.576C174.886 296.352 174.849 296.107 174.849 295.84C174.849 295.499 174.918 295.184 175.057 294.896C175.206 294.608 175.409 294.357 175.665 294.144C175.932 293.92 176.241 293.755 176.593 293.648C176.956 293.531 177.345 293.472 177.761 293.472C178.156 293.472 178.545 293.525 178.929 293.632C179.313 293.739 179.67 293.893 180.001 294.096C180.332 294.299 180.614 294.539 180.849 294.816L180.113 295.616C179.91 295.403 179.686 295.211 179.441 295.04C179.196 294.869 178.934 294.736 178.657 294.64C178.39 294.544 178.113 294.496 177.825 294.496C177.569 294.496 177.329 294.528 177.105 294.592C176.892 294.656 176.705 294.747 176.545 294.864C176.396 294.971 176.278 295.104 176.193 295.264C176.118 295.424 176.081 295.6 176.081 295.792C176.081 295.952 176.113 296.096 176.177 296.224C176.241 296.352 176.332 296.464 176.449 296.56C176.598 296.677 176.806 296.789 177.073 296.896C177.35 296.992 177.692 297.093 178.097 297.2C178.566 297.328 178.961 297.461 179.281 297.6C179.612 297.728 179.884 297.883 180.097 298.064C180.385 298.277 180.588 298.523 180.705 298.8C180.833 299.077 180.897 299.392 180.897 299.744C180.897 300.213 180.764 300.629 180.497 300.992C180.241 301.355 179.884 301.643 179.425 301.856C178.966 302.059 178.444 302.16 177.857 302.16ZM185.737 302.16C185.097 302.16 184.553 302.032 184.105 301.776C183.668 301.509 183.332 301.125 183.097 300.624C182.873 300.123 182.761 299.499 182.761 298.752V293.648H183.977V298.512C183.977 299.077 184.052 299.552 184.201 299.936C184.361 300.309 184.596 300.592 184.905 300.784C185.225 300.976 185.615 301.072 186.073 301.072C186.425 301.072 186.751 301.013 187.049 300.896C187.348 300.768 187.609 300.597 187.833 300.384C188.057 300.171 188.233 299.92 188.361 299.632C188.489 299.344 188.553 299.04 188.553 298.72V293.648H189.753V302H188.569L188.521 300.24L188.713 300.144C188.585 300.517 188.372 300.859 188.073 301.168C187.775 301.467 187.417 301.707 187.001 301.888C186.596 302.069 186.175 302.16 185.737 302.16ZM195.61 302.16C194.821 302.16 194.117 301.973 193.498 301.6C192.879 301.216 192.389 300.699 192.026 300.048C191.674 299.387 191.498 298.64 191.498 297.808C191.498 296.976 191.674 296.235 192.026 295.584C192.389 294.923 192.879 294.405 193.498 294.032C194.117 293.659 194.826 293.472 195.626 293.472C196.341 293.472 196.991 293.616 197.578 293.904C198.165 294.181 198.634 294.571 198.986 295.072L198.282 295.936C198.079 295.669 197.834 295.435 197.546 295.232C197.269 295.029 196.965 294.875 196.634 294.768C196.314 294.651 195.994 294.592 195.674 294.592C195.109 294.592 194.602 294.736 194.154 295.024C193.706 295.301 193.349 295.68 193.082 296.16C192.826 296.64 192.698 297.189 192.698 297.808C192.698 298.427 192.826 298.981 193.082 299.472C193.349 299.952 193.706 300.331 194.154 300.608C194.602 300.885 195.103 301.024 195.658 301.024C195.978 301.024 196.293 300.976 196.602 300.88C196.911 300.773 197.205 300.624 197.482 300.432C197.759 300.24 198.015 300 198.25 299.712L198.954 300.576C198.591 301.056 198.106 301.44 197.498 301.728C196.89 302.016 196.261 302.16 195.61 302.16ZM204.032 302.16C203.242 302.16 202.538 301.973 201.92 301.6C201.301 301.216 200.81 300.699 200.448 300.048C200.096 299.387 199.92 298.64 199.92 297.808C199.92 296.976 200.096 296.235 200.448 295.584C200.81 294.923 201.301 294.405 201.92 294.032C202.538 293.659 203.248 293.472 204.048 293.472C204.762 293.472 205.413 293.616 206 293.904C206.586 294.181 207.056 294.571 207.408 295.072L206.704 295.936C206.501 295.669 206.256 295.435 205.968 295.232C205.69 295.029 205.386 294.875 205.056 294.768C204.736 294.651 204.416 294.592 204.096 294.592C203.53 294.592 203.024 294.736 202.576 295.024C202.128 295.301 201.77 295.68 201.504 296.16C201.248 296.64 201.12 297.189 201.12 297.808C201.12 298.427 201.248 298.981 201.504 299.472C201.77 299.952 202.128 300.331 202.576 300.608C203.024 300.885 203.525 301.024 204.08 301.024C204.4 301.024 204.714 300.976 205.024 300.88C205.333 300.773 205.626 300.624 205.904 300.432C206.181 300.24 206.437 300 206.672 299.712L207.376 300.576C207.013 301.056 206.528 301.44 205.92 301.728C205.312 302.016 204.682 302.16 204.032 302.16ZM212.614 302.16C211.782 302.16 211.04 301.979 210.39 301.616C209.75 301.253 209.248 300.747 208.886 300.096C208.523 299.445 208.342 298.699 208.342 297.856C208.342 297.205 208.443 296.619 208.646 296.096C208.848 295.563 209.131 295.099 209.494 294.704C209.867 294.309 210.31 294.005 210.822 293.792C211.334 293.568 211.888 293.456 212.486 293.456C213.051 293.456 213.563 293.557 214.022 293.76C214.491 293.963 214.891 294.245 215.222 294.608C215.563 294.96 215.819 295.381 215.99 295.872C216.16 296.363 216.235 296.901 216.214 297.488L216.198 298.048H209.238L209.062 297.04H215.286L214.998 297.312V296.928C214.976 296.544 214.864 296.176 214.662 295.824C214.459 295.461 214.171 295.168 213.798 294.944C213.435 294.72 212.998 294.608 212.486 294.608C211.888 294.608 211.371 294.731 210.934 294.976C210.496 295.211 210.16 295.563 209.926 296.032C209.691 296.501 209.574 297.083 209.574 297.776C209.574 298.437 209.702 299.013 209.958 299.504C210.214 299.984 210.576 300.357 211.046 300.624C211.526 300.891 212.102 301.024 212.774 301.024C213.168 301.024 213.558 300.96 213.942 300.832C214.336 300.693 214.768 300.427 215.238 300.032L215.862 300.896C215.616 301.141 215.323 301.36 214.982 301.552C214.64 301.733 214.267 301.883 213.862 302C213.456 302.107 213.04 302.16 212.614 302.16ZM220.654 302.16C219.939 302.16 219.299 302.027 218.734 301.76C218.169 301.493 217.721 301.141 217.39 300.704L218.238 299.968C218.547 300.341 218.91 300.624 219.326 300.816C219.753 301.008 220.227 301.104 220.75 301.104C221.017 301.104 221.257 301.077 221.47 301.024C221.683 300.96 221.87 300.869 222.03 300.752C222.19 300.635 222.313 300.496 222.398 300.336C222.483 300.176 222.526 300 222.526 299.808C222.526 299.456 222.371 299.163 222.062 298.928C221.923 298.832 221.726 298.736 221.47 298.64C221.214 298.533 220.905 298.432 220.542 298.336C219.945 298.165 219.449 297.995 219.054 297.824C218.659 297.643 218.35 297.435 218.126 297.2C217.966 297.008 217.843 296.8 217.758 296.576C217.683 296.352 217.646 296.107 217.646 295.84C217.646 295.499 217.715 295.184 217.854 294.896C218.003 294.608 218.206 294.357 218.462 294.144C218.729 293.92 219.038 293.755 219.39 293.648C219.753 293.531 220.142 293.472 220.558 293.472C220.953 293.472 221.342 293.525 221.726 293.632C222.11 293.739 222.467 293.893 222.798 294.096C223.129 294.299 223.411 294.539 223.646 294.816L222.91 295.616C222.707 295.403 222.483 295.211 222.238 295.04C221.993 294.869 221.731 294.736 221.454 294.64C221.187 294.544 220.91 294.496 220.622 294.496C220.366 294.496 220.126 294.528 219.902 294.592C219.689 294.656 219.502 294.747 219.342 294.864C219.193 294.971 219.075 295.104 218.99 295.264C218.915 295.424 218.878 295.6 218.878 295.792C218.878 295.952 218.91 296.096 218.974 296.224C219.038 296.352 219.129 296.464 219.246 296.56C219.395 296.677 219.603 296.789 219.87 296.896C220.147 296.992 220.489 297.093 220.894 297.2C221.363 297.328 221.758 297.461 222.078 297.6C222.409 297.728 222.681 297.883 222.894 298.064C223.182 298.277 223.385 298.523 223.502 298.8C223.63 299.077 223.694 299.392 223.694 299.744C223.694 300.213 223.561 300.629 223.294 300.992C223.038 301.355 222.681 301.643 222.222 301.856C221.763 302.059 221.241 302.16 220.654 302.16ZM228.31 302.16C227.596 302.16 226.956 302.027 226.39 301.76C225.825 301.493 225.377 301.141 225.046 300.704L225.894 299.968C226.204 300.341 226.566 300.624 226.982 300.816C227.409 301.008 227.884 301.104 228.406 301.104C228.673 301.104 228.913 301.077 229.126 301.024C229.34 300.96 229.526 300.869 229.686 300.752C229.846 300.635 229.969 300.496 230.054 300.336C230.14 300.176 230.182 300 230.182 299.808C230.182 299.456 230.028 299.163 229.718 298.928C229.58 298.832 229.382 298.736 229.126 298.64C228.87 298.533 228.561 298.432 228.198 298.336C227.601 298.165 227.105 297.995 226.71 297.824C226.316 297.643 226.006 297.435 225.782 297.2C225.622 297.008 225.5 296.8 225.414 296.576C225.34 296.352 225.302 296.107 225.302 295.84C225.302 295.499 225.372 295.184 225.51 294.896C225.66 294.608 225.862 294.357 226.118 294.144C226.385 293.92 226.694 293.755 227.046 293.648C227.409 293.531 227.798 293.472 228.214 293.472C228.609 293.472 228.998 293.525 229.382 293.632C229.766 293.739 230.124 293.893 230.454 294.096C230.785 294.299 231.068 294.539 231.302 294.816L230.566 295.616C230.364 295.403 230.14 295.211 229.894 295.04C229.649 294.869 229.388 294.736 229.11 294.64C228.844 294.544 228.566 294.496 228.278 294.496C228.022 294.496 227.782 294.528 227.558 294.592C227.345 294.656 227.158 294.747 226.998 294.864C226.849 294.971 226.732 295.104 226.646 295.264C226.572 295.424 226.534 295.6 226.534 295.792C226.534 295.952 226.566 296.096 226.63 296.224C226.694 296.352 226.785 296.464 226.902 296.56C227.052 296.677 227.26 296.789 227.526 296.896C227.804 296.992 228.145 297.093 228.55 297.2C229.02 297.328 229.414 297.461 229.734 297.6C230.065 297.728 230.337 297.883 230.55 298.064C230.838 298.277 231.041 298.523 231.158 298.8C231.286 299.077 231.35 299.392 231.35 299.744C231.35 300.213 231.217 300.629 230.95 300.992C230.694 301.355 230.337 301.643 229.878 301.856C229.42 302.059 228.897 302.16 228.31 302.16ZM234.191 302V292.352C234.191 291.936 234.281 291.568 234.463 291.248C234.644 290.928 234.9 290.677 235.231 290.496C235.572 290.304 235.967 290.208 236.415 290.208C236.756 290.208 237.06 290.272 237.327 290.4C237.604 290.517 237.833 290.683 238.015 290.896L237.599 291.84C237.428 291.659 237.241 291.531 237.039 291.456C236.847 291.371 236.66 291.328 236.479 291.328C236.244 291.328 236.047 291.371 235.887 291.456C235.727 291.531 235.604 291.648 235.519 291.808C235.444 291.957 235.407 292.139 235.407 292.352V302H234.847C234.729 302 234.617 302 234.511 302C234.404 302 234.297 302 234.191 302ZM232.703 294.832V293.712H237.535V294.832H232.703ZM242.237 302.16C241.597 302.16 241.053 302.032 240.605 301.776C240.168 301.509 239.832 301.125 239.597 300.624C239.373 300.123 239.261 299.499 239.261 298.752V293.648H240.477V298.512C240.477 299.077 240.552 299.552 240.701 299.936C240.861 300.309 241.096 300.592 241.405 300.784C241.725 300.976 242.115 301.072 242.573 301.072C242.925 301.072 243.251 301.013 243.549 300.896C243.848 300.768 244.109 300.597 244.333 300.384C244.557 300.171 244.733 299.92 244.861 299.632C244.989 299.344 245.053 299.04 245.053 298.72V293.648H246.253V302H245.069L245.021 300.24L245.213 300.144C245.085 300.517 244.872 300.859 244.573 301.168C244.275 301.467 243.917 301.707 243.501 301.888C243.096 302.069 242.675 302.16 242.237 302.16ZM248.622 302V290.16H249.822V302H248.622ZM252.216 302V290.16H253.416V302H252.216ZM256.951 305.68L258.567 301.744L258.679 302.88L254.487 293.648H255.847L258.711 300.048C258.796 300.219 258.882 300.421 258.967 300.656C259.052 300.88 259.132 301.104 259.207 301.328L258.759 301.28C258.834 301.099 258.903 300.912 258.967 300.72C259.042 300.528 259.111 300.341 259.175 300.16L261.687 293.648H263.063L259.687 302L258.247 305.68H256.951ZM271.401 302L267.881 293.648H269.209L271.993 300.48L271.673 300.656L274.729 293.648H276.009L272.265 302H271.401ZM280.864 302.16C280.032 302.16 279.29 301.979 278.64 301.616C278 301.253 277.498 300.747 277.136 300.096C276.773 299.445 276.592 298.699 276.592 297.856C276.592 297.205 276.693 296.619 276.896 296.096C277.098 295.563 277.381 295.099 277.744 294.704C278.117 294.309 278.56 294.005 279.072 293.792C279.584 293.568 280.138 293.456 280.736 293.456C281.301 293.456 281.813 293.557 282.272 293.76C282.741 293.963 283.141 294.245 283.472 294.608C283.813 294.96 284.069 295.381 284.24 295.872C284.41 296.363 284.485 296.901 284.464 297.488L284.448 298.048H277.488L277.312 297.04H283.536L283.248 297.312V296.928C283.226 296.544 283.114 296.176 282.912 295.824C282.709 295.461 282.421 295.168 282.048 294.944C281.685 294.72 281.248 294.608 280.736 294.608C280.138 294.608 279.621 294.731 279.184 294.976C278.746 295.211 278.41 295.563 278.176 296.032C277.941 296.501 277.824 297.083 277.824 297.776C277.824 298.437 277.952 299.013 278.208 299.504C278.464 299.984 278.826 300.357 279.296 300.624C279.776 300.891 280.352 301.024 281.024 301.024C281.418 301.024 281.808 300.96 282.192 300.832C282.586 300.693 283.018 300.427 283.488 300.032L284.112 300.896C283.866 301.141 283.573 301.36 283.232 301.552C282.89 301.733 282.517 301.883 282.112 302C281.706 302.107 281.29 302.16 280.864 302.16ZM286.168 302V293.648H287.368L287.4 295.872L287.272 295.568C287.389 295.195 287.576 294.848 287.832 294.528C288.099 294.208 288.413 293.952 288.776 293.76C289.139 293.568 289.539 293.472 289.976 293.472C290.157 293.472 290.328 293.488 290.488 293.52C290.648 293.541 290.781 293.573 290.888 293.616L290.552 294.96C290.413 294.896 290.269 294.853 290.12 294.832C289.981 294.8 289.848 294.784 289.72 294.784C289.357 294.784 289.032 294.848 288.744 294.976C288.456 295.104 288.211 295.285 288.008 295.52C287.805 295.744 287.651 296.005 287.544 296.304C287.437 296.603 287.384 296.923 287.384 297.264V302H286.168ZM292.457 302V293.648H293.657V302H292.457ZM293.049 291.84C292.75 291.84 292.521 291.765 292.361 291.616C292.211 291.456 292.137 291.243 292.137 290.976C292.137 290.709 292.217 290.496 292.377 290.336C292.537 290.176 292.761 290.096 293.049 290.096C293.337 290.096 293.561 290.176 293.721 290.336C293.881 290.485 293.961 290.699 293.961 290.976C293.961 291.232 293.881 291.44 293.721 291.6C293.561 291.76 293.337 291.84 293.049 291.84ZM297.237 302V292.352C297.237 291.936 297.328 291.568 297.509 291.248C297.691 290.928 297.947 290.677 298.277 290.496C298.619 290.304 299.013 290.208 299.461 290.208C299.803 290.208 300.107 290.272 300.373 290.4C300.651 290.517 300.88 290.683 301.061 290.896L300.645 291.84C300.475 291.659 300.288 291.531 300.085 291.456C299.893 291.371 299.707 291.328 299.525 291.328C299.291 291.328 299.093 291.371 298.933 291.456C298.773 291.531 298.651 291.648 298.565 291.808C298.491 291.957 298.453 292.139 298.453 292.352V302H297.893C297.776 302 297.664 302 297.557 302C297.451 302 297.344 302 297.237 302ZM295.749 294.832V293.712H300.581V294.832H295.749ZM302.645 302V293.648H303.845V302H302.645ZM303.237 291.84C302.939 291.84 302.709 291.765 302.549 291.616C302.4 291.456 302.325 291.243 302.325 290.976C302.325 290.709 302.405 290.496 302.565 290.336C302.725 290.176 302.949 290.096 303.237 290.096C303.525 290.096 303.749 290.176 303.909 290.336C304.069 290.485 304.149 290.699 304.149 290.976C304.149 291.232 304.069 291.44 303.909 291.6C303.749 291.76 303.525 291.84 303.237 291.84ZM310.145 302.16C309.313 302.16 308.572 301.979 307.921 301.616C307.281 301.253 306.78 300.747 306.417 300.096C306.054 299.445 305.873 298.699 305.873 297.856C305.873 297.205 305.974 296.619 306.177 296.096C306.38 295.563 306.662 295.099 307.025 294.704C307.398 294.309 307.841 294.005 308.353 293.792C308.865 293.568 309.42 293.456 310.017 293.456C310.582 293.456 311.094 293.557 311.553 293.76C312.022 293.963 312.422 294.245 312.753 294.608C313.094 294.96 313.35 295.381 313.521 295.872C313.692 296.363 313.766 296.901 313.745 297.488L313.729 298.048H306.769L306.593 297.04H312.817L312.529 297.312V296.928C312.508 296.544 312.396 296.176 312.193 295.824C311.99 295.461 311.702 295.168 311.329 294.944C310.966 294.72 310.529 294.608 310.017 294.608C309.42 294.608 308.902 294.731 308.465 294.976C308.028 295.211 307.692 295.563 307.457 296.032C307.222 296.501 307.105 297.083 307.105 297.776C307.105 298.437 307.233 299.013 307.489 299.504C307.745 299.984 308.108 300.357 308.577 300.624C309.057 300.891 309.633 301.024 310.305 301.024C310.7 301.024 311.089 300.96 311.473 300.832C311.868 300.693 312.3 300.427 312.769 300.032L313.393 300.896C313.148 301.141 312.854 301.36 312.513 301.552C312.172 301.733 311.798 301.883 311.393 302C310.988 302.107 310.572 302.16 310.145 302.16ZM318.841 302.16C318.084 302.16 317.401 301.973 316.793 301.6C316.196 301.227 315.721 300.715 315.369 300.064C315.028 299.403 314.857 298.656 314.857 297.824C314.857 296.981 315.033 296.235 315.385 295.584C315.737 294.923 316.212 294.405 316.809 294.032C317.407 293.659 318.079 293.472 318.825 293.472C319.241 293.472 319.641 293.536 320.025 293.664C320.42 293.792 320.772 293.973 321.081 294.208C321.391 294.432 321.647 294.693 321.849 294.992C322.052 295.28 322.175 295.584 322.217 295.904L321.849 295.776V290.16H323.049V302H321.865L321.833 299.92L322.137 299.808C322.095 300.107 321.972 300.4 321.769 300.688C321.577 300.965 321.332 301.216 321.033 301.44C320.735 301.664 320.393 301.84 320.009 301.968C319.636 302.096 319.247 302.16 318.841 302.16ZM319.017 301.056C319.572 301.056 320.068 300.917 320.505 300.64C320.943 300.363 321.284 299.979 321.529 299.488C321.785 298.997 321.913 298.437 321.913 297.808C321.913 297.179 321.785 296.624 321.529 296.144C321.284 295.653 320.943 295.269 320.505 294.992C320.068 294.704 319.572 294.56 319.017 294.56C318.441 294.56 317.935 294.704 317.497 294.992C317.071 295.269 316.729 295.653 316.473 296.144C316.228 296.624 316.105 297.179 316.105 297.808C316.105 298.427 316.228 298.981 316.473 299.472C316.719 299.963 317.06 300.352 317.497 300.64C317.935 300.917 318.441 301.056 319.017 301.056ZM326.043 302.16C325.755 302.16 325.531 302.075 325.371 301.904C325.221 301.733 325.147 301.488 325.147 301.168C325.147 300.88 325.227 300.645 325.387 300.464C325.557 300.272 325.776 300.176 326.043 300.176C326.331 300.176 326.549 300.267 326.699 300.448C326.859 300.619 326.939 300.859 326.939 301.168C326.939 301.467 326.853 301.707 326.683 301.888C326.523 302.069 326.309 302.16 326.043 302.16Z" fill="#0A0A0A"/>
<rect x="105" y="56" width="128" height="128" rx="64" fill="white"/>
<rect x="114" y="65" width="110" height="110" rx="55" fill="#00AA00"/>
<path d="M163.423 135L149 120.577L153.038 116.538L163.423 126.923L185.346 105L189.385 109.038L163.423 135Z" fill="white"/>
<rect x="105" y="56" width="128" height="128" rx="64" stroke="#00AA00" stroke-width="2"/>
<path d="M80.1381 30.2035C82.4186 27.9233 82.4188 24.2257 80.138 21.9449C77.8578 19.6647 74.1603 19.6644 71.8793 21.9447C71.8792 21.9448 71.8791 21.9449 71.879 21.945M80.1381 30.2035L71.879 21.945M80.1381 30.2035C77.857 32.4843 74.1594 32.4841 71.8793 30.2038C69.5989 27.9231 69.5988 24.2259 71.879 21.945M80.1381 30.2035L71.879 21.945" fill="#32CD32" stroke="white" stroke-width="7"/>
<path d="M265.055 215.121L265.055 215.121C267.335 212.841 267.335 209.143 265.055 206.862C265.055 206.862 265.055 206.862 265.055 206.862M265.055 215.121V206.862M265.055 215.121C262.775 217.401 259.077 217.402 256.796 215.121M265.055 215.121H256.796M265.055 206.862C262.774 204.581 259.077 204.581 256.796 206.862C254.516 209.142 254.516 212.84 256.796 215.121M265.055 206.862L256.796 215.121M256.796 215.121C256.796 215.121 256.796 215.121 256.796 215.121M256.796 215.121L256.796 215.121" fill="#32CD32" stroke="white" stroke-width="7"/>
<path d="M264.133 31.0645L264.133 31.0647C261.87 33.3285 258.199 33.3285 255.936 31.0647L255.935 31.0644C253.671 28.8009 253.671 25.1308 255.935 22.8666L255.936 22.8665C258.199 20.6029 261.869 20.6027 264.133 22.8668C266.397 25.1303 266.397 28.8004 264.133 31.0645Z" fill="#32CD32" stroke="white" stroke-width="7"/>
<path d="M80.1378 206.862L80.138 206.862C82.4188 209.143 82.4186 212.84 80.1381 215.121C77.857 217.401 74.1594 217.401 71.8793 215.121C69.5987 212.84 69.599 209.142 71.8792 206.862C74.1601 204.581 77.8576 204.581 80.1378 206.862Z" fill="#32CD32" stroke="white" stroke-width="7"/>
<path d="M162.703 9.29688C162.703 6.37135 165.074 4 168 4C170.926 4 173.297 6.37135 173.297 9.29688V37.3305C173.297 40.2561 170.926 42.6274 168 42.6274C165.074 42.6274 162.703 40.2561 162.703 37.3305V9.29688Z" fill="#FFC600" stroke="white" stroke-width="8"/>
<path d="M58.2969 124.297C55.3714 124.297 53 121.926 53 119C53 116.074 55.3713 113.703 58.2969 113.703H86.3305C89.2561 113.703 91.6274 116.074 91.6274 119C91.6274 121.926 89.2561 124.297 86.3305 124.297H58.2969Z" fill="#FFC600" stroke="white" stroke-width="8"/>
<path d="M249.669 113.703H277.703C280.629 113.703 283 116.074 283 119C283 121.926 280.629 124.297 277.703 124.297H249.669C246.744 124.297 244.373 121.926 244.373 119C244.373 116.074 246.744 113.703 249.669 113.703Z" fill="#FFC600" stroke="white" stroke-width="8"/>
<path d="M114.578 58.0866C116.646 60.1548 116.647 63.5085 114.578 65.5774C112.509 67.6461 109.155 67.6459 107.087 65.5774L98.5161 57.0067L95.6877 59.8351L98.5161 57.0067C96.4479 54.9385 96.4476 51.5847 98.5163 49.5157C100.584 47.4473 103.938 47.447 106.007 49.5159L114.578 58.0866Z" fill="#FD6300" stroke="white" stroke-width="8"/>
<path d="M229.994 188.484L229.994 188.484C231.029 189.519 232.377 190.036 233.739 190.036C235.1 190.036 236.449 189.519 237.485 188.484C237.485 188.484 237.485 188.484 237.485 188.484M229.994 188.484L237.485 188.484M229.994 188.484L221.423 179.913C221.423 179.913 221.423 179.913 221.423 179.913C219.354 177.844 219.354 174.491 221.422 172.422C223.491 170.354 226.844 170.354 228.913 172.422C228.913 172.422 228.913 172.422 228.913 172.422L237.484 180.993M229.994 188.484L237.484 180.993M237.485 188.484C239.553 186.415 239.553 183.062 237.484 180.993M237.485 188.484L237.484 180.993M237.484 180.993L237.484 180.993M237.484 180.993L237.484 180.993" fill="#FD6300" stroke="white" stroke-width="8"/>
<path d="M107.087 172.423L107.087 172.422C109.155 170.354 112.509 170.354 114.578 172.423C116.646 174.491 116.647 177.844 114.578 179.913C114.578 179.913 114.578 179.913 114.578 179.914L106.007 188.484C103.938 190.553 100.584 190.553 98.5163 188.484L98.5161 188.484C96.4479 186.416 96.4476 183.062 98.5161 180.993C98.5162 180.993 98.5162 180.993 98.5163 180.993L107.087 172.423Z" fill="#FD6300" stroke="white" stroke-width="8"/>
<path d="M229.994 49.5158L229.994 49.516L221.422 58.0867C221.422 58.0867 221.422 58.0867 221.422 58.0867C219.353 60.1557 219.353 63.5092 221.422 65.5777C221.422 65.5778 221.422 65.5778 221.422 65.5779M229.994 49.5158L221.422 65.5779M229.994 49.5158C232.061 47.4481 235.415 47.4472 237.484 49.5159M229.994 49.5158L237.484 49.5159M221.422 65.5779C223.491 67.6462 226.844 67.6467 228.913 65.5781L228.913 65.5778L237.484 57.0072M221.422 65.5779L237.484 57.0072M237.484 57.0072C237.484 57.0072 237.484 57.0071 237.484 57.0071C239.553 54.9382 239.553 51.5848 237.485 49.5163C237.485 49.5162 237.485 49.5161 237.484 49.5159M237.484 57.0072L237.484 49.5159" fill="#FD6300" stroke="white" stroke-width="8"/>
</svg>
