<svg width="21" height="20" viewBox="0 0 21 20" fill="none" xmlns="http://www.w3.org/2000/svg">
<g clip-path="url(#clip0_3272_13790)">
<path d="M19.146 3.53445e-08H1.35306C0.743774 0.000305211 0.249847 0.494537 0.25 1.10397V18.8969C0.250305 19.5062 0.744537 20.0002 1.35397 20H19.146C19.7556 20.0002 20.2498 19.5061 20.25 18.8965C20.25 18.8963 20.25 18.8962 20.25 18.896V1.10306C20.2497 0.493774 19.7555 -0.000152553 19.146 3.53445e-08Z" fill="#4267B2"/>
<path d="M14.0586 20V12.2657H16.666L17.0566 9.23831H14.0586V7.31021C14.0586 6.43573 14.3014 5.83987 15.5553 5.83987H17.1445V3.13953C16.868 3.10275 15.9194 3.02051 14.8156 3.02051C12.5109 3.02051 10.9336 4.42676 10.9336 7.01038V9.23831H8.33594V12.2657H10.9336V20H14.0586Z" fill="white"/>
</g>
<defs>
<clipPath id="clip0_3272_13790">
<rect width="20" height="20" fill="white" transform="translate(0.25)"/>
</clipPath>
</defs>
</svg>
