<svg width="71" height="70" viewBox="0 0 71 70" fill="none" xmlns="http://www.w3.org/2000/svg">
<g clip-path="url(#clip0_3309_12907)">
<path d="M4.1 19.2V11.4C4.1 6.99411 7.49411 3.6 11.9 3.6H19.7C20.6941 3.6 21.5 2.79411 21.5 1.8C21.5 0.805888 20.6941 0 19.7 0H11.9C5.50589 0 0.5 5.00589 0.5 11.4V19.2C0.5 20.1941 1.30589 21 2.3 21C3.29411 21 4.1 20.1941 4.1 19.2Z" fill="#89909A"/>
<path d="M66.9 19.2V11.4C66.9 6.99411 63.5059 3.6 59.1 3.6H51.3C50.3059 3.6 49.5 2.79411 49.5 1.8C49.5 0.805888 50.3059 0 51.3 0H59.1C65.4941 0 70.5 5.00589 70.5 11.4V19.2C70.5 20.1941 69.6941 21 68.7 21C67.7059 21 66.9 20.1941 66.9 19.2Z" fill="#89909A"/>
<path d="M4.1 50.8V58.6C4.1 63.0059 7.49411 66.4 11.9 66.4H19.7C20.6941 66.4 21.5 67.2059 21.5 68.2C21.5 69.1941 20.6941 70 19.7 70H11.9C5.50589 70 0.5 64.9941 0.5 58.6V50.8C0.5 49.8059 1.30589 49 2.3 49C3.29411 49 4.1 49.8059 4.1 50.8Z" fill="#89909A"/>
<path d="M66.9 50.8V58.6C66.9 63.0059 63.5059 66.4 59.1 66.4H51.3C50.3059 66.4 49.5 67.2059 49.5 68.2C49.5 69.1941 50.3059 70 51.3 70H59.1C65.4941 70 70.5 64.9941 70.5 58.6V50.8C70.5 49.8059 69.6941 49 68.7 49C67.7059 49 66.9 49.8059 66.9 50.8Z" fill="#89909A"/>
<path d="M19.535 26.4364V31.4392C19.535 32.4748 20.3185 33.3142 21.285 33.3142C22.2515 33.3142 23.035 32.4748 23.035 31.4392V26.4364C23.035 25.4009 22.2515 24.5614 21.285 24.5614C20.3185 24.5614 19.535 25.4009 19.535 26.4364Z" fill="#89909A"/>
<path d="M48.3948 26.4364V31.4392C48.3948 32.4748 49.1783 33.3142 50.1448 33.3142C51.1113 33.3142 51.8948 32.4748 51.8948 31.4392V26.4364C51.8948 25.4009 51.1113 24.5614 50.1448 24.5614C49.1783 24.5614 48.3948 25.4009 48.3948 26.4364Z" fill="#89909A"/>
<path d="M23.1904 51.6976C26.6039 54.8835 30.7381 56.4913 35.5 56.4913C40.2618 56.4913 44.396 54.8835 47.8095 51.6976C48.5533 51.0034 48.5934 49.8378 47.8993 49.094C47.2051 48.3502 46.0394 48.3101 45.2957 49.0042C42.5689 51.5493 39.3346 52.807 35.5 52.807C31.6653 52.807 28.4311 51.5493 25.7042 49.0042C24.9605 48.3101 23.7948 48.3502 23.1007 49.094C22.4065 49.8378 22.4467 51.0034 23.1904 51.6976Z" fill="#89909A"/>
<path d="M35.5 26.4035V39.2982C35.5 40.1234 35.0967 40.5263 34.2674 40.5263H33.0439C32.0265 40.5263 31.2018 41.3511 31.2018 42.3684C31.2018 43.3858 32.0265 44.2105 33.0439 44.2105H34.2674C37.1305 44.2105 39.1842 42.1591 39.1842 39.2982V26.4035C39.1842 25.3861 38.3595 24.5614 37.3421 24.5614C36.3248 24.5614 35.5 25.3861 35.5 26.4035Z" fill="#89909A"/>
</g>
<defs>
<clipPath id="clip0_3309_12907">
<rect width="70" height="70" fill="white" transform="translate(0.5)"/>
</clipPath>
</defs>
</svg>
