<svg width="72" height="72" viewBox="0 0 72 72" fill="none" xmlns="http://www.w3.org/2000/svg">
<mask id="mask0_314_3736" style="mask-type:alpha" maskUnits="userSpaceOnUse" x="12" y="11" width="48" height="48">
<rect x="12.5" y="11.5" width="47" height="47" fill="#D9D9D9" stroke="#0A0A0A"/>
</mask>
<g mask="url(#mask0_314_3736)">
<path d="M51.5003 45.3994V50.4994H20.5003V45.3994C20.5003 44.3569 20.7675 43.4057 21.3023 42.5351L21.3024 42.5349C21.838 41.6623 22.5446 41.0021 23.427 40.5451C25.4606 39.5285 27.5241 38.7671 29.6178 38.2594C31.7126 37.7527 33.8398 37.4994 36.0003 37.4994C38.1608 37.4994 40.288 37.7527 42.3827 38.2594C44.4764 38.7671 46.5399 39.5285 48.5736 40.545C49.456 41.0021 50.1625 41.6623 50.6981 42.5349L50.6982 42.5351C51.2331 43.4057 51.5003 44.3569 51.5003 45.3994ZM36.0003 34.4994C33.9339 34.4994 32.1775 33.7695 30.7038 32.2958C29.2302 30.8222 28.5003 29.0657 28.5003 26.9994C28.5003 24.9331 29.2302 23.1766 30.7038 21.7029C32.1775 20.2293 33.9339 19.4994 36.0003 19.4994C38.0666 19.4994 39.8231 20.2293 41.2967 21.7029C42.7704 23.1766 43.5003 24.9331 43.5003 26.9994C43.5003 29.0657 42.7704 30.8222 41.2967 32.2958C39.8231 33.7695 38.0666 34.4994 36.0003 34.4994Z" fill="#1C1B1F" stroke="#1E3246"/>
</g>
<path d="M11 1H1V10.5" stroke="#1E3246" stroke-width="2"/>
<path d="M11 70.5H1V61" stroke="#1E3246" stroke-width="2"/>
<path d="M61 1H71V10.5" stroke="#1E3246" stroke-width="2"/>
<path d="M61 70.5H71V61" stroke="#1E3246" stroke-width="2"/>
</svg>
