<svg width="19" height="18" viewBox="0 0 19 18" fill="none" xmlns="http://www.w3.org/2000/svg">
<g clip-path="url(#clip0_3114_11606)">
<path d="M5.68823 12.5175C5.21225 12.2445 4.89062 11.7316 4.89062 11.1445C4.89062 8.72136 6.86198 6.75 9.28516 6.75H11.0961L11.1814 5.34375H0.920166L1.65721 17.5045C1.6741 17.7829 1.90468 18 2.18359 18H5.41934C5.08755 17.559 4.89062 17.0111 4.89062 16.418C4.89062 15.7342 5.32678 15.1504 5.93542 14.93C5.71968 14.5992 5.59375 14.2048 5.59375 13.7812C5.59375 13.3573 5.71996 12.9625 5.93611 12.6314C5.76418 12.5927 5.66873 12.5546 5.68823 12.5175Z" fill="#89909A"/>
<path d="M6.05023 4.2892C6.05064 4.2892 6.05106 4.28906 6.05147 4.28906H11.3242C11.6155 4.28906 11.8516 4.05299 11.8516 3.76172C11.8516 3.47044 11.6155 3.23438 11.3242 3.23438H7.02431L8.4458 1.05469H10.2695C10.5608 1.05469 10.7969 0.818619 10.7969 0.527344C10.7969 0.236069 10.5608 0 10.2695 0H8.16016C7.9819 0 7.81573 0.0899506 7.71851 0.239227L5.76514 3.23438H0.777344C0.486069 3.23438 0.25 3.47044 0.25 3.76172C0.25 4.05299 0.486069 4.28906 0.777344 4.28906H6.04831C6.049 4.28906 6.04968 4.2892 6.05023 4.2892Z" fill="#89909A"/>
<path d="M5.94531 11.1445C5.94531 11.4358 6.18138 11.6719 6.47266 11.6719H17.7227C18.0139 11.6719 18.25 11.4358 18.25 11.1445C18.25 9.30295 16.7517 7.80469 14.9102 7.80469H9.28516C7.44357 7.80469 5.94531 9.30295 5.94531 11.1445Z" fill="#89909A"/>
<path d="M7.70312 12.7266C7.12057 12.7266 6.64844 13.1987 6.64844 13.7812C6.64844 14.3638 7.12057 14.8359 7.70312 14.8359H16.4922C17.0747 14.8359 17.5469 14.3638 17.5469 13.7812C17.5469 13.1987 17.0747 12.7266 16.4922 12.7266H7.70312Z" fill="#89909A"/>
<path d="M17.7227 15.8906H6.47266C6.18138 15.8906 5.94531 16.1267 5.94531 16.418C5.94531 17.2903 6.65503 18 7.52734 18H16.668C17.5403 18 18.25 17.2903 18.25 16.418C18.25 16.1267 18.0139 15.8906 17.7227 15.8906Z" fill="#89909A"/>
</g>
<defs>
<clipPath id="clip0_3114_11606">
<rect width="18" height="18" fill="white" transform="translate(0.25)"/>
</clipPath>
</defs>
</svg>
