<svg width="19" height="20" viewBox="0 0 19 20" fill="none" xmlns="http://www.w3.org/2000/svg">
<path d="M9.025 0.0253906C10.0917 0.0253906 11.1333 0.15439 12.15 0.41239C13.1667 0.671057 14.15 1.04206 15.1 1.52539C15.25 1.59206 15.3377 1.68772 15.363 1.81239C15.3877 1.93772 15.375 2.05872 15.325 2.17539C15.275 2.29206 15.1917 2.38372 15.075 2.45039C14.9583 2.51706 14.8167 2.50872 14.65 2.42539C13.7667 1.97539 12.854 1.62939 11.912 1.38739C10.9707 1.14606 10.0083 1.02539 9.025 1.02539C8.05833 1.02539 7.10833 1.13772 6.175 1.36239C5.24166 1.58772 4.35 1.94206 3.5 2.42539C3.36666 2.50872 3.23766 2.52939 3.113 2.48739C2.98766 2.44606 2.88333 2.35872 2.8 2.22539C2.75 2.09206 2.73766 1.97106 2.763 1.86239C2.78766 1.75439 2.86666 1.65872 3 1.57539C3.93333 1.07539 4.90833 0.692057 5.925 0.42539C6.94166 0.158724 7.975 0.0253906 9.025 0.0253906ZM9.025 2.47539C10.7917 2.47539 12.4583 2.85439 14.025 3.61239C15.5917 4.37106 16.9 5.46706 17.95 6.90039C18.05 7.05039 18.0833 7.18372 18.05 7.30039C18.0167 7.41706 17.95 7.51706 17.85 7.60039C17.75 7.68372 17.6333 7.72106 17.5 7.71239C17.3667 7.70439 17.25 7.63372 17.15 7.50039C16.2333 6.20039 15.0543 5.20439 13.613 4.51239C12.171 3.82106 10.6417 3.47539 9.025 3.47539C7.40833 3.47539 5.89166 3.82106 4.475 4.51239C3.05833 5.20439 1.88333 6.20039 0.949997 7.50039C0.849997 7.65039 0.73333 7.73372 0.599996 7.75039C0.466663 7.76706 0.349997 7.73372 0.249997 7.65039C0.13333 7.56706 0.0583299 7.46272 0.0249966 7.33739C-0.00833672 7.21272 0.0333299 7.08372 0.149997 6.95039C1.16666 5.53372 2.45833 4.43372 4.025 3.65039C5.59166 2.86706 7.25833 2.47539 9.025 2.47539ZM9.025 7.25039C10.575 7.25039 11.9083 7.77106 13.025 8.81239C14.1417 9.85439 14.7 11.1337 14.7 12.6504C14.7 12.8004 14.654 12.9211 14.562 13.0124C14.4707 13.1044 14.35 13.1504 14.2 13.1504C14.0667 13.1504 13.95 13.1044 13.85 13.0124C13.75 12.9211 13.7 12.8004 13.7 12.6504C13.7 11.4004 13.2373 10.3544 12.312 9.51239C11.3873 8.67106 10.2917 8.25039 9.025 8.25039C7.75833 8.25039 6.67066 8.67106 5.762 9.51239C4.854 10.3544 4.4 11.4004 4.4 12.6504C4.4 14.0004 4.63333 15.1461 5.1 16.0874C5.56666 17.0294 6.25 17.9754 7.15 18.9254C7.25 19.0254 7.3 19.1421 7.3 19.2754C7.3 19.4087 7.25 19.5254 7.15 19.6254C7.05 19.7254 6.93333 19.7754 6.8 19.7754C6.66666 19.7754 6.55 19.7254 6.45 19.6254C5.46666 18.5921 4.71266 17.5377 4.188 16.4624C3.66266 15.3877 3.4 14.1171 3.4 12.6504C3.4 11.1337 3.95 9.85439 5.05 8.81239C6.15 7.77106 7.475 7.25039 9.025 7.25039ZM9 12.1504C9.15 12.1504 9.271 12.2004 9.363 12.3004C9.45433 12.4004 9.5 12.5171 9.5 12.6504C9.5 13.9004 9.95 14.9254 10.85 15.7254C11.75 16.5254 12.8 16.9254 14 16.9254C14.1 16.9254 14.2417 16.9171 14.425 16.9004C14.6083 16.8837 14.8 16.8587 15 16.8254C15.15 16.7921 15.2793 16.8127 15.388 16.8874C15.496 16.9627 15.5667 17.0754 15.6 17.2254C15.6333 17.3587 15.6083 17.4754 15.525 17.5754C15.4417 17.6754 15.3333 17.7421 15.2 17.7754C14.9 17.8587 14.6377 17.9047 14.413 17.9134C14.1877 17.9214 14.05 17.9254 14 17.9254C12.5167 17.9254 11.229 17.4254 10.137 16.4254C9.04566 15.4254 8.5 14.1671 8.5 12.6504C8.5 12.5171 8.54566 12.4004 8.637 12.3004C8.729 12.2004 8.85 12.1504 9 12.1504ZM9.025 9.70039C9.875 9.70039 10.6 9.98372 11.2 10.5504C11.8 11.1171 12.1 11.8171 12.1 12.6504C12.1 13.2004 12.3083 13.6631 12.725 14.0384C13.1417 14.4131 13.6333 14.6004 14.2 14.6004C14.7667 14.6004 15.25 14.4131 15.65 14.0384C16.05 13.6631 16.25 13.2004 16.25 12.6504C16.25 10.7171 15.5417 9.09206 14.125 7.77539C12.7083 6.45872 11.0167 5.80039 9.05 5.80039C7.08333 5.80039 5.39166 6.45872 3.975 7.77539C2.55833 9.09206 1.85 10.7087 1.85 12.6254C1.85 13.0254 1.88766 13.5254 1.963 14.1254C2.03766 14.7254 2.21666 15.4254 2.5 16.2254C2.55 16.3754 2.546 16.5087 2.488 16.6254C2.42933 16.7421 2.33333 16.8254 2.2 16.8754C2.06666 16.9254 1.93733 16.9211 1.812 16.8624C1.68733 16.8044 1.6 16.7087 1.55 16.5754C1.3 15.9254 1.121 15.2794 1.013 14.6374C0.90433 13.9961 0.849996 13.3337 0.849996 12.6504C0.849996 10.4337 1.65433 8.57539 3.263 7.07539C4.871 5.57539 6.79166 4.82539 9.025 4.82539C11.275 4.82539 13.2083 5.57539 14.825 7.07539C16.4417 8.57539 17.25 10.4337 17.25 12.6504C17.25 13.4837 16.9543 14.1797 16.363 14.7384C15.771 15.2964 15.05 15.5754 14.2 15.5754C13.35 15.5754 12.621 15.2964 12.013 14.7384C11.4043 14.1797 11.1 13.4837 11.1 12.6504C11.1 12.1004 10.896 11.6377 10.488 11.2624C10.0793 10.8877 9.59166 10.7004 9.025 10.7004C8.45833 10.7004 7.97066 10.8877 7.562 11.2624C7.154 11.6377 6.95 12.1004 6.95 12.6504C6.95 14.2671 7.42933 15.6171 8.388 16.7004C9.346 17.7837 10.5833 18.5421 12.1 18.9754C12.25 19.0421 12.35 19.1294 12.4 19.2374C12.45 19.3461 12.4583 19.4671 12.425 19.6004C12.3917 19.7171 12.325 19.8171 12.225 19.9004C12.125 19.9837 12 20.0087 11.85 19.9754C10.1167 19.5254 8.7 18.6587 7.6 17.3754C6.5 16.0921 5.95 14.5171 5.95 12.6504C5.95 11.8171 6.25 11.1171 6.85 10.5504C7.45 9.98372 8.175 9.70039 9.025 9.70039Z" fill="#89909A"/>
</svg>
