<svg width="54" height="60" viewBox="0 0 54 60" fill="none" xmlns="http://www.w3.org/2000/svg">
<mask id="path-1-inside-1_328_2243" fill="white">
<path fill-rule="evenodd" clip-rule="evenodd" d="M48.1983 12.04C47.7458 12.04 47.2958 11.88 46.9358 11.55C41.4183 6.52 34.3383 3.75 26.9983 3.75C19.6583 3.75 12.5783 6.52 7.06084 11.5525C6.29334 12.25 5.10834 12.1925 4.41084 11.43C3.71334 10.665 3.76834 9.47749 4.53334 8.77999C10.7458 3.1175 18.7233 0 26.9983 0C35.2733 0 43.2508 3.1175 49.4633 8.77999C50.2283 9.47749 50.2833 10.6625 49.5858 11.43C49.2158 11.835 48.7083 12.04 48.1983 12.04ZM51.3747 24.293C50.7722 24.293 50.1772 24.003 49.8172 23.463C44.6122 15.713 36.0822 11.0855 26.9997 11.0855C17.9172 11.0855 9.38717 15.713 4.18217 23.463C3.60467 24.3255 2.43717 24.553 1.57967 23.9755C0.719673 23.398 0.489673 22.233 1.06717 21.373C6.96967 12.5855 16.6647 7.33799 26.9997 7.33799C37.3347 7.33799 47.0297 12.5855 52.9322 21.3755C53.5097 22.2355 53.2822 23.4005 52.4197 23.978C52.0997 24.1905 51.7372 24.293 51.3747 24.293ZM19.7436 59.445C20.1111 59.815 20.5936 60 21.0761 60C21.5536 60 22.0311 59.82 22.3961 59.4575C23.1336 58.7275 23.1386 57.54 22.4086 56.805C22.3186 56.715 13.4761 47.7 13.4761 39.7825C13.4761 32.05 19.5411 25.76 26.9986 25.76C34.4561 25.76 40.5211 32.05 40.5211 39.7825C40.5211 40.8175 41.3611 41.6575 42.3961 41.6575C43.4311 41.6575 44.2711 40.8175 44.2711 39.7825C44.2711 29.9825 36.5236 22.01 26.9986 22.01C17.4736 22.01 9.72607 29.9825 9.72607 39.7825C9.72607 49.225 19.3336 59.0325 19.7436 59.445ZM32.9216 59.9993C28.4116 59.9993 17.9566 51.4193 16.9441 41.8643C16.5866 38.4868 17.6616 35.0318 19.8166 32.6218C21.6916 30.5268 24.2241 29.3643 26.9466 29.3493H26.9991C29.6541 29.3493 32.1641 30.3918 34.0741 32.2893C36.0691 34.2718 37.1666 36.9343 37.1666 39.7843V41.0068C37.1666 44.0193 39.5116 46.4693 42.3966 46.4693C45.2816 46.4693 47.6291 44.0193 47.6291 41.0068V40.5793C47.6291 28.9043 39.1716 19.1918 28.3741 18.4718C22.7466 18.0893 17.3441 20.0343 13.1766 23.9293C8.85158 27.9743 6.37158 33.7543 6.37158 39.7843C6.37158 44.7443 8.05158 49.5768 11.1016 53.3918C11.7466 54.2018 11.6166 55.3793 10.8066 56.0268C9.99908 56.6743 8.81908 56.5443 8.17158 55.7318C4.59408 51.2543 2.62158 45.5893 2.62158 39.7818C2.62158 32.7168 5.53658 25.9393 10.6141 21.1893C15.5466 16.5743 21.9441 14.2768 28.6216 14.7268C41.3816 15.5793 51.3791 26.9343 51.3791 40.5768V41.0043C51.3791 46.0843 47.3491 50.2168 42.3966 50.2168C37.4441 50.2168 33.4166 46.0843 33.4166 41.0043V39.7818C33.4166 37.9368 32.7116 36.2218 31.4316 34.9468C30.2316 33.7518 28.6591 33.0968 27.0016 33.0968H26.9666C24.8541 33.1068 23.4316 34.2043 22.6116 35.1218C21.1491 36.7543 20.4241 39.1293 20.6716 41.4693C21.4991 49.2643 30.4566 56.2518 32.9216 56.2518C33.9566 56.2518 34.7966 57.0918 34.7966 58.1268C34.7966 59.1618 33.9566 59.9993 32.9216 59.9993ZM24.9751 38.5605C24.9751 48.1331 33.1676 56.3331 39.8776 56.3331C40.9126 56.3331 41.7526 55.4931 41.7526 54.4581C41.7526 53.4231 40.9126 52.5831 39.8776 52.5831C34.9626 52.5831 28.7251 45.9805 28.7251 38.5605C28.7251 37.5255 27.8851 36.6855 26.8501 36.6855C25.8151 36.6855 24.9751 37.5255 24.9751 38.5605Z"/>
</mask>
<path fill-rule="evenodd" clip-rule="evenodd" d="M48.1983 12.04C47.7458 12.04 47.2958 11.88 46.9358 11.55C41.4183 6.52 34.3383 3.75 26.9983 3.75C19.6583 3.75 12.5783 6.52 7.06084 11.5525C6.29334 12.25 5.10834 12.1925 4.41084 11.43C3.71334 10.665 3.76834 9.47749 4.53334 8.77999C10.7458 3.1175 18.7233 0 26.9983 0C35.2733 0 43.2508 3.1175 49.4633 8.77999C50.2283 9.47749 50.2833 10.6625 49.5858 11.43C49.2158 11.835 48.7083 12.04 48.1983 12.04ZM51.3747 24.293C50.7722 24.293 50.1772 24.003 49.8172 23.463C44.6122 15.713 36.0822 11.0855 26.9997 11.0855C17.9172 11.0855 9.38717 15.713 4.18217 23.463C3.60467 24.3255 2.43717 24.553 1.57967 23.9755C0.719673 23.398 0.489673 22.233 1.06717 21.373C6.96967 12.5855 16.6647 7.33799 26.9997 7.33799C37.3347 7.33799 47.0297 12.5855 52.9322 21.3755C53.5097 22.2355 53.2822 23.4005 52.4197 23.978C52.0997 24.1905 51.7372 24.293 51.3747 24.293ZM19.7436 59.445C20.1111 59.815 20.5936 60 21.0761 60C21.5536 60 22.0311 59.82 22.3961 59.4575C23.1336 58.7275 23.1386 57.54 22.4086 56.805C22.3186 56.715 13.4761 47.7 13.4761 39.7825C13.4761 32.05 19.5411 25.76 26.9986 25.76C34.4561 25.76 40.5211 32.05 40.5211 39.7825C40.5211 40.8175 41.3611 41.6575 42.3961 41.6575C43.4311 41.6575 44.2711 40.8175 44.2711 39.7825C44.2711 29.9825 36.5236 22.01 26.9986 22.01C17.4736 22.01 9.72607 29.9825 9.72607 39.7825C9.72607 49.225 19.3336 59.0325 19.7436 59.445ZM32.9216 59.9993C28.4116 59.9993 17.9566 51.4193 16.9441 41.8643C16.5866 38.4868 17.6616 35.0318 19.8166 32.6218C21.6916 30.5268 24.2241 29.3643 26.9466 29.3493H26.9991C29.6541 29.3493 32.1641 30.3918 34.0741 32.2893C36.0691 34.2718 37.1666 36.9343 37.1666 39.7843V41.0068C37.1666 44.0193 39.5116 46.4693 42.3966 46.4693C45.2816 46.4693 47.6291 44.0193 47.6291 41.0068V40.5793C47.6291 28.9043 39.1716 19.1918 28.3741 18.4718C22.7466 18.0893 17.3441 20.0343 13.1766 23.9293C8.85158 27.9743 6.37158 33.7543 6.37158 39.7843C6.37158 44.7443 8.05158 49.5768 11.1016 53.3918C11.7466 54.2018 11.6166 55.3793 10.8066 56.0268C9.99908 56.6743 8.81908 56.5443 8.17158 55.7318C4.59408 51.2543 2.62158 45.5893 2.62158 39.7818C2.62158 32.7168 5.53658 25.9393 10.6141 21.1893C15.5466 16.5743 21.9441 14.2768 28.6216 14.7268C41.3816 15.5793 51.3791 26.9343 51.3791 40.5768V41.0043C51.3791 46.0843 47.3491 50.2168 42.3966 50.2168C37.4441 50.2168 33.4166 46.0843 33.4166 41.0043V39.7818C33.4166 37.9368 32.7116 36.2218 31.4316 34.9468C30.2316 33.7518 28.6591 33.0968 27.0016 33.0968H26.9666C24.8541 33.1068 23.4316 34.2043 22.6116 35.1218C21.1491 36.7543 20.4241 39.1293 20.6716 41.4693C21.4991 49.2643 30.4566 56.2518 32.9216 56.2518C33.9566 56.2518 34.7966 57.0918 34.7966 58.1268C34.7966 59.1618 33.9566 59.9993 32.9216 59.9993ZM24.9751 38.5605C24.9751 48.1331 33.1676 56.3331 39.8776 56.3331C40.9126 56.3331 41.7526 55.4931 41.7526 54.4581C41.7526 53.4231 40.9126 52.5831 39.8776 52.5831C34.9626 52.5831 28.7251 45.9805 28.7251 38.5605C28.7251 37.5255 27.8851 36.6855 26.8501 36.6855C25.8151 36.6855 24.9751 37.5255 24.9751 38.5605Z" fill="#1E3246"/>
<path d="M46.9358 11.55L47.2737 11.1814L47.2727 11.1805L46.9358 11.55ZM7.06084 11.5525L7.39711 11.9225L7.39778 11.9219L7.06084 11.5525ZM4.41084 11.43L4.04136 11.7669L4.04191 11.7675L4.41084 11.43ZM4.53334 8.77999L4.19652 8.41046L4.19646 8.41052L4.53334 8.77999ZM49.4633 8.77999L49.8002 8.41052L49.8002 8.41046L49.4633 8.77999ZM49.5858 11.43L49.955 11.7672L49.9559 11.7663L49.5858 11.43ZM49.8172 23.463L50.2332 23.1856L50.2323 23.1842L49.8172 23.463ZM4.18217 23.463L3.7671 23.1842L3.76671 23.1848L4.18217 23.463ZM1.57967 23.9755L1.85897 23.5608L1.85841 23.5604L1.57967 23.9755ZM1.06717 21.373L0.652114 21.0942L0.652079 21.0942L1.06717 21.373ZM52.9322 21.3755L52.5171 21.6542V21.6542L52.9322 21.3755ZM52.4197 23.978L52.6963 24.3945L52.6979 24.3934L52.4197 23.978ZM19.7436 59.445L20.0983 59.0927L20.0982 59.0925L19.7436 59.445ZM22.3961 59.4575L22.0443 59.1022L22.0437 59.1028L22.3961 59.4575ZM22.4086 56.805L22.7633 56.4527L22.7621 56.4515L22.4086 56.805ZM16.9441 41.8643L16.4469 41.9169L16.4469 41.917L16.9441 41.8643ZM19.8166 32.6218L19.444 32.2884L19.4439 32.2885L19.8166 32.6218ZM26.9466 29.3493V28.8493L26.9438 28.8493L26.9466 29.3493ZM34.0741 32.2893L34.4265 31.9346L34.4265 31.9346L34.0741 32.2893ZM28.3741 18.4718L28.3402 18.9707L28.3408 18.9707L28.3741 18.4718ZM13.1766 23.9293L12.8352 23.564L12.835 23.5641L13.1766 23.9293ZM11.1016 53.3918L11.4927 53.0803L11.4921 53.0796L11.1016 53.3918ZM10.8066 56.0268L10.4944 55.6363L10.4938 55.6367L10.8066 56.0268ZM8.17158 55.7318L8.5626 55.4202L8.5622 55.4197L8.17158 55.7318ZM10.6141 21.1893L10.9557 21.5544L10.9557 21.5544L10.6141 21.1893ZM28.6216 14.7268L28.5879 15.2257L28.5882 15.2257L28.6216 14.7268ZM31.4316 34.9468L31.7844 34.5926L31.7844 34.5925L31.4316 34.9468ZM26.9666 33.0968V32.5968L26.9642 32.5968L26.9666 33.0968ZM22.6116 35.1218L22.984 35.4554L22.9844 35.455L22.6116 35.1218ZM20.6716 41.4693L20.1743 41.5219L20.1744 41.5221L20.6716 41.4693ZM46.598 11.9186C47.0545 12.337 47.6267 12.54 48.1983 12.54V11.54C47.865 11.54 47.5372 11.423 47.2737 11.1814L46.598 11.9186ZM26.9983 4.25C34.2113 4.25 41.1718 6.97185 46.599 11.9195L47.2727 11.1805C41.6648 6.06814 34.4653 3.25 26.9983 3.25V4.25ZM7.39778 11.9219C12.8249 6.97184 19.7853 4.25 26.9983 4.25V3.25C19.5313 3.25 12.3318 6.06815 6.72389 11.1831L7.39778 11.9219ZM4.04191 11.7675C4.92487 12.7327 6.42518 12.8058 7.39711 11.9225L6.72456 11.1825C6.1615 11.6942 5.29181 11.6523 4.77976 11.0925L4.04191 11.7675ZM4.19646 8.41052C3.22747 9.294 3.15774 10.7977 4.04136 11.7669L4.78031 11.0931C4.26893 10.5322 4.3092 9.66098 4.87021 9.14947L4.19646 8.41052ZM26.9983 -0.5C18.5966 -0.5 10.4995 2.66548 4.19652 8.41046L4.87015 9.14953C10.9922 3.56952 18.8501 0.5 26.9983 0.5V-0.5ZM49.8002 8.41046C43.4972 2.66548 35.4001 -0.5 26.9983 -0.5V0.5C35.1466 0.5 43.0045 3.56952 49.1265 9.14953L49.8002 8.41046ZM49.9559 11.7663C50.8384 10.7951 50.7695 9.29429 49.8002 8.41052L49.1265 9.14947C49.6872 9.6607 49.7282 10.5299 49.2158 11.0937L49.9559 11.7663ZM48.1983 12.54C48.8421 12.54 49.4858 12.2808 49.955 11.7672L49.2167 11.0928C48.9458 11.3892 48.5746 11.54 48.1983 11.54V12.54ZM49.4012 23.7403C49.8587 24.4267 50.6139 24.793 51.3747 24.793V23.793C50.9305 23.793 50.4957 23.5793 50.2332 23.1856L49.4012 23.7403ZM26.9997 11.5855C35.9101 11.5855 44.2869 16.1254 49.4021 23.7418L50.2323 23.1842C44.9375 15.3006 36.2543 10.5855 26.9997 10.5855V11.5855ZM4.59725 23.7418C9.7125 16.1254 18.0893 11.5855 26.9997 11.5855V10.5855C17.7451 10.5855 9.06185 15.3006 3.7671 23.1842L4.59725 23.7418ZM1.30037 24.3902C2.38718 25.1221 3.8661 24.8337 4.59764 23.7412L3.76671 23.1848C3.34325 23.8172 2.48717 23.9838 1.85897 23.5608L1.30037 24.3902ZM0.652079 21.0942C-0.0796482 22.1839 0.212103 23.6594 1.30093 24.3906L1.85841 23.5604C1.22724 23.1366 1.05899 22.2821 1.48227 21.6517L0.652079 21.0942ZM26.9997 6.83799C16.4933 6.83799 6.64477 12.1725 0.652114 21.0942L1.48223 21.6518C7.29458 12.9985 16.8361 7.83799 26.9997 7.83799V6.83799ZM53.3473 21.0967C47.3546 12.1725 37.5061 6.83799 26.9997 6.83799V7.83799C37.1633 7.83799 46.7047 12.9985 52.5171 21.6542L53.3473 21.0967ZM52.6979 24.3934C53.7906 23.6618 54.0785 22.1856 53.3473 21.0967L52.5171 21.6542C52.9409 22.2854 52.7737 23.1392 52.1415 23.5625L52.6979 24.3934ZM51.3747 24.793C51.8323 24.793 52.2916 24.6633 52.6963 24.3945L52.1431 23.5615C51.9078 23.7177 51.6421 23.793 51.3747 23.793V24.793ZM21.0761 59.5C20.7215 59.5 20.3683 59.3645 20.0983 59.0927L19.3888 59.7974C19.8538 60.2656 20.4657 60.5 21.0761 60.5V59.5ZM22.0437 59.1028C21.7769 59.3678 21.428 59.5 21.0761 59.5V60.5C21.6792 60.5 22.2853 60.2722 22.7484 59.8123L22.0437 59.1028ZM22.0538 57.1574C22.5888 57.696 22.5855 58.5665 22.0443 59.1022L22.7478 59.8129C23.6816 58.8886 23.6883 57.384 22.7633 56.4527L22.0538 57.1574ZM12.9761 39.7825C12.9761 43.9008 15.2633 48.241 17.4956 51.511C19.7407 54.7997 21.9966 57.1002 22.055 57.1586L22.7621 56.4515C22.7626 56.452 22.7606 56.45 22.7551 56.4443C22.75 56.4392 22.7429 56.4318 22.7336 56.4223C22.7152 56.4034 22.6888 56.376 22.6548 56.3405C22.5869 56.2694 22.4892 56.1661 22.3659 56.0329C22.1193 55.7664 21.7707 55.3807 21.3545 54.8952C20.5214 53.9237 19.4196 52.5557 18.3215 50.9472C16.1101 47.7078 13.9761 43.5817 13.9761 39.7825H12.9761ZM26.9986 25.26C19.248 25.26 12.9761 31.7912 12.9761 39.7825H13.9761C13.9761 32.3089 19.8342 26.26 26.9986 26.26V25.26ZM41.0211 39.7825C41.0211 31.7912 34.7492 25.26 26.9986 25.26V26.26C34.1629 26.26 40.0211 32.3089 40.0211 39.7825H41.0211ZM42.3961 41.1575C41.6372 41.1575 41.0211 40.5414 41.0211 39.7825H40.0211C40.0211 41.0937 41.0849 42.1575 42.3961 42.1575V41.1575ZM43.7711 39.7825C43.7711 40.5414 43.1549 41.1575 42.3961 41.1575V42.1575C43.7072 42.1575 44.7711 41.0937 44.7711 39.7825H43.7711ZM26.9986 22.51C36.2341 22.51 43.7711 30.2451 43.7711 39.7825H44.7711C44.7711 29.7199 36.8131 21.51 26.9986 21.51V22.51ZM10.2261 39.7825C10.2261 30.2451 17.7631 22.51 26.9986 22.51V21.51C17.1841 21.51 9.22607 29.7199 9.22607 39.7825H10.2261ZM20.0982 59.0925C19.9053 58.8985 17.4255 56.3693 14.9972 52.7229C12.5595 49.0622 10.2261 44.3524 10.2261 39.7825H9.22607C9.22607 44.6551 11.6964 49.5704 14.1649 53.2772C16.6429 56.9983 19.1718 59.579 19.3889 59.7975L20.0982 59.0925ZM16.4469 41.917C16.9694 46.8483 19.9167 51.4817 23.2658 54.8666C24.9448 56.5635 26.7402 57.9627 28.4123 58.941C30.0692 59.9102 31.6613 60.4993 32.9216 60.4993V59.4993C31.9268 59.4993 30.5208 59.0159 28.9173 58.0778C27.3291 57.1487 25.6018 55.8057 23.9767 54.1633C20.7177 50.8694 17.9312 46.4353 17.4413 41.8116L16.4469 41.917ZM19.4439 32.2885C17.1896 34.8095 16.0753 38.4068 16.4469 41.9169L17.4413 41.8117C17.0978 38.5668 18.1336 35.2541 20.1893 32.9551L19.4439 32.2885ZM26.9438 28.8493C24.0749 28.8651 21.4097 30.092 19.444 32.2884L20.1891 32.9553C21.9735 30.9616 24.3733 29.8635 26.9493 29.8493L26.9438 28.8493ZM26.9991 28.8493H26.9466V29.8493H26.9991V28.8493ZM34.4265 31.9346C32.4242 29.9454 29.7881 28.8493 26.9991 28.8493V29.8493C29.5201 29.8493 31.9039 30.8382 33.7217 32.644L34.4265 31.9346ZM37.6666 39.7843C37.6666 36.8034 36.5175 34.0125 34.4265 31.9346L33.7216 32.644C35.6206 34.5311 36.6666 37.0653 36.6666 39.7843H37.6666ZM37.6666 41.0068V39.7843H36.6666V41.0068H37.6666ZM42.3966 45.9693C39.808 45.9693 37.6666 43.7639 37.6666 41.0068H36.6666C36.6666 44.2747 39.2151 46.9693 42.3966 46.9693V45.9693ZM47.1291 41.0068C47.1291 43.7636 44.9854 45.9693 42.3966 45.9693V46.9693C45.5777 46.9693 48.1291 44.275 48.1291 41.0068H47.1291ZM47.1291 40.5793V41.0068H48.1291V40.5793H47.1291ZM28.3408 18.9707C38.8439 19.6711 47.1291 29.1344 47.1291 40.5793H48.1291C48.1291 28.6742 39.4993 18.7125 28.4073 17.9729L28.3408 18.9707ZM13.518 24.2946C17.5859 20.4926 22.8531 18.5977 28.3402 18.9707L28.408 17.973C22.64 17.5809 17.1022 19.576 12.8352 23.564L13.518 24.2946ZM6.87158 39.7843C6.87158 33.8898 9.29633 28.243 13.5181 24.2945L12.835 23.5641C8.40683 27.7057 5.87158 33.6188 5.87158 39.7843H6.87158ZM11.4921 53.0796C8.51415 49.3547 6.87158 44.6327 6.87158 39.7843H5.87158C5.87158 44.8559 7.58901 49.7989 10.711 53.704L11.4921 53.0796ZM11.1188 56.4174C12.1449 55.5971 12.3089 54.1054 11.4927 53.0804L10.7104 53.7033C11.1842 54.2983 11.0883 55.1615 10.4944 55.6363L11.1188 56.4174ZM7.78056 56.0434C8.60057 57.0724 10.096 57.2375 11.1194 56.4169L10.4938 55.6367C9.90212 56.1112 9.03758 56.0162 8.5626 55.4202L7.78056 56.0434ZM2.12158 39.7818C2.12158 45.7012 4.1317 51.4766 7.78095 56.0439L8.5622 55.4197C5.05646 51.032 3.12158 45.4774 3.12158 39.7818H2.12158ZM10.2725 20.8242C5.09219 25.6704 2.12158 32.5808 2.12158 39.7818H3.12158C3.12158 32.8528 5.98097 26.2083 10.9557 21.5544L10.2725 20.8242ZM28.6552 14.2279C21.8379 13.7685 15.305 16.1156 10.2725 20.8242L10.9557 21.5544C15.7882 17.033 22.0502 14.7851 28.5879 15.2257L28.6552 14.2279ZM51.8791 40.5768C51.8791 26.6991 41.7045 15.0998 28.6549 14.2279L28.5882 15.2257C41.0586 16.0588 50.8791 27.1695 50.8791 40.5768H51.8791ZM51.8791 41.0043V40.5768H50.8791V41.0043H51.8791ZM42.3966 50.7168C47.637 50.7168 51.8791 46.3485 51.8791 41.0043H50.8791C50.8791 45.8201 47.0611 49.7168 42.3966 49.7168V50.7168ZM32.9166 41.0043C32.9166 46.3483 37.1559 50.7168 42.3966 50.7168V49.7168C37.7322 49.7168 33.9166 45.8203 33.9166 41.0043H32.9166ZM32.9166 39.7818V41.0043H33.9166V39.7818H32.9166ZM31.0787 35.3011C32.2625 36.4802 32.9166 38.0669 32.9166 39.7818H33.9166C33.9166 37.8068 33.1607 35.9634 31.7844 34.5926L31.0787 35.3011ZM27.0016 33.5968C28.5242 33.5968 29.9706 34.1975 31.0788 35.3011L31.7844 34.5925C30.4926 33.3061 28.794 32.5968 27.0016 32.5968V33.5968ZM26.9666 33.5968H27.0016V32.5968H26.9666V33.5968ZM22.9844 35.455C23.7481 34.6005 25.0464 33.6059 26.9689 33.5968L26.9642 32.5968C24.6617 32.6077 23.115 33.8081 22.2388 34.7886L22.9844 35.455ZM21.1688 41.4167C20.9349 39.2055 21.6235 36.9741 22.984 35.4554L22.2392 34.7882C20.6747 36.5345 19.9132 39.0532 20.1743 41.5219L21.1688 41.4167ZM32.9216 55.7518C32.7138 55.7518 32.378 55.6733 31.918 55.4766C31.4685 55.2844 30.9387 54.9961 30.3558 54.6186C29.1906 53.8638 27.8425 52.7712 26.5407 51.4348C23.9256 48.7504 21.5656 45.1543 21.1688 41.4165L20.1744 41.5221C20.6051 45.5793 23.1376 49.3745 25.8244 52.1326C27.1734 53.5174 28.5787 54.6589 29.8121 55.4579C30.4286 55.8572 31.0094 56.1757 31.5248 56.3961C32.0297 56.6119 32.513 56.7518 32.9216 56.7518V55.7518ZM35.2966 58.1268C35.2966 56.8157 34.2327 55.7518 32.9216 55.7518V56.7518C33.6804 56.7518 34.2966 57.368 34.2966 58.1268H35.2966ZM32.9216 60.4993C34.2318 60.4993 35.2966 59.4388 35.2966 58.1268H34.2966C34.2966 58.8848 33.6813 59.4993 32.9216 59.4993V60.4993ZM39.8776 55.8331C36.7128 55.8331 33.1126 53.8856 30.2837 50.7042C27.4645 47.5337 25.4751 43.2051 25.4751 38.5605H24.4751C24.4751 43.4885 26.582 48.0461 29.5365 51.3687C32.4814 54.6806 36.3324 56.8331 39.8776 56.8331V55.8331ZM41.2526 54.4581C41.2526 55.2169 40.6365 55.8331 39.8776 55.8331V56.8331C41.1887 56.8331 42.2526 55.7692 42.2526 54.4581H41.2526ZM39.8776 53.0831C40.6365 53.0831 41.2526 53.6992 41.2526 54.4581H42.2526C42.2526 53.1469 41.1887 52.0831 39.8776 52.0831V53.0831ZM28.2251 38.5605C28.2251 42.4079 29.8397 46.0244 32.076 48.6766C34.2994 51.3137 37.2146 53.0831 39.8776 53.0831V52.0831C37.6256 52.0831 34.9645 50.5511 32.8405 48.032C30.7292 45.528 29.2251 42.1332 29.2251 38.5605H28.2251ZM26.8501 37.1855C27.609 37.1855 28.2251 37.8017 28.2251 38.5605H29.2251C29.2251 37.2494 28.1612 36.1855 26.8501 36.1855V37.1855ZM25.4751 38.5605C25.4751 37.8017 26.0912 37.1855 26.8501 37.1855V36.1855C25.539 36.1855 24.4751 37.2494 24.4751 38.5605H25.4751Z" fill="white" mask="url(#path-1-inside-1_328_2243)"/>
</svg>
