<svg width="26" height="27" viewBox="0 0 26 27" fill="none" xmlns="http://www.w3.org/2000/svg">
<path d="M10.3227 23.1117C10.3227 23.8116 10.8902 24.379 11.5901 24.379L13.8657 24.379C14.5653 24.3782 15.1324 23.8112 15.1332 23.1116L15.1332 15.7677L10.3227 15.7813L10.3227 23.1117ZM13.0639 17.417L13.0639 19.0673L12.392 19.0672L12.392 17.4172L13.0639 17.417Z" fill="white"/>
<path d="M8.84067 9.28869C8.71713 9.28869 8.59863 9.33774 8.51128 9.42509C8.42393 9.51244 8.37488 9.63094 8.37502 9.75435L8.37502 10.7305C8.37555 11.0343 8.44249 11.3342 8.57106 11.6094L10.213 15.1086L15.2522 15.0942L16.8823 11.5988C17.0088 11.3265 17.0749 11.03 17.0761 10.7298L17.0786 9.75567C17.0794 9.49852 16.8714 9.28922 16.6143 9.28869L8.84067 9.28869Z" fill="white"/>
<path d="M12.392 6.52153L12.3921 4.18928L13.064 4.18941L13.0639 6.52166L12.392 6.52153Z" fill="white"/>
<path d="M15.9646 6.43763L16.7664 4.90705L17.3615 5.21881L16.5597 6.74939L15.9646 6.43763Z" fill="white"/>
<path d="M8.89611 6.7492L8.0943 5.21862L8.68946 4.90686L9.49127 6.43744L8.89611 6.7492Z" fill="white"/>
</svg>
