<svg width="22" height="21" viewBox="0 0 22 21" fill="none" xmlns="http://www.w3.org/2000/svg">
<path d="M20.0039 1L12.2 6.79608L13.6431 3.37647L20.0039 1Z" fill="#E2761B" stroke="#E2761B" stroke-linecap="round" stroke-linejoin="round"/>
<path d="M1.98816 1L9.72933 6.85098L8.35678 3.37647L1.98816 1Z" fill="#E4761B" stroke="#E4761B" stroke-linecap="round" stroke-linejoin="round"/>
<path d="M17.196 14.4351L15.1176 17.6194L19.5646 18.8429L20.843 14.5056L17.196 14.4351Z" fill="#E4761B" stroke="#E4761B" stroke-linecap="round" stroke-linejoin="round"/>
<path d="M1.16467 14.5056L2.43526 18.8429L6.88232 17.6194L4.80389 14.4351L1.16467 14.5056Z" fill="#E4761B" stroke="#E4761B" stroke-linecap="round" stroke-linejoin="round"/>
<path d="M6.63131 9.05488L5.39209 10.9294L9.80778 11.1255L9.65091 6.38037L6.63131 9.05488Z" fill="#E4761B" stroke="#E4761B" stroke-linecap="round" stroke-linejoin="round"/>
<path d="M15.3607 9.05509L12.3019 6.32568L12.2 11.1257L16.6078 10.9296L15.3607 9.05509Z" fill="#E4761B" stroke="#E4761B" stroke-linecap="round" stroke-linejoin="round"/>
<path d="M6.88232 17.62L9.5333 16.3258L7.24311 14.5376L6.88232 17.62Z" fill="#E4761B" stroke="#E4761B" stroke-linecap="round" stroke-linejoin="round"/>
<path d="M12.4587 16.3258L15.1176 17.62L14.7489 14.5376L12.4587 16.3258Z" fill="#E4761B" stroke="#E4761B" stroke-linecap="round" stroke-linejoin="round"/>
<path d="M15.1176 17.6198L12.4587 16.3257L12.6705 18.059L12.647 18.7884L15.1176 17.6198Z" fill="#D7C1B3" stroke="#D7C1B3" stroke-linecap="round" stroke-linejoin="round"/>
<path d="M6.88232 17.6198L9.35291 18.7884L9.33723 18.059L9.5333 16.3257L6.88232 17.6198Z" fill="#D7C1B3" stroke="#D7C1B3" stroke-linecap="round" stroke-linejoin="round"/>
<path d="M9.39219 13.3916L7.18042 12.7406L8.7412 12.0269L9.39219 13.3916Z" fill="#233447" stroke="#233447" stroke-linecap="round" stroke-linejoin="round"/>
<path d="M12.6 13.3916L13.251 12.0269L14.8196 12.7406L12.6 13.3916Z" fill="#233447" stroke="#233447" stroke-linecap="round" stroke-linejoin="round"/>
<path d="M6.88239 17.6199L7.25886 14.4355L4.80396 14.5061L6.88239 17.6199Z" fill="#CD6116" stroke="#CD6116" stroke-linecap="round" stroke-linejoin="round"/>
<path d="M14.7412 14.4355L15.1177 17.6199L17.1961 14.5061L14.7412 14.4355Z" fill="#CD6116" stroke="#CD6116" stroke-linecap="round" stroke-linejoin="round"/>
<path d="M16.6079 10.9297L12.2001 11.1258L12.6079 13.3924L13.2589 12.0277L14.8275 12.7415L16.6079 10.9297Z" fill="#CD6116" stroke="#CD6116" stroke-linecap="round" stroke-linejoin="round"/>
<path d="M7.18045 12.7415L8.74907 12.0277L9.39221 13.3924L9.8079 11.1258L5.39221 10.9297L7.18045 12.7415Z" fill="#CD6116" stroke="#CD6116" stroke-linecap="round" stroke-linejoin="round"/>
<path d="M5.39221 10.9297L7.24319 14.5375L7.18045 12.7415L5.39221 10.9297Z" fill="#E4751F" stroke="#E4751F" stroke-linecap="round" stroke-linejoin="round"/>
<path d="M14.8275 12.7415L14.749 14.5375L16.6078 10.9297L14.8275 12.7415Z" fill="#E4751F" stroke="#E4751F" stroke-linecap="round" stroke-linejoin="round"/>
<path d="M9.8079 11.1265L9.39221 13.3931L9.90986 16.0676L10.0275 12.5461L9.8079 11.1265Z" fill="#E4751F" stroke="#E4751F" stroke-linecap="round" stroke-linejoin="round"/>
<path d="M12.2 11.1265L11.9883 12.5382L12.0824 16.0676L12.6079 13.3931L12.2 11.1265Z" fill="#E4751F" stroke="#E4751F" stroke-linecap="round" stroke-linejoin="round"/>
<path d="M12.6079 13.3917L12.0824 16.0662L12.4589 16.325L14.7491 14.5368L14.8275 12.7407L12.6079 13.3917Z" fill="#F6851B" stroke="#F6851B" stroke-linecap="round" stroke-linejoin="round"/>
<path d="M7.18042 12.7407L7.24317 14.5368L9.53336 16.325L9.90983 16.0662L9.39218 13.3917L7.18042 12.7407Z" fill="#F6851B" stroke="#F6851B" stroke-linecap="round" stroke-linejoin="round"/>
<path d="M12.647 18.7883L12.6706 18.0588L12.4745 17.8863H9.51762L9.33723 18.0588L9.35291 18.7883L6.88232 17.6196L7.74507 18.3255L9.49409 19.5412H12.498L14.2549 18.3255L15.1176 17.6196L12.647 18.7883Z" fill="#C0AD9E" stroke="#C0AD9E" stroke-linecap="round" stroke-linejoin="round"/>
<path d="M12.4588 16.3267L12.0824 16.0679H9.90983L9.53336 16.3267L9.33728 18.06L9.51767 17.8875H12.4745L12.6706 18.06L12.4588 16.3267Z" fill="#161616" stroke="#161616" stroke-linecap="round" stroke-linejoin="round"/>
<path d="M20.3334 7.17255L21 3.97255L20.004 1L12.4589 6.6L15.3608 9.0549L19.4628 10.2549L20.3726 9.19608L19.9804 8.91373L20.6079 8.34118L20.1216 7.96471L20.7491 7.48628L20.3334 7.17255Z" fill="#763D16" stroke="#763D16" stroke-linecap="round" stroke-linejoin="round"/>
<path d="M1 3.97255L1.66667 7.17255L1.24314 7.48628L1.87059 7.96471L1.39216 8.34118L2.01961 8.91373L1.62745 9.19608L2.52941 10.2549L6.63137 9.0549L9.53333 6.6L1.98824 1L1 3.97255Z" fill="#763D16" stroke="#763D16" stroke-linecap="round" stroke-linejoin="round"/>
<path d="M19.4628 10.2562L15.3608 9.05615L16.6078 10.9307L14.749 14.5385L17.1961 14.5071H20.8431L19.4628 10.2562Z" fill="#F6851B" stroke="#F6851B" stroke-linecap="round" stroke-linejoin="round"/>
<path d="M6.63134 9.05615L2.52938 10.2562L1.16467 14.5071H4.80389L7.2431 14.5385L5.39212 10.9307L6.63134 9.05615Z" fill="#F6851B" stroke="#F6851B" stroke-linecap="round" stroke-linejoin="round"/>
<path d="M12.1999 11.1255L12.4588 6.59999L13.6509 3.37646H8.35681L9.53328 6.59999L9.80779 11.1255L9.90191 12.5529L9.90975 16.0667H12.0823L12.098 12.5529L12.1999 11.1255Z" fill="#F6851B" stroke="#F6851B" stroke-linecap="round" stroke-linejoin="round"/>
</svg>
