<svg width="20" height="20" viewBox="0 0 20 20" fill="none" xmlns="http://www.w3.org/2000/svg">
<path d="M0 15V1C0 0.716667 0.0960001 0.479 0.288 0.287C0.479333 0.0956666 0.716667 0 1 0H14C14.2833 0 14.5207 0.0956666 14.712 0.287C14.904 0.479 15 0.716667 15 1V10C15 10.2833 14.904 10.5207 14.712 10.712C14.5207 10.904 14.2833 11 14 11H4L0 15ZM5 16C4.71667 16 4.479 15.904 4.287 15.712C4.09567 15.5207 4 15.2833 4 15V13H17V4H19C19.2833 4 19.5207 4.09567 19.712 4.287C19.904 4.479 20 4.71667 20 5V20L16 16H5Z" fill="#89909A"/>
</svg>
