<svg width="243" height="271" viewBox="0 0 243 271" fill="none" xmlns="http://www.w3.org/2000/svg">
<circle cx="121.5" cy="149.5" r="121.5" fill="#CCEECC"/>
<mask id="mask0_6393_22034" style="mask-type:alpha" maskUnits="userSpaceOnUse" x="0" y="0" width="243" height="271">
<ellipse cx="121.5" cy="135.5" rx="121.5" ry="135.5" fill="#CCEECC"/>
</mask>
<g mask="url(#mask0_6393_22034)">
<g filter="url(#filter0_d_6393_22034)">
<path d="M105.453 63.3257H28.2002V140.579H105.453V63.3257Z" fill="white"/>
<path d="M90.3247 103.334H87.5741V106.072H79.3616V114.389H82.0336C82.0336 115.293 82.0336 116.196 82.0336 117.238H79.3223V119.857H90.2134V114.428H81.9943V111.671H87.5021V108.986H90.2854V111.605H93.0229V119.916H95.767V125.365H93.0884V122.765H90.3575V125.385H87.5741V122.798H84.8431V125.352H82.0598V122.778H79.3288V125.437H73.7097L73.749 125.476V119.975H71.0377V117.205H76.3817V111.625H73.7032L73.7425 111.664V108.835H76.3817V106.137H70.9395C70.9526 105.2 70.9656 104.264 70.9787 103.334L70.9395 103.373H76.4014V100.538H73.7425V97.8066L73.7032 97.8459H76.4407V95.1411H84.8038V100.603C82.9898 100.603 81.1691 100.603 79.3419 100.603V103.255H84.7646V100.564C86.6179 100.577 88.4713 100.596 90.3247 100.61L90.2854 100.57V103.373L90.3247 103.334Z" fill="#0A0A0A"/>
<path d="M37.8862 73.0181H57.0619V92.1938H37.8862V73.0181ZM54.272 89.4759V75.8276H40.6237V89.4759H54.272Z" fill="#0A0A0A"/>
<path d="M57.0751 111.75V130.925H37.8994V111.75H57.0751ZM40.65 114.474V128.122H54.2983V114.474H40.65Z" fill="#0A0A0A"/>
<path d="M76.5845 73.0117H95.7602V92.1874H76.5845V73.0117ZM93.0096 75.8147H79.3613V89.463H93.0096V75.8147Z" fill="#0A0A0A"/>
<path d="M70.9392 81.2701H73.6309V86.732H68.2475V92.2136H65.4642V89.6398H62.6808V95.0035C61.6264 95.0035 60.7226 95.0035 59.8188 95.0035C59.8188 95.0035 59.8647 95.0428 59.8581 95.0428C59.8581 91.4277 59.8581 87.8126 59.8581 84.06H70.9719V81.2373L70.9326 81.2766L70.9392 81.2701Z" fill="#0A0A0A"/>
<path d="M73.7028 111.632V114.382H68.2474V117.074H62.6414C62.6414 116.203 62.6414 115.306 62.6414 114.402C63.5387 114.402 64.4359 114.402 65.3397 114.402V111.75H62.6807V114.441H59.9236V106.104L59.8843 106.144H62.6873L62.648 106.104V108.868H68.2147V111.671H73.7421L73.7028 111.632Z" fill="#0A0A0A"/>
<path d="M90.3244 100.616V97.8655H87.6196V95.1738H93.0226V97.8131H95.7667V106.019H90.3244V103.341L90.2851 103.38H92.9702V100.577H90.2851L90.3244 100.616Z" fill="#0A0A0A"/>
<path d="M73.7028 125.444C73.7028 126.38 73.7028 127.31 73.6962 128.247L73.7355 128.207H68.2539V130.906H65.4509C65.4509 129.078 65.4509 127.264 65.4509 125.45L65.4116 125.49H68.2146V122.687L68.1753 122.726H70.9128V125.483C71.9476 125.483 72.8448 125.483 73.7486 125.483L73.7093 125.444H73.7028Z" fill="#0A0A0A"/>
<path d="M46.0265 103.458V108.809H43.348V106.222H40.5777V108.816H37.8926V103.458H46.02H46.0265Z" fill="#0A0A0A"/>
<path d="M70.9785 81.2307H65.5166V73.0312H68.1231V78.5063H70.972L70.9327 78.467C70.9327 79.4035 70.9327 80.3335 70.9392 81.27L70.9785 81.2307Z" fill="#0A0A0A"/>
<path d="M37.8403 100.485V95.1475H43.2433V100.485H37.8403Z" fill="#0A0A0A"/>
<path d="M70.9719 78.5064V73.0576H73.6308V78.4672C72.7336 78.4672 71.8298 78.4672 70.9326 78.4672L70.9719 78.5064Z" fill="#0A0A0A"/>
<path d="M62.5695 81.1849H59.9761V75.7754H62.5695V81.1849Z" fill="#0A0A0A"/>
<path d="M54.3898 100.57H48.8689V97.813L48.8296 97.8523C50.683 97.8523 52.5364 97.8523 54.3963 97.8523L54.357 97.813V100.616L54.3963 100.577L54.3898 100.57Z" fill="#0A0A0A"/>
<path d="M62.5891 125.404V130.925H60.0088V125.444C60.8471 125.444 61.7377 125.444 62.6284 125.444L62.5826 125.404H62.5891Z" fill="#0A0A0A"/>
<path d="M71.0244 89.5942H73.6244V92.2204H71.0244V89.5942Z" fill="#0A0A0A"/>
<path d="M57.0618 106.058V108.822H54.4814V106.098C55.3197 106.098 56.2104 106.098 57.1011 106.098L57.0552 106.058H57.0618Z" fill="#0A0A0A"/>
<path d="M59.9235 106.104C58.9739 106.091 58.0177 106.078 57.0615 106.058C57.0615 106.058 57.1074 106.098 57.1008 106.098C57.1205 105.181 57.1336 104.257 57.1532 103.341L57.1139 103.38H59.9169L59.8776 103.341V106.144L59.9169 106.104H59.9235Z" fill="#0A0A0A"/>
<path d="M57.1599 103.34H54.3962V100.577L54.3569 100.616H57.1599L57.1206 100.577V103.38L57.1599 103.34Z" fill="#0A0A0A"/>
<path d="M62.6807 122.687H59.9956V120.034H62.6414V122.726L62.6807 122.687Z" fill="#0A0A0A"/>
<path d="M62.6417 122.726C63.5783 122.726 64.5148 122.726 65.4513 122.726L65.412 122.687V125.49L65.4513 125.45C64.5017 125.437 63.5455 125.424 62.5894 125.404C62.5894 125.404 62.6352 125.444 62.6286 125.444C62.6417 124.52 62.6614 123.603 62.6745 122.687L62.6352 122.726H62.6417Z" fill="#0A0A0A"/>
<path d="M48.8689 97.8132H46.1772V95.1543H48.8296C48.8296 96.0581 48.8296 96.9553 48.8296 97.8525L48.8689 97.8132Z" fill="#0A0A0A"/>
<path d="M73.6963 128.253H76.388V130.912H73.7356C73.7356 130.008 73.7356 129.111 73.7356 128.214L73.6963 128.253Z" fill="#0A0A0A"/>
<path d="M79.3286 128.26H81.909V130.906H79.3286V128.26Z" fill="#0A0A0A"/>
<path d="M87.4758 128.325V130.925H84.8823V128.325H87.4758Z" fill="#0A0A0A"/>
<path d="M93.0027 128.312V130.899H90.3896V128.312H93.0027Z" fill="#0A0A0A"/>
<path d="M68.1753 108.907V106.104H70.9783V108.907H68.1753Z" fill="#0A0A0A"/>
<path d="M51.5474 78.5522V86.6731H43.4004V78.5522H51.5474Z" fill="#0A0A0A"/>
<path d="M51.5016 125.417H43.4004V117.251H51.5016V125.417Z" fill="#0A0A0A"/>
<path d="M82.0728 86.6731V78.5522H90.1936V86.6731H82.0728Z" fill="#0A0A0A"/>
<path d="M57.1545 100.617V100.577H57.1143L57.1545 100.617Z" fill="#0A0A0A"/>
<path d="M70.9797 103.34H70.9395V103.381L70.9797 103.34Z" fill="#0A0A0A"/>
<path d="M54.3972 97.8469V97.8066H54.3569L54.3972 97.8469Z" fill="#0A0A0A"/>
<path d="M62.6882 106.144V106.104H62.6479L62.6882 106.144Z" fill="#0A0A0A"/>
<path d="M59.9182 103.381V103.34H59.8779L59.9182 103.381Z" fill="#0A0A0A"/>
<path d="M73.7434 97.813H73.7031V97.8532L73.7434 97.813Z" fill="#0A0A0A"/>
<path d="M65.3988 95.1672V100.511H62.6875V106.098H65.3857V103.334H70.9393V97.8065H73.703V95.1606H65.3988V95.1672Z" fill="#0A0A0A"/>
<path d="M59.8255 95.0034C59.8255 95.0034 59.8255 95.03 59.8255 95.0432C59.8388 95.0432 59.852 95.0432 59.8653 95.0432L59.8188 95.0034H59.8255Z" fill="#0A0A0A"/>
</g>
<path d="M174.69 128.135L188.135 149.551L180.04 175.616L164.152 157.593L174.69 128.135Z" fill="#C7956D"/>
<g filter="url(#filter1_d_6393_22034)">
<path d="M167.955 192.224L101.331 192.84C97.192 192.879 93.793 189.493 93.7668 185.315L93.0006 34.8894C92.9809 30.7111 96.3471 27.2597 100.486 27.2204L167.11 26.6048C171.249 26.5655 174.648 29.9514 174.674 34.1297L175.44 184.555C175.46 188.734 172.094 192.185 167.955 192.224Z" fill="white"/>
<path d="M164.939 25.0004L102.264 25.5833C96.278 25.6357 91.4383 30.351 91.4645 36.0815L92.2176 183.501C92.2438 189.238 97.136 193.855 103.122 193.803L165.796 193.22C171.782 193.168 176.622 188.452 176.596 182.722L175.843 35.3021C175.817 29.5652 170.924 24.948 164.939 25.0004ZM173.885 182.748C173.904 187.057 170.283 190.581 165.783 190.627L103.109 191.209C98.6161 191.249 94.9486 187.791 94.9289 183.482L94.1758 36.0618C94.1561 31.7525 97.7778 28.2291 102.277 28.1833L116.711 28.0523C118.014 28.0392 119.082 29.0478 119.088 30.2986V30.4427C119.102 32.4271 120.785 34.012 122.854 33.9989L145.953 33.7828C148.022 33.7631 149.686 32.1389 149.679 30.1611C149.679 30.1087 149.679 30.0629 149.673 30.017H149.679C149.679 28.7662 150.727 27.7445 152.03 27.7314L164.958 27.6135C169.451 27.5742 173.118 31.0321 173.138 35.3414L173.891 182.761L173.885 182.748Z" fill="#0A0A0A"/>
</g>
<path d="M153.17 100.4C152.45 100.4 151.736 100.413 150.891 100.42C150.898 101.199 150.904 101.906 150.911 102.686C148.592 102.705 146.398 102.725 144.113 102.745C144.132 105.043 144.152 107.27 144.172 109.628C144.892 109.628 145.639 109.615 146.379 109.608C146.379 110.355 146.392 111.101 146.398 111.966C145.54 111.972 144.84 111.979 144.159 111.985C144.165 112.778 144.172 113.452 144.178 114.153C147.217 114.127 150.197 114.101 153.19 114.074C153.177 112.549 153.164 111.088 153.15 109.582C150.832 109.601 148.592 109.621 146.353 109.641C146.353 108.92 146.339 108.2 146.333 107.362C147.885 107.349 149.345 107.335 150.891 107.322C150.884 106.53 150.878 105.855 150.871 105.102C151.651 105.096 152.351 105.089 153.177 105.083C153.177 105.77 153.19 106.471 153.196 107.25C153.989 107.244 154.663 107.237 155.462 107.231C155.482 109.536 155.502 111.763 155.521 114.107C156.34 114.101 157.041 114.094 157.794 114.088C157.807 115.646 157.82 117.081 157.833 118.593C157.139 118.593 156.438 118.606 155.613 118.613C155.613 117.912 155.6 117.212 155.593 116.465C154.801 116.471 154.126 116.478 153.334 116.485C153.334 117.185 153.347 117.886 153.353 118.652C152.535 118.659 151.834 118.665 151.055 118.672C151.055 117.958 151.042 117.284 151.035 116.53C150.256 116.537 149.555 116.544 148.776 116.55C148.776 117.231 148.789 117.899 148.795 118.665C148.016 118.672 147.315 118.678 146.497 118.685C146.497 118.017 146.484 117.316 146.477 116.557C145.685 116.563 145.01 116.57 144.218 116.576C144.218 117.244 144.231 117.945 144.237 118.777C142.606 118.79 141.1 118.803 139.594 118.816L139.627 118.849C139.614 117.369 139.6 115.895 139.587 114.297C138.808 114.304 138.107 114.31 137.348 114.317C137.341 113.498 137.334 112.804 137.328 112.025C138.801 112.012 140.236 111.998 141.749 111.985C141.735 110.453 141.722 108.992 141.709 107.368C140.982 107.368 140.236 107.381 139.489 107.388L139.522 107.421C139.522 106.681 139.509 105.934 139.502 105.083C140.321 105.076 141.015 105.07 141.683 105.063C141.676 104.251 141.67 103.557 141.663 102.83C140.105 102.843 138.631 102.856 137.164 102.869C137.164 102.096 137.171 101.323 137.177 100.551L137.145 100.583C138.644 100.57 140.144 100.557 141.663 100.544C141.657 99.7058 141.65 99.0116 141.644 98.1995C140.878 98.2061 140.177 98.2126 139.443 98.2192C139.437 97.3874 139.43 96.6736 139.424 95.9598L139.391 95.9925C140.105 95.9925 140.825 95.9794 141.657 95.9728C141.65 95.2001 141.644 94.4993 141.637 93.7396C143.969 93.72 146.182 93.7003 148.553 93.6807C148.566 95.1935 148.579 96.6932 148.592 98.1995C147.093 98.2126 145.586 98.2257 144.073 98.2388C144.08 99.0575 144.087 99.7517 144.093 100.433C145.626 100.42 147.079 100.407 148.579 100.393C148.573 99.601 148.566 98.8806 148.56 98.1668C150.092 98.1668 151.631 98.1668 153.164 98.1668L153.131 98.134C153.137 98.9068 153.144 99.6796 153.15 100.452L153.183 100.42L153.17 100.4Z" fill="#0A0A0A"/>
<path d="M109.573 75.6903C114.897 75.6444 120.136 75.5986 125.441 75.5527C125.487 80.8444 125.533 86.0837 125.579 91.4146C120.326 91.4604 115.061 91.5063 109.71 91.5521C109.664 86.3129 109.619 81.0474 109.573 75.6903ZM123.247 89.1879C123.214 85.3501 123.182 81.6106 123.149 77.8973C119.324 77.9301 115.578 77.9628 111.858 77.9955C111.891 81.8071 111.924 85.5204 111.957 89.2862C115.735 89.2534 119.449 89.2207 123.247 89.1879Z" fill="#0A0A0A"/>
<path d="M125.73 107.597C125.775 112.922 125.821 118.161 125.867 123.466C120.575 123.512 115.336 123.558 110.005 123.603C109.959 118.358 109.914 113.086 109.868 107.735C115.107 107.689 120.372 107.643 125.73 107.597ZM112.16 109.975C112.193 113.812 112.225 117.552 112.258 121.265C116.083 121.233 119.829 121.2 123.549 121.167C123.516 117.356 123.483 113.642 123.45 109.876C119.672 109.909 115.958 109.942 112.16 109.975Z" fill="#0A0A0A"/>
<path d="M141.584 75.4154C146.902 75.3695 152.148 75.3237 157.446 75.2778C157.492 80.5695 157.538 85.8087 157.584 91.1397C152.338 91.1855 147.073 91.2314 141.722 91.2772C141.676 86.0445 141.63 80.7725 141.584 75.4154ZM155.193 77.6158C151.356 77.6486 147.616 77.6813 143.903 77.7141C143.936 81.5388 143.968 85.2848 144.001 89.0047C147.806 88.9719 151.526 88.9392 155.292 88.9065C155.259 85.1276 155.226 81.4143 155.193 77.6158Z" fill="#0A0A0A"/>
<path d="M136.981 82.2852C137.701 82.2852 138.415 82.2721 139.208 82.2655C139.221 83.7784 139.234 85.2388 139.247 86.7844C137.786 86.7975 136.352 86.8106 134.793 86.8237C134.807 88.3627 134.82 89.8297 134.833 91.3622C134.014 91.3688 133.313 91.3753 132.534 91.3819C132.534 90.6877 132.521 90.0131 132.514 89.2534C131.735 89.26 131.041 89.2665 130.216 89.2731C130.229 90.7204 130.242 92.1808 130.255 93.7068C129.384 93.7133 128.637 93.7199 127.884 93.7264C127.884 93.7264 127.924 93.7592 127.917 93.7592C127.891 90.7662 127.865 87.7733 127.838 84.6691C130.916 84.6429 133.89 84.6167 137.033 84.5905C137.027 83.7391 137.02 82.999 137.014 82.2524L136.981 82.2852Z" fill="#0A0A0A"/>
<path d="M139.482 107.381C139.482 108.102 139.495 108.816 139.502 109.66C137.989 109.674 136.529 109.687 134.99 109.7C134.996 110.492 135.003 111.16 135.009 111.926C133.47 111.939 132.01 111.953 130.373 111.966C130.373 111.245 130.359 110.499 130.353 109.752C131.093 109.752 131.84 109.739 132.586 109.732C132.58 108.914 132.573 108.22 132.566 107.539C131.794 107.545 131.099 107.552 130.366 107.558C130.373 108.351 130.379 109.071 130.386 109.785C129.665 109.785 128.951 109.798 128.1 109.804C128.08 107.447 128.061 105.181 128.041 102.908L128.008 102.941C128.781 102.935 129.554 102.928 130.327 102.921L130.294 102.889C130.294 103.635 130.307 104.382 130.314 105.174C131.964 105.161 133.444 105.148 134.918 105.135C134.918 105.882 134.931 106.628 134.937 107.453C136.548 107.44 138.028 107.427 139.508 107.414L139.476 107.381H139.482Z" fill="#0A0A0A"/>
<path d="M153.15 98.1473C153.15 97.4269 153.137 96.713 153.131 95.8747C152.351 95.8813 151.65 95.8878 150.891 95.8944C150.884 95.102 150.878 94.434 150.871 93.6677C152.299 93.6546 153.759 93.6415 155.344 93.6284C155.344 94.2899 155.357 94.9906 155.364 95.8093C156.182 95.8027 156.883 95.7962 157.636 95.7896C157.656 98.1014 157.676 100.295 157.695 102.574C156.248 102.588 154.787 102.601 153.196 102.614C153.196 101.887 153.183 101.14 153.176 100.394L153.144 100.426C153.89 100.426 154.63 100.413 155.37 100.407C155.364 99.5553 155.357 98.8546 155.351 98.0883C154.558 98.0949 153.844 98.1014 153.124 98.108L153.157 98.1407L153.15 98.1473Z" fill="#0A0A0A"/>
<path d="M139.581 118.81L139.594 121.128L139.627 121.095C138.153 121.108 136.679 121.121 135.088 121.135C135.095 121.901 135.101 122.595 135.108 123.368C134.296 123.374 133.601 123.381 132.789 123.387C132.776 121.875 132.763 120.375 132.75 118.875L132.717 118.908C133.464 118.908 134.21 118.895 135.036 118.888C135.029 118.004 135.023 117.29 135.016 116.57L134.983 116.603C135.697 116.603 136.411 116.589 137.249 116.583C137.249 117.316 137.262 118.017 137.269 118.862C138.127 118.855 138.867 118.849 139.613 118.842L139.581 118.81Z" fill="#0A0A0A"/>
<path d="M116.528 100.819C116.541 102.325 116.554 103.753 116.567 105.246C115.827 105.246 115.127 105.259 114.354 105.266C114.354 104.552 114.341 103.877 114.334 103.124C113.561 103.131 112.861 103.137 112.042 103.144C112.042 103.832 112.055 104.532 112.062 105.286C111.276 105.292 110.601 105.299 109.842 105.305C109.828 103.871 109.815 102.417 109.802 100.871C111.99 100.852 114.21 100.832 116.528 100.812V100.819Z" fill="#0A0A0A"/>
<path d="M137.013 82.2525C135.533 82.2656 134.053 82.2787 132.494 82.2918C132.475 80.0127 132.455 77.7926 132.436 75.507C133.123 75.507 133.798 75.4939 134.59 75.4873C134.603 76.9216 134.616 78.382 134.629 80.0193C135.494 80.0127 136.241 80.0062 136.981 79.9996L136.948 79.9669C136.954 80.7397 136.968 81.5125 136.974 82.2853L137.007 82.2525H137.013Z" fill="#0A0A0A"/>
<path d="M109.73 98.4158C109.717 96.9291 109.704 95.5014 109.69 94.0017C111.19 93.9886 112.644 93.9755 114.163 93.9624C114.177 95.4228 114.19 96.8571 114.203 98.3765C112.768 98.3896 111.308 98.4027 109.73 98.4158Z" fill="#0A0A0A"/>
<path d="M136.987 79.9995C136.974 78.526 136.961 77.0524 136.948 75.4938C137.681 75.4938 138.375 75.4807 139.148 75.4741C139.161 76.9084 139.174 78.3623 139.188 79.9471C138.441 79.9471 137.701 79.9602 136.954 79.9668L136.987 79.9995Z" fill="#0A0A0A"/>
<path d="M130.052 82.2723C129.305 82.2723 128.637 82.2854 127.904 82.292C127.89 80.7857 127.877 79.3253 127.864 77.819C128.591 77.819 129.259 77.8059 130.012 77.7993C130.025 79.2598 130.039 80.7202 130.052 82.2723Z" fill="#0A0A0A"/>
<path d="M123.424 98.3698C121.944 98.3829 120.464 98.396 118.853 98.4091C118.846 97.6167 118.84 96.8701 118.833 96.1235L118.8 96.1562C120.333 96.1431 121.872 96.13 123.404 96.1104L123.372 96.0776C123.378 96.8504 123.385 97.6232 123.391 98.396L123.424 98.3633V98.3698Z" fill="#0A0A0A"/>
<path d="M130.385 118.855C130.399 120.362 130.412 121.861 130.425 123.42C129.717 123.42 129.049 123.433 128.29 123.44C128.277 122.012 128.264 120.558 128.25 118.901C128.945 118.901 129.678 118.888 130.418 118.882L130.379 118.849L130.385 118.855Z" fill="#0A0A0A"/>
<path d="M137.112 89.1686C137.845 89.1686 138.513 89.1555 139.26 89.1489C139.26 89.8562 139.273 90.557 139.28 91.3167C138.579 91.3167 137.885 91.3298 137.131 91.3363C137.131 90.6356 137.118 89.9676 137.112 89.1686Z" fill="#0A0A0A"/>
<path d="M125.67 102.889C125.67 103.629 125.683 104.375 125.69 105.174C124.983 105.174 124.314 105.187 123.555 105.194C123.555 104.519 123.542 103.825 123.535 102.941C124.229 102.941 124.963 102.928 125.703 102.921L125.664 102.889H125.67Z" fill="#0A0A0A"/>
<path d="M128.041 102.908C127.255 102.908 126.463 102.895 125.677 102.889C125.677 102.889 125.716 102.921 125.71 102.921C125.716 102.162 125.723 101.402 125.736 100.642L125.703 100.675C126.476 100.668 127.249 100.662 128.021 100.655L127.989 100.623L128.008 102.941L128.041 102.908Z" fill="#0A0A0A"/>
<path d="M125.736 100.642C125.016 100.642 124.302 100.655 123.45 100.662C123.444 99.8695 123.437 99.1229 123.431 98.3697L123.398 98.4025C124.171 98.3959 124.944 98.3894 125.716 98.3828L125.684 98.3501C125.69 99.1229 125.697 99.8957 125.703 100.668L125.736 100.636V100.642Z" fill="#0A0A0A"/>
<path d="M130.445 116.603C129.731 116.603 129.017 116.616 128.225 116.622C128.225 115.895 128.212 115.201 128.205 114.428C128.886 114.428 129.58 114.415 130.392 114.409C130.392 115.155 130.406 115.895 130.412 116.635L130.445 116.603Z" fill="#0A0A0A"/>
<path d="M130.412 116.635C131.185 116.635 131.964 116.622 132.737 116.616L132.704 116.583C132.71 117.356 132.717 118.128 132.724 118.901L132.756 118.868C131.97 118.868 131.178 118.855 130.392 118.849C130.392 118.849 130.431 118.881 130.425 118.881C130.425 118.122 130.438 117.356 130.444 116.596L130.412 116.629V116.635Z" fill="#0A0A0A"/>
<path d="M118.84 96.1302C118.126 96.1302 117.412 96.1433 116.613 96.1498C116.613 95.4163 116.6 94.7221 116.593 93.9493C117.274 93.9493 117.969 93.9362 118.787 93.9297C118.787 94.6763 118.8 95.4163 118.807 96.1629L118.84 96.1302Z" fill="#0A0A0A"/>
<path d="M139.6 121.128C140.314 121.128 141.028 121.115 141.827 121.108C141.827 121.842 141.84 122.536 141.846 123.309C141.165 123.309 140.471 123.322 139.652 123.328C139.652 122.582 139.639 121.842 139.633 121.095L139.6 121.128Z" fill="#0A0A0A"/>
<path d="M144.257 121.102C145.017 121.095 145.658 121.089 146.392 121.082C146.392 121.796 146.405 122.497 146.411 123.269C145.743 123.269 145.043 123.283 144.276 123.289C144.276 122.588 144.263 121.888 144.257 121.102Z" fill="#0A0A0A"/>
<path d="M151.002 121.095C151.009 121.855 151.015 122.523 151.022 123.25C150.301 123.25 149.633 123.263 148.874 123.27C148.874 122.588 148.861 121.894 148.854 121.115C149.522 121.115 150.223 121.102 151.002 121.095Z" fill="#0A0A0A"/>
<path d="M155.573 121.043C155.573 121.763 155.586 122.431 155.593 123.184C154.899 123.184 154.205 123.197 153.432 123.204C153.432 122.516 153.419 121.822 153.412 121.062C154.1 121.062 154.768 121.049 155.573 121.043Z" fill="#0A0A0A"/>
<path d="M134.892 105.168C134.892 104.447 134.879 103.733 134.872 102.849C135.697 102.843 136.444 102.836 137.19 102.83C137.19 103.55 137.204 104.264 137.21 105.148C136.385 105.155 135.638 105.161 134.892 105.168Z" fill="#0A0A0A"/>
<path d="M120.916 80.1768C120.935 82.4296 120.955 84.6236 120.975 86.8961C118.741 86.9158 116.528 86.9354 114.236 86.9551C114.216 84.7349 114.196 82.5148 114.177 80.2357C116.403 80.216 118.591 80.1964 120.916 80.1768Z" fill="#0A0A0A"/>
<path d="M121.217 118.947C118.964 118.967 116.77 118.986 114.511 119.006C114.491 116.747 114.471 114.526 114.452 112.247C116.685 112.228 118.879 112.208 121.158 112.188C121.178 114.396 121.197 116.616 121.217 118.947Z" fill="#0A0A0A"/>
<path d="M146.228 86.6731C146.208 84.4006 146.189 82.2132 146.169 79.9603C148.409 79.9407 150.603 79.921 152.888 79.9014C152.908 82.0953 152.928 84.3154 152.947 86.6142C150.766 86.6338 148.546 86.6535 146.228 86.6731Z" fill="#0A0A0A"/>
<path d="M125.717 98.3845C125.717 98.3845 125.717 98.3639 125.717 98.3501C125.704 98.3501 125.697 98.3501 125.683 98.3501L125.717 98.3845Z" fill="#0A0A0A"/>
<path d="M137.165 100.544C137.165 100.544 137.145 100.544 137.131 100.544C137.131 100.558 137.131 100.565 137.131 100.578L137.165 100.544Z" fill="#0A0A0A"/>
<path d="M123.412 96.1184C123.412 96.1184 123.412 96.0977 123.412 96.084C123.399 96.084 123.392 96.084 123.378 96.084L123.412 96.1184Z" fill="#0A0A0A"/>
<path d="M130.328 102.923C130.328 102.923 130.328 102.902 130.328 102.889C130.315 102.889 130.308 102.889 130.294 102.889L130.328 102.923Z" fill="#0A0A0A"/>
<path d="M128.023 100.657C128.023 100.657 128.023 100.636 128.023 100.623C128.009 100.623 128.002 100.623 127.988 100.623L128.023 100.657Z" fill="#0A0A0A"/>
<path d="M139.418 95.9468C139.418 95.9468 139.398 95.9468 139.384 95.9468C139.384 95.9605 139.384 95.9674 139.384 95.9812L139.418 95.9468Z" fill="#0A0A0A"/>
<path d="M132.494 93.8182C132.507 95.3311 132.52 96.7653 132.533 98.2388C131.767 98.2454 131.086 98.2519 130.287 98.2585L130.307 100.597C130.313 101.409 130.32 102.149 130.326 102.882C131.034 102.882 131.741 102.869 132.56 102.862C132.56 102.122 132.547 101.422 132.54 100.577C134.145 100.564 135.644 100.551 137.131 100.538C137.118 99.0706 137.105 97.597 137.092 95.9663C137.904 95.9598 138.644 95.9532 139.377 95.9467C139.377 95.2132 139.364 94.4797 139.358 93.7593C137.006 93.7789 134.786 93.7986 132.488 93.8182H132.494Z" fill="#0A0A0A"/>
<path d="M127.884 93.7266C127.884 93.7266 127.884 93.7467 127.884 93.7601C127.897 93.7601 127.91 93.7601 127.917 93.7601L127.877 93.7266H127.884Z" fill="#0A0A0A"/>
<path d="M105.453 84.0078L105.276 71.689L116.403 71.355" stroke="#0A0A0A" stroke-width="3" stroke-miterlimit="10"/>
<path d="M161.513 84.1845L161.566 71.5382L150.432 71.4858" stroke="#0A0A0A" stroke-width="3" stroke-miterlimit="10"/>
<path d="M106.128 114.932L106.148 127.579L117.281 127.566" stroke="#0A0A0A" stroke-width="3" stroke-miterlimit="10"/>
<path d="M161.559 114.906V127.553H150.426" stroke="#0A0A0A" stroke-width="3" stroke-miterlimit="10"/>
<rect x="106" y="152.289" width="56" height="15" fill="#00AA00"/>
<path d="M122.424 163.422C121.618 163.422 120.943 163.284 120.399 163.008C119.854 162.732 119.388 162.348 119 161.856L120.209 160.491C120.582 160.983 120.958 161.315 121.339 161.487C121.727 161.658 122.114 161.744 122.502 161.744C122.793 161.744 123.032 161.692 123.218 161.588C123.405 161.483 123.498 161.326 123.498 161.118C123.498 160.939 123.42 160.789 123.263 160.67C123.114 160.551 122.924 160.458 122.692 160.39C122.461 160.316 122.226 160.252 121.988 160.2C121.122 160.014 120.477 159.719 120.052 159.316C119.627 158.914 119.414 158.38 119.414 157.717C119.414 157.232 119.552 156.81 119.828 156.452C120.112 156.087 120.481 155.803 120.936 155.602C121.391 155.393 121.879 155.289 122.402 155.289C123.192 155.289 123.819 155.412 124.281 155.658C124.744 155.897 125.116 156.225 125.4 156.643L124.18 157.817C123.942 157.541 123.677 157.336 123.386 157.202C123.095 157.06 122.793 156.989 122.48 156.989C122.167 156.989 121.917 157.042 121.73 157.146C121.544 157.25 121.451 157.403 121.451 157.605C121.451 157.761 121.514 157.892 121.641 157.996C121.775 158.101 121.943 158.186 122.144 158.254C122.346 158.313 122.554 158.365 122.771 158.41C123.315 158.515 123.793 158.668 124.203 158.869C124.62 159.07 124.945 159.335 125.176 159.663C125.407 159.984 125.523 160.383 125.523 160.86C125.523 161.412 125.389 161.878 125.12 162.259C124.852 162.639 124.482 162.93 124.013 163.131C123.55 163.325 123.021 163.422 122.424 163.422Z" fill="white"/>
<path d="M130.521 163.422C129.716 163.422 129.003 163.251 128.384 162.908C127.773 162.557 127.292 162.076 126.941 161.464C126.591 160.853 126.415 160.152 126.415 159.361C126.415 158.772 126.516 158.231 126.717 157.739C126.926 157.247 127.217 156.822 127.59 156.464C127.97 156.098 128.414 155.815 128.921 155.613C129.436 155.412 129.995 155.311 130.6 155.311C131.152 155.311 131.685 155.419 132.199 155.636C132.722 155.844 133.158 156.15 133.508 156.553L132.278 157.952C132.069 157.713 131.823 157.523 131.539 157.381C131.263 157.239 130.946 157.168 130.588 157.168C130.193 157.168 129.835 157.258 129.514 157.437C129.201 157.616 128.948 157.873 128.754 158.209C128.567 158.537 128.474 158.929 128.474 159.384C128.474 160.047 128.683 160.577 129.1 160.972C129.518 161.368 130.07 161.565 130.756 161.565C131.099 161.565 131.42 161.494 131.718 161.353C132.024 161.211 132.278 161.028 132.479 160.804L133.452 162.337C133.266 162.546 133.016 162.732 132.703 162.896C132.39 163.061 132.043 163.191 131.662 163.288C131.289 163.378 130.909 163.422 130.521 163.422Z" fill="white"/>
<path d="M133.668 163.31L136.778 155.479H138.457L141.533 163.31H139.508L138.982 161.89H136.174L135.648 163.31H133.668ZM137.069 159.473L136.723 160.402H138.434L138.076 159.451C137.994 159.212 137.908 158.97 137.819 158.723C137.737 158.477 137.659 158.227 137.584 157.974C137.509 158.22 137.431 158.462 137.349 158.701C137.267 158.94 137.174 159.197 137.069 159.473Z" fill="white"/>
<path d="M142.443 163.31V155.479H144.245L147.769 160.29C147.732 159.962 147.698 159.656 147.668 159.372C147.646 159.081 147.631 158.772 147.623 158.444C147.616 158.116 147.612 157.735 147.612 157.303V155.479H149.57V163.31H147.746L144.267 158.6C144.304 158.929 144.33 159.205 144.345 159.428C144.368 159.652 144.383 159.868 144.39 160.077C144.398 160.286 144.401 160.528 144.401 160.804V163.31H142.443Z" fill="white"/>
<path d="M159.235 79.2739L107.809 79.8843L107.846 82.9752L159.272 82.3649L159.235 79.2739Z" fill="#FD6300"/>
<rect x="99.0005" y="45.2886" width="70" height="12" fill="#00AA00"/>
<path d="M106.879 54.3132C106.465 54.3132 106.081 54.2405 105.729 54.095C105.377 53.944 105.072 53.7342 104.814 53.4657C104.557 53.1916 104.356 52.8728 104.21 52.5092C104.07 52.14 104 51.7372 104 51.3009C104 50.8702 104.07 50.473 104.21 50.1094C104.356 49.7402 104.557 49.4213 104.814 49.1528C105.072 48.8787 105.377 48.6662 105.729 48.5151C106.081 48.3641 106.465 48.2886 106.879 48.2886C107.292 48.2886 107.676 48.3641 108.028 48.5151C108.38 48.6662 108.685 48.8787 108.943 49.1528C109.206 49.4213 109.407 49.7402 109.547 50.1094C109.692 50.473 109.765 50.8702 109.765 51.3009C109.765 51.8043 109.667 52.263 109.471 52.677C109.281 53.0909 109.018 53.4321 108.683 53.7007L109.455 54.7076L108.926 55.0935L108.129 54.0447C107.743 54.2237 107.326 54.3132 106.879 54.3132ZM106.879 53.6587C107.175 53.6587 107.455 53.6084 107.718 53.5077L106.778 52.2658L107.315 51.905L108.271 53.172C108.523 52.9595 108.719 52.6938 108.859 52.3749C109.004 52.0505 109.077 51.6925 109.077 51.3009C109.077 50.8478 108.982 50.445 108.792 50.0926C108.601 49.7346 108.341 49.4549 108.011 49.2535C107.681 49.0465 107.304 48.9431 106.879 48.9431C106.453 48.9431 106.076 49.0465 105.746 49.2535C105.416 49.4549 105.156 49.7346 104.965 50.0926C104.781 50.445 104.689 50.8478 104.689 51.3009C104.689 51.7596 104.781 52.1679 104.965 52.5259C105.156 52.8784 105.416 53.1553 105.746 53.3566C106.076 53.558 106.453 53.6587 106.879 53.6587Z" fill="white"/>
<path d="M111.042 54.2293V48.3557H113.349C113.69 48.3557 113.998 48.4368 114.272 48.599C114.552 48.7557 114.773 48.971 114.935 49.2451C115.097 49.5192 115.178 49.8297 115.178 50.1765C115.178 50.5625 115.069 50.9037 114.851 51.2002C114.633 51.4911 114.35 51.6952 114.004 51.8127L115.413 54.2293H114.616L113.299 51.9134H111.705V54.2293H111.042ZM111.705 51.2673H113.458C113.76 51.2673 114.009 51.1666 114.205 50.9652C114.401 50.7583 114.499 50.4954 114.499 50.1765C114.499 49.8353 114.381 49.5556 114.146 49.3374C113.917 49.1137 113.623 49.0018 113.265 49.0018H111.705V51.2673Z" fill="white"/>
<path d="M120.661 54.3132C119.744 54.3132 119.028 53.9384 118.513 53.1888L118.974 52.677C119.237 53.0518 119.506 53.3147 119.78 53.4657C120.06 53.6167 120.37 53.6923 120.711 53.6923C120.969 53.6923 121.198 53.6503 121.399 53.5664C121.606 53.4825 121.769 53.3678 121.886 53.2224C122.004 53.0713 122.062 52.8979 122.062 52.7021C122.062 52.3833 121.928 52.1428 121.66 51.9805C121.397 51.8183 121.027 51.6813 120.552 51.5694C119.981 51.4351 119.545 51.2421 119.243 50.9904C118.946 50.7331 118.798 50.3667 118.798 49.8912C118.798 49.5836 118.882 49.3095 119.05 49.0689C119.223 48.8284 119.456 48.6382 119.746 48.4983C120.037 48.3585 120.365 48.2886 120.728 48.2886C121.181 48.2886 121.564 48.3809 121.878 48.5655C122.191 48.7501 122.448 49.0046 122.65 49.329L122.18 49.7989C122.001 49.5192 121.791 49.3011 121.55 49.1444C121.31 48.9878 121.03 48.9095 120.711 48.9095C120.348 48.9095 120.048 49.0018 119.814 49.1864C119.584 49.3654 119.469 49.5975 119.469 49.8828C119.469 50.1625 119.576 50.3807 119.788 50.5373C120.001 50.6939 120.351 50.8254 120.837 50.9317C121.419 51.0659 121.88 51.2617 122.222 51.519C122.563 51.7764 122.734 52.1288 122.734 52.5763C122.734 52.9175 122.647 53.2196 122.473 53.4825C122.3 53.7454 122.057 53.9496 121.743 54.095C121.436 54.2405 121.075 54.3132 120.661 54.3132Z" fill="white"/>
<path d="M126.487 54.3132C125.928 54.3132 125.43 54.1845 124.994 53.9272C124.557 53.6699 124.216 53.3147 123.97 52.8616C123.724 52.4029 123.601 51.8798 123.601 51.2925C123.601 50.8674 123.674 50.473 123.819 50.1094C123.965 49.7458 124.166 49.4297 124.423 49.1612C124.686 48.8927 124.991 48.6829 125.338 48.5319C125.69 48.3809 126.071 48.3054 126.479 48.3054C126.753 48.3054 127.024 48.3501 127.293 48.4396C127.561 48.5291 127.808 48.6494 128.031 48.8004C128.261 48.9514 128.448 49.1249 128.593 49.3206L128.14 49.7989C127.928 49.5416 127.673 49.3402 127.377 49.1948C127.08 49.0437 126.781 48.9682 126.479 48.9682C126.059 48.9682 125.685 49.0689 125.355 49.2703C125.025 49.4717 124.764 49.7486 124.574 50.101C124.384 50.4478 124.289 50.845 124.289 51.2925C124.289 51.7568 124.384 52.1679 124.574 52.5259C124.77 52.8784 125.039 53.1525 125.38 53.3482C125.721 53.544 126.115 53.6419 126.563 53.6419C126.871 53.6419 127.167 53.5804 127.452 53.4573C127.743 53.3287 127.975 53.1608 128.149 52.9539L128.484 53.5077C128.35 53.6643 128.174 53.8041 127.956 53.9272C127.743 54.0447 127.508 54.1398 127.251 54.2125C126.999 54.2796 126.745 54.3132 126.487 54.3132Z" fill="white"/>
<path d="M129.078 54.2293L131.335 48.3557H132.082L134.314 54.2293H133.592L132.988 52.6098H130.37L129.758 54.2293H129.078ZM131.184 50.4702L130.614 51.9638H132.745L132.166 50.4282C132.099 50.2492 132.018 50.0283 131.923 49.7654C131.833 49.4969 131.752 49.2507 131.679 49.027C131.601 49.2675 131.52 49.5108 131.436 49.757C131.352 50.0031 131.268 50.2408 131.184 50.4702Z" fill="white"/>
<path d="M135.387 54.2293V48.3557H135.991L139.674 53.2308C139.663 53.063 139.652 52.8644 139.641 52.635C139.63 52.4001 139.621 52.1567 139.616 51.905C139.61 51.6533 139.604 51.4072 139.599 51.1666C139.599 50.9205 139.599 50.6995 139.599 50.5038V48.3557H140.262V54.2293H139.649L135.957 49.3962C135.98 49.7318 135.996 50.0506 136.007 50.3527C136.024 50.6548 136.035 50.9149 136.041 51.1331C136.047 51.3456 136.049 51.4883 136.049 51.561V54.2293H135.387Z" fill="white"/>
<path d="M141.991 54.2293V48.3557H142.595L146.279 53.2308C146.268 53.063 146.256 52.8644 146.245 52.635C146.234 52.4001 146.226 52.1567 146.22 51.905C146.214 51.6533 146.209 51.4072 146.203 51.1666C146.203 50.9205 146.203 50.6995 146.203 50.5038V48.3557H146.866V54.2293H146.254L142.562 49.3962C142.584 49.7318 142.601 50.0506 142.612 50.3527C142.629 50.6548 142.64 50.9149 142.646 51.1331C142.651 51.3456 142.654 51.4883 142.654 51.561V54.2293H141.991Z" fill="white"/>
<path d="M148.319 54.2293V53.6H149.267V48.985H148.319V48.3557H150.878V48.985H149.93V53.6H150.878V54.2293H148.319Z" fill="white"/>
<path d="M152.332 54.2293V48.3557H152.936L156.62 53.2308C156.609 53.063 156.597 52.8644 156.586 52.635C156.575 52.4001 156.567 52.1567 156.561 51.905C156.555 51.6533 156.55 51.4072 156.544 51.1666C156.544 50.9205 156.544 50.6995 156.544 50.5038V48.3557H157.207V54.2293H156.595L152.903 49.3962C152.925 49.7318 152.942 50.0506 152.953 50.3527C152.97 50.6548 152.981 50.9149 152.987 51.1331C152.992 51.3456 152.995 51.4883 152.995 51.561V54.2293H152.332Z" fill="white"/>
<path d="M161.538 54.3132C161.107 54.3132 160.704 54.2377 160.329 54.0866C159.96 53.9356 159.636 53.7258 159.356 53.4573C159.082 53.1832 158.867 52.8644 158.71 52.5008C158.559 52.1372 158.483 51.7372 158.483 51.3009C158.483 50.8757 158.559 50.4814 158.71 50.1178C158.861 49.7542 159.074 49.4381 159.348 49.1696C159.622 48.8955 159.941 48.6829 160.304 48.5319C160.674 48.3809 161.071 48.3054 161.496 48.3054C161.792 48.3054 162.083 48.3501 162.368 48.4396C162.654 48.5235 162.914 48.641 163.149 48.792C163.384 48.9375 163.574 49.1081 163.719 49.3039L163.283 49.757C163.048 49.5108 162.771 49.3178 162.452 49.178C162.134 49.0326 161.817 48.9598 161.504 48.9598C161.062 48.9598 160.665 49.0633 160.313 49.2703C159.96 49.4717 159.681 49.7486 159.474 50.101C159.272 50.4534 159.172 50.8534 159.172 51.3009C159.172 51.7484 159.278 52.1511 159.49 52.5092C159.703 52.8616 159.988 53.1413 160.346 53.3482C160.71 53.5552 161.115 53.6587 161.563 53.6587C161.915 53.6587 162.234 53.5916 162.519 53.4573C162.805 53.3175 163.031 53.1301 163.199 52.8951C163.367 52.6602 163.451 52.3973 163.451 52.1064V51.9889H161.529V51.3261H164.114C164.119 51.3988 164.125 51.4827 164.131 51.5778C164.142 51.6673 164.147 51.7512 164.147 51.8295C164.147 52.3162 164.03 52.7469 163.795 53.1217C163.566 53.4909 163.252 53.7818 162.855 53.9943C162.464 54.2069 162.024 54.3132 161.538 54.3132Z" fill="white"/>
<path d="M197.717 153.618L185.542 120.82C184.953 119.235 183.44 118.181 181.75 118.181H176.183V132.438L179.471 138.391C179.936 139.229 182.058 151.994 181.41 152.694C178.914 155.393 178.384 157.803 171.167 173.763C170.381 175.498 168.265 181.248 166.602 182.165C163.982 183.599 160.708 182.866 158.953 180.449L145.665 162.132C143.34 158.929 138.893 157.881 135.546 159.997C131.879 162.308 130.975 167.201 133.483 170.658L149.987 193.41C149.987 193.41 148.271 220.746 162.587 238.887V264.138H194.016L198.437 158.268C198.516 156.683 198.273 155.104 197.717 153.618Z" fill="#FFC89D"/>
<path d="M158.684 264.978V247.951C158.684 247.951 174.494 234.853 199 231.906L198.614 264.978H158.684Z" fill="#001955"/>
</g>
<defs>
<filter id="filter0_d_6393_22034" x="16.2002" y="56.3257" width="97.2529" height="97.2529" filterUnits="userSpaceOnUse" color-interpolation-filters="sRGB">
<feFlood flood-opacity="0" result="BackgroundImageFix"/>
<feColorMatrix in="SourceAlpha" type="matrix" values="0 0 0 0 0 0 0 0 0 0 0 0 0 0 0 0 0 0 127 0" result="hardAlpha"/>
<feOffset dx="-2" dy="3"/>
<feGaussianBlur stdDeviation="5"/>
<feColorMatrix type="matrix" values="0 0 0 0 0 0 0 0 0 0 0 0 0 0 0 0 0 0 0.08 0"/>
<feBlend mode="normal" in2="BackgroundImageFix" result="effect1_dropShadow_6393_22034"/>
<feBlend mode="normal" in="SourceGraphic" in2="effect1_dropShadow_6393_22034" result="shape"/>
</filter>
<filter id="filter1_d_6393_22034" x="79.4644" y="18" width="105.132" height="188.803" filterUnits="userSpaceOnUse" color-interpolation-filters="sRGB">
<feFlood flood-opacity="0" result="BackgroundImageFix"/>
<feColorMatrix in="SourceAlpha" type="matrix" values="0 0 0 0 0 0 0 0 0 0 0 0 0 0 0 0 0 0 127 0" result="hardAlpha"/>
<feOffset dx="-2" dy="3"/>
<feGaussianBlur stdDeviation="5"/>
<feColorMatrix type="matrix" values="0 0 0 0 0 0 0 0 0 0 0 0 0 0 0 0 0 0 0.35 0"/>
<feBlend mode="normal" in2="BackgroundImageFix" result="effect1_dropShadow_6393_22034"/>
<feBlend mode="normal" in="SourceGraphic" in2="effect1_dropShadow_6393_22034" result="shape"/>
</filter>
</defs>
</svg>
