<svg width="233" height="267" viewBox="0 0 233 267" fill="none" xmlns="http://www.w3.org/2000/svg">
<g filter="url(#filter0_d_6393_22293)">
<path d="M141.856 10.0001L15.1235 102.608L51.9813 153.556L178.714 60.9483L141.856 10.0001Z" fill="#CCEECC"/>
<path d="M160.281 35.4732L33.5483 128.081L51.9772 153.555L178.71 60.9474L160.281 35.4732Z" fill="#9CD29C"/>
<path d="M15.123 102.606L51.9801 153.555L178.712 60.9487L141.855 10L15.123 102.606ZM163.217 50.2402C160.009 54.9339 159.073 60.8743 160.688 66.3292L62.6306 137.982C57.9604 134.758 52.0497 133.818 46.6221 135.44L30.618 113.315C33.8258 108.621 34.7616 102.681 33.1468 97.2256L131.2 25.5729C135.87 28.7968 141.781 29.7373 147.209 28.1144L163.213 50.2402H163.217Z" fill="#32CD32"/>
<path d="M107.976 97.0628C114.276 92.4597 114.432 81.885 108.325 73.4436C102.218 65.0023 92.1609 61.8907 85.8615 66.4939C79.5622 71.097 79.4061 81.6717 85.5129 90.1131C91.6197 98.5545 101.677 101.666 107.976 97.0628Z" fill="#32CD32"/>
<path d="M71.4738 108.632C72.2906 103.478 68.7959 98.6351 63.6683 97.8143C58.5406 96.9935 53.7218 100.506 52.9051 105.659C52.0884 110.813 55.583 115.656 60.7106 116.476C65.8383 117.297 70.6571 113.785 71.4738 108.632Z" fill="#32CD32"/>
<path d="M139.214 62.1349C142.47 58.0703 141.832 52.1223 137.787 48.8496C133.743 45.5769 127.825 46.2189 124.568 50.2835C121.312 54.3481 121.951 60.2961 125.995 63.5688C130.039 66.8415 135.958 66.1995 139.214 62.1349Z" fill="#32CD32"/>
<path d="M155.213 39.1773L163.217 50.2402C160.009 54.9339 159.074 60.8744 160.688 66.3292L62.6308 137.982C57.9606 134.758 52.0499 133.818 46.6223 135.44L38.618 124.378L33.5474 128.083L51.9759 153.555L178.712 60.9487L160.284 35.4766L155.213 39.1817V39.1773Z" fill="#32CD32"/>
<path d="M107.975 97.0637C114.273 92.4618 114.43 81.8845 108.323 73.4463L85.5117 90.1171C91.6183 98.5598 101.677 101.67 107.975 97.0681V97.0637Z" fill="#32CD32"/>
<path d="M137.424 63.8621C141.624 60.7913 142.551 54.8859 139.5 50.6646L124.292 61.7755C127.348 65.9968 133.224 66.9286 137.424 63.8621Z" fill="#32CD32"/>
<path d="M67.7189 114.793C71.9191 111.722 72.8462 105.817 69.7951 101.596L54.5874 112.707C57.6429 116.928 63.5187 117.86 67.7189 114.793Z" fill="#32CD32"/>
<path d="M178.458 43.4121L30.5918 95.5129L51.3278 154.957L199.194 102.856L178.458 43.4121Z" fill="#CCEECC"/>
<path d="M188.83 73.1316L40.9634 125.232L51.3314 154.954L199.198 102.854L188.83 73.1316Z" fill="#9CD29C"/>
<path d="M30.5918 95.5113L51.3228 154.955L199.19 102.865L178.459 43.4209L30.5918 95.5113ZM187.413 88.1317C182.995 91.6968 180.405 97.1167 180.388 102.812L65.9777 143.118C62.4304 138.678 57.0376 136.075 51.3707 136.058L42.3653 110.24C46.7831 106.675 49.3729 101.255 49.3903 95.5594L163.805 55.258C167.352 59.6981 172.745 62.3008 178.412 62.3183L187.417 88.1361L187.413 88.1317Z" fill="#32CD32"/>
<path d="M121.114 117.018C128.464 114.428 131.637 104.345 128.201 94.4956C124.765 84.6466 116.022 78.7617 108.672 81.3515C101.322 83.9412 98.1494 94.0247 101.585 103.874C105.021 113.723 113.764 119.608 121.114 117.018Z" fill="#32CD32"/>
<path d="M76.6174 122.641C81.6602 121.398 84.7456 116.282 83.5088 111.213C82.272 106.145 77.1814 103.044 72.1386 104.287C67.0958 105.53 64.0104 110.646 65.2472 115.715C66.4839 120.783 71.5746 123.884 76.6174 122.641Z" fill="#32CD32"/>
<path d="M158.099 93.9413C163.12 92.6127 166.118 87.4447 164.797 82.3983C163.475 77.3519 158.332 74.338 153.311 75.6666C148.29 76.9952 145.291 82.1632 146.613 87.2096C147.935 92.256 153.077 95.2699 158.099 93.9413Z" fill="#32CD32"/>
<path d="M182.912 75.2267L187.413 88.1356C182.995 91.7008 180.405 97.1206 180.388 102.816L65.9776 143.122C62.4303 138.682 57.0376 136.079 51.3706 136.062L46.8701 123.153L40.9551 125.235L51.3227 154.959L199.19 102.869L188.823 73.1445L182.908 75.2267H182.912Z" fill="#32CD32"/>
<path d="M121.111 117.02C128.462 114.43 131.635 104.347 128.201 94.4961L101.585 103.875C105.02 113.726 113.764 119.61 121.115 117.02H121.111Z" fill="#32CD32"/>
<path d="M158.816 93.7263C163.717 91.9984 166.298 86.6092 164.579 81.6836L146.834 87.9346C148.553 92.8602 153.916 95.4542 158.816 93.7263Z" fill="#32CD32"/>
<path d="M77.4859 122.378C82.3868 120.651 84.9678 115.261 83.2486 110.336L65.5034 116.587C67.2227 121.512 72.5849 124.106 77.4859 122.378Z" fill="#32CD32"/>
<rect x="10" y="95" width="196" height="154" fill="#FFC600"/>
<mask id="mask0_6393_22293" style="mask-type:alpha" maskUnits="userSpaceOnUse" x="10" y="95" width="196" height="154">
<rect x="10" y="95" width="196" height="154" fill="#FFC600"/>
</mask>
<g mask="url(#mask0_6393_22293)">
<path d="M206.116 95L49 253H197.255C204.847 253 211 246.975 211 239.337V105.653C211 101.412 209.103 97.54 206.116 95.0046V95Z" fill="white" fill-opacity="0.2"/>
<path d="M135.053 92L5 222.847V239.366C5 246.988 11.1481 253 18.7336 253H18.7748L179 92H135.053Z" fill="white" fill-opacity="0.2"/>
</g>
<path fill-rule="evenodd" clip-rule="evenodd" d="M15 106.958V101H20.8125V103H17V106.958H15ZM36.3125 101H24.6875V103H36.3125V101ZM40.1875 101V103H51.8125V101H40.1875ZM55.6875 101V103H67.3125V101H55.6875ZM71.1875 101V103H82.8125V101H71.1875ZM86.6875 101V103H98.3125V101H86.6875ZM102.188 101V103H113.812V101H102.188ZM117.688 101V103H129.312V101H117.688ZM133.188 101V103H144.812V101H133.188ZM148.688 101V103H160.312V101H148.688ZM164.188 101V103H175.812V101H164.188ZM179.688 101V103H191.312V101H179.688ZM195.188 101V103H199V106.958H201V101H195.188ZM201 110.931H199V122.847H201V110.931ZM201 126.819H199V138.736H201V126.819ZM201 142.708H199V154.625H201V142.708ZM201 158.597H199V170.514H201V158.597ZM201 174.486H199V186.403H201V174.486ZM201 190.375H199V202.292H201V190.375ZM201 206.264H199V218.181H201V206.264ZM201 222.153H199V234.069H201V222.153ZM201 238.042H199V242H195.188V244H201V238.042ZM191.312 244V242H179.688V244H191.312ZM175.812 244V242H164.188V244H175.812ZM160.312 244V242H148.688V244H160.312ZM144.812 244V242H133.188V244H144.812ZM129.312 244V242H117.688V244H129.312ZM113.812 244V242H102.188V244H113.812ZM98.3125 244V242H86.6875V244H98.3125ZM82.8125 244V242H71.1875V244H82.8125ZM67.3125 244V242H55.6875V244H67.3125ZM51.8125 244V242H40.1875V244H51.8125ZM36.3125 244V242H24.6875V244H36.3125ZM20.8125 244V242H17V238.042H15V244H20.8125ZM15 234.069H17V222.153H15V234.069ZM15 218.181H17V206.264H15V218.181ZM15 202.292H17V190.375H15V202.292ZM15 186.403H17V174.486H15V186.403ZM15 170.514H17V158.597H15V170.514ZM15 154.625H17V142.708H15V154.625ZM15 138.736H17V126.819H15V138.736ZM15 122.847H17V110.931H15V122.847Z" fill="#CEA002"/>
<path d="M205.863 154.95H168.867C159.252 154.95 151.457 162.785 151.457 172.448C151.457 182.111 159.252 189.945 168.867 189.945H205.863V154.95Z" fill="#FFC600"/>
<path d="M210.215 157.137H168.867C160.453 157.137 153.633 163.992 153.633 172.448C153.633 180.904 160.453 187.758 168.867 187.758H210.215C212.618 187.758 214.568 185.956 214.568 183.541V161.669C214.568 159.255 212.618 157.137 210.215 157.137Z" fill="#F2BC00"/>
<path d="M211.46 159.325C211.46 159.806 211.852 160.199 212.331 160.199H214.368C214.159 159.762 213.798 158.887 213.319 158.45H212.331C211.852 158.45 211.46 158.843 211.46 159.325Z" fill="#CEA002"/>
<path d="M209.658 158.45H202.694C202.215 158.45 201.824 158.843 201.824 159.325C201.824 159.806 202.215 160.199 202.694 160.199H209.658C210.137 160.199 210.529 159.806 210.529 159.325C210.529 158.843 210.137 158.45 209.658 158.45Z" fill="#CEA002"/>
<path d="M200.022 158.45H193.058C192.579 158.45 192.187 158.843 192.187 159.325C192.187 159.806 192.579 160.199 193.058 160.199H200.022C200.5 160.199 200.892 159.806 200.892 159.325C200.892 158.843 200.5 158.45 200.022 158.45Z" fill="#CEA002"/>
<path d="M190.385 158.45H183.421C182.943 158.45 182.551 158.843 182.551 159.325C182.551 159.806 182.943 160.199 183.421 160.199H190.385C190.864 160.199 191.256 159.806 191.256 159.325C191.256 158.843 190.864 158.45 190.385 158.45Z" fill="#CEA002"/>
<path d="M180.753 158.45H173.789C173.31 158.45 172.918 158.843 172.918 159.325C172.918 159.806 173.31 160.199 173.789 160.199H180.753C181.232 160.199 181.623 159.806 181.623 159.325C181.623 158.843 181.232 158.45 180.753 158.45Z" fill="#CEA002"/>
<path d="M171.117 158.45H168.914C168.479 158.45 168.018 158.572 167.556 158.594C167.095 158.642 166.638 158.765 166.207 158.83C165.781 158.909 165.389 159.053 165.049 159.132C164.71 159.206 164.44 159.333 164.249 159.399C164.057 159.469 163.948 159.513 163.948 159.513C163.456 159.679 163.247 160.23 163.452 160.668C163.657 161.105 164.14 161.289 164.562 161.153C164.562 161.153 164.658 161.118 164.823 161.057C164.993 161 165.224 160.895 165.524 160.829C165.82 160.759 166.159 160.65 166.534 160.58C166.912 160.528 167.308 160.374 167.713 160.331C168.122 160.309 168.527 160.195 168.91 160.195H171.112C171.591 160.195 171.983 159.801 171.983 159.32C171.983 158.839 171.591 158.445 171.112 158.445L171.117 158.45Z" fill="#CEA002"/>
<path d="M161.402 160.799C161.402 160.799 161.302 160.86 161.128 160.965C160.958 161.079 160.732 161.258 160.449 161.464C160.31 161.569 160.157 161.682 160.001 161.805C159.853 161.94 159.696 162.08 159.535 162.229C159.374 162.378 159.208 162.527 159.039 162.684C158.882 162.85 158.725 163.025 158.569 163.196C158.412 163.371 158.26 163.541 158.103 163.712C157.968 163.896 157.833 164.075 157.702 164.25C157.572 164.425 157.446 164.596 157.328 164.757C157.224 164.928 157.124 165.09 157.032 165.239C156.854 165.541 156.697 165.785 156.597 165.965C156.51 166.149 156.458 166.254 156.458 166.254C156.231 166.722 156.41 167.255 156.854 167.439C157.298 167.623 157.816 167.448 158.007 167.05C158.007 167.05 158.051 166.958 158.129 166.796C158.22 166.643 158.351 166.424 158.508 166.162C158.586 166.03 158.673 165.89 158.764 165.742C158.869 165.602 158.978 165.453 159.095 165.3C159.208 165.147 159.326 164.989 159.448 164.827C159.583 164.679 159.718 164.526 159.857 164.377C159.996 164.228 160.131 164.075 160.266 163.926C160.414 163.791 160.562 163.66 160.701 163.528C160.841 163.401 160.98 163.275 161.106 163.156C161.245 163.051 161.38 162.951 161.502 162.859C161.746 162.68 161.946 162.518 162.094 162.422C162.246 162.33 162.333 162.277 162.333 162.277C162.712 162.045 162.834 161.512 162.612 161.083C162.386 160.654 161.842 160.527 161.402 160.799Z" fill="#CEA002"/>
<path d="M157.123 175.829C157.123 175.829 157.097 175.729 157.054 175.558C157.019 175.383 156.923 175.142 156.893 174.836C156.849 174.534 156.788 174.18 156.74 173.799C156.723 173.419 156.701 173.008 156.679 172.601C156.701 172.194 156.719 171.783 156.74 171.402C156.788 171.022 156.849 170.672 156.893 170.366C156.923 170.059 157.019 169.819 157.054 169.644C157.097 169.469 157.123 169.373 157.123 169.373C157.215 168.935 156.997 168.471 156.54 168.305C156.092 168.143 155.557 168.401 155.443 168.909C155.443 168.909 155.413 169.023 155.365 169.219C155.322 169.421 155.221 169.696 155.182 170.046C155.13 170.392 155.06 170.794 155.008 171.227C154.986 171.665 154.965 172.128 154.938 172.596C154.96 173.06 154.986 173.528 155.008 173.966C155.06 174.399 155.13 174.801 155.182 175.147C155.221 175.497 155.322 175.772 155.365 175.973C155.417 176.17 155.443 176.284 155.443 176.284C155.557 176.796 156.092 177.05 156.54 176.888C156.997 176.722 157.219 176.258 157.123 175.82V175.829Z" fill="#CEA002"/>
<path d="M162.338 182.933C162.338 182.933 162.251 182.881 162.098 182.789C161.95 182.693 161.75 182.531 161.507 182.351C161.385 182.26 161.254 182.159 161.11 182.054C160.98 181.936 160.845 181.809 160.706 181.682C160.566 181.555 160.418 181.42 160.27 181.284C160.135 181.135 159.996 180.987 159.861 180.834C159.726 180.68 159.587 180.532 159.452 180.383C159.335 180.221 159.217 180.064 159.1 179.911C158.986 179.757 158.873 179.609 158.769 179.469C158.677 179.32 158.59 179.176 158.512 179.049C158.355 178.786 158.225 178.568 158.133 178.414C158.055 178.253 158.011 178.161 158.011 178.161C157.82 177.758 157.302 177.583 156.858 177.771C156.414 177.955 156.236 178.489 156.462 178.957C156.462 178.957 156.514 179.062 156.601 179.246C156.701 179.425 156.854 179.67 157.037 179.972C157.128 180.12 157.228 180.282 157.332 180.453C157.45 180.615 157.576 180.781 157.707 180.96C157.837 181.135 157.972 181.315 158.107 181.498C158.26 181.669 158.416 181.844 158.573 182.015C158.73 182.185 158.882 182.36 159.043 182.526C159.213 182.68 159.378 182.833 159.539 182.981C159.7 183.13 159.857 183.27 160.005 183.406C160.166 183.528 160.314 183.642 160.453 183.747C160.732 183.952 160.962 184.136 161.132 184.246C161.306 184.351 161.406 184.412 161.406 184.412C161.85 184.683 162.394 184.556 162.616 184.127C162.843 183.699 162.717 183.165 162.338 182.933Z" fill="#CEA002"/>
<path d="M171.117 184.696H168.915C168.532 184.696 168.127 184.735 167.718 184.714C167.313 184.67 166.912 184.635 166.538 184.582C166.164 184.512 165.824 184.425 165.528 184.355C165.228 184.289 164.997 184.197 164.828 184.136C164.662 184.075 164.566 184.044 164.566 184.044C164.144 183.909 163.661 184.092 163.457 184.53C163.252 184.967 163.457 185.519 163.953 185.685C163.953 185.685 164.062 185.724 164.253 185.794C164.445 185.86 164.714 185.978 165.054 186.052C165.393 186.135 165.781 186.253 166.212 186.337C166.643 186.398 167.1 186.407 167.561 186.455C168.022 186.477 168.484 186.442 168.919 186.442H171.121C171.6 186.442 171.992 186.048 171.992 185.567C171.992 185.085 171.6 184.692 171.121 184.692L171.117 184.696Z" fill="#CEA002"/>
<path d="M180.753 184.696H173.789C173.31 184.696 172.918 185.09 172.918 185.571C172.918 186.052 173.31 186.446 173.789 186.446H180.753C181.232 186.446 181.623 186.052 181.623 185.571C181.623 185.09 181.232 184.696 180.753 184.696Z" fill="#CEA002"/>
<path d="M190.385 184.696H183.421C182.943 184.696 182.551 185.09 182.551 185.571C182.551 186.052 182.943 186.446 183.421 186.446H190.385C190.864 186.446 191.256 186.052 191.256 185.571C191.256 185.09 190.864 184.696 190.385 184.696Z" fill="#CEA002"/>
<path d="M200.022 184.696H193.058C192.579 184.696 192.187 185.09 192.187 185.571C192.187 186.052 192.579 186.446 193.058 186.446H200.022C200.5 186.446 200.892 186.052 200.892 185.571C200.892 185.09 200.5 184.696 200.022 184.696Z" fill="#CEA002"/>
<path d="M209.658 184.696H202.694C202.215 184.696 201.824 185.09 201.824 185.571C201.824 186.052 202.215 186.446 202.694 186.446H209.658C210.137 186.446 210.529 186.052 210.529 185.571C210.529 185.09 210.137 184.696 209.658 184.696Z" fill="#CEA002"/>
<path d="M211.46 185.571C211.46 186.052 211.852 186.446 212.331 186.446H213.319C213.793 186.008 214.159 185.571 214.368 184.696H212.331C211.852 184.696 211.46 185.09 211.46 185.571Z" fill="#CEA002"/>
<path d="M168.867 179.009C172.472 179.009 175.395 176.072 175.395 172.448C175.395 168.824 172.472 165.886 168.867 165.886C165.261 165.886 162.338 168.824 162.338 172.448C162.338 176.072 165.261 179.009 168.867 179.009Z" fill="white"/>
<path d="M171.809 166.595C173.206 167.798 174.09 169.578 174.09 171.573C174.09 175.195 171.165 178.135 167.561 178.135C166.503 178.135 165.507 177.877 164.619 177.426C165.759 178.41 167.243 179.01 168.867 179.01C172.471 179.01 175.395 176.07 175.395 172.448C175.395 169.889 173.933 167.675 171.809 166.595Z" fill="#E6EAED"/>
</g>
<defs>
<filter id="filter0_d_6393_22293" x="0" y="0" width="232.568" height="267" filterUnits="userSpaceOnUse" color-interpolation-filters="sRGB">
<feFlood flood-opacity="0" result="BackgroundImageFix"/>
<feColorMatrix in="SourceAlpha" type="matrix" values="0 0 0 0 0 0 0 0 0 0 0 0 0 0 0 0 0 0 127 0" result="hardAlpha"/>
<feOffset dx="4" dy="4"/>
<feGaussianBlur stdDeviation="7"/>
<feComposite in2="hardAlpha" operator="out"/>
<feColorMatrix type="matrix" values="0 0 0 0 0 0 0 0 0 0 0 0 0 0 0 0 0 0 0.16 0"/>
<feBlend mode="normal" in2="BackgroundImageFix" result="effect1_dropShadow_6393_22293"/>
<feBlend mode="normal" in="SourceGraphic" in2="effect1_dropShadow_6393_22293" result="shape"/>
</filter>
</defs>
</svg>
