<svg width="360" height="259" viewBox="0 0 360 259" fill="none" xmlns="http://www.w3.org/2000/svg">
<g clip-path="url(#clip0_632_5217)">
<path fill-rule="evenodd" clip-rule="evenodd" d="M170.963 133.253C178.421 151.888 204.038 181.494 227.053 181.491C260.292 181.491 295.873 94.4448 295.873 94.4448C309.308 85.2968 301.084 72.5945 295.013 61.9446L285.765 84.7727C285.765 84.7727 245.753 140.732 228.509 138.206C211.264 135.679 191.877 70.4898 182.287 69.6623C172.698 68.8347 163.503 114.614 170.963 133.253Z" fill="#FDB6A3"/>
<path fill-rule="evenodd" clip-rule="evenodd" d="M167.987 156.983C178.631 144.039 194.857 88.4005 186.559 72.7854C178.261 57.1703 134.265 40.5244 118.202 63.2972C104.084 83.3086 114.399 134.83 122.697 150.445C129.852 163.911 158.299 168.765 167.987 156.983Z" fill="url(#paint0_linear_632_5217)"/>
<path fill-rule="evenodd" clip-rule="evenodd" d="M164.598 87.4157C164.038 85.9337 162.913 84.7346 161.469 84.0821C160.025 83.4296 158.382 83.377 156.899 83.9359L73.003 115.599C71.522 116.16 70.3241 117.285 69.6726 118.728C69.0212 120.171 68.9697 121.814 69.5294 123.296C78.1236 146.064 110.449 231.713 119.042 254.483C119.601 255.964 120.726 257.163 122.169 257.816C123.612 258.469 125.255 258.522 126.737 257.963L210.63 226.3C212.112 225.74 213.311 224.615 213.964 223.171C214.616 221.728 214.669 220.084 214.11 218.602C205.513 195.833 173.192 110.185 164.598 87.4157Z" fill="white"/>
<path fill-rule="evenodd" clip-rule="evenodd" d="M118.431 154.842L106.642 159.605L111.426 171.448L123.215 166.685L118.431 154.842ZM117.429 157.211L108.999 160.617L112.419 169.082L120.849 165.676L117.429 157.211Z" fill="black"/>
<path fill-rule="evenodd" clip-rule="evenodd" d="M136.118 198.621L124.329 203.384L129.115 215.228L140.904 210.465L136.118 198.621ZM135.117 200.992L126.687 204.398L130.107 212.862L138.537 209.456L135.117 200.992Z" fill="black"/>
<path fill-rule="evenodd" clip-rule="evenodd" d="M162.165 137.173L150.376 141.936L155.16 153.778L166.949 149.015L162.165 137.173ZM161.166 139.541L152.736 142.947L156.155 151.411L164.585 148.005L161.166 139.541Z" fill="black"/>
<path fill-rule="evenodd" clip-rule="evenodd" d="M116.604 159.503L111.191 161.69L113.25 166.788L118.664 164.601L116.604 159.503Z" fill="black"/>
<path fill-rule="evenodd" clip-rule="evenodd" d="M134.292 203.282L128.879 205.47L130.939 210.569L136.352 208.381L134.292 203.282Z" fill="black"/>
<path fill-rule="evenodd" clip-rule="evenodd" d="M160.339 141.833L154.925 144.02L156.984 149.119L162.399 146.931L160.339 141.833Z" fill="black"/>
<path fill-rule="evenodd" clip-rule="evenodd" d="M161.803 189.51L159.153 190.581L157.026 185.316L149.029 188.547L150.071 191.126L147.519 192.157L145.37 186.839L147.838 185.842L146.824 183.333L141.724 185.394L140.693 182.842L143.285 181.794L142.118 178.905L139.526 179.952L134.235 166.857L129.004 168.917L127.949 166.239L133.157 164.188L133.147 164.164L135.699 163.133L136.79 165.833L139.342 164.802L141.441 169.997L138.889 171.029L139.98 173.729L142.572 172.681L144.642 177.805L147.281 176.739L148.352 179.391L145.714 180.457L146.848 183.264L149.473 182.204L150.544 184.855L158.614 181.595L157.609 179.107L157.594 179.113L156.509 176.426L153.865 177.494L152.771 174.787L147.537 176.902L146.466 174.25L151.592 172.179L150.544 169.583L153.291 168.473L152.213 165.804L157.52 163.66L155.391 158.391L158.06 157.313L159.111 159.913L161.783 158.833L160.734 156.235L163.403 155.157L164.482 157.826L172.545 154.568L174.133 158.5L168.726 160.684L170.283 164.538L172.802 163.521L175.013 168.992L172.379 170.057L170.228 164.734L167.67 165.768L168.691 168.294L166.039 169.365L167.103 172L169.705 170.948L171.889 176.354L177.132 174.236L178.196 176.87L172.954 178.988L171.894 176.365L169.265 177.427L169.26 177.416L166.647 178.472L167.626 180.896L170.24 179.841L171.355 182.6L168.682 183.68L168.672 183.656L163.408 185.783L164.476 188.428L167.116 187.361L169.232 192.597L174.489 190.473L173.484 187.987L170.85 189.051L169.734 186.291L172.409 185.21L171.355 182.602L174.025 181.524L175.14 184.284L172.471 185.362L173.524 187.97L181.51 184.744L182.625 187.503L174.639 190.73L175.643 193.214L176.758 195.974L174.124 197.039L173.008 194.278L167.613 196.458L166.522 193.758L163.931 194.805L161.794 189.516L161.803 189.51ZM178.236 192.166L183.629 189.987L184.744 192.748L179.351 194.927L178.236 192.166ZM158.728 196.94L164.013 194.805L165.091 197.473L162.296 198.603L163.327 201.154L160.692 202.219L159.661 199.667L157.135 200.688L152.822 190.013L155.491 188.934L158.726 196.941L158.728 196.94ZM153.232 199.181L153.312 199.148L154.343 201.7L146.321 204.941L145.29 202.389L150.68 200.212L148.469 194.741L151.022 193.71L153.232 199.181ZM145.802 195.717L144.806 193.253L147.44 192.188L148.471 194.741L145.941 195.763L147.021 198.435L141.64 200.609L140.525 197.849L145.802 195.717ZM179.227 179.422L176.592 180.486L177.624 183.039L180.258 181.974L179.227 179.422ZM162.36 183.184L161.349 180.681L158.86 181.687L159.854 184.146L162.34 183.142L162.358 183.186L162.36 183.184ZM124.515 181.049L125.203 182.752L126.878 182.075L126.872 182.059L130.498 180.594L131.588 183.29L128.918 184.369L130.018 187.092L137.872 183.918L138.936 186.553L136.5 187.537L138.617 192.777L135.922 193.866L133.803 188.621L131.081 189.721L130.016 187.086L127.382 188.151L125.232 182.831L122.674 183.864L123.695 186.39L121.043 187.461L122.107 190.096L124.709 189.044L126.893 194.449L132.135 192.331L133.199 194.965L127.957 197.083L126.898 194.461L124.263 195.526L124.259 195.516L121.59 196.594L120.474 193.833L123.144 192.754L122.095 190.159L119.456 191.226L118.342 188.467L120.994 187.396L120.003 184.943L119.986 184.95L117.864 179.598L112.522 181.756L111.444 179.087L116.785 176.929L115.736 174.332L118.405 173.254L119.484 175.923L124.818 173.768L123.709 171.023L126.381 169.943L126.412 170.019L129.022 168.964L130.057 171.524L132.55 170.517L136.852 181.164L134.217 182.228L129.97 171.715L127.559 172.689L129.137 176.596L123.623 178.824L124.521 181.046L124.515 181.049ZM142.738 187.902L140.103 188.967L141.134 191.519L143.769 190.454L142.738 187.902ZM160.276 178.03L161.273 180.496L166.538 178.369L165.541 175.902L160.276 178.03ZM158.612 166.324L161.22 165.271L162.298 167.939L151.819 172.172L152.84 174.698L160.729 171.51L161.815 174.198L164.455 173.131L165.503 175.726L168.146 174.658L167.097 172.063L164.455 173.131L163.34 170.371L165.992 169.299L165.001 166.846L164.984 166.853L162.863 161.505L157.561 163.647L158.638 166.313L158.612 166.324ZM126.772 163.793L129.407 162.729L126.176 154.732L123.542 155.797L126.772 163.793ZM145.704 149.96L143.07 151.025L144.101 153.577L146.735 152.513L145.704 149.96ZM147.274 146.262L144.64 147.326L145.671 149.878L148.305 148.814L147.274 146.262ZM141.972 148.293L139.337 149.357L140.368 151.91L143.003 150.845L141.97 148.29L141.972 148.293ZM136.531 150.491L138.695 155.848L144.107 153.578L145.197 156.341L148.008 155.191L150.024 160.181L152.694 159.102L153.863 161.997L151.194 163.075L152.281 165.765L146.995 167.9L148.074 170.57L145.422 171.641L142.194 163.652L144.846 162.58L145.924 165.25L148.54 164.193L145.197 156.341L142.728 157.339L143.792 159.973L139.851 161.565L138.267 162.205L137.189 159.537L132.107 161.591L128.872 153.583L126.16 154.678L125.128 152.126L130.393 150L132.528 155.284L135.058 154.262L133.946 151.51L136.52 150.47L135.497 147.937L138.131 146.873L139.162 149.425L136.531 150.491Z" fill="black"/>
<path fill-rule="evenodd" clip-rule="evenodd" d="M101.281 128.569C101.134 128.181 100.84 127.868 100.462 127.697C100.084 127.526 99.6541 127.512 99.2661 127.658L84.831 133.106C84.443 133.252 84.1292 133.547 83.9584 133.925C83.7877 134.303 83.7742 134.733 83.9207 135.121C84.0675 135.509 84.3623 135.823 84.7402 135.993C85.1182 136.164 85.5484 136.178 85.9364 136.032L100.371 130.584C100.759 130.437 101.072 130.143 101.243 129.765C101.414 129.387 101.428 128.956 101.282 128.568L101.281 128.569Z" fill="#CCE6FF"/>
<path fill-rule="evenodd" clip-rule="evenodd" d="M99.0126 122.56C98.8662 122.172 98.5717 121.858 98.1939 121.687C97.8161 121.516 97.3859 121.502 96.9979 121.648L82.5628 127.096C82.1748 127.243 81.861 127.537 81.6903 127.915C81.5196 128.293 81.506 128.724 81.6525 129.112C81.7992 129.5 82.0938 129.814 82.4718 129.985C82.8497 130.155 83.2801 130.169 83.6682 130.023L98.1023 124.577C98.4903 124.43 98.8042 124.135 98.9751 123.757C99.146 123.379 99.1598 122.949 99.0137 122.561L99.0126 122.56Z" fill="#CCE6FF"/>
<path fill-rule="evenodd" clip-rule="evenodd" d="M196.301 196.604L200.027 206.476C200.582 207.949 200.53 209.584 199.881 211.019C199.233 212.454 198.041 213.573 196.567 214.13L186.146 218.062L185.176 215.49L195.597 211.556C195.989 211.409 196.349 211.185 196.655 210.899C196.961 210.612 197.207 210.268 197.381 209.886C197.554 209.504 197.65 209.092 197.663 208.673C197.677 208.254 197.608 207.837 197.46 207.444L193.734 197.574L196.301 196.604ZM120.133 225.352L123.858 235.223C124.005 235.615 124.228 235.974 124.515 236.28C124.801 236.586 125.145 236.832 125.527 237.004C125.908 237.177 126.32 237.273 126.739 237.286C127.158 237.299 127.575 237.23 127.967 237.082L138.388 233.149L139.359 235.722L128.938 239.654C127.464 240.21 125.83 240.158 124.395 239.509C122.959 238.86 121.84 237.668 121.284 236.194L117.559 226.324L120.133 225.352ZM102.223 137.318L103.193 139.892L92.7723 143.824C92.3804 143.972 92.0214 144.195 91.7159 144.482C91.4104 144.768 91.1644 145.112 90.992 145.494C90.8196 145.876 90.7241 146.288 90.7111 146.707C90.698 147.125 90.7676 147.542 90.916 147.934L94.641 157.804L92.0674 158.776L88.3424 148.906C87.7862 147.432 87.8382 145.798 88.487 144.362C89.1357 142.927 90.3281 141.808 91.8018 141.251L102.223 137.318ZM149.015 119.659L159.436 115.726C160.91 115.17 162.544 115.223 163.979 115.872C165.414 116.52 166.533 117.713 167.089 119.186L170.815 129.057L168.248 130.026L164.522 120.155C164.222 119.363 163.62 118.723 162.849 118.375C162.077 118.027 161.198 117.999 160.407 118.299L149.986 122.232L149.015 119.659Z" fill="#CCE6FF"/>
<path fill-rule="evenodd" clip-rule="evenodd" d="M93.4854 69.8207C78.1492 79.2905 44.1686 109.031 49.0655 131.513C56.1436 163.992 89.693 198.251 89.693 198.251C90.9803 209.49 100.576 212.065 102.588 212.788C104.325 213.41 97.519 197.625 98.2536 196.359C100.618 192.296 105.272 198.445 106.351 194.472C107.035 191.964 101.086 187.366 95.7965 187.953C95.7965 187.953 71.8976 143.218 78.6958 123.132C85.494 103.046 133.32 104.549 136.599 67.4391C137.475 57.5218 133.55 45.079 93.4854 69.8207Z" fill="#FDB6A3"/>
<path fill-rule="evenodd" clip-rule="evenodd" d="M360 42.7966C360 42.7966 341.021 37.2091 327.62 22.7576C312.568 36.2937 292.968 42.7966 292.968 42.7966V73.3199C292.968 79.2816 294.488 85.1447 297.384 90.3558C300.28 95.5668 304.456 99.9538 309.519 103.102C310.068 103.448 310.622 103.788 311.165 104.124C315.648 106.913 320.816 108.404 326.095 108.433C331.374 108.463 336.558 107.028 341.072 104.29C346.851 100.783 351.629 95.8469 354.945 89.9564C358.261 84.0659 360.003 77.4202 360.003 70.6605L360 42.7966Z" fill="url(#paint1_linear_632_5217)"/>
<path fill-rule="evenodd" clip-rule="evenodd" d="M351.123 49.3996C351.123 49.3996 337.171 45.271 327.318 34.5946C316.252 44.5947 301.845 49.3996 301.845 49.3996V71.9927C301.845 76.3855 302.963 80.7061 305.092 84.5485C307.221 88.3909 310.292 91.629 314.016 93.9585C314.412 94.2027 314.809 94.4509 315.202 94.6992C318.499 96.7609 322.306 97.8643 326.195 97.8859C330.083 97.9076 333.902 96.8466 337.222 94.8218C341.466 92.2323 344.972 88.5954 347.405 84.2602C349.839 79.925 351.117 75.0371 351.117 70.0658L351.123 49.3996Z" fill="white"/>
<path fill-rule="evenodd" clip-rule="evenodd" d="M312.654 73.4374L321.875 85.7914C322.644 86.8202 323.816 87.3995 325.042 87.3535C325.66 87.3242 326.261 87.1458 326.795 86.8335C327.329 86.5213 327.779 86.0845 328.107 85.5605L345.328 58.9021C346.554 57.009 346.114 54.4068 344.348 53.0899C342.583 51.7729 340.166 52.247 338.934 54.1412L324.682 76.202L318.714 68.2136C317.377 66.4155 314.928 66.1253 313.256 67.5669C311.585 69.0085 311.317 71.6392 312.654 73.4374Z" fill="url(#paint2_linear_632_5217)"/>
<path fill-rule="evenodd" clip-rule="evenodd" d="M289.668 72.8692C290.228 69.7132 292.018 66.4858 293.082 66.1149C300.162 63.6527 303.912 70.7298 296.613 72.9243C293.082 73.9858 289.546 83.1001 289.546 83.1001C289.546 83.1001 289.244 75.2905 289.668 72.8692Z" fill="#FB9C9A"/>
<path fill-rule="evenodd" clip-rule="evenodd" d="M158.807 15.423C149.422 15.423 142.58 24.0398 143.915 35.7368C144.863 44.0256 155.337 52.9376 163.921 53.7785C170.997 54.4701 173.767 47.2909 173.767 35.5192C173.767 23.7476 168.186 15.423 158.807 15.423Z" fill="#FDB6A3"/>
<path fill-rule="evenodd" clip-rule="evenodd" d="M162.399 45.8759C162.577 45.0585 163.268 44.3321 163.829 43.7528C164.328 43.242 164.851 42.7485 165.464 42.3889C165.831 42.1591 166.229 41.9842 166.647 41.8699C169.077 41.2845 170.238 43.3462 172.126 44.3464C172.856 44.7326 173.636 44.8021 174.446 44.8307C176.751 48.3462 172.661 52.1867 169.665 53.4454C168.171 54.0727 164.267 59.0339 159.509 53.3309C158.43 52.0416 152.586 52.4319 154.415 45.8728C154.891 44.1584 154.199 41.9731 154.073 40.2087C153.887 37.6198 154.095 34.6099 151.567 33.0223C151.168 32.7751 150.745 32.5697 150.303 32.4093C149.991 32.2948 149.634 32.0476 149.337 32.1886C147.142 33.2103 150.749 37.2213 145.343 38.8703C145.693 40.6613 143.975 41.9189 142.399 42.157C139.93 42.5299 137.283 41.4592 135.648 39.5834C134.138 37.8466 132.309 35.1545 131.996 32.917C131.617 30.178 131.751 24.2329 134.294 20.7163C136.279 17.9701 139.209 15.8358 142.704 16.0504C142.666 15.3556 143.127 14.664 143.485 14.1092C144.324 12.8046 145.386 11.6576 146.622 10.7203C148.607 9.2338 151.061 8.12632 153.552 7.93935C156.891 7.68802 160.46 9.53622 161.91 12.6114C162.542 11.933 163.501 11.7154 164.379 11.5428C166.524 11.1178 168.55 11.3865 170.461 12.4909C174.603 14.8867 176.03 19.5588 174.283 23.8865C173.659 23.6822 172.929 23.6822 172.282 23.5862C170.721 23.3634 176.082 26.6818 165.196 28.5974C162.363 29.096 158.162 26.9301 156.118 29.5936C154.779 31.3304 155.709 33.4054 155.984 35.3149C156.229 37.0231 156.102 38.7702 156.422 40.4672C156.876 42.8824 158.728 45.8411 161.326 46.3826L162.399 45.8759Z" fill="url(#paint3_linear_632_5217)"/>
</g>
<defs>
<linearGradient id="paint0_linear_632_5217" x1="111.22" y1="108.233" x2="188.84" y2="108.233" gradientUnits="userSpaceOnUse">
<stop stop-color="#0080FF"/>
<stop offset="1" stop-color="#66CCFF"/>
</linearGradient>
<linearGradient id="paint1_linear_632_5217" x1="292.968" y1="65.8554" x2="360.003" y2="65.8554" gradientUnits="userSpaceOnUse">
<stop stop-color="#0080FF"/>
<stop offset="1" stop-color="#66CCFF"/>
</linearGradient>
<linearGradient id="paint2_linear_632_5217" x1="311.803" y1="69.9561" x2="346.023" y2="69.9561" gradientUnits="userSpaceOnUse">
<stop stop-color="#0080FF"/>
<stop offset="1" stop-color="#66CCFF"/>
</linearGradient>
<linearGradient id="paint3_linear_632_5217" x1="162.283" y1="56.0693" x2="146.515" y2="6.19758" gradientUnits="userSpaceOnUse">
<stop/>
<stop offset="0.53" stop-color="#121212"/>
<stop offset="1" stop-color="#4D4D4D"/>
</linearGradient>
<clipPath id="clip0_632_5217">
<rect width="360" height="258.349" fill="white"/>
</clipPath>
</defs>
</svg>
