<svg width="218" height="268" viewBox="0 0 218 268" fill="none" xmlns="http://www.w3.org/2000/svg">
<g filter="url(#filter0_d_6393_22203)">
<path d="M135.457 28.6909V231.186C135.457 241.516 127.121 249.89 116.838 249.89H28.605C18.3294 249.89 10 241.522 10 231.2V28.6901C10 18.3683 18.3302 10 28.605 10H116.852C127.127 10 135.457 18.3683 135.457 28.6909H135.457Z" fill="#001955"/>
<path d="M131.197 28.6734V231.183C131.197 239.205 124.725 245.705 116.754 245.705H28.5223C20.5368 245.705 14.0796 239.204 14.0796 231.197V28.687C14.0796 20.6793 20.5376 14.1782 28.5223 14.1782H42.7135C44.1081 14.1782 45.4 15.0322 45.8426 16.3605C46.7826 19.18 49.4333 21.2095 52.5608 21.2095H92.7153C94.6591 21.2095 96.4231 20.4011 97.715 19.1312C98.4807 18.354 99.073 17.412 99.4272 16.3589C99.8737 15.0322 101.162 14.1782 102.555 14.1782H116.768C124.737 14.1782 131.197 20.6682 131.197 28.6734H131.197Z" fill="#F5F6F8"/>
<rect x="39.374" y="209.908" width="66.0919" height="19.5828" fill="#00AA00"/>
<path d="M50.7687 52.7261H142.688C144.131 52.7261 145.303 53.9032 145.303 55.3529V60.2396C145.303 61.6893 144.131 62.8664 142.688 62.8664H50.7687C49.3255 62.8664 48.1538 61.6893 48.1538 60.2396V55.3529C48.1538 53.9032 49.3255 52.7261 50.7687 52.7261Z" fill="#FFC600"/>
<path d="M61.4048 223.371V214.803H65.0154C65.5213 214.803 65.9741 214.926 66.3739 215.17C66.7819 215.407 67.1042 215.733 67.3408 216.15C67.5856 216.558 67.708 217.019 67.708 217.533C67.708 218.063 67.5856 218.54 67.3408 218.965C67.1042 219.381 66.7819 219.715 66.3739 219.968C65.9741 220.213 65.5213 220.335 65.0154 220.335H63.1672V223.371H61.4048ZM63.155 218.732H64.8318C65.1337 218.732 65.3866 218.622 65.5906 218.402C65.8028 218.173 65.9088 217.892 65.9088 217.557C65.9088 217.223 65.8028 216.949 65.5906 216.737C65.3866 216.517 65.1337 216.407 64.8318 216.407H63.155V218.732Z" fill="white"/>
<path d="M71.4241 223.493C70.8856 223.493 70.4001 223.346 69.9677 223.052C69.5352 222.759 69.1884 222.359 68.9273 221.853C68.6744 221.347 68.5479 220.772 68.5479 220.127C68.5479 219.466 68.6744 218.887 68.9273 218.389C69.1884 217.883 69.5393 217.488 69.9799 217.202C70.4287 216.917 70.9346 216.774 71.4976 216.774C71.9545 216.774 72.3543 216.868 72.697 217.055C73.0397 217.235 73.3131 217.471 73.517 217.765V216.908H75.1816V223.371H73.5048V222.502C73.2763 222.787 72.9785 223.024 72.6113 223.212C72.2523 223.399 71.8566 223.493 71.4241 223.493ZM71.877 222.037C72.3747 222.037 72.7786 221.861 73.0887 221.51C73.3987 221.159 73.5538 220.698 73.5538 220.127C73.5538 219.556 73.3987 219.095 73.0887 218.744C72.7786 218.393 72.3747 218.218 71.877 218.218C71.3874 218.218 70.9876 218.393 70.6775 218.744C70.3756 219.095 70.2247 219.556 70.2247 220.127C70.2247 220.698 70.3756 221.159 70.6775 221.51C70.9876 221.861 71.3874 222.037 71.877 222.037Z" fill="white"/>
<path d="M77.7117 226.186L78.9111 223.407L75.9737 216.908H77.8708L79.5108 220.776C79.5843 220.947 79.6577 221.147 79.7311 221.376C79.7638 221.286 79.7923 221.2 79.8168 221.119C79.8495 221.029 79.8821 220.935 79.9147 220.837L81.3222 216.908H83.2438L80.5267 223.371L79.4129 226.186H77.7117Z" fill="white"/>
<rect x="33.0186" y="38" width="121.875" height="13.4062" fill="#FFC600"/>
<rect x="39.1123" y="44.0938" width="109.688" height="149.906" fill="white"/>
<path fill-rule="evenodd" clip-rule="evenodd" d="M148.8 101.375H199.987V167.188L195.765 174.5H195.678L191.456 167.188L187.234 174.5H187.147L182.925 167.188L178.703 174.5H178.615L174.394 167.188L170.172 174.5H170.084L165.862 167.188L161.64 174.5H161.553L157.331 167.188L153.109 174.5H148.8V101.375Z" fill="white"/>
<path d="M148.8 101.375H199.987L150.769 192.781L148.8 194V101.375Z" fill="#FCEEC0"/>
<path d="M73.2373 78.3007V67.8591H77.5929C78.5973 67.8591 79.3581 68.0829 79.8752 68.5304C80.4022 68.9779 80.6658 69.6292 80.6658 70.4844C80.6658 70.9717 80.5514 71.3993 80.3227 71.7673C80.094 72.1253 79.7708 72.3987 79.3531 72.5877C79.9199 72.7965 80.3724 73.1297 80.7105 73.5871C81.0486 74.0346 81.2177 74.5815 81.2177 75.2279C81.2177 76.2224 80.9094 76.9831 80.2928 77.5102C79.6862 78.0372 78.836 78.3007 77.7421 78.3007H73.2373ZM74.8483 72.1849H77.5034C77.9509 72.1849 78.3189 72.0557 78.6073 71.7971C78.9056 71.5385 79.0548 71.2054 79.0548 70.7977C79.0548 70.3502 78.9056 70.0071 78.6073 69.7684C78.3089 69.5298 77.8813 69.4105 77.3244 69.4105H74.8483V72.1849ZM74.8483 76.7494H77.6526C78.2592 76.7494 78.7316 76.6152 79.0697 76.3467C79.4078 76.0782 79.5769 75.6953 79.5769 75.1981C79.5769 74.7307 79.3929 74.3727 79.0249 74.1241C78.6669 73.8655 78.1846 73.7363 77.578 73.7363H74.8483V76.7494Z" fill="black"/>
<path d="M83.0027 78.3007V76.8091H84.6882V69.3508H83.0027V67.8591H87.9848V69.3508H86.2992V76.8091H87.9848V78.3007H83.0027Z" fill="black"/>
<path d="M90.5137 78.3007V67.8591H92.1247V76.7494H97.0174V78.3007H90.5137Z" fill="black"/>
<path d="M99.4433 78.3007V67.8591H101.054V76.7494H105.947V78.3007H99.4433Z" fill="black"/>
<path d="M111.595 78.4499C109.904 78.4499 108.592 77.7737 107.657 76.4212L108.761 75.1533C109.248 75.8494 109.715 76.3317 110.163 76.6002C110.61 76.8687 111.142 77.003 111.759 77.003C112.326 77.003 112.803 76.8737 113.191 76.6152C113.589 76.3566 113.788 76.0235 113.788 75.6157C113.788 75.1583 113.594 74.7854 113.206 74.497C112.818 74.1987 112.206 73.97 111.371 73.8108C109.243 73.3932 108.179 72.3341 108.179 70.6336C108.179 70.0668 108.338 69.5646 108.656 69.127C108.974 68.6895 109.402 68.3464 109.939 68.0978C110.486 67.8392 111.098 67.71 111.774 67.71C113.415 67.71 114.593 68.3215 115.309 69.5447L114.175 70.6634C113.877 70.1762 113.519 69.8033 113.101 69.5447C112.694 69.2861 112.236 69.1569 111.729 69.1569C111.152 69.1569 110.685 69.2911 110.327 69.5596C109.969 69.8182 109.79 70.1613 109.79 70.5889C109.79 71.0165 109.949 71.3645 110.267 71.633C110.595 71.8916 111.152 72.1004 111.938 72.2595C113.032 72.4882 113.882 72.8562 114.489 73.3633C115.095 73.8705 115.399 74.4821 115.399 75.1981C115.399 76.1925 115.055 76.9831 114.369 77.5698C113.693 78.1565 112.768 78.4499 111.595 78.4499Z" fill="black"/>
<path d="M54.1786 99.1841H100.043C101.382 99.1841 102.469 100.521 102.469 102.167C102.469 103.814 101.381 105.151 100.043 105.151H54.1786C52.8391 105.151 51.7524 103.813 51.7524 102.167C51.7524 100.52 52.84 99.1841 54.1786 99.1841Z" fill="#FFC600"/>
<path d="M107.756 99.1841H131.987C133.259 99.1841 134.291 100.521 134.291 102.167C134.291 103.814 133.258 105.151 131.987 105.151H107.756C106.484 105.151 105.452 103.813 105.452 102.167C105.452 100.52 106.485 99.1841 107.756 99.1841Z" fill="#FFC600"/>
<path d="M54.211 113.106H75.1493C76.5067 113.106 77.6078 114.221 77.6078 115.592C77.6078 116.965 76.5058 118.078 75.1493 118.078H54.211C52.8536 118.078 51.7524 116.964 51.7524 115.592C51.7524 114.22 52.8545 113.106 54.211 113.106Z" fill="#FFC600"/>
<path d="M82.9292 113.106H131.953C133.244 113.106 134.291 114.221 134.291 115.592C134.291 116.965 133.243 118.078 131.953 118.078H82.9292C81.6384 118.078 80.5913 116.964 80.5913 115.592C80.5913 114.22 81.6393 113.106 82.9292 113.106Z" fill="#FFC600"/>
<path d="M54.1544 127.028H109.017C110.343 127.028 111.419 128.143 111.419 129.514C111.419 130.887 110.342 132.001 109.017 132.001H54.1544C52.8283 132.001 51.7524 130.886 51.7524 129.514C51.7524 128.142 52.8292 127.028 54.1544 127.028Z" fill="#FFC600"/>
<path d="M116.685 127.028H132.007C133.268 127.028 134.291 128.143 134.291 129.514C134.291 130.887 133.267 132.001 132.007 132.001H116.685C115.425 132.001 114.402 130.886 114.402 129.514C114.402 128.142 115.425 127.028 116.685 127.028Z" fill="#FFC600"/>
<path d="M54.1469 141.945H113.996C115.318 141.945 116.391 143.059 116.391 144.431C116.391 145.804 115.318 146.917 113.996 146.917H54.1469C52.8249 146.917 51.7524 145.803 51.7524 144.431C51.7524 143.058 52.8258 141.945 54.1469 141.945Z" fill="#FFC600"/>
</g>
<defs>
<filter id="filter0_d_6393_22203" x="0" y="0" width="217.987" height="267.89" filterUnits="userSpaceOnUse" color-interpolation-filters="sRGB">
<feFlood flood-opacity="0" result="BackgroundImageFix"/>
<feColorMatrix in="SourceAlpha" type="matrix" values="0 0 0 0 0 0 0 0 0 0 0 0 0 0 0 0 0 0 127 0" result="hardAlpha"/>
<feOffset dx="4" dy="4"/>
<feGaussianBlur stdDeviation="7"/>
<feComposite in2="hardAlpha" operator="out"/>
<feColorMatrix type="matrix" values="0 0 0 0 0 0 0 0 0 0 0 0 0 0 0 0 0 0 0.09 0"/>
<feBlend mode="normal" in2="BackgroundImageFix" result="effect1_dropShadow_6393_22203"/>
<feBlend mode="normal" in="SourceGraphic" in2="effect1_dropShadow_6393_22203" result="shape"/>
</filter>
</defs>
</svg>
