<svg width="368" height="112" viewBox="0 0 368 112" fill="none" xmlns="http://www.w3.org/2000/svg">
<path d="M1 111L8.3833 106.299L16.8214 111H30.5331L38.9712 93.7612L52.683 85.1418L61.1211 60.0672L67.4496 67.903L75.8876 63.9851L84.3257 74.1716L99.0922 60.0672L106.476 67.903L111.749 52.2313L125.461 60.0672L138.118 47.5299L144.447 21.6716L147.5 39.694L153.5 31.8582L159 36.1679L164.487 29.5075V41.2612L170.816 47.5299L182.418 52.2313L187.692 60.0672L199.294 52.2313L203 34.9925L208.787 41.2612L213 29.5075L221.444 34.9925V16.1866L228.827 21.6716L235.156 16.1866L239 1L241.484 16.1866L248.867 21.6716L253 12.6604L257.305 21.6716V29.5075L266.798 34.9925L268.5 27.5485L272.072 21.6716L277.346 29.5075L290.003 24.806H297.386L302.66 29.5075H311.098L318.481 21.6716L329.029 29.5075L333 24.4142L334.5 27.5485L337.5 21.2799L341.5 20.1045L343.5 16.9701L347 15.7948L349 20.1045L352.5 22.0634L354 20.1045L358.5 16.9701L360 13.8358L362.5 16.9701L367 10.7015" stroke="#00AA00"/>
</svg>
