<svg width="24" height="12" viewBox="0 0 24 12" fill="none" xmlns="http://www.w3.org/2000/svg">
<path d="M4 7.525L6.525 5L4 2.475L1.475 5L4 7.525ZM17.5 7L20 3L22.5 7H17.5ZM0 12V10.425C0 9.69167 0.371 9.104 1.113 8.662C1.85433 8.22067 2.81667 8 4 8C4.21667 8 4.425 8.004 4.625 8.012C4.825 8.02067 5.01667 8.04167 5.2 8.075C4.96667 8.40833 4.79167 8.76667 4.675 9.15C4.55833 9.53333 4.5 9.94167 4.5 10.375V12H0ZM6 12V10.375C6 9.29167 6.55433 8.41667 7.663 7.75C8.771 7.08333 10.2167 6.75 12 6.75C13.8 6.75 15.25 7.08333 16.35 7.75C17.45 8.41667 18 9.29167 18 10.375V12H6ZM19.5 12V10.375C19.5 9.94167 19.4457 9.53333 19.337 9.15C19.229 8.76667 19.0667 8.40833 18.85 8.075C19.0333 8.04167 19.221 8.02067 19.413 8.012C19.6043 8.004 19.8 8 20 8C21.2 8 22.1667 8.22067 22.9 8.662C23.6333 9.104 24 9.69167 24 10.425V12H19.5ZM12 6C11.1667 6 10.4583 5.70833 9.875 5.125C9.29167 4.54167 9 3.83333 9 3C9 2.15 9.29167 1.43733 9.875 0.862C10.4583 0.287333 11.1667 0 12 0C12.85 0 13.5623 0.287333 14.137 0.862C14.7123 1.43733 15 2.15 15 3C15 3.83333 14.7123 4.54167 14.137 5.125C13.5623 5.70833 12.85 6 12 6Z" fill="white"/>
</svg>
