<svg width="87" height="87" viewBox="0 0 87 87" fill="none" xmlns="http://www.w3.org/2000/svg">
<path d="M9.4 76.7666C6.26667 73.6333 3.91667 70.0757 2.35 66.0937C0.783333 62.1118 0 58.0476 0 53.9011C0 49.7573 0.783333 45.6944 2.35 41.7125C3.91667 37.7305 6.26667 34.1729 9.4 31.0396L27.4167 13.0229C28.3306 12.109 29.4886 11.6194 30.8907 11.5541C32.2955 11.4889 33.4875 11.9458 34.4667 12.925C35.3806 13.8389 35.8375 14.9969 35.8375 16.399C35.8375 17.8038 35.3806 18.9632 34.4667 19.877L18.5062 35.8375C21.1174 37.9264 22.7167 40.7163 23.3042 44.2074C23.8917 47.701 22.7493 50.9166 19.8771 53.8541L22.6187 56.5958C25.2951 54.1152 26.8135 50.8187 27.1738 46.7062C27.5316 42.5937 26.4375 39.0034 23.8917 35.9354L53.7562 6.0708C54.7354 5.09163 55.8947 4.60205 57.2342 4.60205C58.5711 4.60205 59.7292 5.09163 60.7083 6.0708C61.6222 6.98469 62.1118 8.11008 62.1771 9.44697C62.2424 10.7865 61.7528 11.9784 60.7083 13.0229L39.2646 34.4666L41.9083 37.2083L68.9333 10.1833C69.8472 9.26941 71.0066 8.81247 72.4113 8.81247C73.8135 8.81247 74.9715 9.26941 75.8854 10.1833C76.7993 11.0972 77.2562 12.2552 77.2562 13.6574C77.2562 15.0622 76.7993 16.2215 75.8854 17.1354L48.8604 44.1604L51.7 46.9021L74.5146 24.0875C75.4937 23.1083 76.6531 22.6187 77.9926 22.6187C79.3295 22.6187 80.4875 23.1083 81.4667 24.0875C82.3805 25.0014 82.8375 26.1594 82.8375 27.5615C82.8375 28.9663 82.3805 30.1257 81.4667 31.0396L55.8125 56.5958L58.5542 59.4354L75.8854 42.1041C76.9299 41.0597 78.1218 40.5701 79.4613 40.6354C80.7982 40.7007 81.9236 41.1902 82.8375 42.1041C83.7514 43.018 84.241 44.1447 84.3062 45.4842C84.3715 46.8211 83.8819 48.0118 82.8375 49.0562L55.1271 76.7666C51.9937 79.9 48.4361 82.25 44.4542 83.8166C40.4722 85.3833 36.4093 86.1666 32.2655 86.1666C28.1191 86.1666 24.0549 85.3833 20.0729 83.8166C16.091 82.25 12.5333 79.9 9.4 76.7666Z" fill="#FFC600"/>
<path d="M62.6667 86.1667V80.2917C67.5625 80.2917 71.7246 78.5788 75.153 75.153C78.5788 71.7246 80.2917 67.5625 80.2917 62.6667H86.1667C86.1667 69.1944 83.8819 74.7431 79.3125 79.3125C74.7431 83.8819 69.1944 86.1667 62.6667 86.1667ZM0 23.5C0 16.9722 2.28472 11.4236 6.85417 6.85417C11.4236 2.28472 16.9722 0 23.5 0V5.875C18.6042 5.875 14.4421 7.58789 11.0137 11.0137C7.58789 14.4421 5.875 18.6042 5.875 23.5H0Z" fill="#00AA00"/>
</svg>
