<svg width="414" height="354" viewBox="0 0 414 354" fill="none" xmlns="http://www.w3.org/2000/svg">
<path d="M0 0H414V354H0V0Z" fill="#001955"/>
<mask id="mask0_4350_17539" style="mask-type:alpha" maskUnits="userSpaceOnUse" x="0" y="0" width="414" height="354">
<path d="M0 0H414V354H0V0Z" fill="#001955"/>
</mask>

<g opacity="0.4">
<path opacity="0.3" d="M368.464 109L326 151.464" stroke="white" stroke-miterlimit="10"/>
<path opacity="0.3" d="M84.3359 125.21C76.0193 134.262 65.2818 140.739 53.3961 143.874C41.5103 147.01 28.9749 146.671 17.2756 142.899" stroke="white"/>
<path opacity="0.3" d="M404.192 256.238C395.232 250.169 388.533 241.305 385.141 231.028C381.749 220.752 381.855 209.642 385.441 199.432" stroke="white"/>
<path opacity="0.4" d="M48 221.5C48 223.441 46.4295 225 44.5 225C42.5705 225 41 223.429 41 221.5C41 219.571 42.5705 218 44.5 218C46.4295 218 48 219.571 48 221.5Z" fill="white"/>
<path opacity="0.4" d="M95 170C95 171.109 94.1026 172 93 172C91.8974 172 91 171.103 91 170C91 168.897 91.8974 168 93 168C94.1026 168 95 168.897 95 170Z" fill="white"/>
<path opacity="0.4" d="M345 190C345 191.109 344.103 192 343 192C341.897 192 341 191.103 341 190C341 188.897 341.897 188 343 188C344.103 188 345 188.897 345 190Z" fill="white"/>
<path opacity="0.3" d="M80.8791 407C93.7356 349.207 145.626 305.841 207.508 305.841C269.39 305.841 321.281 349.199 334.138 407H335C322.127 348.736 269.855 305 207.5 305C145.145 305 92.8734 348.736 80 407H80.8622H80.8791Z" fill="white"/>
</g>

</svg>
