<svg width="18" height="20" viewBox="0 0 18 20" fill="none" xmlns="http://www.w3.org/2000/svg">
<path d="M6.6 14.6L8 13.15L5.85 11L8 8.85L6.6 7.4L3 11L6.6 14.6ZM11.4 14.6L15 11L11.4 7.4L10 8.85L12.15 11L10 13.15L11.4 14.6ZM0 20V2H6.2C6.41667 1.4 6.77933 0.916667 7.288 0.55C7.796 0.183333 8.36667 0 9 0C9.63333 0 10.2043 0.183333 10.713 0.55C11.221 0.916667 11.5833 1.4 11.8 2H18V20H0ZM9 3.25C9.21667 3.25 9.396 3.179 9.538 3.037C9.67933 2.89567 9.75 2.71667 9.75 2.5C9.75 2.28333 9.67933 2.104 9.538 1.962C9.396 1.82067 9.21667 1.75 9 1.75C8.78333 1.75 8.60433 1.82067 8.463 1.962C8.321 2.104 8.25 2.28333 8.25 2.5C8.25 2.71667 8.321 2.89567 8.463 3.037C8.60433 3.179 8.78333 3.25 9 3.25Z" fill="#89909A"/>
</svg>
