<svg width="30" height="23" viewBox="0 0 30 23" fill="none" xmlns="http://www.w3.org/2000/svg">
<path d="M0 0.78418V22.1768H30V0.78418H0Z" fill="#89909A"/>
<path d="M13.7369 12.8474C13.7369 11.2457 12.8235 9.85787 11.5002 9.19621C11.8332 8.69525 12.0279 8.09138 12.0279 7.44197C12.0279 5.71366 10.6494 4.30762 8.95499 4.30762C7.26058 4.30762 5.8821 5.71366 5.8821 7.44197C5.8821 8.09138 6.07681 8.69525 6.40974 9.19621C5.08657 9.85787 4.1731 11.2457 4.1731 12.8474V15.0049H13.7369V12.8474ZM8.95499 6.10053C9.68009 6.10053 10.2701 6.70225 10.2701 7.44191C10.2701 8.18156 9.68015 8.78329 8.95499 8.78329C8.22983 8.78329 7.63991 8.18156 7.63991 7.44191C7.63991 6.70225 8.22989 6.10053 8.95499 6.10053ZM11.9791 13.212H5.93091V12.8474C5.93091 11.5951 6.92976 10.5763 8.15747 10.5763H9.75251C10.9802 10.5763 11.9791 11.5951 11.9791 12.8474V13.212Z" fill="white"/>
<path d="M17.1289 6.93848H25.7129V8.73145H17.1289V6.93848Z" fill="white"/>
<path d="M17.1289 10.584H25.7129V12.377H17.1289V10.584Z" fill="white"/>
<path d="M17.1289 14.2295H25.7129V16.0225H17.1289V14.2295Z" fill="white"/>
<path d="M4.14551 16.6787H13.7109V18.4717H4.14551V16.6787Z" fill="white"/>
</svg>
