<svg width="19" height="20" viewBox="0 0 19 20" fill="none" xmlns="http://www.w3.org/2000/svg">
<path d="M9.25004 19.1666C7.99726 19.1666 6.81323 18.9258 5.69796 18.4443C4.58268 17.9633 3.60887 17.3064 2.77654 16.4734C1.9436 15.6411 1.28665 14.6673 0.805707 13.552C0.324152 12.4367 0.083374 11.2527 0.083374 9.99992C0.083374 8.73186 0.324152 7.54417 0.805707 6.43683C1.28665 5.32889 1.9436 4.35875 2.77654 3.52642C3.60887 2.69347 4.58268 2.03622 5.69796 1.55467C6.81323 1.07372 7.99726 0.833252 9.25004 0.833252C10.5181 0.833252 11.7058 1.07372 12.8131 1.55467C13.9211 2.03622 14.8912 2.69347 15.7235 3.52642C16.5565 4.35875 17.2134 5.32889 17.6944 6.43683C18.1759 7.54417 18.4167 8.73186 18.4167 9.99992C18.4167 11.2527 18.1759 12.4367 17.6944 13.552C17.2134 14.6673 16.5565 15.6411 15.7235 16.4734C14.8912 17.3064 13.9211 17.9633 12.8131 18.4443C11.7058 18.9258 10.5181 19.1666 9.25004 19.1666ZM9.25004 17.2874C9.64726 16.7374 9.99101 16.1645 10.2813 15.5687C10.5716 14.9728 10.8084 14.3388 10.9917 13.6666H7.50837C7.69171 14.3388 7.92851 14.9728 8.21879 15.5687C8.50907 16.1645 8.85282 16.7374 9.25004 17.2874ZM6.86671 16.9207C6.59171 16.4166 6.35123 15.8932 6.14529 15.3505C5.93874 14.8084 5.76671 14.2471 5.62921 13.6666H2.92504C3.3681 14.4305 3.92176 15.0951 4.58604 15.6603C5.25093 16.2256 6.01115 16.6458 6.86671 16.9207ZM11.6334 16.9207C12.4889 16.6458 13.2488 16.2256 13.9131 15.6603C14.578 15.0951 15.132 14.4305 15.575 13.6666H12.8709C12.7334 14.2471 12.5617 14.8084 12.3557 15.3505C12.1492 15.8932 11.9084 16.4166 11.6334 16.9207ZM2.14587 11.8333H5.26254C5.21671 11.5277 5.18218 11.2258 5.15896 10.9276C5.13635 10.63 5.12504 10.3208 5.12504 9.99992C5.12504 9.67908 5.13635 9.36986 5.15896 9.07225C5.18218 8.77403 5.21671 8.47214 5.26254 8.16658H2.14587C2.06949 8.47214 2.01204 8.77403 1.97354 9.07225C1.93565 9.36986 1.91671 9.67908 1.91671 9.99992C1.91671 10.3208 1.93565 10.63 1.97354 10.9276C2.01204 11.2258 2.06949 11.5277 2.14587 11.8333ZM7.09587 11.8333H11.4042C11.45 11.5277 11.4846 11.2258 11.5078 10.9276C11.5304 10.63 11.5417 10.3208 11.5417 9.99992C11.5417 9.67908 11.5304 9.36986 11.5078 9.07225C11.4846 8.77403 11.45 8.47214 11.4042 8.16658H7.09587C7.05004 8.47214 7.01582 8.77403 6.99321 9.07225C6.96999 9.36986 6.95837 9.67908 6.95837 9.99992C6.95837 10.3208 6.96999 10.63 6.99321 10.9276C7.01582 11.2258 7.05004 11.5277 7.09587 11.8333ZM13.2375 11.8333H16.3542C16.4306 11.5277 16.488 11.2258 16.5265 10.9276C16.5644 10.63 16.5834 10.3208 16.5834 9.99992C16.5834 9.67908 16.5644 9.36986 16.5265 9.07225C16.488 8.77403 16.4306 8.47214 16.3542 8.16658H13.2375C13.2834 8.47214 13.3176 8.77403 13.3402 9.07225C13.3634 9.36986 13.375 9.67908 13.375 9.99992C13.375 10.3208 13.3634 10.63 13.3402 10.9276C13.3176 11.2258 13.2834 11.5277 13.2375 11.8333ZM12.8709 6.33325H15.575C15.132 5.56936 14.578 4.90478 13.9131 4.3395C13.2488 3.77422 12.4889 3.35408 11.6334 3.07909C11.9084 3.58325 12.1492 4.10636 12.3557 4.64842C12.5617 5.19109 12.7334 5.7527 12.8709 6.33325ZM7.50837 6.33325H10.9917C10.8084 5.66103 10.5716 5.027 10.2813 4.43117C9.99101 3.83534 9.64726 3.26242 9.25004 2.71242C8.85282 3.26242 8.50907 3.83534 8.21879 4.43117C7.92851 5.027 7.69171 5.66103 7.50837 6.33325ZM2.92504 6.33325H5.62921C5.76671 5.7527 5.93874 5.19109 6.14529 4.64842C6.35123 4.10636 6.59171 3.58325 6.86671 3.07909C6.01115 3.35408 5.25093 3.77422 4.58604 4.3395C3.92176 4.90478 3.3681 5.56936 2.92504 6.33325Z" fill="#89909A"/>
</svg>
