<svg width="24" height="24" viewBox="0 0 24 24" fill="none" xmlns="http://www.w3.org/2000/svg">
<mask id="mask0_952_4907" style="mask-type:alpha" maskUnits="userSpaceOnUse" x="0" y="0" width="24" height="24">
<rect width="24" height="24" fill="#D9D9D9"/>
</mask>
<g mask="url(#mask0_952_4907)">
<path d="M4 20C3.45 20 2.97933 19.8043 2.588 19.413C2.196 19.021 2 18.55 2 18V14C2.55 14 3.021 13.804 3.413 13.412C3.80433 13.0207 4 12.55 4 12C4 11.45 3.80433 10.979 3.413 10.587C3.021 10.1957 2.55 10 2 10V6C2 5.45 2.196 4.97933 2.588 4.588C2.97933 4.196 3.45 4 4 4H20C20.55 4 21.021 4.196 21.413 4.588C21.8043 4.97933 22 5.45 22 6V10C21.45 10 20.979 10.1957 20.587 10.587C20.1957 10.979 20 11.45 20 12C20 12.55 20.1957 13.0207 20.587 13.412C20.979 13.804 21.45 14 22 14V18C22 18.55 21.8043 19.021 21.413 19.413C21.021 19.8043 20.55 20 20 20H4Z" fill="#89909A"/>
<path d="M11.33 16L11.09 14.8C10.93 14.7333 10.7801 14.6635 10.6404 14.5904C10.5001 14.5168 10.3567 14.4267 10.21 14.32L9.05 14.68L8.25 13.32L9.17 12.52C9.14333 12.36 9.13 12.1867 9.13 12C9.13 11.8133 9.14333 11.64 9.17 11.48L8.25 10.68L9.05 9.32L10.21 9.68C10.3567 9.57333 10.5001 9.4832 10.6404 9.4096C10.7801 9.33653 10.93 9.26667 11.09 9.2L11.33 8H12.93L13.17 9.2C13.33 9.26667 13.4801 9.33653 13.6204 9.4096C13.7601 9.4832 13.9033 9.57333 14.05 9.68L15.21 9.32L16.01 10.68L15.09 11.48C15.1167 11.64 15.13 11.8133 15.13 12C15.13 12.1867 15.1167 12.36 15.09 12.52L16.01 13.32L15.21 14.68L14.05 14.32C13.9033 14.4267 13.7601 14.5168 13.6204 14.5904C13.4801 14.6635 13.33 14.7333 13.17 14.8L12.93 16H11.33ZM12.13 13.6C12.57 13.6 12.9468 13.4435 13.2604 13.1304C13.5735 12.8168 13.73 12.44 13.73 12C13.73 11.56 13.5735 11.1832 13.2604 10.8696C12.9468 10.5565 12.57 10.4 12.13 10.4C11.69 10.4 11.3135 10.5565 11.0004 10.8696C10.6868 11.1832 10.53 11.56 10.53 12C10.53 12.44 10.6868 12.8168 11.0004 13.1304C11.3135 13.4435 11.69 13.6 12.13 13.6Z" fill="white"/>
</g>
</svg>
