<svg width="203" height="50" viewBox="0 0 203 50" fill="none" xmlns="http://www.w3.org/2000/svg">
<path d="M63.6499 34.6534V15.5586H72.4811C73.535 15.5586 74.4799 15.8041 75.3158 16.2951C76.1699 16.7861 76.8422 17.4681 77.3328 18.341C77.8416 19.1957 78.096 20.1595 78.096 21.2325C78.096 22.3782 77.8325 23.4056 77.3056 24.3149C76.7968 25.206 76.1063 25.9152 75.2341 26.4426C74.38 26.97 73.4169 27.2337 72.3448 27.2337H65.7759V34.6534H63.6499ZM65.7759 25.1605H72.3448C72.999 25.1605 73.5896 24.9878 74.1165 24.6423C74.6617 24.2967 75.0887 23.833 75.3976 23.2511C75.7065 22.6509 75.861 21.969 75.861 21.2052C75.861 20.5141 75.7065 19.9049 75.3976 19.3776C75.0887 18.832 74.6617 18.4046 74.1165 18.0955C73.5896 17.7863 72.999 17.6317 72.3448 17.6317H65.7759V25.1605Z" fill="#0A0A0A"/>
<path d="M82.7297 34.6534V15.5586H90.7977C92.2514 15.5586 93.5597 15.795 94.7227 16.2678C95.9038 16.7407 96.9214 17.4135 97.7754 18.2864C98.6295 19.1411 99.2837 20.1504 99.7379 21.3143C100.192 22.46 100.419 23.7239 100.419 25.106C100.419 26.4881 100.192 27.7611 99.7379 28.9249C99.2837 30.0888 98.6295 31.0981 97.7754 31.9528C96.9396 32.8076 95.9311 33.4713 94.7499 33.9441C93.5688 34.417 92.2514 34.6534 90.7977 34.6534H82.7297ZM84.8557 32.9621L84.6104 32.5802H90.6614C91.8062 32.5802 92.842 32.3984 93.7687 32.0347C94.7136 31.6528 95.504 31.1345 96.14 30.4798C96.7942 29.8069 97.2939 29.025 97.6392 28.1339C98.0026 27.2246 98.1843 26.2153 98.1843 25.106C98.1843 24.0149 98.0026 23.0147 97.6392 22.1054C97.2939 21.1961 96.7942 20.4141 96.14 19.7594C95.4859 19.0866 94.6954 18.5683 93.7687 18.2046C92.842 17.8227 91.8062 17.6317 90.6614 17.6317H84.5286L84.8557 17.3044V32.9621Z" fill="#0A0A0A"/>
<path d="M124.429 34.6534V15.5586H133.206C134.46 15.5586 135.523 15.7495 136.395 16.1314C137.286 16.5133 137.976 17.068 138.467 17.7954C138.957 18.5046 139.203 19.3594 139.203 20.3596C139.203 21.3961 138.885 22.2963 138.249 23.0601C137.613 23.8057 136.731 24.324 135.605 24.615L135.632 24.124C136.504 24.2876 137.276 24.5877 137.949 25.0242C138.639 25.4606 139.184 26.0244 139.584 26.7154C140.002 27.3883 140.211 28.1612 140.211 29.0341C140.211 29.9615 140.029 30.7799 139.666 31.4891C139.321 32.1983 138.848 32.7894 138.249 33.2622C137.667 33.7168 136.986 34.0624 136.204 34.2988C135.423 34.5352 134.578 34.6534 133.669 34.6534H124.429ZM126.555 32.5802H133.533C134.405 32.5802 135.169 32.4529 135.823 32.1983C136.477 31.9256 136.995 31.5255 137.376 30.9981C137.776 30.4707 137.976 29.8433 137.976 29.1159C137.976 28.3885 137.767 27.7793 137.349 27.2882C136.949 26.7972 136.404 26.4244 135.714 26.1698C135.023 25.9152 134.251 25.7879 133.397 25.7879H126.555V32.5802ZM126.555 23.7148H133.315C134.024 23.7148 134.651 23.5875 135.196 23.3329C135.759 23.0601 136.195 22.6964 136.504 22.2418C136.831 21.7871 136.995 21.2598 136.995 20.6596C136.995 19.6958 136.64 18.9502 135.932 18.4228C135.223 17.8954 134.269 17.6317 133.07 17.6317H126.555V23.7148Z" fill="#0A0A0A"/>
<path d="M144.787 34.6534V15.5586H157.87V17.6317H146.913V32.5802H157.816V34.6534H144.787ZM145.85 25.8698V23.7966H156.344V25.8698H145.85Z" fill="#0A0A0A"/>
<path d="M160.832 34.6534L168.927 15.5586H171.435L179.475 34.6534H177.131L171.625 21.6144C171.462 21.1779 171.298 20.7596 171.135 20.3596C170.989 19.9413 170.835 19.5412 170.671 19.1593C170.526 18.7592 170.381 18.3592 170.235 17.9591C170.09 17.559 169.945 17.1589 169.799 16.7588H170.399C170.235 17.2317 170.081 17.6772 169.936 18.0955C169.79 18.4956 169.636 18.8865 169.472 19.2684C169.327 19.6503 169.172 20.0413 169.009 20.4414C168.845 20.8415 168.673 21.2779 168.491 21.7508L163.012 34.6534H160.832ZM164.212 29.4978L165.057 27.4246H175.114L175.823 29.4978H164.212Z" fill="#0A0A0A"/>
<path d="M183.292 34.6534V15.5586H185.391L193.405 27.3155L192.505 27.2882L200.628 15.5586H202.618V34.6534H200.492V25.8425C200.492 24.2604 200.519 22.8146 200.573 21.5053C200.628 20.1777 200.728 18.8502 200.873 17.5226L201.227 18.3137L193.623 29.0613H192.178L184.737 18.3683L185.037 17.5499C185.182 18.8047 185.282 20.0777 185.337 21.3689C185.391 22.66 185.418 24.1512 185.418 25.8425V34.6534H183.292Z" fill="#0A0A0A"/>
<path d="M117.896 34.6534L110.891 25.6516L102.823 15.5586H105.576L112.117 23.9603L120.676 34.6534H117.896ZM102.687 34.6534L110.618 24.3422L111.899 25.8971L105.276 34.6534H102.687ZM112.385 25.447L111.192 23.9603L117.76 15.5586H120.376L112.385 25.447Z" fill="#00AA00"/>
<path fill-rule="evenodd" clip-rule="evenodd" d="M3.18228 17.2683C2.40111 17.2683 1.76785 17.9016 1.76785 18.6828C1.76785 19.4639 2.40111 20.0972 3.18228 20.0972C3.96345 20.0972 4.59671 19.4639 4.59671 18.6828C4.59671 17.9016 3.96345 17.2683 3.18228 17.2683ZM3.18228 15.5003C1.42466 15.5003 -0.000182674 16.9251 -0.000182827 18.6828C-0.000182981 20.4404 1.42465 21.8652 3.18228 21.8652C4.93991 21.8652 6.36475 20.4404 6.36475 18.6828C6.36475 16.9251 4.93991 15.5003 3.18228 15.5003Z" fill="#00AA00"/>
<path fill-rule="evenodd" clip-rule="evenodd" d="M12.1528 12.0784C11.5079 10.5216 10.6346 9.07301 9.56407 7.7794L10.8946 6.4489C12.1359 7.92036 13.1451 9.5768 13.8842 11.3612C14.8261 13.635 15.3108 16.072 15.3108 18.5331C15.3108 20.9942 14.8261 23.4313 13.8842 25.7051C13.1191 27.5522 12.0646 29.2622 10.7628 30.7718L9.43361 29.4426C10.5638 28.1099 11.4819 26.6074 12.1528 24.9879C13.0004 22.9415 13.4367 20.7481 13.4367 18.5331C13.4367 16.3181 13.0004 14.1248 12.1528 12.0784Z" fill="#00AA00"/>
<path fill-rule="evenodd" clip-rule="evenodd" d="M20.3555 8.57955C19.2731 5.96636 17.7805 3.54745 15.9378 1.41256L17.3503 6.58702e-05C19.3759 2.32256 21.0138 4.96195 22.1964 7.81702C23.6269 11.2706 24.3632 14.9721 24.3632 18.7103C24.3632 22.4484 23.6269 26.1499 22.1964 29.6035C21.0195 32.4446 19.3918 35.0722 17.3798 37.3865L15.9672 35.9738C17.7964 33.8473 19.2788 31.4402 20.3555 28.841C21.6859 25.6291 22.3706 22.1867 22.3706 18.7103C22.3706 15.2338 21.6859 11.7914 20.3555 8.57955Z" fill="#00AA00"/>
<path fill-rule="evenodd" clip-rule="evenodd" d="M47.4242 32.7317C48.2053 32.7317 48.8386 32.0984 48.8386 31.3172C48.8386 30.5361 48.2053 29.9028 47.4242 29.9028C46.643 29.9028 46.0097 30.5361 46.0097 31.3172C46.0097 32.0984 46.643 32.7317 47.4242 32.7317ZM47.4242 34.4997C49.1818 34.4997 50.6066 33.0749 50.6066 31.3172C50.6066 29.5596 49.1818 28.1348 47.4242 28.1348C45.6665 28.1348 44.2417 29.5596 44.2417 31.3172C44.2417 33.0749 45.6665 34.4997 47.4242 34.4997Z" fill="#00AA00"/>
<path fill-rule="evenodd" clip-rule="evenodd" d="M38.4536 37.921C39.0985 39.4779 39.9719 40.9266 41.0426 42.2202L39.7121 43.5507C38.4707 42.0792 37.4613 40.4227 36.7222 38.6382C35.7803 36.3644 35.2956 33.9274 35.2956 31.4662C35.2956 29.0051 35.7803 26.5681 36.7222 24.2943C37.4873 22.4472 38.5418 20.7372 39.8436 19.2275L41.1728 20.5568C40.0426 21.8895 39.1245 23.3919 38.4536 25.0115C37.606 27.0579 37.1697 29.2512 37.1697 31.4662C37.1697 33.6813 37.606 35.8746 38.4536 37.921Z" fill="#00AA00"/>
<path fill-rule="evenodd" clip-rule="evenodd" d="M30.2508 41.4201C31.3333 44.0335 32.826 46.4525 34.6689 48.5875L33.2564 50C31.2306 47.6774 29.5926 45.0379 28.4099 42.1826C26.9794 38.729 26.2431 35.0275 26.2431 31.2894C26.2431 27.5513 26.9794 23.8497 28.4099 20.3962C29.5868 17.5548 31.2147 14.9271 33.2268 12.6128L34.6395 14.0254C32.8101 16.152 31.3275 18.5592 30.2508 21.1587C28.9204 24.3705 28.2357 27.8129 28.2357 31.2894C28.2357 34.7658 28.9204 38.2083 30.2508 41.4201Z" fill="#00AA00"/>
</svg>
