<svg width="203" height="50" viewBox="0 0 203 50" fill="none" xmlns="http://www.w3.org/2000/svg">
<path d="M63.6499 34.6533V15.5585H72.4811C73.535 15.5585 74.4799 15.804 75.3158 16.295C76.1699 16.7861 76.8422 17.468 77.3328 18.3409C77.8416 19.1956 78.096 20.1595 78.096 21.2324C78.096 22.3781 77.8325 23.4056 77.3056 24.3149C76.7968 25.2059 76.1063 25.9152 75.2341 26.4426C74.38 26.9699 73.4169 27.2336 72.3448 27.2336H65.7759V34.6533H63.6499ZM65.7759 25.1605H72.3448C72.999 25.1605 73.5896 24.9877 74.1165 24.6422C74.6617 24.2967 75.0887 23.8329 75.3976 23.251C75.7065 22.6509 75.861 21.9689 75.861 21.2051C75.861 20.5141 75.7065 19.9049 75.3976 19.3775C75.0887 18.8319 74.6617 18.4046 74.1165 18.0954C73.5896 17.7863 72.999 17.6317 72.3448 17.6317H65.7759V25.1605Z" fill="#0A0A0A"/>
<path d="M82.7297 34.6533V15.5585H90.7977C92.2514 15.5585 93.5597 15.7949 94.7227 16.2678C95.9038 16.7406 96.9214 17.4135 97.7754 18.2864C98.6295 19.1411 99.2837 20.1504 99.7379 21.3142C100.192 22.4599 100.419 23.7238 100.419 25.1059C100.419 26.488 100.192 27.761 99.7379 28.9249C99.2837 30.0888 98.6295 31.0981 97.7754 31.9528C96.9396 32.8075 95.9311 33.4713 94.7499 33.9441C93.5688 34.4169 92.2514 34.6533 90.7977 34.6533H82.7297ZM84.8557 32.9621L84.6104 32.5802H90.6614C91.8062 32.5802 92.842 32.3983 93.7687 32.0346C94.7136 31.6527 95.504 31.1344 96.14 30.4797C96.7942 29.8069 97.2939 29.0249 97.6392 28.1338C98.0026 27.2245 98.1843 26.2152 98.1843 25.1059C98.1843 24.0148 98.0026 23.0146 97.6392 22.1053C97.2939 21.196 96.7942 20.4141 96.14 19.7594C95.4859 19.0865 94.6954 18.5682 93.7687 18.2045C92.842 17.8226 91.8062 17.6317 90.6614 17.6317H84.5286L84.8557 17.3043V32.9621Z" fill="#0A0A0A"/>
<path d="M124.429 34.6533V15.5585H133.206C134.46 15.5585 135.523 15.7495 136.395 16.1314C137.286 16.5133 137.976 17.0679 138.467 17.7954C138.957 18.5046 139.203 19.3593 139.203 20.3595C139.203 21.3961 138.885 22.2963 138.249 23.0601C137.613 23.8057 136.731 24.324 135.605 24.6149L135.632 24.1239C136.504 24.2876 137.276 24.5876 137.949 25.0241C138.639 25.4605 139.184 26.0243 139.584 26.7153C140.002 27.3882 140.211 28.1611 140.211 29.034C140.211 29.9615 140.029 30.7798 139.666 31.489C139.321 32.1983 138.848 32.7893 138.249 33.2621C137.667 33.7168 136.986 34.0623 136.204 34.2987C135.423 34.5351 134.578 34.6533 133.669 34.6533H124.429ZM126.555 32.5802H133.533C134.405 32.5802 135.169 32.4529 135.823 32.1983C136.477 31.9255 136.995 31.5254 137.376 30.998C137.776 30.4707 137.976 29.8433 137.976 29.1158C137.976 28.3884 137.767 27.7792 137.349 27.2882C136.949 26.7972 136.404 26.4244 135.714 26.1698C135.023 25.9152 134.251 25.7879 133.397 25.7879H126.555V32.5802ZM126.555 23.7147H133.315C134.024 23.7147 134.651 23.5874 135.196 23.3328C135.759 23.0601 136.195 22.6963 136.504 22.2417C136.831 21.7871 136.995 21.2597 136.995 20.6596C136.995 19.6957 136.64 18.9501 135.932 18.4228C135.223 17.8954 134.269 17.6317 133.07 17.6317H126.555V23.7147Z" fill="#0A0A0A"/>
<path d="M144.787 34.6533V15.5585H157.87V17.6317H146.913V32.5802H157.816V34.6533H144.787ZM145.85 25.8697V23.7966H156.344V25.8697H145.85Z" fill="#0A0A0A"/>
<path d="M160.832 34.6533L168.927 15.5585H171.435L179.475 34.6533H177.131L171.625 21.6143C171.462 21.1779 171.298 20.7596 171.135 20.3595C170.989 19.9412 170.835 19.5412 170.671 19.1593C170.526 18.7592 170.381 18.3591 170.235 17.959C170.09 17.5589 169.945 17.1589 169.799 16.7588H170.399C170.235 17.2316 170.081 17.6771 169.936 18.0954C169.79 18.4955 169.636 18.8865 169.472 19.2684C169.327 19.6503 169.172 20.0413 169.009 20.4413C168.845 20.8414 168.673 21.2779 168.491 21.7507L163.012 34.6533H160.832ZM164.212 29.4977L165.057 27.4246H175.114L175.823 29.4977H164.212Z" fill="#0A0A0A"/>
<path d="M183.292 34.6533V15.5585H185.391L193.405 27.3155L192.505 27.2882L200.628 15.5585H202.618V34.6533H200.491V25.8424C200.491 24.2603 200.519 22.8146 200.573 21.5052C200.628 20.1777 200.728 18.8501 200.873 17.5226L201.227 18.3136L193.623 29.0613H192.178L184.737 18.3682L185.037 17.5498C185.182 18.8046 185.282 20.0776 185.337 21.3688C185.391 22.66 185.418 24.1512 185.418 25.8424V34.6533H183.292Z" fill="#0A0A0A"/>
<path d="M117.896 34.6533L110.891 25.6515L102.823 15.5585H105.576L112.117 23.9602L120.676 34.6533H117.896ZM102.687 34.6533L110.618 24.3421L111.899 25.897L105.276 34.6533H102.687ZM112.385 25.4469L111.192 23.9602L117.76 15.5585H120.376L112.385 25.4469Z" fill="#0080FF"/>
<path fill-rule="evenodd" clip-rule="evenodd" d="M3.1824 17.2682C2.40124 17.2682 1.76798 17.9015 1.76798 18.6826C1.76798 19.4638 2.40124 20.0971 3.1824 20.0971C3.96357 20.0971 4.59683 19.4638 4.59683 18.6826C4.59683 17.9015 3.96357 17.2682 3.1824 17.2682ZM3.1824 15.5002C1.42478 15.5002 -6.06033e-05 16.925 -6.07569e-05 18.6826C-6.09106e-05 20.4403 1.42478 21.8651 3.1824 21.8651C4.94003 21.8651 6.36487 20.4403 6.36487 18.6826C6.36487 16.925 4.94003 15.5002 3.1824 15.5002Z" fill="#0080FF"/>
<path fill-rule="evenodd" clip-rule="evenodd" d="M12.1528 12.0786C11.5079 10.5218 10.6346 9.07319 9.56407 7.77958L10.8946 6.44908C12.1359 7.92055 13.1451 9.57698 13.8842 11.3614C14.8261 13.6352 15.3108 16.0722 15.3108 18.5333C15.3108 20.9944 14.8261 23.4315 13.8842 25.7052C13.1191 27.5523 12.0646 29.2623 10.7628 30.772L9.43361 29.4428C10.5638 28.1101 11.4819 26.6076 12.1528 24.988C13.0004 22.9416 13.4367 20.7483 13.4367 18.5333C13.4367 16.3183 13.0004 14.125 12.1528 12.0786Z" fill="#0080FF"/>
<path fill-rule="evenodd" clip-rule="evenodd" d="M20.3557 8.57961C19.2733 5.96642 17.7808 3.54751 15.938 1.41262L17.3505 0.000126772C19.3761 2.32262 21.014 4.96201 22.1966 7.81708C23.6272 11.2707 24.3634 14.9722 24.3634 18.7103C24.3634 22.4484 23.6272 26.15 22.1966 29.6035C21.0198 32.4447 19.392 35.0723 17.3801 37.3865L15.9674 35.9739C17.7966 33.8474 19.2791 31.4403 20.3557 28.841C21.6861 25.6292 22.3709 22.1868 22.3709 18.7103C22.3709 15.2339 21.6861 11.7914 20.3557 8.57961Z" fill="#0080FF"/>
<path fill-rule="evenodd" clip-rule="evenodd" d="M47.4238 32.7315C48.205 32.7315 48.8382 32.0982 48.8382 31.317C48.8382 30.5359 48.205 29.9026 47.4238 29.9026C46.6426 29.9026 46.0094 30.5359 46.0094 31.317C46.0094 32.0982 46.6426 32.7315 47.4238 32.7315ZM47.4238 34.4995C49.1814 34.4995 50.6063 33.0747 50.6063 31.317C50.6063 29.5594 49.1814 28.1346 47.4238 28.1346C45.6662 28.1346 44.2413 29.5594 44.2413 31.317C44.2413 33.0747 45.6662 34.4995 47.4238 34.4995Z" fill="#0080FF"/>
<path fill-rule="evenodd" clip-rule="evenodd" d="M38.4533 37.921C39.0982 39.478 39.9716 40.9266 41.0422 42.2203L39.7117 43.5508C38.4703 42.0793 37.461 40.4227 36.7218 38.6382C35.78 36.3645 35.2952 33.9274 35.2952 31.4663C35.2952 29.0052 35.78 26.5681 36.7218 24.2944C37.4869 22.4473 38.5415 20.7372 39.8432 19.2276L41.1725 20.5568C40.0422 21.8895 39.1241 23.392 38.4533 25.0116C37.6056 27.058 37.1693 29.2513 37.1693 31.4663C37.1693 33.6813 37.6056 35.8746 38.4533 37.921Z" fill="#0080FF"/>
<path fill-rule="evenodd" clip-rule="evenodd" d="M30.2507 41.42C31.3331 44.0334 32.8258 46.4524 34.6688 48.5874L33.2563 49.9999C31.2305 47.6773 29.5924 45.0378 28.4098 42.1826C26.9792 38.729 26.243 35.0275 26.243 31.2893C26.243 27.5512 26.9792 23.8497 28.4098 20.3961C29.5867 17.5548 31.2145 14.927 33.2267 12.6127L34.6393 14.0254C32.81 16.152 31.3274 18.5592 30.2507 21.1586C28.9203 24.3705 28.2355 27.8129 28.2355 31.2893C28.2355 34.7658 28.9203 38.2082 30.2507 41.42Z" fill="#0080FF"/>
</svg>
