<svg width="20" height="20" viewBox="0 0 20 20" fill="none" xmlns="http://www.w3.org/2000/svg">
<rect width="20" height="20" fill="#89909A"/>
<path fill-rule="evenodd" clip-rule="evenodd" d="M3.88084 8.13946C3.66474 8.13946 3.48956 8.31465 3.48956 8.53075C3.48956 8.74685 3.66474 8.92203 3.88084 8.92203C4.09694 8.92203 4.27213 8.74685 4.27213 8.53075C4.27213 8.31465 4.09694 8.13946 3.88084 8.13946ZM3.88084 7.65036C3.39462 7.65036 3.00046 8.04452 3.00046 8.53075C3.00046 9.01697 3.39462 9.41113 3.88084 9.41113C4.36707 9.41113 4.76123 9.01697 4.76123 8.53075C4.76123 8.04452 4.36707 7.65036 3.88084 7.65036Z" fill="white"/>
<path fill-rule="evenodd" clip-rule="evenodd" d="M6.36239 6.70559C6.18387 6.2746 5.94205 5.87359 5.64558 5.51552L6.01364 5.14746C6.35734 5.55472 6.63678 6.01324 6.84138 6.50719C7.10192 7.1362 7.23603 7.81038 7.23602 8.49121C7.23602 9.17205 7.10192 9.84622 6.84138 10.4752C6.62977 10.9861 6.33813 11.459 5.97813 11.8766L5.61041 11.5089C5.92296 11.1403 6.17686 10.7248 6.36239 10.2768C6.59688 9.71072 6.71757 9.10397 6.71757 8.49121C6.71757 7.87846 6.59688 7.2717 6.36239 6.70559Z" fill="white"/>
<path fill-rule="evenodd" clip-rule="evenodd" d="M8.63155 5.73621C8.33219 5.0135 7.91944 4.3445 7.40985 3.75403L7.8006 3.36328C8.36077 4.00565 8.81374 4.73564 9.14081 5.52527C9.53654 6.48065 9.74023 7.50463 9.74023 8.53873C9.74023 9.57284 9.53654 10.5968 9.14081 11.5522C8.81521 12.3383 8.36484 13.0652 7.80815 13.7055L7.41736 13.3147C7.92349 12.7264 8.33366 12.0604 8.63155 11.3413C8.99958 10.4527 9.18901 9.50045 9.18901 8.53873C9.18901 7.57702 8.99958 6.62472 8.63155 5.73621Z" fill="white"/>
<path fill-rule="evenodd" clip-rule="evenodd" d="M16.1193 12.4172C16.3354 12.4172 16.5106 12.242 16.5106 12.0259C16.5106 11.8098 16.3354 11.6346 16.1193 11.6346C15.9032 11.6346 15.7281 11.8098 15.7281 12.0259C15.7281 12.242 15.9032 12.4172 16.1193 12.4172ZM16.1193 12.9063C16.6056 12.9063 16.9997 12.5121 16.9997 12.0259C16.9997 11.5397 16.6056 11.1455 16.1193 11.1455C15.6331 11.1455 15.239 11.5397 15.239 12.0259C15.239 12.5121 15.6331 12.9063 16.1193 12.9063Z" fill="white"/>
<path fill-rule="evenodd" clip-rule="evenodd" d="M13.6379 13.8527C13.8163 14.2834 14.0579 14.6842 14.3541 15.0421L13.9861 15.4102C13.6426 15.0031 13.3634 14.5448 13.1589 14.0511C12.8984 13.4221 12.7643 12.7479 12.7643 12.0671C12.7643 11.3863 12.8984 10.7121 13.1589 10.0831C13.3705 9.57232 13.662 9.09946 14.0219 8.68197L14.3896 9.04969C14.0772 9.41822 13.8234 9.83367 13.6379 10.2815C13.4034 10.8476 13.2827 11.4543 13.2827 12.0671C13.2827 12.6799 13.4034 13.2866 13.6379 13.8527Z" fill="white"/>
<path fill-rule="evenodd" clip-rule="evenodd" d="M11.3687 14.8205C11.6682 15.5436 12.0812 16.2129 12.5912 16.8036L12.2004 17.1943C11.6399 16.5517 11.1867 15.8214 10.8594 15.0314C10.4637 14.0761 10.26 13.0521 10.26 12.018C10.26 10.9839 10.4637 9.95989 10.8594 9.0045C11.1849 8.21867 11.6351 7.49189 12.1916 6.85176L12.5824 7.24256C12.0765 7.83076 11.6665 8.49652 11.3687 9.21545C11.0007 10.104 10.8112 11.0563 10.8112 12.018C10.8112 12.9797 11.0007 13.932 11.3687 14.8205Z" fill="white"/>
</svg>
