<svg width="160" height="154" viewBox="0 0 160 154" fill="none" xmlns="http://www.w3.org/2000/svg">
<path fill-rule="evenodd" clip-rule="evenodd" d="M9.74743 52.8903C7.35483 52.8903 5.41524 54.8299 5.41524 57.2225C5.41524 59.6151 7.35483 61.5547 9.74743 61.5547C12.14 61.5547 14.0796 59.6151 14.0796 57.2225C14.0796 54.8299 12.14 52.8903 9.74743 52.8903ZM9.74744 47.4751C4.36407 47.4751 -4.39927e-06 51.8392 -4.8699e-06 57.2225C-5.34053e-06 62.6059 4.36407 66.97 9.74743 66.97C15.1308 66.97 19.4949 62.6059 19.4949 57.2225C19.4949 51.8392 15.1308 47.4751 9.74744 47.4751Z" fill="white"/>
<path fill-rule="evenodd" clip-rule="evenodd" d="M37.2224 36.9952C35.2472 32.2265 32.5721 27.7894 29.2927 23.827L33.3678 19.7519C37.1702 24.259 40.2617 29.3328 42.5256 34.7985C45.4103 41.7628 46.8951 49.2271 46.8951 56.7652C46.8951 64.3032 45.4103 71.7675 42.5256 78.7318C40.1823 84.3891 36.9524 89.6265 32.9654 94.2503L28.8942 90.1791C32.3558 86.0973 35.1677 81.4955 37.2224 76.5351C39.8187 70.2673 41.1549 63.5494 41.1549 56.7652C41.1549 49.9809 39.8187 43.263 37.2224 36.9952Z" fill="white"/>
<path fill-rule="evenodd" clip-rule="evenodd" d="M62.3465 26.278C59.0312 18.274 54.4596 10.8652 48.8154 4.32626L53.1417 0C59.3459 7.11351 64.3627 15.1977 67.985 23.9424C72.3664 34.5203 74.6215 45.8575 74.6215 57.3069C74.6215 68.7562 72.3664 80.0935 67.9849 90.6713C64.3803 99.3737 59.3945 107.422 53.2318 114.51L48.9051 110.183C54.508 103.67 59.0488 96.2973 62.3465 88.3358C66.4213 78.4984 68.5186 67.9548 68.5186 57.3069C68.5186 46.659 66.4213 36.1153 62.3465 26.278Z" fill="white"/>
<path fill-rule="evenodd" clip-rule="evenodd" d="M149.496 100.252C151.888 100.252 153.828 98.3121 153.828 95.9195C153.828 93.5269 151.888 91.5873 149.496 91.5873C147.103 91.5873 145.164 93.5269 145.164 95.9195C145.164 98.3121 147.103 100.252 149.496 100.252ZM149.496 105.667C154.879 105.667 159.243 101.303 159.243 95.9195C159.243 90.5361 154.879 86.172 149.496 86.172C144.112 86.172 139.748 90.5361 139.748 95.9195C139.748 101.303 144.112 105.667 149.496 105.667Z" fill="white"/>
<path fill-rule="evenodd" clip-rule="evenodd" d="M122.019 116.147C123.994 120.916 126.669 125.352 129.948 129.315L125.873 133.39C122.071 128.883 118.98 123.809 116.716 118.344C113.831 111.38 112.346 103.915 112.346 96.3772C112.346 88.8391 113.831 81.3748 116.716 74.4105C119.059 68.7531 122.289 63.5155 126.276 58.8917L130.347 62.9629C126.886 67.0448 124.074 71.6466 122.019 76.6072C119.423 82.875 118.086 89.5929 118.086 96.3772C118.086 103.161 119.423 109.879 122.019 116.147Z" fill="white"/>
<path fill-rule="evenodd" clip-rule="evenodd" d="M96.8965 126.864C100.212 134.868 104.783 142.277 110.428 148.816L106.101 153.142C99.8971 146.029 94.8803 137.944 91.2581 129.2C86.8766 118.622 84.6215 107.285 84.6215 95.8352C84.6215 84.3858 86.8766 73.0486 91.2581 62.4707C94.8626 53.7686 99.8482 45.7207 106.011 38.6324L110.337 42.9592C104.735 49.4725 100.194 56.845 96.8965 64.8062C92.8217 74.6436 90.7245 85.1873 90.7245 95.8352C90.7245 106.483 92.8217 117.027 96.8965 126.864Z" fill="white"/>
</svg>
