<svg width="163" height="40" viewBox="0 0 163 40" fill="none" xmlns="http://www.w3.org/2000/svg">
<path d="M50.9199 27.723V12.4471H57.9849C58.8281 12.4471 59.584 12.6435 60.2527 13.0363C60.936 13.4291 61.4738 13.9746 61.8663 14.673C62.2734 15.3568 62.4769 16.1278 62.4769 16.9862C62.4769 17.9027 62.2661 18.7247 61.8445 19.4522C61.4375 20.165 60.8851 20.7324 60.1873 21.1543C59.5041 21.5762 58.7336 21.7872 57.8759 21.7872H52.6208V27.723H50.9199ZM52.6208 20.1287H57.8759C58.3992 20.1287 58.8717 19.9904 59.2933 19.714C59.7294 19.4376 60.071 19.0666 60.3181 18.6011C60.5653 18.121 60.6888 17.5754 60.6888 16.9644C60.6888 16.4115 60.5653 15.9241 60.3181 15.5022C60.071 15.0658 59.7294 14.7239 59.2933 14.4766C58.8717 14.2292 58.3992 14.1056 57.8759 14.1056H52.6208V20.1287Z" fill="white"/>
<path d="M66.1838 27.723V12.4471H72.6383C73.8013 12.4471 74.8479 12.6362 75.7783 13.0144C76.7232 13.3927 77.5373 13.931 78.2205 14.6293C78.9038 15.3131 79.4271 16.1205 79.7905 17.0517C80.154 17.9682 80.3357 18.9793 80.3357 20.085C80.3357 21.1907 80.154 22.2091 79.7905 23.1402C79.4271 24.0713 78.9038 24.8787 78.2205 25.5625C77.5518 26.2463 76.745 26.7773 75.8001 27.1556C74.8552 27.5338 73.8013 27.723 72.6383 27.723H66.1838ZM67.8847 26.37L67.6884 26.0644H72.5293C73.4451 26.0644 74.2737 25.919 75.0151 25.628C75.771 25.3225 76.4034 24.9078 76.9122 24.3841C77.4355 23.8458 77.8353 23.2202 78.1115 22.5073C78.4022 21.7799 78.5476 20.9725 78.5476 20.085C78.5476 19.2121 78.4022 18.4119 78.1115 17.6845C77.8353 16.9571 77.4355 16.3315 76.9122 15.8078C76.3889 15.2695 75.7565 14.8548 75.0151 14.5639C74.2737 14.2583 73.4451 14.1056 72.5293 14.1056H67.623L67.8847 13.8437V26.37Z" fill="white"/>
<path d="M99.5438 27.723V12.4471H106.565C107.568 12.4471 108.419 12.5998 109.117 12.9053C109.829 13.2108 110.381 13.6546 110.774 14.2365C111.166 14.8039 111.362 15.4877 111.362 16.2879C111.362 17.1171 111.108 17.8373 110.599 18.4483C110.09 19.0448 109.385 19.4594 108.484 19.6922L108.506 19.2994C109.204 19.4303 109.822 19.6704 110.359 20.0195C110.912 20.3687 111.348 20.8197 111.668 21.3726C112.002 21.9108 112.169 22.5292 112.169 23.2275C112.169 23.9695 112.024 24.6241 111.733 25.1915C111.457 25.7589 111.079 26.2318 110.599 26.61C110.134 26.9737 109.589 27.2501 108.964 27.4393C108.339 27.6284 107.663 27.723 106.936 27.723H99.5438ZM101.245 26.0644H106.827C107.525 26.0644 108.135 25.9626 108.659 25.7589C109.182 25.5407 109.596 25.2206 109.902 24.7987C110.221 24.3768 110.381 23.8749 110.381 23.293C110.381 22.711 110.214 22.2236 109.88 21.8308C109.56 21.438 109.124 21.1398 108.571 20.9361C108.019 20.7324 107.401 20.6306 106.718 20.6306H101.245V26.0644ZM101.245 18.9721H106.652C107.219 18.9721 107.721 18.8702 108.157 18.6665C108.608 18.4483 108.957 18.1573 109.204 17.7936C109.465 17.4299 109.596 17.008 109.596 16.5279C109.596 15.7568 109.313 15.1603 108.746 14.7384C108.179 14.3165 107.416 14.1056 106.456 14.1056H101.245V18.9721Z" fill="white"/>
<path d="M115.83 27.723V12.4471H126.297V14.1056H117.531V26.0644H126.253V27.723H115.83ZM116.68 20.696V19.0375H125.075V20.696H116.68Z" fill="white"/>
<path d="M128.666 27.723L135.142 12.4471H137.148L143.581 27.723H141.706L137.301 17.2917C137.17 16.9425 137.039 16.6079 136.908 16.2879C136.792 15.9532 136.669 15.6332 136.538 15.3277C136.421 15.0076 136.305 14.6875 136.189 14.3675C136.073 14.0474 135.956 13.7273 135.84 13.4073H136.32C136.189 13.7855 136.065 14.142 135.949 14.4766C135.833 14.7966 135.709 15.1094 135.578 15.4149C135.462 15.7205 135.338 16.0333 135.208 16.3533C135.077 16.6734 134.939 17.0226 134.793 17.4008L130.41 27.723H128.666ZM131.37 23.5985L132.046 21.9399H140.092L140.659 23.5985H131.37Z" fill="white"/>
<path d="M146.635 27.723V12.4471H148.314L154.724 21.8527L154.005 21.8308L160.503 12.4471H162.095V27.723H160.394V20.6742C160.394 19.4085 160.416 18.2519 160.459 17.2044C160.503 16.1424 160.583 15.0803 160.699 14.0183L160.983 14.6511L154.899 23.2493H153.743L147.79 14.6948L148.03 14.0401C148.146 15.044 148.226 16.0624 148.27 17.0953C148.314 18.1282 148.335 19.3212 148.335 20.6742V27.723H146.635Z" fill="white"/>
<path d="M94.3169 27.723L88.7129 20.5215L82.2584 12.4471H84.4608L89.6941 19.1685L96.5411 27.723H94.3169ZM82.1494 27.723L88.4948 19.474L89.5197 20.7179L84.2209 27.723H82.1494ZM89.9081 20.3578L88.9541 19.1685L94.2079 12.4471H96.3012L89.9081 20.3578Z" fill="white"/>
<path fill-rule="evenodd" clip-rule="evenodd" d="M2.54581 13.8148C1.92087 13.8148 1.41426 14.3214 1.41426 14.9463C1.41426 15.5713 1.92087 16.0779 2.54581 16.0779C3.17075 16.0779 3.67736 15.5713 3.67736 14.9463C3.67736 14.3214 3.17075 13.8148 2.54581 13.8148ZM2.54581 12.4003C1.1397 12.4003 -0.000176561 13.5402 -0.000176684 14.9463C-0.000176807 16.3524 1.1397 17.4923 2.54581 17.4923C3.95192 17.4923 5.0918 16.3524 5.0918 14.9463C5.0918 13.5402 3.95192 12.4003 2.54581 12.4003Z" fill="white"/>
<path fill-rule="evenodd" clip-rule="evenodd" d="M9.72229 9.66294C9.20636 8.41739 8.50763 7.25843 7.65108 6.22346L8.71548 5.15906C9.70863 6.3363 10.5161 7.66155 11.1075 9.08918C11.8609 10.9082 12.2487 12.8579 12.2487 14.8268C12.2487 16.7957 11.8609 18.7453 11.1075 20.5643C10.4954 22.0421 9.6517 23.4101 8.61026 24.6178L7.54687 23.5545C8.45108 22.4883 9.18559 21.2863 9.72229 19.9906C10.4004 18.3535 10.7494 16.5988 10.7494 14.8268C10.7494 13.0547 10.4004 11.3001 9.72229 9.66294Z" fill="white"/>
<path fill-rule="evenodd" clip-rule="evenodd" d="M16.2847 6.86364C15.4188 4.77307 14.2247 2.83792 12.7505 1.13L13.8805 0C15.501 1.85801 16.8113 3.96954 17.7574 6.25361C18.9019 9.01649 19.4909 11.9777 19.4909 14.9683C19.4909 17.9588 18.9019 20.92 17.7574 23.6829C16.8159 25.9559 15.5137 28.0581 13.904 29.9095L12.7738 28.7794C14.2373 27.0781 15.4233 25.1524 16.2847 23.0729C17.349 20.5034 17.8968 17.7494 17.8968 14.9683C17.8968 12.1871 17.349 9.43312 16.2847 6.86364Z" fill="white"/>
<path fill-rule="evenodd" clip-rule="evenodd" d="M37.9395 26.1852C38.5645 26.1852 39.0711 25.6786 39.0711 25.0537C39.0711 24.4287 38.5645 23.9221 37.9395 23.9221C37.3146 23.9221 36.808 24.4287 36.808 25.0537C36.808 25.6786 37.3146 26.1852 37.9395 26.1852ZM37.9395 27.5997C39.3457 27.5997 40.4855 26.4598 40.4855 25.0537C40.4855 23.6476 39.3457 22.5077 37.9395 22.5077C36.5334 22.5077 35.3936 23.6476 35.3936 25.0537C35.3936 26.4598 36.5334 27.5997 37.9395 27.5997Z" fill="white"/>
<path fill-rule="evenodd" clip-rule="evenodd" d="M30.7626 30.3368C31.2785 31.5823 31.9772 32.7412 32.8337 33.7761L31.7693 34.8405C30.7762 33.6633 29.9688 32.3381 29.3774 30.9106C28.624 29.0915 28.2362 27.1419 28.2362 25.173C28.2362 23.2041 28.624 21.2544 29.3774 19.4354C29.9895 17.9577 30.8332 16.5897 31.8746 15.382L32.938 16.4453C32.0338 17.5115 31.2993 18.7135 30.7626 20.0092C30.0845 21.6463 29.7355 23.401 29.7355 25.173C29.7355 26.945 30.0845 28.6997 30.7626 30.3368Z" fill="white"/>
<path fill-rule="evenodd" clip-rule="evenodd" d="M24.2006 33.1364C25.0666 35.2269 26.2606 37.1621 27.7349 38.87L26.6049 40C24.9844 38.142 23.674 36.0305 22.7279 33.7464C21.5835 30.9835 20.9945 28.0223 20.9945 25.0317C20.9945 22.0412 21.5835 19.08 22.7279 16.3171C23.6694 14.0442 24.9716 11.9421 26.5812 10.0907L27.7113 11.2208C26.2479 12.9221 25.062 14.8477 24.2006 16.9271C23.1363 19.4966 22.5885 22.2506 22.5885 25.0317C22.5885 27.8129 23.1363 30.5669 24.2006 33.1364Z" fill="white"/>
</svg>
