<svg width="32" height="32" viewBox="0 0 32 32" fill="none" xmlns="http://www.w3.org/2000/svg">
<circle cx="16" cy="16" r="16" fill="#0080FF"/>
<mask id="mask0_1064_5686" style="mask-type:alpha" maskUnits="userSpaceOnUse" x="0" y="0" width="32" height="32">
<circle cx="16" cy="16" r="16" fill="#0080FF"/>
</mask>
<g mask="url(#mask0_1064_5686)">
<path fill-rule="evenodd" clip-rule="evenodd" d="M7.27291 12.9073C6.96044 12.9073 6.70713 13.1606 6.70713 13.4731C6.70713 13.7856 6.96044 14.0389 7.27291 14.0389C7.58538 14.0389 7.83868 13.7856 7.83868 13.4731C7.83868 13.1606 7.58538 12.9073 7.27291 12.9073ZM7.27291 12.2001C6.56986 12.2001 5.99992 12.7701 5.99992 13.4731C5.99992 14.1762 6.56986 14.7461 7.27291 14.7461C7.97596 14.7461 8.5459 14.1762 8.5459 13.4731C8.5459 12.7701 7.97596 12.2001 7.27291 12.2001Z" fill="white"/>
<path fill-rule="evenodd" clip-rule="evenodd" d="M10.8612 10.831C10.6032 10.2082 10.2539 9.62878 9.82559 9.1113L10.3578 8.5791C10.8544 9.16772 11.2581 9.83033 11.5538 10.5441C11.9305 11.4536 12.1244 12.4285 12.1244 13.4129C12.1244 14.3974 11.9305 15.3722 11.5538 16.2817C11.2477 17.0206 10.8258 17.7047 10.305 18.3086L9.77332 17.7769C10.2255 17.2438 10.5928 16.6427 10.8612 15.9948C11.2002 15.1763 11.3747 14.2989 11.3747 13.4129C11.3747 12.5269 11.2002 11.6496 10.8612 10.831Z" fill="white"/>
<path fill-rule="evenodd" clip-rule="evenodd" d="M14.1423 9.43187C13.7093 8.38656 13.1123 7.41897 12.3751 6.565L12.9401 6C13.7504 6.92902 14.4056 7.9848 14.8786 9.12686C15.4509 10.5083 15.7454 11.9889 15.7454 13.4842C15.7454 14.9794 15.4509 16.46 14.8786 17.8415C14.4079 18.978 13.7568 20.029 12.9519 20.9548L12.3869 20.3897C13.1186 19.5391 13.7116 18.5762 14.1423 17.5365C14.6744 16.2517 14.9483 14.8748 14.9483 13.4842C14.9483 12.0936 14.6744 10.7166 14.1423 9.43187Z" fill="white"/>
<path fill-rule="evenodd" clip-rule="evenodd" d="M24.9696 19.0927C25.2821 19.0927 25.5354 18.8394 25.5354 18.5269C25.5354 18.2144 25.2821 17.9611 24.9696 17.9611C24.6572 17.9611 24.4039 18.2144 24.4039 18.5269C24.4039 18.8394 24.6572 19.0927 24.9696 19.0927ZM24.9696 19.7999C25.6727 19.7999 26.2426 19.2299 26.2426 18.5269C26.2426 17.8238 25.6727 17.2539 24.9696 17.2539C24.2666 17.2539 23.6967 17.8238 23.6967 18.5269C23.6967 19.2299 24.2666 19.7999 24.9696 19.7999Z" fill="white"/>
<path fill-rule="evenodd" clip-rule="evenodd" d="M21.3813 21.169C21.6393 21.7918 21.9886 22.3712 22.4169 22.8887L21.8847 23.4209C21.3881 22.8323 20.9844 22.1697 20.6887 21.4559C20.312 20.5464 20.1181 19.5716 20.1181 18.5871C20.1181 17.6027 20.312 16.6279 20.6887 15.7183C20.9948 14.9795 21.4166 14.2955 21.9373 13.6916L22.469 14.2233C22.0169 14.7564 21.6497 15.3574 21.3813 16.0052C21.0423 16.8238 20.8678 17.7011 20.8678 18.5871C20.8678 19.4731 21.0423 20.3505 21.3813 21.169Z" fill="white"/>
<path fill-rule="evenodd" clip-rule="evenodd" d="M18.1003 22.5692C18.5333 23.6144 19.1303 24.582 19.8674 25.436L19.3024 26.001C18.4922 25.072 17.837 24.0162 17.364 22.8742C16.7917 21.4927 16.4972 20.0121 16.4972 18.5169C16.4972 17.0216 16.7917 15.541 17.364 14.1596C17.8347 13.023 18.4858 11.972 19.2907 11.0463L19.8557 11.6113C19.124 12.462 18.531 13.4248 18.1003 14.4646C17.5682 15.7493 17.2943 17.1263 17.2943 18.5169C17.2943 19.9074 17.5682 21.2844 18.1003 22.5692Z" fill="white"/>
</g>
</svg>
