<svg width="19" height="16" viewBox="0 0 19 16" fill="none" xmlns="http://www.w3.org/2000/svg">
<path d="M1.91707 15.3341C1.41291 15.3341 0.981462 15.1548 0.62274 14.7961C0.263407 14.4367 0.0837402 14.005 0.0837402 13.5008V2.50081C0.0837402 1.99665 0.263407 1.5652 0.62274 1.20648C0.981462 0.847147 1.41291 0.66748 1.91707 0.66748H16.5837C17.0879 0.66748 17.5197 0.847147 17.879 1.20648C18.2377 1.5652 18.4171 1.99665 18.4171 2.50081V13.5008C18.4171 14.005 18.2377 14.4367 17.879 14.7961C17.5197 15.1548 17.0879 15.3341 16.5837 15.3341H1.91707ZM9.25041 8.91748L16.5837 4.33415V2.50081L9.25041 7.08414L1.91707 2.50081V4.33415L9.25041 8.91748Z" fill="#89909A"/>
</svg>
