<svg width="22" height="21" viewBox="0 0 22 21" fill="none" xmlns="http://www.w3.org/2000/svg">
<path d="M20.0039 1L12.2 6.79608L13.6431 3.37647L20.0039 1Z" fill="#E2761B" stroke="#E2761B" stroke-linecap="round" stroke-linejoin="round"/>
<path d="M1.98828 1L9.72946 6.85098L8.35691 3.37647L1.98828 1Z" fill="#E4761B" stroke="#E4761B" stroke-linecap="round" stroke-linejoin="round"/>
<path d="M17.1961 14.4346L15.1177 17.6189L19.5647 18.8424L20.8432 14.5052L17.1961 14.4346Z" fill="#E4761B" stroke="#E4761B" stroke-linecap="round" stroke-linejoin="round"/>
<path d="M1.16473 14.5052L2.43532 18.8424L6.88238 17.6189L4.80395 14.4346L1.16473 14.5052Z" fill="#E4761B" stroke="#E4761B" stroke-linecap="round" stroke-linejoin="round"/>
<path d="M6.63143 9.05439L5.39221 10.9289L9.8079 11.125L9.65104 6.37988L6.63143 9.05439Z" fill="#E4761B" stroke="#E4761B" stroke-linecap="round" stroke-linejoin="round"/>
<path d="M15.3608 9.05461L12.302 6.3252L12.2 11.1252L16.6079 10.9291L15.3608 9.05461Z" fill="#E4761B" stroke="#E4761B" stroke-linecap="round" stroke-linejoin="round"/>
<path d="M6.88239 17.6204L9.53336 16.3263L7.24317 14.5381L6.88239 17.6204Z" fill="#E4761B" stroke="#E4761B" stroke-linecap="round" stroke-linejoin="round"/>
<path d="M12.4589 16.3263L15.1177 17.6204L14.7491 14.5381L12.4589 16.3263Z" fill="#E4761B" stroke="#E4761B" stroke-linecap="round" stroke-linejoin="round"/>
<path d="M15.1176 17.6203L12.4588 16.3262L12.6706 18.0595L12.647 18.7889L15.1176 17.6203Z" fill="#D7C1B3" stroke="#D7C1B3" stroke-linecap="round" stroke-linejoin="round"/>
<path d="M6.88232 17.6203L9.35291 18.7889L9.33723 18.0595L9.5333 16.3262L6.88232 17.6203Z" fill="#D7C1B3" stroke="#D7C1B3" stroke-linecap="round" stroke-linejoin="round"/>
<path d="M9.39219 13.3911L7.18042 12.7401L8.7412 12.0264L9.39219 13.3911Z" fill="#233447" stroke="#233447" stroke-linecap="round" stroke-linejoin="round"/>
<path d="M12.6 13.3911L13.251 12.0264L14.8196 12.7401L12.6 13.3911Z" fill="#233447" stroke="#233447" stroke-linecap="round" stroke-linejoin="round"/>
<path d="M6.88232 17.6199L7.25879 14.4355L4.80389 14.5061L6.88232 17.6199Z" fill="#CD6116" stroke="#CD6116" stroke-linecap="round" stroke-linejoin="round"/>
<path d="M14.7411 14.4355L15.1176 17.6199L17.1961 14.5061L14.7411 14.4355Z" fill="#CD6116" stroke="#CD6116" stroke-linecap="round" stroke-linejoin="round"/>
<path d="M16.6078 10.9297L12.2 11.1258L12.6078 13.3924L13.2588 12.0277L14.8274 12.7415L16.6078 10.9297Z" fill="#CD6116" stroke="#CD6116" stroke-linecap="round" stroke-linejoin="round"/>
<path d="M7.18032 12.7415L8.74895 12.0277L9.39209 13.3924L9.80778 11.1258L5.39209 10.9297L7.18032 12.7415Z" fill="#CD6116" stroke="#CD6116" stroke-linecap="round" stroke-linejoin="round"/>
<path d="M5.39215 10.9297L7.24313 14.5375L7.18039 12.7415L5.39215 10.9297Z" fill="#E4751F" stroke="#E4751F" stroke-linecap="round" stroke-linejoin="round"/>
<path d="M14.8274 12.7415L14.749 14.5375L16.6078 10.9297L14.8274 12.7415Z" fill="#E4751F" stroke="#E4751F" stroke-linecap="round" stroke-linejoin="round"/>
<path d="M9.80778 11.126L9.39209 13.3926L9.90974 16.0672L10.0274 12.5456L9.80778 11.126Z" fill="#E4751F" stroke="#E4751F" stroke-linecap="round" stroke-linejoin="round"/>
<path d="M12.2 11.126L11.9882 12.5377L12.0823 16.0672L12.6078 13.3926L12.2 11.126Z" fill="#E4751F" stroke="#E4751F" stroke-linecap="round" stroke-linejoin="round"/>
<path d="M12.6079 13.3922L12.0824 16.0667L12.4589 16.3255L14.7491 14.5373L14.8275 12.7412L12.6079 13.3922Z" fill="#F6851B" stroke="#F6851B" stroke-linecap="round" stroke-linejoin="round"/>
<path d="M7.18042 12.7412L7.24317 14.5373L9.53336 16.3255L9.90983 16.0667L9.39218 13.3922L7.18042 12.7412Z" fill="#F6851B" stroke="#F6851B" stroke-linecap="round" stroke-linejoin="round"/>
<path d="M12.647 18.7887L12.6706 18.0593L12.4745 17.8868H9.51762L9.33723 18.0593L9.35291 18.7887L6.88232 17.6201L7.74507 18.326L9.49409 19.5417H12.498L14.2549 18.326L15.1176 17.6201L12.647 18.7887Z" fill="#C0AD9E" stroke="#C0AD9E" stroke-linecap="round" stroke-linejoin="round"/>
<path d="M12.4588 16.3262L12.0824 16.0674H9.90983L9.53336 16.3262L9.33728 18.0595L9.51767 17.887H12.4745L12.6706 18.0595L12.4588 16.3262Z" fill="#161616" stroke="#161616" stroke-linecap="round" stroke-linejoin="round"/>
<path d="M20.3333 7.17255L21 3.97255L20.0039 1L12.4588 6.6L15.3608 9.0549L19.4627 10.2549L20.3725 9.19608L19.9804 8.91373L20.6078 8.34118L20.1215 7.96471L20.749 7.48628L20.3333 7.17255Z" fill="#763D16" stroke="#763D16" stroke-linecap="round" stroke-linejoin="round"/>
<path d="M1 3.97255L1.66667 7.17255L1.24314 7.48628L1.87059 7.96471L1.39216 8.34118L2.01961 8.91373L1.62745 9.19608L2.52941 10.2549L6.63137 9.0549L9.53333 6.6L1.98824 1L1 3.97255Z" fill="#763D16" stroke="#763D16" stroke-linecap="round" stroke-linejoin="round"/>
<path d="M19.4628 10.2557L15.3608 9.05566L16.6078 10.9302L14.749 14.538L17.1961 14.5066H20.8431L19.4628 10.2557Z" fill="#F6851B" stroke="#F6851B" stroke-linecap="round" stroke-linejoin="round"/>
<path d="M6.63134 9.05566L2.52938 10.2557L1.16467 14.5066H4.80389L7.2431 14.538L5.39212 10.9302L6.63134 9.05566Z" fill="#F6851B" stroke="#F6851B" stroke-linecap="round" stroke-linejoin="round"/>
<path d="M12.1999 11.125L12.4588 6.59951L13.6509 3.37598H8.35681L9.53328 6.59951L9.80779 11.125L9.90191 12.5524L9.90975 16.0662H12.0823L12.098 12.5524L12.1999 11.125Z" fill="#F6851B" stroke="#F6851B" stroke-linecap="round" stroke-linejoin="round"/>
</svg>
