<svg width="100" height="100" viewBox="0 0 100 100" fill="none" xmlns="http://www.w3.org/2000/svg">
<g clip-path="url(#clip0_2486_8380)">
<path d="M33.3338 12.5977C24.1299 12.5977 16.6674 20.0602 16.6674 29.2641C16.6674 38.467 24.1299 45.9295 33.3338 45.9295C42.5377 45.9295 50.0002 38.4689 50.0002 29.2641C50.0002 20.0583 42.5377 12.5977 33.3338 12.5977Z" fill="#0080FF"/>
<path d="M50.0002 54.2637H16.6664C7.4625 54.2637 0 61.7271 0 70.931V87.5975H66.6666V80.5746C56.8323 75.8825 50.0002 65.8689 50.0002 54.2637Z" fill="#0080FF"/>
<path d="M79.1664 33.4316C67.6603 33.4316 58.3334 42.7576 58.3334 54.2647C58.3334 65.7717 67.6603 75.0977 79.1664 75.0977C90.6735 75.0977 100 65.7717 100 54.2637C100 42.7567 90.6735 33.4316 79.1664 33.4316ZM90.2186 60.8927L85.8002 65.3111L79.1664 58.6821L72.5422 65.3111L68.1152 60.8927L74.7471 54.2637L68.1152 47.6366L72.5422 43.2173L79.1664 49.8463L85.8002 43.2173L90.2186 47.6366L83.5848 54.2637L90.2186 60.8927Z" fill="#FF2700"/>
</g>
<defs>
<clipPath id="clip0_2486_8380">
<rect width="100" height="100" fill="white"/>
</clipPath>
</defs>
</svg>
