<svg width="93" height="110" viewBox="0 0 93 110" fill="none" xmlns="http://www.w3.org/2000/svg">
<path d="M24.1694 51.6514C24.1694 64.6599 34.7149 75.2053 47.7233 75.2053C60.7318 75.2053 71.2772 64.6599 71.2772 51.6514C71.2772 38.643 60.7318 28.0975 47.7233 28.0975C34.7212 28.1121 24.184 38.6493 24.1694 51.6514ZM47.7233 53.1398C43.8147 53.1617 40.5027 50.2669 40.0026 46.3901C39.5025 42.5143 41.971 38.8725 45.7576 37.9024V35.9112C45.7576 35.0094 46.4882 34.2789 47.39 34.2789C48.2917 34.2789 49.0223 35.0094 49.0223 35.9112V37.8031C52.726 38.4298 55.4295 41.6498 55.4058 45.4073C55.4058 46.2981 54.6835 47.0205 53.7926 47.0205C52.9018 47.0205 52.1794 46.2981 52.1794 45.4073C52.1767 42.9415 50.1764 40.9448 47.7106 40.9475C45.2448 40.9503 43.2481 42.9515 43.2518 45.4173C43.2545 47.8822 45.2557 49.8788 47.7215 49.8752C51.7194 49.898 55.0396 52.9659 55.3776 56.9501C55.7155 60.9335 52.9592 64.5169 49.0223 65.2128V67.1585C49.0223 68.0603 48.2917 68.7908 47.39 68.7908C46.4882 68.7908 45.7576 68.0603 45.7576 67.1585V65.1126C42.3463 64.2118 39.9625 61.1366 39.9397 57.6087C39.9397 56.6969 40.6794 55.9572 41.5912 55.9572C42.503 55.9572 43.2426 56.6969 43.2426 57.6087C43.2481 59.8887 44.9661 61.8006 47.2324 62.0493C47.3162 62.0356 47.4018 62.0293 47.4874 62.0283C47.6104 62.0283 47.7324 62.0429 47.8527 62.0702C50.3012 62.0101 52.2441 59.9898 52.2086 57.5413C52.1731 55.0919 50.1718 53.1289 47.7233 53.1398Z" fill="#FFC600"/>
<path d="M85.5246 86.4356C85.5127 86.4419 85.5 86.4483 85.4863 86.4547L70.3336 93.6134C69.7753 93.8929 69.5 93.9999 68 94.4999C66.5 94.9999 65.93 95.4999 65.0465 95.4999C65.031 95.4999 65.0155 95.4999 65 95.4999L46.6914 97.1377C45.7896 97.1131 45.0791 96.3625 45.1037 95.4607C45.1283 94.5589 45.8798 93.8484 46.7806 93.873L67.1655 94.4341C66.4896 90.4836 63.1212 87.5578 59.115 87.4412L45.6247 87.0705C42.9603 86.994 40.3479 86.319 37.9805 85.0956L36.6078 84.3851C29.8662 80.8727 21.7429 81.33 15.4386 85.5775L14.8984 105.203L17.2167 103.961C19.5203 102.722 22.2156 102.427 24.7334 103.139L47.6278 109.565C52.0401 110.469 56.6256 109.957 60.7301 108.1L92.4483 87.5833C90.6384 85.7305 87.8355 85.2651 85.5246 86.4356Z" fill="#00AA00"/>
<path d="M0 108.611L0.804319 79.4125L12.3344 79.7304L11.5301 108.929L0 108.611Z" fill="#00AA00"/>
<path d="M49.2549 19.3547V1.63232C49.2549 0.730537 48.5243 0 47.6226 0C46.7208 0 45.9902 0.730537 45.9902 1.63232V19.3547C45.9902 20.2565 46.7208 20.987 47.6226 20.987C48.5243 20.987 49.2549 20.2565 49.2549 19.3547Z" fill="#00AA00"/>
<path d="M63.2466 21.3543V12.9595C63.2466 12.0577 62.516 11.3271 61.6143 11.3271C60.7125 11.3271 59.9819 12.0577 59.9819 12.9595V21.3543C59.9819 22.2561 60.7125 22.9866 61.6143 22.9866C62.516 22.9866 63.2466 22.2561 63.2466 21.3543Z" fill="#00AA00"/>
<path d="M35.2637 21.3543V12.9595C35.2637 12.0577 34.5331 11.3271 33.6313 11.3271C32.7296 11.3271 31.999 12.0577 31.999 12.9595V21.3543C31.999 22.2561 32.7296 22.9866 33.6313 22.9866C34.5331 22.9866 35.2637 22.2561 35.2637 21.3543Z" fill="#00AA00"/>
</svg>
