<svg width="72" height="26" viewBox="0 0 72 26" fill="none" xmlns="http://www.w3.org/2000/svg">
<path d="M22.974 18.14C22.2833 18.14 21.644 18.014 21.056 17.762C20.4773 17.51 19.9687 17.16 19.53 16.712C19.1007 16.2547 18.7647 15.7227 18.522 15.116C18.2887 14.5 18.172 13.828 18.172 13.1C18.172 12.372 18.2887 11.7047 18.522 11.098C18.7647 10.482 19.1007 9.95 19.53 9.502C19.9687 9.04467 20.4773 8.69 21.056 8.438C21.644 8.186 22.2833 8.06 22.974 8.06C23.6647 8.06 24.2993 8.186 24.878 8.438C25.466 8.69 25.9747 9.04467 26.404 9.502C26.8427 9.95933 27.1787 10.496 27.412 11.112C27.6547 11.7187 27.776 12.3813 27.776 13.1C27.776 13.8187 27.6547 14.486 27.412 15.102C27.1787 15.7087 26.8427 16.2407 26.404 16.698C25.9747 17.1553 25.466 17.51 24.878 17.762C24.2993 18.014 23.6647 18.14 22.974 18.14ZM22.974 16.67C23.45 16.67 23.884 16.5813 24.276 16.404C24.6773 16.2267 25.0227 15.9793 25.312 15.662C25.6013 15.3353 25.8253 14.9573 25.984 14.528C26.152 14.0893 26.236 13.6133 26.236 13.1C26.236 12.5867 26.152 12.1153 25.984 11.686C25.8253 11.2473 25.6013 10.8693 25.312 10.552C25.0227 10.2253 24.6773 9.97333 24.276 9.796C23.884 9.61867 23.45 9.53 22.974 9.53C22.498 9.53 22.0593 9.61867 21.658 9.796C21.266 9.97333 20.9207 10.2207 20.622 10.538C20.3327 10.8553 20.1087 11.2333 19.95 11.672C19.7913 12.1013 19.712 12.5773 19.712 13.1C19.712 13.6133 19.7913 14.0893 19.95 14.528C20.1087 14.9667 20.3327 15.3447 20.622 15.662C20.9207 15.9793 21.266 16.2267 21.658 16.404C22.0593 16.5813 22.498 16.67 22.974 16.67ZM29.4592 21.08V10.65H30.9152V12.33L30.6912 12.204C30.7472 11.924 30.9058 11.658 31.1672 11.406C31.4285 11.1447 31.7458 10.9347 32.1192 10.776C32.5018 10.608 32.8938 10.524 33.2952 10.524C33.9578 10.524 34.5458 10.6873 35.0592 11.014C35.5725 11.3407 35.9785 11.7887 36.2772 12.358C36.5758 12.9273 36.7252 13.5807 36.7252 14.318C36.7252 15.046 36.5758 15.6993 36.2772 16.278C35.9878 16.8473 35.5865 17.3 35.0732 17.636C34.5598 17.9627 33.9812 18.126 33.3372 18.126C32.9078 18.126 32.4925 18.042 32.0912 17.874C31.6898 17.6967 31.3492 17.4727 31.0692 17.202C30.7892 16.9313 30.6165 16.6513 30.5512 16.362L30.9152 16.166V21.08H29.4592ZM33.0992 16.796C33.5285 16.796 33.9112 16.6887 34.2472 16.474C34.5832 16.2593 34.8492 15.9653 35.0452 15.592C35.2412 15.2187 35.3392 14.794 35.3392 14.318C35.3392 13.842 35.2412 13.422 35.0452 13.058C34.8585 12.6847 34.5972 12.3907 34.2612 12.176C33.9252 11.9613 33.5378 11.854 33.0992 11.854C32.6605 11.854 32.2732 11.9613 31.9372 12.176C31.6012 12.3813 31.3352 12.6707 31.1392 13.044C30.9432 13.4173 30.8452 13.842 30.8452 14.318C30.8452 14.794 30.9432 15.2187 31.1392 15.592C31.3352 15.9653 31.6012 16.2593 31.9372 16.474C32.2732 16.6887 32.6605 16.796 33.0992 16.796ZM41.7212 18.14C40.9652 18.14 40.2932 17.9813 39.7052 17.664C39.1265 17.3373 38.6692 16.894 38.3332 16.334C38.0065 15.774 37.8432 15.13 37.8432 14.402C37.8432 13.8233 37.9365 13.296 38.1232 12.82C38.3099 12.344 38.5665 11.9333 38.8932 11.588C39.2292 11.2333 39.6259 10.9627 40.0832 10.776C40.5499 10.58 41.0539 10.482 41.5952 10.482C42.0712 10.482 42.5145 10.5753 42.9252 10.762C43.3359 10.9393 43.6905 11.1867 43.9892 11.504C44.2972 11.8213 44.5305 12.1993 44.6892 12.638C44.8572 13.0673 44.9365 13.5387 44.9272 14.052L44.9132 14.668H38.9072L38.5852 13.52H43.6672L43.4572 13.758V13.422C43.4292 13.114 43.3265 12.8387 43.1492 12.596C42.9719 12.3533 42.7479 12.162 42.4772 12.022C42.2065 11.882 41.9125 11.812 41.5952 11.812C41.0912 11.812 40.6665 11.91 40.3212 12.106C39.9759 12.2927 39.7145 12.5727 39.5372 12.946C39.3599 13.31 39.2712 13.7627 39.2712 14.304C39.2712 14.8173 39.3785 15.2653 39.5932 15.648C39.8079 16.0213 40.1112 16.3107 40.5032 16.516C40.8952 16.7213 41.3479 16.824 41.8612 16.824C42.2252 16.824 42.5612 16.7633 42.8692 16.642C43.1865 16.5207 43.5272 16.3013 43.8912 15.984L44.6192 17.006C44.3952 17.23 44.1199 17.426 43.7932 17.594C43.4759 17.762 43.1352 17.8973 42.7712 18C42.4165 18.0933 42.0665 18.14 41.7212 18.14ZM46.4943 18V10.65H47.9363V12.162L47.6843 12.33C47.7777 12.0033 47.9597 11.7047 48.2303 11.434C48.501 11.154 48.823 10.93 49.1963 10.762C49.5697 10.5847 49.9523 10.496 50.3443 10.496C50.9043 10.496 51.371 10.608 51.7443 10.832C52.1177 11.0467 52.3977 11.378 52.5843 11.826C52.771 12.274 52.8643 12.8387 52.8643 13.52V18H51.4223V13.618C51.4223 13.198 51.3663 12.8527 51.2543 12.582C51.1423 12.302 50.9697 12.1013 50.7363 11.98C50.503 11.8493 50.2137 11.7933 49.8683 11.812C49.5883 11.812 49.3317 11.8587 49.0983 11.952C48.865 12.036 48.6597 12.1573 48.4823 12.316C48.3143 12.4747 48.179 12.6613 48.0763 12.876C47.983 13.0813 47.9363 13.3053 47.9363 13.548V18H47.2223C47.101 18 46.9797 18 46.8583 18C46.737 18 46.6157 18 46.4943 18Z" fill="#00AA00"/>
<rect x="0.5" y="0.5" width="71" height="25" stroke="#00AA00"/>
</svg>
