<svg width="336" height="26" viewBox="0 0 336 26" fill="none" xmlns="http://www.w3.org/2000/svg">
<path d="M160.936 19.16C160.146 19.16 159.416 19.016 158.744 18.728C158.082 18.44 157.501 18.04 157 17.528C156.509 17.0053 156.125 16.3973 155.848 15.704C155.581 15 155.448 14.232 155.448 13.4C155.448 12.568 155.581 11.8053 155.848 11.112C156.125 10.408 156.509 9.8 157 9.288C157.501 8.76533 158.082 8.36 158.744 8.072C159.416 7.784 160.146 7.64 160.936 7.64C161.725 7.64 162.45 7.784 163.112 8.072C163.784 8.36 164.365 8.76533 164.856 9.288C165.357 9.81067 165.741 10.424 166.008 11.128C166.285 11.8213 166.424 12.5787 166.424 13.4C166.424 14.2213 166.285 14.984 166.008 15.688C165.741 16.3813 165.357 16.9893 164.856 17.512C164.365 18.0347 163.784 18.44 163.112 18.728C162.45 19.016 161.725 19.16 160.936 19.16ZM160.936 17.48C161.48 17.48 161.976 17.3787 162.424 17.176C162.882 16.9733 163.277 16.6907 163.608 16.328C163.938 15.9547 164.194 15.5227 164.376 15.032C164.568 14.5307 164.664 13.9867 164.664 13.4C164.664 12.8133 164.568 12.2747 164.376 11.784C164.194 11.2827 163.938 10.8507 163.608 10.488C163.277 10.1147 162.882 9.82667 162.424 9.624C161.976 9.42133 161.48 9.32 160.936 9.32C160.392 9.32 159.89 9.42133 159.432 9.624C158.984 9.82667 158.589 10.1093 158.248 10.472C157.917 10.8347 157.661 11.2667 157.48 11.768C157.298 12.2587 157.208 12.8027 157.208 13.4C157.208 13.9867 157.298 14.5307 157.48 15.032C157.661 15.5333 157.917 15.9653 158.248 16.328C158.589 16.6907 158.984 16.9733 159.432 17.176C159.89 17.3787 160.392 17.48 160.936 17.48ZM168.763 19V7.8H173.531C174.171 7.8 174.758 7.96 175.291 8.28C175.835 8.58933 176.267 9.016 176.587 9.56C176.907 10.0933 177.067 10.696 177.067 11.368C177.067 11.976 176.907 12.5413 176.587 13.064C176.267 13.5867 175.841 14.008 175.307 14.328C174.774 14.6373 174.182 14.792 173.531 14.792H170.491V19H168.763ZM175.419 19L172.571 13.944L174.347 13.544L177.515 19.016L175.419 19ZM170.491 13.128H173.691C174.001 13.128 174.278 13.0533 174.523 12.904C174.769 12.744 174.961 12.5307 175.099 12.264C175.238 11.9867 175.307 11.6827 175.307 11.352C175.307 10.9787 175.217 10.6533 175.035 10.376C174.865 10.088 174.619 9.864 174.299 9.704C173.99 9.544 173.638 9.464 173.243 9.464H170.491V13.128Z" fill="#89909A"/>
<line x1="196" y1="12.5" x2="336" y2="12.5" stroke="#CED3D9"/>
<line y1="12.5" x2="140" y2="12.5" stroke="#CED3D9"/>
</svg>
