<svg width="26" height="55" viewBox="0 0 26 55" fill="none" xmlns="http://www.w3.org/2000/svg">
<line x1="13.5" y1="2.18557e-08" x2="13.5" y2="55" stroke="#CED3D9"/>
<circle cx="13" cy="28" r="13" fill="#CED3D9"/>
<path d="M9.323 32.11C8.58967 32.11 7.937 31.9413 7.365 31.604C6.80033 31.2667 6.35667 30.8047 6.034 30.218C5.71133 29.624 5.55 28.9457 5.55 28.183C5.55 27.4203 5.71133 26.742 6.034 26.148C6.35667 25.554 6.80033 25.0883 7.365 24.751C7.937 24.4137 8.58967 24.245 9.323 24.245C10.0563 24.245 10.7053 24.4137 11.27 24.751C11.842 25.0883 12.2893 25.554 12.612 26.148C12.942 26.742 13.107 27.4203 13.107 28.183C13.107 28.9457 12.942 29.624 12.612 30.218C12.2893 30.8047 11.842 31.2667 11.27 31.604C10.7053 31.9413 10.0563 32.11 9.323 32.11ZM9.323 31.56C9.94633 31.56 10.4963 31.417 10.973 31.131C11.457 30.8377 11.8347 30.438 12.106 29.932C12.3847 29.4187 12.524 28.8357 12.524 28.183C12.524 27.5303 12.3847 26.951 12.106 26.445C11.8347 25.9317 11.457 25.5283 10.973 25.235C10.4963 24.9417 9.94633 24.795 9.323 24.795C8.69967 24.795 8.146 24.9417 7.662 25.235C7.18533 25.5283 6.81133 25.9317 6.54 26.445C6.26867 26.951 6.133 27.5303 6.133 28.183C6.133 28.8357 6.26867 29.4187 6.54 29.932C6.81133 30.438 7.18533 30.8377 7.662 31.131C8.146 31.417 8.69967 31.56 9.323 31.56ZM14.8462 32V24.3H17.6182C18.0729 24.3 18.4762 24.4027 18.8282 24.608C19.1875 24.8133 19.4699 25.092 19.6752 25.444C19.8805 25.7887 19.9832 26.181 19.9832 26.621C19.9832 27.1637 19.8365 27.622 19.5432 27.996C19.2499 28.37 18.8649 28.6193 18.3882 28.744L20.2802 32H19.6422L17.8052 28.832C17.7832 28.832 17.7575 28.832 17.7282 28.832H15.3962V32H14.8462ZM15.3962 28.282H17.7942C18.2635 28.282 18.6485 28.128 18.9492 27.82C19.2499 27.512 19.4002 27.1197 19.4002 26.643C19.4002 26.2983 19.3232 25.9903 19.1692 25.719C19.0152 25.4477 18.7989 25.235 18.5202 25.081C18.2489 24.927 17.9372 24.85 17.5852 24.85H15.3962V28.282Z" fill="#0A0A0A"/>
</svg>
