<svg width="22" height="16" viewBox="0 0 22 16" fill="none" xmlns="http://www.w3.org/2000/svg">
<path d="M1.99951 16C1.44951 16 0.978845 15.8043 0.587512 15.413C0.195512 15.021 -0.000488281 14.55 -0.000488281 14V3H1.99951V14H18.9995V16H1.99951ZM5.99951 12C5.44951 12 4.97884 11.804 4.58751 11.412C4.19551 11.0207 3.99951 10.55 3.99951 10V2C3.99951 1.45 4.19551 0.979333 4.58751 0.588C4.97884 0.196 5.44951 0 5.99951 0H19.9995C20.5495 0 21.0205 0.196 21.4125 0.588C21.8038 0.979333 21.9995 1.45 21.9995 2V10C21.9995 10.55 21.8038 11.0207 21.4125 11.412C21.0205 11.804 20.5495 12 19.9995 12H5.99951ZM5.99951 10H7.99951C7.99951 9.45 7.80351 8.979 7.41151 8.587C7.02018 8.19567 6.54951 8 5.99951 8V10ZM17.9995 10H19.9995V8C19.4495 8 18.9785 8.19567 18.5865 8.587C18.1952 8.979 17.9995 9.45 17.9995 10ZM12.9995 9C13.8328 9 14.5412 8.70833 15.1245 8.125C15.7078 7.54167 15.9995 6.83333 15.9995 6C15.9995 5.16667 15.7078 4.45833 15.1245 3.875C14.5412 3.29167 13.8328 3 12.9995 3C12.1662 3 11.4578 3.29167 10.8745 3.875C10.2912 4.45833 9.99951 5.16667 9.99951 6C9.99951 6.83333 10.2912 7.54167 10.8745 8.125C11.4578 8.70833 12.1662 9 12.9995 9ZM5.99951 4C6.54951 4 7.02018 3.804 7.41151 3.412C7.80351 3.02067 7.99951 2.55 7.99951 2H5.99951V4ZM19.9995 4V2H17.9995C17.9995 2.55 18.1952 3.02067 18.5865 3.412C18.9785 3.804 19.4495 4 19.9995 4Z" fill="#89909A"/>
</svg>
