<svg width="22" height="16" viewBox="0 0 22 16" fill="none" xmlns="http://www.w3.org/2000/svg">
<path d="M13 9C12.1667 9 11.4583 8.70833 10.875 8.125C10.2917 7.54167 10 6.83333 10 6C10 5.16667 10.2917 4.45833 10.875 3.875C11.4583 3.29167 12.1667 3 13 3C13.8333 3 14.5417 3.29167 15.125 3.875C15.7083 4.45833 16 5.16667 16 6C16 6.83333 15.7083 7.54167 15.125 8.125C14.5417 8.70833 13.8333 9 13 9ZM6 12C5.45 12 4.97933 11.804 4.588 11.412C4.196 11.0207 4 10.55 4 10V2C4 1.45 4.196 0.979333 4.588 0.588C4.97933 0.196 5.45 0 6 0H20C20.55 0 21.021 0.196 21.413 0.588C21.8043 0.979333 22 1.45 22 2V10C22 10.55 21.8043 11.0207 21.413 11.412C21.021 11.804 20.55 12 20 12H6ZM8 10H18C18 9.45 18.1957 8.979 18.587 8.587C18.979 8.19567 19.45 8 20 8V4C19.45 4 18.979 3.804 18.587 3.412C18.1957 3.02067 18 2.55 18 2H8C8 2.55 7.804 3.02067 7.412 3.412C7.02067 3.804 6.55 4 6 4V8C6.55 8 7.02067 8.19567 7.412 8.587C7.804 8.979 8 9.45 8 10ZM19 16H2C1.45 16 0.979333 15.8043 0.588 15.413C0.196 15.021 0 14.55 0 14V3H2V14H19V16Z" fill="#89909A"/>
</svg>
