<svg width="24" height="23" viewBox="0 0 24 23" fill="none" xmlns="http://www.w3.org/2000/svg">
<rect width="22.9491" height="22.9491" fill="#00AA00"/>
<path fill-rule="evenodd" clip-rule="evenodd" d="M2.911 10.3314C2.74892 10.3314 2.61754 10.4628 2.61754 10.6249C2.61754 10.7869 2.74892 10.9183 2.911 10.9183C3.07307 10.9183 3.20446 10.7869 3.20446 10.6249C3.20446 10.4628 3.07307 10.3314 2.911 10.3314ZM2.911 9.96458C2.54633 9.96458 2.25071 10.2602 2.25071 10.6249C2.25071 10.9895 2.54633 11.2852 2.911 11.2852C3.27567 11.2852 3.57129 10.9895 3.57129 10.6249C3.57129 10.2602 3.27567 9.96458 2.911 9.96458Z" fill="white"/>
<path fill-rule="evenodd" clip-rule="evenodd" d="M4.7716 9.25883C4.63739 8.93483 4.45549 8.63343 4.23244 8.36441L4.50847 8.08838C4.76696 8.39429 4.97707 8.73881 5.13083 9.11003C5.32624 9.58179 5.42682 10.0874 5.42682 10.598C5.42682 11.1087 5.32624 11.6143 5.13083 12.0861C4.97221 12.469 4.75361 12.8236 4.4838 13.1366L4.20801 12.8608C4.44224 12.5845 4.63252 12.273 4.77159 11.9373C4.94746 11.5127 5.03798 11.0576 5.03798 10.598C5.03798 10.1385 4.94746 9.68341 4.7716 9.25883Z" fill="white"/>
<path fill-rule="evenodd" clip-rule="evenodd" d="M6.47371 8.52956C6.24913 7.98738 5.93946 7.48551 5.55713 7.04257L5.85019 6.74951C6.27046 7.23138 6.61029 7.77899 6.85565 8.37135C7.15246 9.08789 7.30522 9.85588 7.30522 10.6315C7.30522 11.407 7.15245 12.175 6.85565 12.8916C6.61138 13.4813 6.27346 14.0267 5.85577 14.507L5.56268 14.2139C5.94245 13.7725 6.25022 13.2729 6.47371 12.7333C6.74973 12.067 6.8918 11.3527 6.8918 10.6315C6.8918 9.91017 6.74973 9.19594 6.47371 8.52956Z" fill="white"/>
<path fill-rule="evenodd" clip-rule="evenodd" d="M12.0895 13.5426C12.2516 13.5426 12.383 13.4112 12.383 13.2492C12.383 13.0871 12.2516 12.9557 12.0895 12.9557C11.9274 12.9557 11.796 13.0871 11.796 13.2492C11.796 13.4112 11.9274 13.5426 12.0895 13.5426ZM12.0895 13.9094C12.4542 13.9094 12.7498 13.6138 12.7498 13.2492C12.7498 12.8845 12.4542 12.5889 12.0895 12.5889C11.7248 12.5889 11.4292 12.8845 11.4292 13.2492C11.4292 13.6138 11.7248 13.9094 12.0895 13.9094Z" fill="white"/>
<path fill-rule="evenodd" clip-rule="evenodd" d="M10.2281 14.623C10.3621 14.9464 10.5436 15.2473 10.7661 15.516L10.49 15.792C10.2321 15.4865 10.0224 15.1424 9.8689 14.7718C9.67349 14.3001 9.57292 13.7944 9.57292 13.2838C9.57292 12.7732 9.67349 12.2675 9.8689 11.7958C10.0277 11.4125 10.2465 11.0576 10.5167 10.7444L10.7925 11.0201C10.5579 11.2967 10.3674 11.6085 10.2281 11.9446C10.0523 12.3692 9.96176 12.8242 9.96176 13.2838C9.96176 13.7434 10.0523 14.1984 10.2281 14.623Z" fill="white"/>
<path fill-rule="evenodd" clip-rule="evenodd" d="M8.52617 15.3477C8.75087 15.8901 9.06075 16.3922 9.44336 16.8354L9.1503 17.1284C8.72975 16.6464 8.38971 16.0985 8.14422 15.5059C7.84742 14.7893 7.69466 14.0213 7.69466 13.2458C7.69466 12.4702 7.84742 11.7022 8.14422 10.9857C8.38843 10.3961 8.72622 9.85085 9.14376 9.37064L9.43685 9.66374C9.05723 10.105 8.74959 10.6045 8.52617 11.1439C8.25014 11.8103 8.10808 12.5245 8.10808 13.2458C8.10808 13.9671 8.25014 14.6813 8.52617 15.3477Z" fill="white"/>
<rect x="16" y="6.25" width="7" height="10.75" fill="#00AA00" stroke="white" stroke-width="2"/>
<rect x="18.8242" y="10.2012" width="2.5499" height="2.5499" fill="white"/>
</svg>
