<svg width="20" height="20" viewBox="0 0 20 20" fill="none" xmlns="http://www.w3.org/2000/svg">
<rect width="20" height="20" fill="#00AA00"/>
<path fill-rule="evenodd" clip-rule="evenodd" d="M3.88084 8.13995C3.66474 8.13995 3.48956 8.31513 3.48956 8.53123C3.48956 8.74733 3.66474 8.92252 3.88084 8.92252C4.09694 8.92252 4.27213 8.74733 4.27213 8.53123C4.27213 8.31513 4.09694 8.13995 3.88084 8.13995ZM3.88084 7.65085C3.39462 7.65085 3.00046 8.04501 3.00046 8.53123C3.00046 9.01746 3.39462 9.41162 3.88084 9.41162C4.36707 9.41162 4.76123 9.01746 4.76123 8.53123C4.76123 8.04501 4.36707 7.65085 3.88084 7.65085Z" fill="white"/>
<path fill-rule="evenodd" clip-rule="evenodd" d="M6.36233 6.70511C6.18381 6.27411 5.94199 5.8731 5.64552 5.51503L6.01358 5.14697C6.35728 5.55424 6.63671 6.01275 6.84132 6.5067C7.10186 7.13572 7.23596 7.80989 7.23596 8.49073C7.23596 9.17156 7.10186 9.84574 6.84132 10.4747C6.62971 10.9856 6.33807 11.4586 5.97807 11.8761L5.61035 11.5084C5.9229 11.1398 6.1768 10.7243 6.36233 10.2763C6.59682 9.71023 6.71751 9.10348 6.71751 8.49073C6.71751 7.87797 6.59682 7.27122 6.36233 6.70511Z" fill="white"/>
<path fill-rule="evenodd" clip-rule="evenodd" d="M8.63137 5.73621C8.33201 5.0135 7.91925 4.3445 7.40967 3.75403L7.80042 3.36328C8.36059 4.00565 8.81355 4.73564 9.14063 5.52527C9.53636 6.48065 9.74004 7.50463 9.74004 8.53873C9.74004 9.57284 9.53636 10.5968 9.14063 11.5522C8.81502 12.3383 8.36466 13.0652 7.80797 13.7055L7.41718 13.3147C7.92331 12.7264 8.33348 12.0604 8.63137 11.3413C8.9994 10.4527 9.18882 9.50045 9.18882 8.53873C9.18882 7.57702 8.9994 6.62472 8.63137 5.73621Z" fill="white"/>
<path fill-rule="evenodd" clip-rule="evenodd" d="M16.1192 12.4172C16.3353 12.4172 16.5104 12.242 16.5104 12.0259C16.5104 11.8098 16.3353 11.6346 16.1192 11.6346C15.9031 11.6346 15.7279 11.8098 15.7279 12.0259C15.7279 12.242 15.9031 12.4172 16.1192 12.4172ZM16.1192 12.9063C16.6054 12.9063 16.9995 12.5121 16.9995 12.0259C16.9995 11.5397 16.6054 11.1455 16.1192 11.1455C15.6329 11.1455 15.2388 11.5397 15.2388 12.0259C15.2388 12.5121 15.6329 12.9063 16.1192 12.9063Z" fill="white"/>
<path fill-rule="evenodd" clip-rule="evenodd" d="M13.6374 13.8527C13.8158 14.2834 14.0574 14.6842 14.3536 15.0421L13.9856 15.4102C13.6421 15.0031 13.3629 14.5448 13.1584 14.0511C12.8979 13.4221 12.7638 12.7479 12.7638 12.0671C12.7638 11.3863 12.8979 10.7121 13.1584 10.0831C13.37 9.57232 13.6615 9.09946 14.0214 8.68197L14.3892 9.04969C14.0767 9.41822 13.8229 9.83367 13.6374 10.2815C13.4029 10.8476 13.2822 11.4543 13.2822 12.0671C13.2822 12.6799 13.4029 13.2866 13.6374 13.8527Z" fill="white"/>
<path fill-rule="evenodd" clip-rule="evenodd" d="M11.3683 14.82C11.6678 15.5431 12.0809 16.2124 12.5908 16.8031L12.2001 17.1938C11.6395 16.5513 11.1863 15.8209 10.8591 15.031C10.4633 14.0756 10.2597 13.0516 10.2597 12.0175C10.2597 10.9834 10.4633 9.9594 10.8591 9.00402C11.1846 8.21818 11.6348 7.4914 12.1912 6.85128L12.582 7.24207C12.0761 7.83027 11.6661 8.49603 11.3683 9.21496C11.0003 10.1035 10.8109 11.0558 10.8109 12.0175C10.8109 12.9792 11.0003 13.9315 11.3683 14.82Z" fill="white"/>
</svg>
