<svg width="60" height="15" viewBox="0 0 60 15" fill="none" xmlns="http://www.w3.org/2000/svg">
<path d="M18.8482 10.2609V4.60645H21.4633C21.7754 4.60645 22.0552 4.67915 22.3027 4.82455C22.5556 4.96995 22.7547 5.17189 22.9 5.43038C23.0507 5.68348 23.126 5.9689 23.126 6.28662C23.126 6.62589 23.048 6.93016 22.8919 7.19941C22.7413 7.46329 22.5368 7.67331 22.2785 7.82948C22.0256 7.98565 21.7404 8.06374 21.4229 8.06374H19.4777V10.2609H18.8482ZM19.4777 7.44983H21.4229C21.6167 7.44983 21.7915 7.39867 21.9476 7.29635C22.109 7.19403 22.2355 7.05671 22.3269 6.88438C22.4184 6.70667 22.4642 6.50472 22.4642 6.27855C22.4642 6.07391 22.4184 5.89351 22.3269 5.73734C22.2355 5.57578 22.109 5.44923 21.9476 5.35768C21.7915 5.26613 21.6167 5.22036 21.4229 5.22036H19.4777V7.44983Z" fill="#0A0A0A"/>
<path d="M24.4982 10.2609V4.60645H26.8873C27.3178 4.60645 27.7052 4.67645 28.0496 4.81647C28.3994 4.95648 28.7007 5.15573 28.9536 5.41422C29.2065 5.66733 29.4002 5.96621 29.5347 6.31086C29.6693 6.65013 29.7365 7.0244 29.7365 7.43367C29.7365 7.84294 29.6693 8.21991 29.5347 8.56456C29.4002 8.90921 29.2065 9.20809 28.9536 9.46119C28.7061 9.7143 28.4074 9.91086 28.0577 10.0509C27.7079 10.1909 27.3178 10.2609 26.8873 10.2609H24.4982ZM25.1277 9.76007L25.0551 9.64698H26.847C27.186 9.64698 27.4927 9.59313 27.7671 9.48543C28.0469 9.37234 28.281 9.21886 28.4693 9.02499C28.663 8.82574 28.811 8.59418 28.9132 8.3303C29.0209 8.06105 29.0747 7.76217 29.0747 7.43367C29.0747 7.11056 29.0209 6.81437 28.9132 6.54511C28.811 6.27585 28.663 6.04429 28.4693 5.85042C28.2756 5.65117 28.0415 5.49769 27.7671 5.38999C27.4927 5.2769 27.186 5.22036 26.847 5.22036H25.0309L25.1277 5.12342V9.76007Z" fill="#0A0A0A"/>
<path d="M34.9118 10.2609L32.8375 7.59523L30.4483 4.60645H31.2635L33.2007 7.0944L35.7351 10.2609H34.9118ZM30.408 10.2609L32.7568 7.20749L33.1361 7.66793L31.1748 10.2609H30.408ZM33.2799 7.53464L32.9268 7.0944L34.8715 4.60645H35.6463L33.2799 7.53464Z" fill="#0A0A0A"/>
<path d="M36.8465 10.2609V4.60645H39.4455C39.8168 4.60645 40.1316 4.66299 40.3899 4.77608C40.6535 4.88917 40.858 5.05342 41.0033 5.26882C41.1486 5.47885 41.2212 5.73195 41.2212 6.02814C41.2212 6.33509 41.1271 6.60166 40.9387 6.82784C40.7504 7.04863 40.4894 7.20211 40.1558 7.28827L40.1639 7.14287C40.4222 7.19134 40.6509 7.28019 40.8499 7.40944C41.0544 7.53868 41.2159 7.70562 41.3342 7.91026C41.458 8.10951 41.5199 8.33838 41.5199 8.59687C41.5199 8.87152 41.4661 9.11385 41.3584 9.32387C41.2562 9.53389 41.1163 9.70891 40.9387 9.84893C40.7665 9.98356 40.5648 10.0859 40.3334 10.1559C40.102 10.2259 39.8518 10.2609 39.5827 10.2609H36.8465ZM37.4761 9.64698H39.5424C39.8007 9.64698 40.0267 9.60929 40.2204 9.53389C40.4141 9.45312 40.5674 9.33464 40.6804 9.17847C40.7988 9.0223 40.858 8.83651 40.858 8.6211C40.858 8.4057 40.7961 8.22529 40.6724 8.07989C40.554 7.93449 40.3926 7.8241 40.1881 7.7487C39.9836 7.67331 39.7549 7.63562 39.502 7.63562H37.4761V9.64698ZM37.4761 7.0217H39.4778C39.6877 7.0217 39.8733 6.98401 40.0347 6.90861C40.2015 6.82784 40.3307 6.72013 40.4222 6.5855C40.519 6.45087 40.5674 6.2947 40.5674 6.11699C40.5674 5.83158 40.4625 5.61078 40.2527 5.45461C40.0428 5.29844 39.7603 5.22036 39.4052 5.22036H37.4761V7.0217Z" fill="#0A0A0A"/>
<path d="M42.8749 10.2609V4.60645H46.7492V5.22036H43.5044V9.64698H46.733V10.2609H42.8749ZM43.1897 7.65985V7.04594H46.2972V7.65985H43.1897Z" fill="#0A0A0A"/>
<path d="M47.6262 10.2609L50.0234 4.60645H50.766L53.147 10.2609H52.4529L50.8225 6.39971C50.774 6.27047 50.7256 6.14661 50.6772 6.02814C50.6341 5.90428 50.5884 5.7858 50.54 5.67271C50.4969 5.55424 50.4539 5.43576 50.4108 5.31729C50.3678 5.19882 50.3247 5.08034 50.2817 4.96187H50.4592C50.4108 5.10188 50.3651 5.23382 50.322 5.35768C50.279 5.47615 50.2332 5.59193 50.1848 5.70502C50.1418 5.81811 50.096 5.93389 50.0476 6.05237C49.9992 6.17084 49.9481 6.30009 49.8942 6.4401L48.2719 10.2609H47.6262ZM48.627 8.73419L48.8772 8.12028H51.8556L52.0655 8.73419H48.627Z" fill="#0A0A0A"/>
<path d="M54.2773 10.2609V4.60645H54.8988L57.2719 8.08797L57.0055 8.07989L59.4108 4.60645H60V10.2609H59.3704V7.65177C59.3704 7.18326 59.3785 6.75514 59.3946 6.3674C59.4108 5.97428 59.4404 5.58116 59.4834 5.18805L59.5883 5.4223L57.3364 8.60495H56.9086L54.7051 5.43846L54.7939 5.19612C54.837 5.5677 54.8666 5.94467 54.8827 6.32701C54.8988 6.70936 54.9069 7.15095 54.9069 7.65177V10.2609H54.2773Z" fill="#0A0A0A"/>
<path fill-rule="evenodd" clip-rule="evenodd" d="M0.942403 5.1114C0.711079 5.1114 0.523554 5.29892 0.523554 5.53025C0.523554 5.76157 0.711079 5.9491 0.942403 5.9491C1.17373 5.9491 1.36125 5.76157 1.36125 5.53025C1.36125 5.29892 1.17373 5.1114 0.942403 5.1114ZM0.942403 4.58784C0.421925 4.58784 -6.07099e-06 5.00977 -6.1165e-06 5.53025C-6.162e-06 6.05073 0.421925 6.47266 0.942403 6.47266C1.46288 6.47266 1.88481 6.05073 1.88481 5.53025C1.88481 5.00977 1.46288 4.58784 0.942403 4.58784Z" fill="#0A0A0A"/>
<path fill-rule="evenodd" clip-rule="evenodd" d="M3.59875 3.57619C3.40779 3.11519 3.14919 2.68624 2.83218 2.30317L3.22617 1.90918C3.59375 2.34491 3.89261 2.83542 4.11148 3.36381C4.39038 4.03714 4.53392 4.75881 4.53392 5.48761C4.53392 6.21641 4.39038 6.93808 4.11148 7.6114C3.88505 8.15805 3.57301 8.66414 3.18784 9.11099L2.79422 8.71736C3.12859 8.32292 3.40023 7.87829 3.59875 7.39902C3.84976 6.79303 3.97895 6.14353 3.97895 5.48761C3.97895 4.83169 3.84976 4.18219 3.59875 3.57619Z" fill="#0A0A0A"/>
<path fill-rule="evenodd" clip-rule="evenodd" d="M6.02792 2.54096C5.70733 1.76698 5.26523 1.05055 4.71941 0.418273L5.13768 0C5.73766 0.687834 6.22279 1.46955 6.57306 2.31515C6.99667 3.33784 7.2147 4.43396 7.2147 5.54091C7.2147 6.64787 6.99667 7.74398 6.57305 8.76667C6.22471 9.60765 5.74296 10.3854 5.14751 11.0705L4.72919 10.6522C5.27051 10.0227 5.70924 9.31022 6.02792 8.54087C6.42188 7.58977 6.62465 6.57038 6.62465 5.54091C6.62465 4.51145 6.42188 3.49206 6.02792 2.54096Z" fill="#0A0A0A"/>
<path fill-rule="evenodd" clip-rule="evenodd" d="M14.0434 9.69134C14.2747 9.69134 14.4623 9.50381 14.4623 9.27249C14.4623 9.04116 14.2747 8.85364 14.0434 8.85364C13.8121 8.85364 13.6246 9.04116 13.6246 9.27249C13.6246 9.50381 13.8121 9.69134 14.0434 9.69134ZM14.0434 10.2149C14.5639 10.2149 14.9858 9.79296 14.9858 9.27249C14.9858 8.75201 14.5639 8.33008 14.0434 8.33008C13.5229 8.33008 13.101 8.75201 13.101 9.27249C13.101 9.79296 13.5229 10.2149 14.0434 10.2149Z" fill="#0A0A0A"/>
<path fill-rule="evenodd" clip-rule="evenodd" d="M11.3869 11.2295C11.5778 11.6905 11.8364 12.1194 12.1534 12.5025L11.7595 12.8965C11.3919 12.4608 11.093 11.9703 10.8742 11.4419C10.5953 10.7685 10.4517 10.0469 10.4517 9.31807C10.4517 8.58927 10.5953 7.8676 10.8742 7.19428C11.1007 6.64734 11.413 6.141 11.7984 5.69398L12.192 6.08759C11.8574 6.48222 11.5855 6.9271 11.3869 7.40666C11.1359 8.01265 11.0067 8.66215 11.0067 9.31807C11.0067 9.97399 11.1359 10.6235 11.3869 11.2295Z" fill="#0A0A0A"/>
<path fill-rule="evenodd" clip-rule="evenodd" d="M8.95788 12.2666C9.27847 13.0406 9.72057 13.7571 10.2664 14.3893L9.84813 14.8076C9.24815 14.1198 8.76301 13.3381 8.41274 12.4925C7.98913 11.4698 7.7711 10.3736 7.7711 9.26669C7.7711 8.15974 7.98913 7.06362 8.41274 6.04093C8.76132 5.19941 9.24347 4.42116 9.83945 3.73574L10.2578 4.15406C9.71591 4.78389 9.27678 5.49684 8.95788 6.26673C8.56392 7.21784 8.36115 8.23722 8.36115 9.26669C8.36115 10.2962 8.56392 11.3155 8.95788 12.2666Z" fill="#0A0A0A"/>
</svg>
