<svg width="72" height="26" viewBox="0 0 72 26" fill="none" xmlns="http://www.w3.org/2000/svg">
<path d="M9.372 18V8.2H13.362C13.894 8.2 14.3747 8.33533 14.804 8.606C15.2427 8.86733 15.5927 9.22667 15.854 9.684C16.1153 10.1413 16.246 10.65 16.246 11.21C16.246 11.77 16.1153 12.2787 15.854 12.736C15.5927 13.1933 15.2427 13.562 14.804 13.842C14.3747 14.1127 13.894 14.248 13.362 14.248H10.884V18H9.372ZM10.884 12.792H13.334C13.586 12.792 13.8147 12.722 14.02 12.582C14.2253 12.4327 14.3887 12.2413 14.51 12.008C14.6407 11.7653 14.706 11.4993 14.706 11.21C14.706 10.9207 14.6407 10.6593 14.51 10.426C14.3887 10.1927 14.2253 10.006 14.02 9.866C13.8147 9.726 13.586 9.656 13.334 9.656H10.884V12.792ZM21.1743 18.14C20.4183 18.14 19.7463 17.9813 19.1583 17.664C18.5797 17.3373 18.1223 16.894 17.7863 16.334C17.4597 15.774 17.2963 15.13 17.2963 14.402C17.2963 13.8233 17.3897 13.296 17.5763 12.82C17.763 12.344 18.0197 11.9333 18.3463 11.588C18.6823 11.2333 19.079 10.9627 19.5363 10.776C20.003 10.58 20.507 10.482 21.0483 10.482C21.5243 10.482 21.9677 10.5753 22.3783 10.762C22.789 10.9393 23.1437 11.1867 23.4423 11.504C23.7503 11.8213 23.9837 12.1993 24.1423 12.638C24.3103 13.0673 24.3897 13.5387 24.3803 14.052L24.3663 14.668H18.3603L18.0383 13.52H23.1203L22.9103 13.758V13.422C22.8823 13.114 22.7797 12.8387 22.6023 12.596C22.425 12.3533 22.201 12.162 21.9303 12.022C21.6597 11.882 21.3657 11.812 21.0483 11.812C20.5443 11.812 20.1197 11.91 19.7743 12.106C19.429 12.2927 19.1677 12.5727 18.9903 12.946C18.813 13.31 18.7243 13.7627 18.7243 14.304C18.7243 14.8173 18.8317 15.2653 19.0463 15.648C19.261 16.0213 19.5643 16.3107 19.9563 16.516C20.3483 16.7213 20.801 16.824 21.3143 16.824C21.6783 16.824 22.0143 16.7633 22.3223 16.642C22.6397 16.5207 22.9803 16.3013 23.3443 15.984L24.0723 17.006C23.8483 17.23 23.573 17.426 23.2463 17.594C22.929 17.762 22.5883 17.8973 22.2243 18C21.8697 18.0933 21.5197 18.14 21.1743 18.14ZM25.9475 18V10.65H27.3895V12.162L27.1375 12.33C27.2308 12.0033 27.4128 11.7047 27.6835 11.434C27.9541 11.154 28.2761 10.93 28.6495 10.762C29.0228 10.5847 29.4055 10.496 29.7975 10.496C30.3575 10.496 30.8241 10.608 31.1975 10.832C31.5708 11.0467 31.8508 11.378 32.0375 11.826C32.2241 12.274 32.3175 12.8387 32.3175 13.52V18H30.8755V13.618C30.8755 13.198 30.8195 12.8527 30.7075 12.582C30.5955 12.302 30.4228 12.1013 30.1895 11.98C29.9561 11.8493 29.6668 11.7933 29.3215 11.812C29.0415 11.812 28.7848 11.8587 28.5515 11.952C28.3181 12.036 28.1128 12.1573 27.9355 12.316C27.7675 12.4747 27.6321 12.6613 27.5295 12.876C27.4361 13.0813 27.3895 13.3053 27.3895 13.548V18H26.6755C26.5541 18 26.4328 18 26.3115 18C26.1901 18 26.0688 18 25.9475 18ZM37.3396 18.14C36.6676 18.14 36.0656 17.9767 35.5336 17.65C35.011 17.314 34.5956 16.8613 34.2876 16.292C33.9796 15.7133 33.8256 15.0553 33.8256 14.318C33.8256 13.5807 33.975 12.9273 34.2736 12.358C34.5816 11.7793 34.997 11.3267 35.5196 11C36.0423 10.664 36.635 10.496 37.2976 10.496C37.6616 10.496 38.0116 10.5567 38.3476 10.678C38.693 10.79 39.001 10.9487 39.2716 11.154C39.5423 11.35 39.7523 11.5693 39.9016 11.812C40.0603 12.0453 40.1396 12.2833 40.1396 12.526L39.7196 12.554V7.64H41.1616V18H39.7196V16.25H39.9996C39.9996 16.474 39.925 16.698 39.7756 16.922C39.6263 17.1367 39.4256 17.3373 39.1736 17.524C38.931 17.7107 38.6463 17.86 38.3196 17.972C38.0023 18.084 37.6756 18.14 37.3396 18.14ZM37.5356 16.894C37.9743 16.894 38.3616 16.782 38.6976 16.558C39.0336 16.334 39.295 16.0307 39.4816 15.648C39.6776 15.256 39.7756 14.8127 39.7756 14.318C39.7756 13.8233 39.6776 13.3847 39.4816 13.002C39.295 12.61 39.0336 12.302 38.6976 12.078C38.3616 11.854 37.9743 11.742 37.5356 11.742C37.097 11.742 36.7096 11.854 36.3736 12.078C36.0376 12.302 35.7716 12.61 35.5756 13.002C35.389 13.3847 35.2956 13.8233 35.2956 14.318C35.2956 14.8127 35.389 15.256 35.5756 15.648C35.7716 16.0307 36.0376 16.334 36.3736 16.558C36.7096 16.782 37.097 16.894 37.5356 16.894ZM43.3847 18V10.65H44.8267V18H43.3847ZM44.0847 9.026C43.7767 9.026 43.5387 8.94667 43.3707 8.788C43.2027 8.62933 43.1187 8.40533 43.1187 8.116C43.1187 7.84533 43.2027 7.626 43.3707 7.458C43.548 7.29 43.786 7.206 44.0847 7.206C44.3927 7.206 44.6307 7.28533 44.7987 7.444C44.9667 7.60267 45.0507 7.82667 45.0507 8.116C45.0507 8.38667 44.962 8.606 44.7847 8.774C44.6167 8.942 44.3833 9.026 44.0847 9.026ZM47.0432 18V10.65H48.4852V12.162L48.2332 12.33C48.3265 12.0033 48.5085 11.7047 48.7792 11.434C49.0498 11.154 49.3718 10.93 49.7452 10.762C50.1185 10.5847 50.5012 10.496 50.8932 10.496C51.4532 10.496 51.9198 10.608 52.2932 10.832C52.6665 11.0467 52.9465 11.378 53.1332 11.826C53.3198 12.274 53.4132 12.8387 53.4132 13.52V18H51.9712V13.618C51.9712 13.198 51.9152 12.8527 51.8032 12.582C51.6912 12.302 51.5185 12.1013 51.2852 11.98C51.0518 11.8493 50.7625 11.7933 50.4172 11.812C50.1372 11.812 49.8805 11.8587 49.6472 11.952C49.4138 12.036 49.2085 12.1573 49.0312 12.316C48.8632 12.4747 48.7278 12.6613 48.6252 12.876C48.5318 13.0813 48.4852 13.3053 48.4852 13.548V18H47.7712C47.6498 18 47.5285 18 47.4072 18C47.2858 18 47.1645 18 47.0432 18ZM58.6593 21.22C58.1367 21.22 57.614 21.136 57.0913 20.968C56.578 20.8093 56.1627 20.5993 55.8453 20.338L56.3773 19.218C56.564 19.358 56.7833 19.4793 57.0353 19.582C57.2873 19.694 57.5533 19.778 57.8333 19.834C58.1133 19.8993 58.3887 19.932 58.6593 19.932C59.1727 19.932 59.602 19.848 59.9473 19.68C60.2927 19.512 60.554 19.2647 60.7313 18.938C60.9087 18.6113 60.9973 18.2053 60.9973 17.72V16.306L61.1513 16.404C61.1047 16.6933 60.9507 16.9733 60.6893 17.244C60.4373 17.5053 60.12 17.72 59.7373 17.888C59.3547 18.056 58.9627 18.14 58.5613 18.14C57.8613 18.14 57.236 17.9767 56.6853 17.65C56.144 17.314 55.7147 16.8613 55.3973 16.292C55.08 15.7133 54.9213 15.0553 54.9213 14.318C54.9213 13.5807 55.0753 12.9273 55.3833 12.358C55.7007 11.7793 56.13 11.3267 56.6713 11C57.222 10.664 57.838 10.496 58.5193 10.496C58.7993 10.496 59.07 10.5333 59.3313 10.608C59.5927 10.6733 59.8353 10.7713 60.0593 10.902C60.2833 11.0233 60.484 11.1587 60.6613 11.308C60.8387 11.4573 60.9833 11.616 61.0953 11.784C61.2073 11.952 61.2773 12.1107 61.3053 12.26L60.9973 12.372V10.65H62.4393V17.552C62.4393 18.14 62.3507 18.658 62.1733 19.106C62.0053 19.5633 61.758 19.946 61.4313 20.254C61.1047 20.5713 60.708 20.8093 60.2413 20.968C59.7747 21.136 59.2473 21.22 58.6593 21.22ZM58.7153 16.81C59.1727 16.81 59.5787 16.7027 59.9333 16.488C60.288 16.2733 60.5633 15.9793 60.7593 15.606C60.9553 15.2327 61.0533 14.8033 61.0533 14.318C61.0533 13.8327 60.9507 13.4033 60.7453 13.03C60.5493 12.6473 60.274 12.3487 59.9193 12.134C59.574 11.9193 59.1727 11.812 58.7153 11.812C58.2673 11.812 57.866 11.924 57.5113 12.148C57.166 12.3627 56.8907 12.6613 56.6853 13.044C56.4893 13.4173 56.3913 13.842 56.3913 14.318C56.3913 14.794 56.4893 15.2233 56.6853 15.606C56.8907 15.9793 57.166 16.2733 57.5113 16.488C57.866 16.7027 58.2673 16.81 58.7153 16.81Z" fill="#FD6300"/>
<rect x="0.5" y="0.5" width="71" height="25" stroke="#FD6300"/>
</svg>
