<svg width="16" height="20" viewBox="0 0 16 20" fill="none" xmlns="http://www.w3.org/2000/svg">
<path d="M8 13C8.93333 13 9.775 12.7707 10.525 12.312C11.275 11.854 11.8667 11.25 12.3 10.5C11.7167 10.0167 11.0583 9.64567 10.325 9.387C9.59167 9.129 8.81667 9 8 9C7.18333 9 6.40833 9.129 5.675 9.387C4.94167 9.64567 4.28333 10.0167 3.7 10.5C4.13333 11.25 4.725 11.854 5.475 12.312C6.225 12.7707 7.06667 13 8 13ZM8 8C8.55 8 9.021 7.804 9.413 7.412C9.80433 7.02067 10 6.55 10 6C10 5.45 9.80433 4.97933 9.413 4.588C9.021 4.196 8.55 4 8 4C7.45 4 6.97933 4.196 6.588 4.588C6.196 4.97933 6 5.45 6 6C6 6.55 6.196 7.02067 6.588 7.412C6.97933 7.804 7.45 8 8 8ZM8 20C5.31667 17.7167 3.31267 15.5957 1.988 13.637C0.662667 11.679 0 9.86667 0 8.2C0 5.7 0.804333 3.70833 2.413 2.225C4.021 0.741667 5.88333 0 8 0C10.1167 0 11.979 0.741667 13.587 2.225C15.1957 3.70833 16 5.7 16 8.2C16 9.86667 15.3377 11.679 14.013 13.637C12.6877 15.5957 10.6833 17.7167 8 20Z" fill="#89909A"/>
</svg>
