<svg width="21" height="21" viewBox="0 0 21 21" fill="none" xmlns="http://www.w3.org/2000/svg">
<path d="M18.775 20.625L16.15 18H3V15.2C3 14.6334 3.146 14.1124 3.438 13.637C3.72933 13.1624 4.11667 12.8 4.6 12.55C5.35 12.1667 6.11267 11.8584 6.888 11.625C7.66267 11.3917 8.45 11.2167 9.25 11.1L0.375 2.22505L1.8 0.800049L20.2 19.2001L18.775 20.625ZM17.4 12.55C17.8833 12.7834 18.2667 13.1377 18.55 13.613C18.8333 14.0877 18.9833 14.6 19 15.15L15.65 11.8C15.95 11.9167 16.246 12.0334 16.538 12.15C16.8293 12.2667 17.1167 12.4 17.4 12.55ZM13.2 9.35005L7.65 3.80005C8.03333 3.23338 8.51667 2.79172 9.1 2.47505C9.68333 2.15838 10.3167 2.00005 11 2.00005C12.1 2.00005 13.0417 2.39172 13.825 3.17505C14.6083 3.95838 15 4.90005 15 6.00005C15 6.68338 14.8417 7.31671 14.525 7.90005C14.2083 8.48338 13.7667 8.96672 13.2 9.35005Z" fill="#89909A"/>
</svg>
