<svg width="27" height="38" viewBox="0 0 27 38" fill="none" xmlns="http://www.w3.org/2000/svg">
<path d="M18.4166 25.6664C18.0277 25.6664 17.6944 25.5275 17.4166 25.2497C17.1389 24.9719 17 24.6386 17 24.2497V18.7497C17 18.3608 17.1389 18.0275 17.4166 17.7497C17.6944 17.4719 18.0277 17.3331 18.4166 17.3331H18.6666V15.6664C18.6666 14.7497 18.9927 13.9647 19.645 13.3114C20.2983 12.6592 21.0833 12.333 22 12.333C22.9166 12.333 23.7016 12.6592 24.355 13.3114C25.0072 13.9647 25.3333 14.7497 25.3333 15.6664V17.3331H25.5833C25.9722 17.3331 26.3055 17.4719 26.5833 17.7497C26.8611 18.0275 27 18.3608 27 18.7497V24.2497C27 24.6386 26.8611 24.9719 26.5833 25.2497C26.3055 25.5275 25.9722 25.6664 25.5833 25.6664H18.4166ZM20.3333 17.3331H23.6666V15.6664C23.6666 15.1942 23.5066 14.798 23.1866 14.478C22.8677 14.1592 22.4722 13.9997 22 13.9997C21.5277 13.9997 21.1322 14.1592 20.8133 14.478C20.4933 14.798 20.3333 15.1942 20.3333 15.6664V17.3331ZM3.66663 37.3331C2.74996 37.3331 1.96552 37.0069 1.3133 36.3547C0.659964 35.7014 0.333298 34.9164 0.333298 33.9997V3.99972C0.333298 3.08305 0.659964 2.29805 1.3133 1.64472C1.96552 0.992493 2.74996 0.666382 3.66663 0.666382H20.3333C21.25 0.666382 22.035 0.992493 22.6883 1.64472C23.3405 2.29805 23.6666 3.08305 23.6666 3.99972V10.6664H20.3333V8.99972H3.66663V28.9997H20.3333V27.3331H23.6666V33.9997C23.6666 34.9164 23.3405 35.7014 22.6883 36.3547C22.035 37.0069 21.25 37.3331 20.3333 37.3331H3.66663Z" fill="#89909A"/>
</svg>
