<svg width="24" height="22" viewBox="0 0 24 22" fill="none" xmlns="http://www.w3.org/2000/svg">
<path d="M12 17.6002C13.5 17.6002 14.7752 17.0754 15.8256 16.0258C16.8752 14.9754 17.4 13.7002 17.4 12.2002C17.4 10.7002 16.8752 9.425 15.8256 8.3746C14.7752 7.325 13.5 6.80019 12 6.80019C10.5 6.80019 9.2248 7.325 8.1744 8.3746C7.1248 9.425 6.6 10.7002 6.6 12.2002C6.6 13.7002 7.1248 14.9754 8.1744 16.0258C9.2248 17.0754 10.5 17.6002 12 17.6002ZM2.4 21.8002C1.74 21.8002 1.1752 21.5654 0.7056 21.0958C0.2352 20.6254 0 20.0602 0 19.4002V5.0002C0 4.3402 0.2352 3.77539 0.7056 3.30579C1.1752 2.83539 1.74 2.6002 2.4 2.6002H6.18L8.4 0.200195H15.6L17.82 2.6002H21.6C22.26 2.6002 22.8252 2.83539 23.2956 3.30579C23.7652 3.77539 24 4.3402 24 5.0002V19.4002C24 20.0602 23.7652 20.6254 23.2956 21.0958C22.8252 21.5654 22.26 21.8002 21.6 21.8002H2.4Z" fill="#00AA00"/>
</svg>
