<?xml version="1.0" encoding="UTF-8" ?>
<!DOCTYPE svg PUBLIC "-//W3C//DTD SVG 1.1//EN" "http://www.w3.org/Graphics/SVG/1.1/DTD/svg11.dtd">
<svg width="512pt" height="512pt" viewBox="0 0 512 512" version="1.1" xmlns="http://www.w3.org/2000/svg">
<g id="#000000ff">
<path fill="#000000" opacity="1.00" d=" M 249.43 0.00 L 264.44 0.00 C 301.33 1.32 338.03 10.23 370.97 27.01 C 375.97 29.61 379.45 34.34 381.53 39.49 C 387.03 38.77 392.88 39.37 397.64 42.44 C 441.95 71.52 476.66 114.86 495.57 164.36 C 504.73 188.04 510.09 213.11 512.00 238.41 L 512.00 243.51 C 510.80 253.99 501.70 262.93 491.08 263.42 C 479.45 263.70 467.81 263.44 456.17 263.54 C 456.17 290.69 456.17 317.84 456.18 344.99 C 456.16 350.41 456.63 356.14 454.18 361.17 C 450.35 369.94 440.35 375.45 430.89 373.88 C 420.72 372.57 412.29 363.31 412.09 353.04 C 411.84 334.68 412.27 316.31 411.89 297.96 C 411.66 293.81 405.29 292.87 403.69 296.63 C 402.75 299.99 403.48 303.56 403.14 307.01 C 402.71 317.69 395.04 327.51 384.89 330.73 C 374.44 334.28 361.89 330.72 355.30 321.77 C 351.88 317.27 350.03 311.64 350.04 305.99 C 349.99 291.84 350.06 277.69 350.02 263.54 C 323.20 263.53 296.38 263.52 269.56 263.54 C 305.02 325.03 340.54 386.49 376.02 447.97 C 378.56 452.45 381.69 456.85 382.32 462.10 C 383.75 471.10 379.06 480.71 370.98 484.98 C 338.06 501.74 301.38 510.64 264.51 512.00 L 249.43 512.00 C 212.26 510.80 175.26 501.84 142.06 484.97 C 137.14 482.37 133.55 477.76 131.67 472.58 C 125.86 473.21 119.70 472.57 114.78 469.17 C 82.70 447.86 55.56 419.17 36.00 385.99 C 15.59 351.47 3.43 312.06 1.06 272.02 C 0.64 266.16 3.01 260.53 6.56 255.99 C 3.00 251.45 0.64 245.82 1.06 239.96 C 2.42 216.78 7.10 193.80 14.72 171.86 C 32.94 119.27 68.86 72.98 115.41 42.45 C 120.15 39.38 125.99 38.75 131.49 39.51 C 132.92 36.43 134.45 33.32 136.91 30.91 C 140.32 27.31 145.07 25.56 149.43 23.43 C 180.70 8.88 214.98 1.09 249.43 0.00 M 149.29 40.19 C 145.90 41.89 144.48 46.50 146.27 49.84 C 149.13 55.28 152.46 60.47 155.39 65.89 C 162.35 61.28 169.00 56.11 176.58 52.51 C 190.38 45.62 206.18 46.85 220.97 44.08 C 232.59 41.68 243.93 37.28 255.94 37.25 C 267.09 37.05 277.76 40.69 288.47 43.29 C 302.10 46.70 316.54 45.37 329.94 49.87 C 340.21 53.20 348.80 59.94 357.64 65.90 C 360.60 60.53 363.87 55.34 366.75 49.92 C 368.57 46.59 367.20 41.94 363.79 40.21 C 297.58 6.62 215.51 6.63 149.29 40.19 M 222.98 58.98 C 211.90 61.18 200.39 60.61 189.45 63.62 C 179.50 66.48 171.46 73.33 162.98 78.95 C 176.12 101.78 189.37 124.56 202.46 147.43 C 204.65 151.01 202.90 155.47 199.72 157.77 C 197.54 158.34 195.17 159.02 193.02 157.94 C 190.19 156.84 188.96 153.86 187.50 151.45 C 175.02 129.77 162.51 108.12 149.99 86.47 C 144.84 88.95 139.65 91.34 134.55 93.93 C 129.60 96.59 124.94 99.89 121.21 104.12 C 114.23 111.93 109.15 121.22 102.19 129.05 C 94.93 137.47 85.82 144.38 80.08 154.04 C 74.08 164.68 72.81 177.11 68.44 188.39 C 64.76 198.38 59.02 207.56 56.40 217.94 C 54.89 223.84 55.04 230.00 55.48 236.03 C 55.83 240.19 56.12 244.37 56.47 248.54 C 118.83 248.49 181.19 248.65 243.54 248.46 C 231.33 227.31 219.08 206.19 206.93 185.01 C 204.77 181.49 206.47 177.17 209.46 174.77 C 213.01 173.25 217.68 173.77 219.74 177.39 C 224.96 186.15 229.96 195.05 235.09 203.87 C 242.24 216.25 249.36 228.64 256.54 241.00 C 287.73 186.99 318.91 132.96 350.10 78.95 C 339.89 71.93 329.70 63.63 316.93 62.14 C 307.95 60.84 298.83 60.67 289.91 58.95 C 278.91 56.93 268.32 52.48 257.03 52.25 C 245.32 52.20 234.36 56.92 222.98 58.98 M 123.26 55.26 C 61.26 96.03 20.14 166.93 16.08 241.07 C 15.90 245.02 19.47 248.49 23.37 248.47 C 29.39 248.62 35.41 248.48 41.43 248.52 C 40.63 237.67 39.05 226.61 41.48 215.85 C 43.58 205.88 48.53 196.88 52.56 187.62 C 58.38 174.67 59.53 160.03 66.51 147.55 C 71.89 137.65 80.50 130.18 88.17 122.14 C 97.82 112.29 103.77 99.39 114.03 90.08 C 122.14 82.45 132.59 78.23 142.45 73.43 C 139.39 68.21 136.48 62.89 133.32 57.72 C 131.38 54.34 126.53 53.09 123.26 55.26 M 379.77 57.67 C 376.59 62.82 373.76 68.18 370.60 73.34 C 380.16 78.19 390.44 82.15 398.43 89.53 C 409.02 98.89 415.06 112.08 424.88 122.14 C 432.40 129.97 440.75 137.29 446.15 146.86 C 451.68 156.45 453.73 167.45 456.91 177.92 C 460.69 190.75 468.51 202.06 471.42 215.19 C 474.05 226.14 472.43 237.45 471.63 248.52 C 477.73 248.47 483.84 248.64 489.95 248.45 C 493.76 248.35 497.18 244.87 496.97 241.02 C 492.86 166.87 451.75 95.96 389.73 55.22 C 386.48 53.12 381.70 54.34 379.77 57.67 M 338.32 129.34 C 317.79 164.90 297.26 200.45 276.73 236.01 C 274.30 240.17 271.90 244.36 269.49 248.53 C 320.31 248.58 371.13 248.49 421.94 248.58 C 425.87 248.48 429.29 252.08 429.22 255.97 C 429.33 259.83 425.97 263.38 422.10 263.44 C 417.63 263.67 413.16 263.45 408.69 263.53 C 394.13 263.54 379.58 263.52 365.03 263.54 C 365.06 277.71 364.97 291.89 365.06 306.06 C 364.99 310.40 367.78 314.55 371.78 316.20 C 377.84 318.80 385.79 315.42 387.66 308.97 C 389.07 303.42 387.21 297.43 389.40 292.00 C 392.13 284.05 400.38 278.81 408.70 279.13 C 415.54 279.75 422.05 283.79 425.03 290.07 C 427.48 294.68 427.00 300.00 427.02 305.03 C 427.04 320.70 426.96 336.37 427.05 352.03 C 426.92 355.77 430.24 359.18 433.99 359.13 C 437.81 359.30 441.31 355.84 441.14 352.01 C 441.25 320.00 441.10 287.98 441.21 255.97 C 441.13 252.24 444.28 248.70 448.07 248.60 C 450.90 248.44 453.74 248.56 456.59 248.54 C 457.11 239.22 458.79 229.82 457.22 220.52 C 455.10 209.36 448.86 199.64 444.91 189.13 C 440.61 178.30 439.22 166.48 434.04 155.99 C 428.52 145.32 418.62 138.02 410.91 129.06 C 403.29 120.58 398.01 110.24 389.95 102.13 C 382.55 94.67 372.38 91.24 363.28 86.43 C 354.68 100.56 346.68 115.06 338.32 129.34 M 16.09 271.96 C 18.59 311.43 31.34 350.12 52.30 383.63 C 70.29 412.45 94.38 437.47 122.63 456.36 C 125.92 458.91 131.19 457.93 133.29 454.32 C 136.46 449.14 139.36 443.80 142.46 438.57 C 132.59 433.75 122.13 429.53 114.02 421.90 C 103.95 412.74 98.02 400.13 88.65 390.36 C 81.19 382.44 72.75 375.21 67.23 365.70 C 61.63 356.26 59.49 345.38 56.42 334.99 C 52.75 321.89 44.73 310.43 41.70 297.10 C 38.99 286.08 40.59 274.69 41.42 263.54 C 35.27 263.59 29.11 263.44 22.95 263.59 C 18.77 263.66 15.45 267.88 16.09 271.96 M 56.62 294.92 C 59.65 305.98 65.99 315.74 69.51 326.62 C 73.20 337.25 74.65 348.78 80.46 358.58 C 85.83 367.27 93.89 373.75 100.68 381.26 C 107.54 388.60 112.64 397.33 118.86 405.18 C 126.53 415.49 138.83 420.14 149.98 425.53 C 181.18 371.54 212.36 317.54 243.52 263.54 C 229.24 263.51 214.96 263.53 200.69 263.53 C 152.62 263.54 104.55 263.53 56.47 263.53 C 55.88 273.95 53.81 284.64 56.62 294.92 M 256.49 271.01 C 253.24 276.72 249.92 282.39 246.66 288.09 C 218.77 336.41 190.86 384.72 162.98 433.05 C 165.93 434.99 168.70 437.23 171.76 439.00 C 176.47 442.63 181.71 445.50 187.19 447.77 C 190.61 449.09 192.50 453.19 191.43 456.66 C 190.44 460.57 185.86 463.10 182.04 461.72 C 172.20 458.37 163.95 451.82 155.42 446.10 C 152.52 451.28 149.44 456.36 146.56 461.55 C 144.40 464.95 145.66 469.96 149.28 471.79 C 215.49 505.35 297.51 505.36 363.73 471.82 C 367.16 470.10 368.59 465.43 366.75 462.08 C 363.87 456.66 360.60 451.47 357.64 446.10 C 349.07 451.85 340.79 458.38 330.92 461.78 C 320.84 465.36 310.04 465.59 299.52 466.77 C 285.13 468.22 271.62 474.74 257.03 474.75 C 243.21 474.97 230.31 469.32 216.85 467.16 C 213.01 466.68 209.97 462.93 210.45 459.08 C 210.71 455.32 214.20 452.11 217.98 452.30 C 231.21 453.66 243.62 459.78 257.04 459.76 C 268.73 459.49 279.65 454.77 291.06 452.84 C 302.55 450.67 314.55 451.42 325.74 447.71 C 334.77 444.50 342.25 438.30 350.10 433.01 C 318.85 379.04 287.78 324.96 256.49 271.01 Z" />
<path fill="#000000" opacity="1.00" d=" M 220.60 62.73 C 228.55 61.03 237.05 61.99 244.39 65.51 C 253.97 70.03 261.40 78.84 264.22 89.05 C 266.93 98.53 265.63 109.07 260.68 117.60 C 256.18 125.47 248.74 131.62 240.12 134.43 C 228.99 138.20 216.11 136.24 206.66 129.25 C 196.16 121.84 190.11 108.69 191.35 95.89 C 192.47 80.00 205.00 65.87 220.60 62.73 M 221.92 77.87 C 213.17 80.42 206.55 88.85 206.22 97.97 C 205.82 103.82 208.09 109.56 211.82 114.00 C 218.44 121.32 229.97 123.59 238.70 118.79 C 247.15 114.51 252.13 104.43 250.26 95.11 C 249.08 88.14 244.24 82.18 238.02 78.98 C 232.97 76.82 227.20 76.17 221.92 77.87 Z" />
<path fill="#000000" opacity="1.00" d=" M 289.95 78.98 C 294.74 71.53 304.12 67.68 312.80 69.29 C 318.30 70.53 323.46 73.61 326.72 78.28 C 331.57 84.86 332.28 94.16 328.51 101.41 C 324.90 108.65 317.13 113.59 309.02 113.64 C 302.42 113.86 295.97 110.81 291.62 105.91 C 285.22 98.57 284.42 87.03 289.95 78.98 M 305.55 84.62 C 300.66 86.60 299.76 93.93 304.00 97.05 C 307.90 100.45 314.74 98.10 315.73 93.01 C 317.37 87.37 310.77 81.93 305.55 84.62 Z" />
<path fill="#000000" opacity="1.00" d=" M 124.43 114.45 C 128.64 109.31 135.23 106.48 141.83 106.41 C 149.92 106.64 157.79 111.33 161.40 118.64 C 164.87 125.21 164.57 133.40 161.01 139.87 C 157.46 145.97 151.06 150.36 144.00 151.04 C 134.56 152.27 124.77 146.62 121.08 137.87 C 117.61 130.26 118.99 120.80 124.43 114.45 M 138.26 122.27 C 133.42 124.40 132.80 131.84 137.20 134.77 C 141.26 138.07 148.01 135.30 148.73 130.17 C 150.10 124.50 143.35 119.45 138.26 122.27 Z" />
<path fill="#000000" opacity="1.00" d=" M 367.38 114.51 C 378.61 110.81 391.80 117.76 395.14 129.07 C 397.55 136.35 395.82 144.82 390.73 150.55 C 385.72 156.43 377.54 159.34 369.95 157.91 C 360.27 156.35 352.34 147.72 351.61 137.95 C 350.45 127.67 357.48 117.35 367.38 114.51 M 370.33 129.47 C 365.52 131.84 365.27 139.43 369.93 142.10 C 374.45 145.31 381.39 141.51 381.21 136.00 C 381.50 130.62 374.96 126.63 370.33 129.47 Z" />
<path fill="#000000" opacity="1.00" d=" M 245.26 154.27 C 251.04 150.78 258.36 150.35 264.64 152.68 C 273.16 156.02 279.21 164.83 278.86 174.03 C 278.79 183.22 272.39 191.91 263.65 194.73 C 256.55 197.24 248.38 195.63 242.51 191.01 C 237.50 186.86 234.24 180.59 234.19 174.05 C 233.91 166.08 238.36 158.22 245.26 154.27 M 254.40 166.53 C 249.28 167.84 247.41 175.05 251.27 178.67 C 254.83 182.71 262.23 180.88 263.56 175.67 C 265.43 170.35 259.71 164.65 254.40 166.53 Z" />
<path fill="#000000" opacity="1.00" d=" M 132.21 184.25 C 139.21 168.48 157.98 159.33 174.72 163.65 C 186.56 166.49 196.69 175.46 200.85 186.92 C 203.83 194.66 203.77 203.30 201.52 211.22 C 197.50 223.31 187.23 233.03 174.82 236.07 C 169.00 237.33 162.95 237.34 157.12 236.06 C 147.63 233.60 139.13 227.45 134.10 219.00 C 127.77 208.67 127.06 195.20 132.21 184.25 M 143.96 196.97 C 143.03 203.24 145.21 209.60 149.13 214.47 C 155.17 221.21 165.27 224.04 173.79 220.65 C 182.86 217.37 189.08 207.69 188.13 198.06 C 187.61 190.21 182.48 183.16 175.51 179.68 C 170.92 177.75 165.76 177.01 160.88 178.23 C 152.09 180.19 145.00 188.02 143.96 196.97 Z" />
<path fill="#000000" opacity="1.00" d=" M 384.50 167.65 C 393.15 163.88 403.24 163.69 412.07 166.96 C 429.26 173.01 439.94 192.79 435.31 210.48 C 432.45 222.74 422.94 233.23 410.94 237.12 C 402.23 240.13 392.51 239.49 384.05 235.94 C 377.09 232.66 371.00 227.45 367.10 220.77 C 361.47 211.37 360.36 199.43 364.16 189.16 C 367.58 179.58 375.16 171.63 384.50 167.65 M 392.10 180.78 C 383.86 183.43 377.62 191.30 377.00 199.95 C 376.37 206.04 378.64 212.11 382.55 216.74 C 389.34 224.27 401.31 226.41 410.09 221.16 C 418.13 216.72 422.78 206.95 420.98 197.91 C 419.83 190.96 415.04 184.97 408.84 181.78 C 403.61 179.47 397.55 178.87 392.10 180.78 Z" />
<path fill="#000000" opacity="1.00" d=" M 321.15 191.29 C 331.91 188.65 343.80 195.36 347.18 205.88 C 349.78 213.29 348.05 221.98 342.83 227.84 C 337.53 233.98 328.75 236.83 320.87 234.86 C 311.01 232.69 303.44 223.12 303.68 213.01 C 303.53 202.85 311.23 193.35 321.15 191.29 M 323.17 206.35 C 318.23 208.19 317.12 215.51 321.31 218.72 C 325.11 222.24 331.94 220.04 333.11 215.04 C 334.97 209.45 328.46 203.76 323.17 206.35 Z" />
<path fill="#000000" opacity="1.00" d=" M 82.11 198.18 C 89.64 195.28 98.68 196.92 104.68 202.31 C 110.52 207.32 113.40 215.50 111.94 223.07 C 111.13 228.06 108.37 232.57 104.69 235.99 C 96.56 243.17 83.41 243.22 75.28 236.01 C 69.99 231.30 66.95 224.13 67.71 217.04 C 68.38 208.68 74.25 201.05 82.11 198.18 M 87.21 212.31 C 82.15 214.08 81.01 221.59 85.32 224.79 C 89.16 228.25 95.96 225.96 97.06 220.95 C 98.81 215.43 92.47 209.85 87.21 212.31 Z" />
<path fill="#000000" opacity="1.00" d=" M 155.10 280.12 C 158.59 272.54 166.62 267.29 174.99 267.29 C 182.10 267.07 189.03 270.64 193.30 276.28 C 198.62 283.45 199.17 293.80 194.33 301.36 C 189.94 308.69 181.15 312.80 172.71 311.89 C 167.10 311.08 161.73 308.33 158.14 303.89 C 152.63 297.45 151.41 287.75 155.10 280.12 M 173.39 282.54 C 168.10 283.72 166.15 291.17 170.15 294.81 C 173.79 298.81 181.20 296.84 182.41 291.57 C 184.09 286.36 178.61 280.86 173.39 282.54 Z" />
<path fill="#000000" opacity="1.00" d=" M 90.56 278.74 C 97.15 277.30 104.35 279.01 109.52 283.35 C 115.00 287.81 118.14 294.99 117.61 302.06 C 117.17 310.01 112.06 317.48 104.82 320.81 C 97.45 324.36 88.15 323.40 81.72 318.31 C 75.23 313.44 71.83 304.86 73.28 296.87 C 74.64 288.05 81.83 280.54 90.56 278.74 M 93.43 293.48 C 88.07 294.64 86.10 302.20 90.19 305.84 C 93.87 309.78 101.25 307.75 102.41 302.48 C 104.03 297.30 98.61 291.88 93.43 293.48 Z" />
<path fill="#000000" opacity="1.00" d=" M 240.18 315.09 C 244.70 310.14 251.47 307.60 258.13 307.96 C 264.91 308.60 271.42 312.22 275.14 317.98 C 279.51 324.39 280.00 333.02 276.71 340.00 C 273.11 347.41 265.31 352.61 257.02 352.66 C 248.32 352.98 239.80 347.61 236.25 339.69 C 232.41 331.70 234.04 321.49 240.18 315.09 M 253.49 323.62 C 249.94 325.16 248.15 329.68 249.78 333.21 C 251.20 336.75 255.62 338.63 259.15 337.17 C 262.72 335.89 264.77 331.61 263.50 328.03 C 262.28 324.00 257.30 321.77 253.49 323.62 Z" />
<path fill="#000000" opacity="1.00" d=" M 131.09 317.27 C 142.81 313.77 156.17 316.54 165.47 324.50 C 175.84 333.14 180.88 347.61 177.89 360.80 C 175.51 372.15 167.47 382.12 156.89 386.85 C 148.15 390.88 137.84 391.21 128.80 387.96 C 114.10 382.75 103.66 367.62 104.34 351.99 C 104.49 336.21 115.93 321.51 131.09 317.27 M 133.84 332.14 C 125.59 335.08 119.56 343.31 119.33 352.08 C 119.01 357.79 121.23 363.36 124.81 367.73 C 130.76 374.27 140.56 377.07 148.93 373.92 C 158.31 370.76 164.76 360.75 163.64 350.89 C 163.03 343.19 157.96 336.32 151.15 332.86 C 145.72 330.51 139.42 329.99 133.84 332.14 Z" />
<path fill="#000000" opacity="1.00" d=" M 226.51 363.72 C 237.09 361.47 248.65 364.04 257.12 370.82 C 266.26 377.88 271.75 389.39 271.41 400.94 C 271.26 414.83 262.52 428.13 249.88 433.86 C 239.59 438.71 227.04 438.46 217.00 433.08 C 206.78 427.80 199.30 417.56 197.51 406.18 C 196.04 397.37 197.87 388.07 202.61 380.50 C 207.88 371.99 216.70 365.77 226.51 363.72 M 226.89 379.16 C 218.55 381.96 212.36 390.16 212.03 398.97 C 211.63 404.82 213.90 410.57 217.63 415.00 C 224.13 422.19 235.38 424.54 244.05 420.03 C 252.48 416.00 257.68 406.25 256.21 397.01 C 255.29 389.84 250.52 383.49 244.15 380.19 C 238.79 377.68 232.49 377.12 226.89 379.16 Z" />
<path fill="#000000" opacity="1.00" d=" M 290.06 398.09 C 294.66 393.99 300.99 392.19 307.08 392.71 C 312.40 393.43 317.53 395.88 321.14 399.91 C 326.59 405.71 328.45 414.55 325.85 422.07 C 323.32 429.86 316.18 435.92 308.06 437.06 C 302.45 438.00 296.63 436.50 291.91 433.41 C 287.49 430.15 284.07 425.43 282.90 420.03 C 280.98 412.13 283.85 403.33 290.06 398.09 M 301.34 408.45 C 296.61 410.61 295.95 417.83 300.21 420.82 C 304.30 424.26 311.30 421.45 311.91 416.17 C 313.12 410.52 306.36 405.55 301.34 408.45 Z" />
</g>
<g id="#ffa900ff">
<path fill="#ffa900" opacity="1.00" d=" M 149.29 40.19 C 215.51 6.63 297.58 6.62 363.79 40.21 C 367.20 41.94 368.57 46.59 366.75 49.92 C 363.87 55.34 360.60 60.53 357.64 65.90 C 348.80 59.94 340.21 53.20 329.94 49.87 C 316.54 45.37 302.10 46.70 288.47 43.29 C 277.76 40.69 267.09 37.05 255.94 37.25 C 243.93 37.28 232.59 41.68 220.97 44.08 C 206.18 46.85 190.38 45.62 176.58 52.51 C 169.00 56.11 162.35 61.28 155.39 65.89 C 152.46 60.47 149.13 55.28 146.27 49.84 C 144.48 46.50 145.90 41.89 149.29 40.19 Z" />
<path fill="#ffa900" opacity="1.00" d=" M 123.26 55.26 C 126.53 53.09 131.38 54.34 133.32 57.72 C 136.48 62.89 139.39 68.21 142.45 73.43 C 132.59 78.23 122.14 82.45 114.03 90.08 C 103.77 99.39 97.82 112.29 88.17 122.14 C 80.50 130.18 71.89 137.65 66.51 147.55 C 59.53 160.03 58.38 174.67 52.56 187.62 C 48.53 196.88 43.58 205.88 41.48 215.85 C 39.05 226.61 40.63 237.67 41.43 248.52 C 35.41 248.48 29.39 248.62 23.37 248.47 C 19.47 248.49 15.90 245.02 16.08 241.07 C 20.14 166.93 61.26 96.03 123.26 55.26 Z" />
<path fill="#ffa900" opacity="1.00" d=" M 379.77 57.67 C 381.70 54.34 386.48 53.12 389.73 55.22 C 451.75 95.96 492.86 166.87 496.97 241.02 C 497.18 244.87 493.76 248.35 489.95 248.45 C 483.84 248.64 477.73 248.47 471.63 248.52 C 472.43 237.45 474.05 226.14 471.42 215.19 C 468.51 202.06 460.69 190.75 456.91 177.92 C 453.73 167.45 451.68 156.45 446.15 146.86 C 440.75 137.29 432.40 129.97 424.88 122.14 C 415.06 112.08 409.02 98.89 398.43 89.53 C 390.44 82.15 380.16 78.19 370.60 73.34 C 373.76 68.18 376.59 62.82 379.77 57.67 Z" />
<path fill="#ffa900" opacity="1.00" d=" M 316.93 62.14 C 329.70 63.63 339.89 71.93 350.10 78.95 C 318.91 132.96 287.73 186.99 256.54 241.00 C 249.36 228.64 242.24 216.25 235.09 203.87 C 237.57 199.59 240.06 195.31 242.51 191.01 C 248.38 195.63 256.55 197.24 263.65 194.73 C 272.39 191.91 278.79 183.22 278.86 174.03 C 279.21 164.83 273.16 156.02 264.64 152.68 C 273.63 137.09 282.68 121.53 291.62 105.91 C 295.97 110.81 302.42 113.86 309.02 113.64 C 317.13 113.59 324.90 108.65 328.51 101.41 C 332.28 94.16 331.57 84.86 326.72 78.28 C 323.46 73.61 318.30 70.53 312.80 69.29 C 314.17 66.91 315.55 64.52 316.93 62.14 Z" />
<path fill="#ffa900" opacity="1.00" d=" M 305.55 84.62 C 310.77 81.93 317.37 87.37 315.73 93.01 C 314.74 98.10 307.90 100.45 304.00 97.05 C 299.76 93.93 300.66 86.60 305.55 84.62 Z" />
<path fill="#ffa900" opacity="1.00" d=" M 134.55 93.93 C 139.65 91.34 144.84 88.95 149.99 86.47 C 162.51 108.12 175.02 129.77 187.50 151.45 C 188.96 153.86 190.19 156.84 193.02 157.94 C 195.17 159.02 197.54 158.34 199.72 157.77 C 202.96 163.44 206.29 169.05 209.46 174.77 C 206.47 177.17 204.77 181.49 206.93 185.01 C 219.08 206.19 231.33 227.31 243.54 248.46 C 181.19 248.65 118.83 248.49 56.47 248.54 C 56.12 244.37 55.83 240.19 55.48 236.03 C 62.08 236.03 68.68 236.04 75.28 236.01 C 83.41 243.22 96.56 243.17 104.69 235.99 C 122.16 236.11 139.65 235.96 157.12 236.06 C 162.95 237.34 169.00 237.33 174.82 236.07 C 180.69 235.98 187.03 236.52 192.20 233.16 C 199.69 228.82 203.18 219.57 201.52 211.22 C 203.77 203.30 203.83 194.66 200.85 186.92 C 196.69 175.46 186.56 166.49 174.72 163.65 C 170.23 155.68 165.62 147.78 161.01 139.87 C 164.57 133.40 164.87 125.21 161.40 118.64 C 157.79 111.33 149.92 106.64 141.83 106.41 C 139.30 102.32 136.95 98.11 134.55 93.93 Z" />
<path fill="#ffa900" opacity="1.00" d=" M 363.28 86.43 C 372.38 91.24 382.55 94.67 389.95 102.13 C 398.01 110.24 403.29 120.58 410.91 129.06 C 418.62 138.02 428.52 145.32 434.04 155.99 C 439.22 166.48 440.61 178.30 444.91 189.13 C 448.86 199.64 455.10 209.36 457.22 220.52 C 458.79 229.82 457.11 239.22 456.59 248.54 C 453.74 248.56 450.90 248.44 448.07 248.60 C 444.28 248.70 441.13 252.24 441.21 255.97 C 441.10 287.98 441.25 320.00 441.14 352.01 C 441.31 355.84 437.81 359.30 433.99 359.13 C 430.24 359.18 426.92 355.77 427.05 352.03 C 426.96 336.37 427.04 320.70 427.02 305.03 C 427.00 300.00 427.48 294.68 425.03 290.07 C 422.05 283.79 415.54 279.75 408.70 279.13 C 408.66 273.93 408.67 268.73 408.69 263.53 C 413.16 263.45 417.63 263.67 422.10 263.44 C 425.97 263.38 429.33 259.83 429.22 255.97 C 429.29 252.08 425.87 248.48 421.94 248.58 C 371.13 248.49 320.31 248.58 269.49 248.53 C 271.90 244.36 274.30 240.17 276.73 236.01 C 312.51 235.99 348.28 236.14 384.05 235.94 C 392.51 239.49 402.23 240.13 410.94 237.12 C 422.94 233.23 432.45 222.74 435.31 210.48 C 439.94 192.79 429.26 173.01 412.07 166.96 C 407.58 155.39 406.11 142.76 400.27 131.70 C 394.97 121.78 386.17 114.52 378.61 106.41 C 372.84 100.28 368.29 93.16 363.28 86.43 Z" />
<path fill="#ffa900" opacity="1.00" d=" M 138.26 122.27 C 143.35 119.45 150.10 124.50 148.73 130.17 C 148.01 135.30 141.26 138.07 137.20 134.77 C 132.80 131.84 133.42 124.40 138.26 122.27 Z" />
<path fill="#ffa900" opacity="1.00" d=" M 370.33 129.47 C 374.96 126.63 381.50 130.62 381.21 136.00 C 381.39 141.51 374.45 145.31 369.93 142.10 C 365.27 139.43 365.52 131.84 370.33 129.47 Z" />
<path fill="#ffa900" opacity="1.00" d=" M 254.40 166.53 C 259.71 164.65 265.43 170.35 263.56 175.67 C 262.23 180.88 254.83 182.71 251.27 178.67 C 247.41 175.05 249.28 167.84 254.40 166.53 Z" />
<path fill="#ffa900" opacity="1.00" d=" M 323.17 206.35 C 328.46 203.76 334.97 209.45 333.11 215.04 C 331.94 220.04 325.11 222.24 321.31 218.72 C 317.12 215.51 318.23 208.19 323.17 206.35 Z" />
<path fill="#ffa900" opacity="1.00" d=" M 87.21 212.31 C 92.47 209.85 98.81 215.43 97.06 220.95 C 95.96 225.96 89.16 228.25 85.32 224.79 C 81.01 221.59 82.15 214.08 87.21 212.31 Z" />
<path fill="#ffa900" opacity="1.00" d=" M 16.09 271.96 C 15.45 267.88 18.77 263.66 22.95 263.59 C 29.11 263.44 35.27 263.59 41.42 263.54 C 40.59 274.69 38.99 286.08 41.70 297.10 C 44.73 310.43 52.75 321.89 56.42 334.99 C 59.49 345.38 61.63 356.26 67.23 365.70 C 72.75 375.21 81.19 382.44 88.65 390.36 C 98.02 400.13 103.95 412.74 114.02 421.90 C 122.13 429.53 132.59 433.75 142.46 438.57 C 139.36 443.80 136.46 449.14 133.29 454.32 C 131.19 457.93 125.92 458.91 122.63 456.36 C 94.38 437.47 70.29 412.45 52.30 383.63 C 31.34 350.12 18.59 311.43 16.09 271.96 Z" />
<path fill="#ffa900" opacity="1.00" d=" M 200.69 263.53 C 214.96 263.53 229.24 263.51 243.52 263.54 C 212.36 317.54 181.18 371.54 149.98 425.53 C 138.83 420.14 126.53 415.49 118.86 405.18 C 122.18 399.44 125.50 393.71 128.80 387.96 C 137.84 391.21 148.15 390.88 156.89 386.85 C 167.47 382.12 175.51 372.15 177.89 360.80 C 180.88 347.61 175.84 333.14 165.47 324.50 C 167.86 320.29 170.32 316.11 172.71 311.89 C 181.15 312.80 189.94 308.69 194.33 301.36 C 199.17 293.80 198.62 283.45 193.30 276.28 C 195.75 272.02 198.20 267.76 200.69 263.53 Z" />
<path fill="#ffa900" opacity="1.00" d=" M 256.49 271.01 C 287.78 324.96 318.85 379.04 350.10 433.01 C 342.25 438.30 334.77 444.50 325.74 447.71 C 314.55 451.42 302.55 450.67 291.06 452.84 C 279.65 454.77 268.73 459.49 257.04 459.76 C 243.62 459.78 231.21 453.66 217.98 452.30 C 214.20 452.11 210.71 455.32 210.45 459.08 C 209.97 462.93 213.01 466.68 216.85 467.16 C 230.31 469.32 243.21 474.97 257.03 474.75 C 271.62 474.74 285.13 468.22 299.52 466.77 C 310.04 465.59 320.84 465.36 330.92 461.78 C 340.79 458.38 349.07 451.85 357.64 446.10 C 360.60 451.47 363.87 456.66 366.75 462.08 C 368.59 465.43 367.16 470.10 363.73 471.82 C 297.51 505.36 215.49 505.35 149.28 471.79 C 145.66 469.96 144.40 464.95 146.56 461.55 C 149.44 456.36 152.52 451.28 155.42 446.10 C 163.95 451.82 172.20 458.37 182.04 461.72 C 185.86 463.10 190.44 460.57 191.43 456.66 C 192.50 453.19 190.61 449.09 187.19 447.77 C 181.71 445.50 176.47 442.63 171.76 439.00 C 185.85 439.99 198.98 445.95 213.01 447.13 C 227.85 448.31 241.62 441.48 256.09 439.66 C 268.09 438.04 280.60 438.30 291.91 433.41 C 296.63 436.50 302.45 438.00 308.06 437.06 C 316.18 435.92 323.32 429.86 325.85 422.07 C 328.45 414.55 326.59 405.71 321.14 399.91 C 317.53 395.88 312.40 393.43 307.08 392.71 C 296.91 375.17 286.69 357.65 276.71 340.00 C 280.00 333.02 279.51 324.39 275.14 317.98 C 271.42 312.22 264.91 308.60 258.13 307.96 C 254.26 301.36 250.45 294.73 246.66 288.09 C 249.92 282.39 253.24 276.72 256.49 271.01 Z" />
<path fill="#ffa900" opacity="1.00" d=" M 173.39 282.54 C 178.61 280.86 184.09 286.36 182.41 291.57 C 181.20 296.84 173.79 298.81 170.15 294.81 C 166.15 291.17 168.10 283.72 173.39 282.54 Z" />
<path fill="#ffa900" opacity="1.00" d=" M 93.43 293.48 C 98.61 291.88 104.03 297.30 102.41 302.48 C 101.25 307.75 93.87 309.78 90.19 305.84 C 86.10 302.20 88.07 294.64 93.43 293.48 Z" />
<path fill="#ffa900" opacity="1.00" d=" M 253.49 323.62 C 257.30 321.77 262.28 324.00 263.50 328.03 C 264.77 331.61 262.72 335.89 259.15 337.17 C 255.62 338.63 251.20 336.75 249.78 333.21 C 248.15 329.68 249.94 325.16 253.49 323.62 Z" />
<path fill="#ffa900" opacity="1.00" d=" M 301.34 408.45 C 306.36 405.55 313.12 410.52 311.91 416.17 C 311.30 421.45 304.30 424.26 300.21 420.82 C 295.95 417.83 296.61 410.61 301.34 408.45 Z" />
</g>
<g id="#ffe082ff">
<path fill="#ffe082" opacity="1.00" d=" M 222.98 58.98 C 234.36 56.92 245.32 52.20 257.03 52.25 C 268.32 52.48 278.91 56.93 289.91 58.95 C 298.83 60.67 307.95 60.84 316.93 62.14 C 315.55 64.52 314.17 66.91 312.80 69.29 C 304.12 67.68 294.74 71.53 289.95 78.98 C 284.42 87.03 285.22 98.57 291.62 105.91 C 282.68 121.53 273.63 137.09 264.64 152.68 C 258.36 150.35 251.04 150.78 245.26 154.27 C 238.36 158.22 233.91 166.08 234.19 174.05 C 234.24 180.59 237.50 186.86 242.51 191.01 C 240.06 195.31 237.57 199.59 235.09 203.87 C 229.96 195.05 224.96 186.15 219.74 177.39 C 217.68 173.77 213.01 173.25 209.46 174.77 C 206.29 169.05 202.96 163.44 199.72 157.77 C 202.90 155.47 204.65 151.01 202.46 147.43 C 189.37 124.56 176.12 101.78 162.98 78.95 C 171.46 73.33 179.50 66.48 189.45 63.62 C 200.39 60.61 211.90 61.18 222.98 58.98 M 220.60 62.73 C 205.00 65.87 192.47 80.00 191.35 95.89 C 190.11 108.69 196.16 121.84 206.66 129.25 C 216.11 136.24 228.99 138.20 240.12 134.43 C 248.74 131.62 256.18 125.47 260.68 117.60 C 265.63 109.07 266.93 98.53 264.22 89.05 C 261.40 78.84 253.97 70.03 244.39 65.51 C 237.05 61.99 228.55 61.03 220.60 62.73 Z" />
<path fill="#ffe082" opacity="1.00" d=" M 338.32 129.34 C 346.68 115.06 354.68 100.56 363.28 86.43 C 368.29 93.16 372.84 100.28 378.61 106.41 C 386.17 114.52 394.97 121.78 400.27 131.70 C 406.11 142.76 407.58 155.39 412.07 166.96 C 403.24 163.69 393.15 163.88 384.50 167.65 C 375.16 171.63 367.58 179.58 364.16 189.16 C 360.36 199.43 361.47 211.37 367.10 220.77 C 371.00 227.45 377.09 232.66 384.05 235.94 C 348.28 236.14 312.51 235.99 276.73 236.01 C 297.26 200.45 317.79 164.90 338.32 129.34 M 367.38 114.51 C 357.48 117.35 350.45 127.67 351.61 137.95 C 352.34 147.72 360.27 156.35 369.95 157.91 C 377.54 159.34 385.72 156.43 390.73 150.55 C 395.82 144.82 397.55 136.35 395.14 129.07 C 391.80 117.76 378.61 110.81 367.38 114.51 M 321.15 191.29 C 311.23 193.35 303.53 202.85 303.68 213.01 C 303.44 223.12 311.01 232.69 320.87 234.86 C 328.75 236.83 337.53 233.98 342.83 227.84 C 348.05 221.98 349.78 213.29 347.18 205.88 C 343.80 195.36 331.91 188.65 321.15 191.29 Z" />
<path fill="#ffe082" opacity="1.00" d=" M 121.21 104.12 C 124.94 99.89 129.60 96.59 134.55 93.93 C 136.95 98.11 139.30 102.32 141.83 106.41 C 135.23 106.48 128.64 109.31 124.43 114.45 C 118.99 120.80 117.61 130.26 121.08 137.87 C 124.77 146.62 134.56 152.27 144.00 151.04 C 151.06 150.36 157.46 145.97 161.01 139.87 C 165.62 147.78 170.23 155.68 174.72 163.65 C 157.98 159.33 139.21 168.48 132.21 184.25 C 127.06 195.20 127.77 208.67 134.10 219.00 C 139.13 227.45 147.63 233.60 157.12 236.06 C 139.65 235.96 122.16 236.11 104.69 235.99 C 108.37 232.57 111.13 228.06 111.94 223.07 C 113.40 215.50 110.52 207.32 104.68 202.31 C 98.68 196.92 89.64 195.28 82.11 198.18 C 74.25 201.05 68.38 208.68 67.71 217.04 C 66.95 224.13 69.99 231.30 75.28 236.01 C 68.68 236.04 62.08 236.03 55.48 236.03 C 55.04 230.00 54.89 223.84 56.40 217.94 C 59.02 207.56 64.76 198.38 68.44 188.39 C 72.81 177.11 74.08 164.68 80.08 154.04 C 85.82 144.38 94.93 137.47 102.19 129.05 C 109.15 121.22 114.23 111.93 121.21 104.12 Z" />
<path fill="#ffe082" opacity="1.00" d=" M 174.82 236.07 C 187.23 233.03 197.50 223.31 201.52 211.22 C 203.18 219.57 199.69 228.82 192.20 233.16 C 187.03 236.52 180.69 235.98 174.82 236.07 Z" />
<path fill="#ffe082" opacity="1.00" d=" M 56.62 294.92 C 53.81 284.64 55.88 273.95 56.47 263.53 C 104.55 263.53 152.62 263.54 200.69 263.53 C 198.20 267.76 195.75 272.02 193.30 276.28 C 189.03 270.64 182.10 267.07 174.99 267.29 C 166.62 267.29 158.59 272.54 155.10 280.12 C 151.41 287.75 152.63 297.45 158.14 303.89 C 161.73 308.33 167.10 311.08 172.71 311.89 C 170.32 316.11 167.86 320.29 165.47 324.50 C 156.17 316.54 142.81 313.77 131.09 317.27 C 115.93 321.51 104.49 336.21 104.34 351.99 C 103.66 367.62 114.10 382.75 128.80 387.96 C 125.50 393.71 122.18 399.44 118.86 405.18 C 112.64 397.33 107.54 388.60 100.68 381.26 C 93.89 373.75 85.83 367.27 80.46 358.58 C 74.65 348.78 73.20 337.25 69.51 326.62 C 65.99 315.74 59.65 305.98 56.62 294.92 M 90.56 278.74 C 81.83 280.54 74.64 288.05 73.28 296.87 C 71.83 304.86 75.23 313.44 81.72 318.31 C 88.15 323.40 97.45 324.36 104.82 320.81 C 112.06 317.48 117.17 310.01 117.61 302.06 C 118.14 294.99 115.00 287.81 109.52 283.35 C 104.35 279.01 97.15 277.30 90.56 278.74 Z" />
<path fill="#ffe082" opacity="1.00" d=" M 365.03 263.54 C 379.58 263.52 394.13 263.54 408.69 263.53 C 408.67 268.73 408.66 273.93 408.70 279.13 C 400.38 278.81 392.13 284.05 389.40 292.00 C 387.21 297.43 389.07 303.42 387.66 308.97 C 385.79 315.42 377.84 318.80 371.78 316.20 C 367.78 314.55 364.99 310.40 365.06 306.06 C 364.97 291.89 365.06 277.71 365.03 263.54 Z" />
<path fill="#ffe082" opacity="1.00" d=" M 162.98 433.05 C 190.86 384.72 218.77 336.41 246.66 288.09 C 250.45 294.73 254.26 301.36 258.13 307.96 C 251.47 307.60 244.70 310.14 240.18 315.09 C 234.04 321.49 232.41 331.70 236.25 339.69 C 239.80 347.61 248.32 352.98 257.02 352.66 C 265.31 352.61 273.11 347.41 276.71 340.00 C 286.69 357.65 296.91 375.17 307.08 392.71 C 300.99 392.19 294.66 393.99 290.06 398.09 C 283.85 403.33 280.98 412.13 282.90 420.03 C 284.07 425.43 287.49 430.15 291.91 433.41 C 280.60 438.30 268.09 438.04 256.09 439.66 C 241.62 441.48 227.85 448.31 213.01 447.13 C 198.98 445.95 185.85 439.99 171.76 439.00 C 168.70 437.23 165.93 434.99 162.98 433.05 M 226.51 363.72 C 216.70 365.77 207.88 371.99 202.61 380.50 C 197.87 388.07 196.04 397.37 197.51 406.18 C 199.30 417.56 206.78 427.80 217.00 433.08 C 227.04 438.46 239.59 438.71 249.88 433.86 C 262.52 428.13 271.26 414.83 271.41 400.94 C 271.75 389.39 266.26 377.88 257.12 370.82 C 248.65 364.04 237.09 361.47 226.51 363.72 Z" />
</g>
<g id="#ef5350ff">
<path fill="#ef5350" opacity="1.00" d=" M 221.92 77.87 C 227.20 76.17 232.97 76.82 238.02 78.98 C 238.85 87.53 236.86 96.54 231.15 103.15 C 226.40 109.16 219.18 112.49 211.82 114.00 C 208.09 109.56 205.82 103.82 206.22 97.97 C 206.55 88.85 213.17 80.42 221.92 77.87 Z" />
<path fill="#ef5350" opacity="1.00" d=" M 143.96 196.97 C 145.00 188.02 152.09 180.19 160.88 178.23 C 165.76 177.01 170.92 177.75 175.51 179.68 C 176.26 186.80 175.15 194.24 171.27 200.35 C 166.54 208.11 158.21 213.57 149.13 214.47 C 145.21 209.60 143.03 203.24 143.96 196.97 Z" />
<path fill="#ef5350" opacity="1.00" d=" M 392.10 180.78 C 397.55 178.87 403.61 179.47 408.84 181.78 C 409.47 190.31 407.56 199.28 401.86 205.88 C 397.11 211.88 389.92 215.26 382.55 216.74 C 378.64 212.11 376.37 206.04 377.00 199.95 C 377.62 191.30 383.86 183.43 392.10 180.78 Z" />
<path fill="#ef5350" opacity="1.00" d=" M 133.84 332.14 C 139.42 329.99 145.72 330.51 151.15 332.86 C 151.62 339.56 150.93 346.55 147.39 352.41 C 142.90 360.83 134.18 366.43 124.81 367.73 C 121.23 363.36 119.01 357.79 119.33 352.08 C 119.56 343.31 125.59 335.08 133.84 332.14 Z" />
<path fill="#ef5350" opacity="1.00" d=" M 226.89 379.16 C 232.49 377.12 238.79 377.68 244.15 380.19 C 244.30 388.14 243.00 396.50 237.95 402.91 C 233.21 409.62 225.53 413.47 217.63 415.00 C 213.90 410.57 211.63 404.82 212.03 398.97 C 212.36 390.16 218.55 381.96 226.89 379.16 Z" />
</g>
<g id="#d32f2fff">
<path fill="#d32f2f" opacity="1.00" d=" M 238.02 78.98 C 244.24 82.18 249.08 88.14 250.26 95.11 C 252.13 104.43 247.15 114.51 238.70 118.79 C 229.97 123.59 218.44 121.32 211.82 114.00 C 219.18 112.49 226.40 109.16 231.15 103.15 C 236.86 96.54 238.85 87.53 238.02 78.98 Z" />
<path fill="#d32f2f" opacity="1.00" d=" M 175.51 179.68 C 182.48 183.16 187.61 190.21 188.13 198.06 C 189.08 207.69 182.86 217.37 173.79 220.65 C 165.27 224.04 155.17 221.21 149.13 214.47 C 158.21 213.57 166.54 208.11 171.27 200.35 C 175.15 194.24 176.26 186.80 175.51 179.68 Z" />
<path fill="#d32f2f" opacity="1.00" d=" M 408.84 181.78 C 415.04 184.97 419.83 190.96 420.98 197.91 C 422.78 206.95 418.13 216.72 410.09 221.16 C 401.31 226.41 389.34 224.27 382.55 216.74 C 389.92 215.26 397.11 211.88 401.86 205.88 C 407.56 199.28 409.47 190.31 408.84 181.78 Z" />
<path fill="#d32f2f" opacity="1.00" d=" M 151.15 332.86 C 157.96 336.32 163.03 343.19 163.64 350.89 C 164.76 360.75 158.31 370.76 148.93 373.92 C 140.56 377.07 130.76 374.27 124.81 367.73 C 134.18 366.43 142.90 360.83 147.39 352.41 C 150.93 346.55 151.62 339.56 151.15 332.86 Z" />
<path fill="#d32f2f" opacity="1.00" d=" M 244.15 380.19 C 250.52 383.49 255.29 389.84 256.21 397.01 C 257.68 406.25 252.48 416.00 244.05 420.03 C 235.38 424.54 224.13 422.19 217.63 415.00 C 225.53 413.47 233.21 409.62 237.95 402.91 C 243.00 396.50 244.30 388.14 244.15 380.19 Z" />
</g>
</svg>
