<svg width="73" height="72" viewBox="0 0 73 72" fill="none" xmlns="http://www.w3.org/2000/svg">
<rect x="0.25" width="72" height="72" fill="#F5F6F8"/>
<mask id="mask0_4971_18298" style="mask-type:alpha" maskUnits="userSpaceOnUse" x="24" y="24" width="25" height="25">
<rect x="24.0757" y="24.0801" width="24" height="24" fill="#D9D9D9"/>
</mask>
<g mask="url(#mask0_4971_18298)">
<path d="M31.0757 41.0801C30.5257 41.0801 30.055 40.8844 29.6637 40.4931C29.2717 40.1011 29.0757 39.6301 29.0757 39.0801V28.0801C29.0757 27.5301 29.2717 27.0591 29.6637 26.6671C30.055 26.2757 30.5257 26.0801 31.0757 26.0801H36.0757L38.0757 28.0801H45.0757C45.6257 28.0801 46.0967 28.2761 46.4887 28.6681C46.88 29.0594 47.0757 29.5301 47.0757 30.0801V39.0801C47.0757 39.6301 46.88 40.1011 46.4887 40.4931C46.0967 40.8844 45.6257 41.0801 45.0757 41.0801H31.0757ZM31.0757 39.0801H45.0757V30.0801H37.2507L35.2507 28.0801H31.0757V39.0801ZM44.0757 45.0801H27.0757C26.5257 45.0801 26.055 44.8844 25.6637 44.4931C25.2717 44.1011 25.0757 43.6301 25.0757 43.0801V30.0801H27.0757V43.0801H44.0757V45.0801ZM33.0757 37.0801H43.0757L39.7007 32.5801L37.0757 36.0801L35.4507 33.9051L33.0757 37.0801Z" fill="#CED3D9"/>
</g>
</svg>
