<svg width="18" height="18" viewBox="0 0 18 18" fill="none" xmlns="http://www.w3.org/2000/svg">
<path d="M2 18C1.45 18 0.979 17.8043 0.587 17.413C0.195667 17.021 0 16.55 0 16V2C0 1.45 0.195667 0.979 0.587 0.587C0.979 0.195667 1.45 0 2 0H16C16.55 0 17.021 0.195667 17.413 0.587C17.8043 0.979 18 1.45 18 2V16C18 16.55 17.8043 17.021 17.413 17.413C17.021 17.8043 16.55 18 16 18H2ZM2 16H16V4H2V16ZM9 14C7.63333 14 6.41267 13.629 5.338 12.887C4.26267 12.1457 3.48333 11.1833 3 10C3.48333 8.81667 4.26267 7.85433 5.338 7.113C6.41267 6.371 7.63333 6 9 6C10.3667 6 11.5877 6.371 12.663 7.113C13.7377 7.85433 14.5167 8.81667 15 10C14.5167 11.1833 13.7377 12.1457 12.663 12.887C11.5877 13.629 10.3667 14 9 14ZM9 12.5C9.93333 12.5 10.7833 12.279 11.55 11.837C12.3167 11.3957 12.9167 10.7833 13.35 10C12.9167 9.21667 12.3167 8.604 11.55 8.162C10.7833 7.72067 9.93333 7.5 9 7.5C8.06667 7.5 7.21667 7.72067 6.45 8.162C5.68333 8.604 5.08333 9.21667 4.65 10C5.08333 10.7833 5.68333 11.3957 6.45 11.837C7.21667 12.279 8.06667 12.5 9 12.5ZM9 11.5C8.58333 11.5 8.22933 11.354 7.938 11.062C7.646 10.7707 7.5 10.4167 7.5 10C7.5 9.58333 7.646 9.22933 7.938 8.938C8.22933 8.646 8.58333 8.5 9 8.5C9.41667 8.5 9.77067 8.646 10.062 8.938C10.354 9.22933 10.5 9.58333 10.5 10C10.5 10.4167 10.354 10.7707 10.062 11.062C9.77067 11.354 9.41667 11.5 9 11.5Z" fill="#89909A"/>
</svg>
