<svg width="250" height="250" viewBox="0 0 250 250" fill="none" xmlns="http://www.w3.org/2000/svg">
<g clip-path="url(#clip0_1_2)">
<rect width="250" height="250" fill="white"/>
<g clip-path="url(#clip1_1_2)">
<path d="M249.992 -0.00308228H-0.00396729V249.993H249.992V-0.00308228Z" fill="#ddfedd"/>
<path d="M124.894 129.685C147.031 129.682 154.997 107.519 157.082 89.3106C159.651 66.8809 149.045 50 124.894 50C100.749 50 90.1377 66.8797 92.7067 89.3106C94.7943 107.517 102.757 129.687 124.894 129.685Z" fill="white" stroke="#00AA00" stroke-width="3"/>
<path d="M184.777 182.464C184.535 175.399 183.707 168.301 182.474 161.346C180.98 152.92 179.079 140.568 171.723 135.079C167.469 131.904 161.96 130.862 157.09 128.948C154.719 128.017 152.596 127.092 150.603 126.039C143.877 133.415 135.106 137.274 124.891 137.274C114.679 137.274 105.909 133.415 99.1829 126.039C97.19 127.092 95.0666 128.017 92.6962 128.948C87.826 130.862 82.3171 131.904 78.0634 135.079C70.7068 140.569 68.8058 152.922 67.3122 161.346C66.079 168.301 65.2509 175.399 65.0091 182.464C64.8219 187.936 67.5239 188.703 72.102 190.355C77.8348 192.423 83.7534 193.958 89.7116 195.216C101.219 197.646 113.081 199.513 124.891 199.597C136.702 199.513 148.564 197.646 160.071 195.216C166.029 193.958 171.948 192.423 177.681 190.355C182.26 188.704 184.962 187.937 184.775 182.464H184.777Z" fill="white" stroke="#00AA00" stroke-width="3"/>
</g>
</g>
<defs>
<clipPath id="clip0_1_2">
<rect width="250" height="250" fill="white"/>
</clipPath>
<clipPath id="clip1_1_2">
<rect width="250" height="250" fill="white"/>
</clipPath>
</defs>
</svg>
