<svg width="20" height="20" viewBox="0 0 20 20" fill="none" xmlns="http://www.w3.org/2000/svg">
<path d="M10 20C8.61667 20 7.31667 19.7373 6.1 19.212C4.88333 18.6873 3.825 17.975 2.925 17.075C2.025 16.175 1.31267 15.1167 0.788 13.9C0.262667 12.6833 0 11.3833 0 10C0 8.61667 0.262667 7.31667 0.788 6.1C1.31267 4.88333 2.025 3.825 2.925 2.925C3.825 2.025 4.88333 1.31233 6.1 0.787C7.31667 0.262333 8.61667 0 10 0C11.3833 0 12.6833 0.262333 13.9 0.787C15.1167 1.31233 16.175 2.025 17.075 2.925C17.975 3.825 18.6873 4.88333 19.212 6.1C19.7373 7.31667 20 8.61667 20 10C20 11.3833 19.7373 12.6833 19.212 13.9C18.6873 15.1167 17.975 16.175 17.075 17.075C16.175 17.975 15.1167 18.6873 13.9 19.212C12.6833 19.7373 11.3833 20 10 20ZM9 17.95V16C8.45 16 7.97933 15.8043 7.588 15.413C7.196 15.021 7 14.55 7 14V13L2.2 8.2C2.15 8.5 2.104 8.8 2.062 9.1C2.02067 9.4 2 9.7 2 10C2 12.0167 2.66267 13.7833 3.988 15.3C5.31267 16.8167 6.98333 17.7 9 17.95ZM15.9 15.4C16.5833 14.65 17.104 13.8123 17.462 12.887C17.8207 11.9623 18 11 18 10C18 8.36667 17.546 6.875 16.638 5.525C15.7293 4.175 14.5167 3.2 13 2.6V3C13 3.55 12.8043 4.02067 12.413 4.412C12.021 4.804 11.55 5 11 5H9V7C9 7.28333 8.90433 7.52067 8.713 7.712C8.521 7.904 8.28333 8 8 8H6V10H12C12.2833 10 12.521 10.0957 12.713 10.287C12.9043 10.479 13 10.7167 13 11V14H14C14.4333 14 14.825 14.129 15.175 14.387C15.525 14.6457 15.7667 14.9833 15.9 15.4Z" fill="#89909A"/>
</svg>
