<svg width="18" height="18" viewBox="0 0 18 18" fill="none" xmlns="http://www.w3.org/2000/svg">
<path d="M10 18V16H12V18H10ZM8 16V11H10V16H8ZM16 13V9H18V13H16ZM14 9V7H16V9H14ZM2 11V9H4V11H2ZM0 9V7H2V9H0ZM9 2V0H11V2H9ZM1.5 4.5H4.5V1.5H1.5V4.5ZM0 6V0H6V6H0ZM1.5 16.5H4.5V13.5H1.5V16.5ZM0 18V12H6V18H0ZM13.5 4.5H16.5V1.5H13.5V4.5ZM12 6V0H18V6H12ZM14 18V15H12V13H16V16H18V18H14ZM10 11V9H14V11H10ZM6 11V9H4V7H10V9H8V11H6ZM7 6V2H9V4H11V6H7ZM2.25 3.75V2.25H3.75V3.75H2.25ZM2.25 15.75V14.25H3.75V15.75H2.25ZM14.25 3.75V2.25H15.75V3.75H14.25Z" fill="#89909A"/>
</svg>
