<svg width="25" height="24" viewBox="0 0 25 24" fill="none" xmlns="http://www.w3.org/2000/svg">
<mask id="mask0_889_5598" style="mask-type:alpha" maskUnits="userSpaceOnUse" x="0" y="0" width="25" height="24">
<rect x="0.5" width="24" height="24" fill="#D9D9D9"/>
</mask>
<g mask="url(#mask0_889_5598)">
<path d="M13.5 21V19H15.5V21H13.5ZM11.5 19V14H13.5V19H11.5ZM19.5 16V12H21.5V16H19.5ZM17.5 12V10H19.5V12H17.5ZM5.5 14V12H7.5V14H5.5ZM3.5 12V10H5.5V12H3.5ZM12.5 5V3H14.5V5H12.5ZM5 7.5H8V4.5H5V7.5ZM3.5 9V3H9.5V9H3.5ZM5 19.5H8V16.5H5V19.5ZM3.5 21V15H9.5V21H3.5ZM17 7.5H20V4.5H17V7.5ZM15.5 9V3H21.5V9H15.5ZM17.5 21V18H15.5V16H19.5V19H21.5V21H17.5ZM13.5 14V12H17.5V14H13.5ZM9.5 14V12H7.5V10H13.5V12H11.5V14H9.5ZM10.5 9V5H12.5V7H14.5V9H10.5ZM5.75 6.75V5.25H7.25V6.75H5.75ZM5.75 18.75V17.25H7.25V18.75H5.75ZM17.75 6.75V5.25H19.25V6.75H17.75Z" fill="white"/>
</g>
</svg>
