<svg width="336" height="322" viewBox="0 0 336 322" fill="none" xmlns="http://www.w3.org/2000/svg">
<path d="M83.4527 260L93.1007 234.8H96.3047L105.881 260H102.821L96.6647 243.656C96.4967 243.2 96.3047 242.672 96.0887 242.072C95.8967 241.448 95.6807 240.812 95.4407 240.164C95.2247 239.492 95.0087 238.844 94.7927 238.22C94.6007 237.596 94.4207 237.044 94.2527 236.564H94.9727C94.7807 237.164 94.5767 237.776 94.3607 238.4C94.1687 239 93.9647 239.612 93.7487 240.236C93.5327 240.836 93.3167 241.436 93.1007 242.036C92.8847 242.636 92.6687 243.236 92.4527 243.836L86.3327 260H83.4527ZM87.5567 253.052L88.6007 250.316H100.517L101.669 253.052H87.5567ZM112.214 260L105.698 241.208L108.578 241.172L113.654 256.472L112.754 256.4L118.262 244.088H119.882L125.426 256.4L124.346 256.472L129.53 241.208H132.374L125.858 260H124.274L118.442 246.608L119.522 246.68L113.87 260H112.214ZM143.312 260.36C141.44 260.36 139.772 259.952 138.308 259.136C136.868 258.32 135.74 257.18 134.924 255.716C134.108 254.252 133.7 252.572 133.7 250.676C133.7 249.212 133.928 247.892 134.384 246.716C134.84 245.516 135.476 244.472 136.292 243.584C137.132 242.696 138.128 242.012 139.28 241.532C140.432 241.028 141.68 240.776 143.024 240.776C144.296 240.776 145.448 241.004 146.48 241.46C147.536 241.916 148.436 242.552 149.18 243.368C149.948 244.16 150.524 245.108 150.908 246.212C151.292 247.316 151.46 248.528 151.412 249.848L151.376 251.108H135.716L135.32 248.84H149.324L148.676 249.452V248.588C148.628 247.724 148.376 246.896 147.92 246.104C147.464 245.288 146.816 244.628 145.976 244.124C145.16 243.62 144.176 243.368 143.024 243.368C141.68 243.368 140.516 243.644 139.532 244.196C138.548 244.724 137.792 245.516 137.264 246.572C136.736 247.628 136.472 248.936 136.472 250.496C136.472 251.984 136.76 253.28 137.336 254.384C137.912 255.464 138.728 256.304 139.784 256.904C140.864 257.504 142.16 257.804 143.672 257.804C144.56 257.804 145.436 257.66 146.3 257.372C147.188 257.06 148.16 256.46 149.216 255.572L150.62 257.516C150.068 258.068 149.408 258.56 148.64 258.992C147.872 259.4 147.032 259.736 146.12 260C145.208 260.24 144.272 260.36 143.312 260.36ZM161.403 260.36C159.795 260.36 158.355 260.06 157.083 259.46C155.811 258.86 154.803 258.068 154.059 257.084L155.967 255.428C156.663 256.268 157.479 256.904 158.415 257.336C159.375 257.768 160.443 257.984 161.619 257.984C162.219 257.984 162.759 257.924 163.239 257.804C163.719 257.66 164.139 257.456 164.499 257.192C164.859 256.928 165.135 256.616 165.327 256.256C165.519 255.896 165.615 255.5 165.615 255.068C165.615 254.276 165.267 253.616 164.571 253.088C164.259 252.872 163.815 252.656 163.239 252.44C162.663 252.2 161.967 251.972 161.151 251.756C159.807 251.372 158.691 250.988 157.803 250.604C156.915 250.196 156.219 249.728 155.715 249.2C155.355 248.768 155.079 248.3 154.887 247.796C154.719 247.292 154.635 246.74 154.635 246.14C154.635 245.372 154.791 244.664 155.103 244.016C155.439 243.368 155.895 242.804 156.471 242.324C157.071 241.82 157.767 241.448 158.559 241.208C159.375 240.944 160.251 240.812 161.187 240.812C162.075 240.812 162.951 240.932 163.815 241.172C164.679 241.412 165.483 241.76 166.227 242.216C166.971 242.672 167.607 243.212 168.135 243.836L166.479 245.636C166.023 245.156 165.519 244.724 164.967 244.34C164.415 243.956 163.827 243.656 163.203 243.44C162.603 243.224 161.979 243.116 161.331 243.116C160.755 243.116 160.215 243.188 159.711 243.332C159.231 243.476 158.811 243.68 158.451 243.944C158.115 244.184 157.851 244.484 157.659 244.844C157.491 245.204 157.407 245.6 157.407 246.032C157.407 246.392 157.479 246.716 157.623 247.004C157.767 247.292 157.971 247.544 158.235 247.76C158.571 248.024 159.039 248.276 159.639 248.516C160.263 248.732 161.031 248.96 161.943 249.2C162.999 249.488 163.887 249.788 164.607 250.1C165.351 250.388 165.963 250.736 166.443 251.144C167.091 251.624 167.547 252.176 167.811 252.8C168.099 253.424 168.243 254.132 168.243 254.924C168.243 255.98 167.943 256.916 167.343 257.732C166.767 258.548 165.963 259.196 164.931 259.676C163.899 260.132 162.723 260.36 161.403 260.36ZM180.79 260.36C178.918 260.36 177.25 259.94 175.786 259.1C174.346 258.26 173.206 257.096 172.366 255.608C171.55 254.12 171.142 252.428 171.142 250.532C171.142 248.66 171.55 246.992 172.366 245.528C173.206 244.064 174.346 242.912 175.786 242.072C177.25 241.232 178.918 240.812 180.79 240.812C182.638 240.812 184.282 241.232 185.722 242.072C187.186 242.912 188.326 244.064 189.142 245.528C189.982 246.992 190.402 248.66 190.402 250.532C190.402 252.428 189.982 254.12 189.142 255.608C188.326 257.096 187.186 258.26 185.722 259.1C184.282 259.94 182.638 260.36 180.79 260.36ZM180.79 257.804C182.11 257.804 183.286 257.492 184.318 256.868C185.35 256.22 186.154 255.356 186.73 254.276C187.306 253.172 187.594 251.924 187.594 250.532C187.594 249.14 187.306 247.904 186.73 246.824C186.154 245.744 185.35 244.904 184.318 244.304C183.286 243.68 182.11 243.368 180.79 243.368C179.47 243.368 178.282 243.68 177.226 244.304C176.194 244.904 175.378 245.756 174.778 246.86C174.202 247.94 173.926 249.164 173.95 250.532C173.926 251.924 174.202 253.172 174.778 254.276C175.378 255.356 176.194 256.22 177.226 256.868C178.282 257.492 179.47 257.804 180.79 257.804ZM194.305 260V241.208H197.005L197.077 245.492L196.537 245.672C196.729 244.952 197.041 244.304 197.473 243.728C197.929 243.128 198.469 242.612 199.093 242.18C199.717 241.748 200.401 241.424 201.145 241.208C201.889 240.968 202.669 240.848 203.485 240.848C204.469 240.848 205.345 241.016 206.113 241.352C206.905 241.664 207.565 242.216 208.093 243.008C208.645 243.776 209.065 244.796 209.353 246.068L208.705 245.744L208.957 245.132C209.197 244.58 209.545 244.052 210.001 243.548C210.481 243.02 211.021 242.552 211.621 242.144C212.245 241.736 212.917 241.424 213.637 241.208C214.381 240.968 215.137 240.848 215.905 240.848C217.225 240.848 218.341 241.136 219.253 241.712C220.165 242.264 220.849 243.116 221.305 244.268C221.785 245.42 222.025 246.884 222.025 248.66V260H219.253V248.804C219.253 247.556 219.097 246.536 218.785 245.744C218.473 244.952 218.005 244.364 217.381 243.98C216.781 243.572 216.013 243.368 215.077 243.368C214.261 243.368 213.505 243.512 212.809 243.8C212.137 244.064 211.549 244.448 211.045 244.952C210.565 245.432 210.181 245.984 209.893 246.608C209.629 247.232 209.497 247.904 209.497 248.624V260H206.761V248.768C206.761 247.568 206.593 246.572 206.257 245.78C205.945 244.988 205.477 244.388 204.853 243.98C204.229 243.572 203.461 243.368 202.549 243.368C201.757 243.368 201.025 243.512 200.353 243.8C199.681 244.064 199.093 244.436 198.589 244.916C198.109 245.396 197.725 245.948 197.437 246.572C197.173 247.196 197.041 247.868 197.041 248.588V260H194.305ZM235.422 260.36C233.55 260.36 231.882 259.952 230.418 259.136C228.978 258.32 227.85 257.18 227.034 255.716C226.218 254.252 225.81 252.572 225.81 250.676C225.81 249.212 226.038 247.892 226.494 246.716C226.95 245.516 227.586 244.472 228.402 243.584C229.242 242.696 230.238 242.012 231.39 241.532C232.542 241.028 233.79 240.776 235.134 240.776C236.406 240.776 237.558 241.004 238.59 241.46C239.646 241.916 240.546 242.552 241.29 243.368C242.058 244.16 242.634 245.108 243.018 246.212C243.402 247.316 243.57 248.528 243.522 249.848L243.486 251.108H227.826L227.43 248.84H241.434L240.786 249.452V248.588C240.738 247.724 240.486 246.896 240.03 246.104C239.574 245.288 238.926 244.628 238.086 244.124C237.27 243.62 236.286 243.368 235.134 243.368C233.79 243.368 232.626 243.644 231.642 244.196C230.658 244.724 229.902 245.516 229.374 246.572C228.846 247.628 228.582 248.936 228.582 250.496C228.582 251.984 228.87 253.28 229.446 254.384C230.022 255.464 230.838 256.304 231.894 256.904C232.974 257.504 234.27 257.804 235.782 257.804C236.67 257.804 237.546 257.66 238.41 257.372C239.298 257.06 240.27 256.46 241.326 255.572L242.73 257.516C242.178 258.068 241.518 258.56 240.75 258.992C239.982 259.4 239.142 259.736 238.23 260C237.318 260.24 236.382 260.36 235.422 260.36ZM248.365 251.324C248.197 249.812 248.065 248.252 247.969 246.644C247.873 245.012 247.801 243.404 247.753 241.82C247.705 240.236 247.681 238.736 247.681 237.32V234.8H250.597V237.32C250.597 238.808 250.573 240.368 250.525 242C250.477 243.632 250.393 245.252 250.273 246.86C250.177 248.444 250.045 249.932 249.877 251.324H248.365ZM249.013 260.36C248.365 260.36 247.861 260.168 247.501 259.784C247.165 259.4 246.997 258.848 246.997 258.128C246.997 257.48 247.177 256.952 247.537 256.544C247.921 256.112 248.413 255.896 249.013 255.896C249.661 255.896 250.153 256.1 250.489 256.508C250.849 256.892 251.029 257.432 251.029 258.128C251.029 258.8 250.837 259.34 250.453 259.748C250.093 260.156 249.613 260.36 249.013 260.36Z" fill="#0A0A0A"/>
<path d="M38.4119 305V299.416L38.5239 300.2L33.9959 293.8H36.0759L39.5319 298.76L39.1319 298.712L42.2519 293.8H44.2359L39.8999 300.376L40.1399 299.288V305H38.4119ZM48.0452 305.16C47.2239 305.16 46.4879 304.973 45.8372 304.6C45.1972 304.216 44.6905 303.699 44.3172 303.048C43.9439 302.387 43.7572 301.635 43.7572 300.792C43.7572 299.949 43.9439 299.203 44.3172 298.552C44.6905 297.891 45.1972 297.373 45.8372 297C46.4879 296.616 47.2239 296.424 48.0452 296.424C48.8559 296.424 49.5812 296.616 50.2212 297C50.8719 297.373 51.3839 297.891 51.7572 298.552C52.1305 299.203 52.3172 299.949 52.3172 300.792C52.3172 301.635 52.1305 302.387 51.7572 303.048C51.3839 303.699 50.8719 304.216 50.2212 304.6C49.5812 304.973 48.8559 305.16 48.0452 305.16ZM48.0452 303.656C48.5465 303.656 48.9945 303.533 49.3892 303.288C49.7839 303.032 50.0932 302.691 50.3172 302.264C50.5412 301.827 50.6479 301.336 50.6372 300.792C50.6479 300.237 50.5412 299.747 50.3172 299.32C50.0932 298.883 49.7839 298.541 49.3892 298.296C48.9945 298.051 48.5465 297.928 48.0452 297.928C47.5439 297.928 47.0905 298.056 46.6852 298.312C46.2905 298.557 45.9812 298.899 45.7572 299.336C45.5332 299.763 45.4265 300.248 45.4372 300.792C45.4265 301.336 45.5332 301.827 45.7572 302.264C45.9812 302.691 46.2905 303.032 46.6852 303.288C47.0905 303.533 47.5439 303.656 48.0452 303.656ZM57.0569 305.16C56.4596 305.16 55.9369 305.021 55.4889 304.744C55.0516 304.467 54.7103 304.077 54.4649 303.576C54.2303 303.075 54.1129 302.477 54.1129 301.784V296.6H55.7609V301.336C55.7609 301.827 55.8356 302.253 55.9849 302.616C56.1449 302.968 56.3689 303.24 56.6569 303.432C56.9556 303.624 57.3129 303.72 57.7289 303.72C58.0383 303.72 58.3209 303.672 58.5769 303.576C58.8329 303.469 59.0516 303.325 59.2329 303.144C59.4249 302.963 59.5743 302.744 59.6809 302.488C59.7876 302.232 59.8409 301.955 59.8409 301.656V296.6H61.4889V305H59.8409V303.24L60.1289 303.048C60.0009 303.443 59.7823 303.8 59.4729 304.12C59.1743 304.44 58.8169 304.696 58.4009 304.888C57.9849 305.069 57.5369 305.16 57.0569 305.16ZM71.8528 305.16C71.0741 305.16 70.3755 304.968 69.7568 304.584C69.1488 304.2 68.6635 303.677 68.3008 303.016C67.9488 302.355 67.7728 301.613 67.7728 300.792C67.7728 299.971 67.9488 299.229 68.3008 298.568C68.6635 297.907 69.1488 297.384 69.7568 297C70.3755 296.616 71.0741 296.424 71.8528 296.424C72.5995 296.424 73.2768 296.579 73.8848 296.888C74.5035 297.187 74.9728 297.597 75.2928 298.12L74.3808 299.24C74.2101 298.995 73.9915 298.771 73.7248 298.568C73.4581 298.365 73.1755 298.205 72.8768 298.088C72.5781 297.971 72.2901 297.912 72.0128 297.912C71.5008 297.912 71.0421 298.04 70.6368 298.296C70.2421 298.541 69.9275 298.883 69.6928 299.32C69.4581 299.757 69.3408 300.248 69.3408 300.792C69.3408 301.336 69.4635 301.827 69.7088 302.264C69.9541 302.691 70.2795 303.032 70.6848 303.288C71.0901 303.544 71.5381 303.672 72.0288 303.672C72.3168 303.672 72.5941 303.624 72.8608 303.528C73.1381 303.432 73.4048 303.288 73.6608 303.096C73.9168 302.904 74.1568 302.669 74.3808 302.392L75.2928 303.512C74.9515 303.992 74.4608 304.387 73.8208 304.696C73.1915 305.005 72.5355 305.16 71.8528 305.16ZM80.0793 305.16C79.386 305.16 78.7513 304.968 78.1753 304.584C77.61 304.2 77.1566 303.677 76.8153 303.016C76.474 302.355 76.3033 301.608 76.3033 300.776C76.3033 299.933 76.474 299.187 76.8153 298.536C77.1673 297.875 77.6366 297.357 78.2233 296.984C78.8206 296.611 79.4873 296.424 80.2233 296.424C80.6606 296.424 81.0606 296.488 81.4233 296.616C81.786 296.744 82.1006 296.925 82.3673 297.16C82.6446 297.384 82.8686 297.645 83.0393 297.944C83.2206 298.243 83.3326 298.563 83.3753 298.904L83.0073 298.776V296.6H84.6713V305H83.0073V303L83.3913 302.888C83.3273 303.176 83.194 303.459 82.9913 303.736C82.7993 304.003 82.5486 304.243 82.2393 304.456C81.9406 304.669 81.6046 304.84 81.2313 304.968C80.8686 305.096 80.4846 305.16 80.0793 305.16ZM80.5113 303.64C81.0126 303.64 81.4553 303.517 81.8393 303.272C82.2233 303.027 82.522 302.691 82.7353 302.264C82.9593 301.827 83.0713 301.331 83.0713 300.776C83.0713 300.232 82.9593 299.747 82.7353 299.32C82.522 298.893 82.2233 298.557 81.8393 298.312C81.4553 298.067 81.0126 297.944 80.5113 297.944C80.0206 297.944 79.5833 298.067 79.1993 298.312C78.826 298.557 78.5273 298.893 78.3033 299.32C78.09 299.747 77.9833 300.232 77.9833 300.776C77.9833 301.331 78.09 301.827 78.3033 302.264C78.5273 302.691 78.826 303.027 79.1993 303.272C79.5833 303.517 80.0206 303.64 80.5113 303.64ZM86.9723 305V296.6H88.6203V298.328L88.3323 298.52C88.439 298.147 88.647 297.805 88.9563 297.496C89.2656 297.176 89.6336 296.92 90.0603 296.728C90.487 296.525 90.9243 296.424 91.3723 296.424C92.0123 296.424 92.5456 296.552 92.9723 296.808C93.399 297.053 93.719 297.432 93.9323 297.944C94.1456 298.456 94.2523 299.101 94.2523 299.88V305H92.6043V299.992C92.6043 299.512 92.5403 299.117 92.4123 298.808C92.2843 298.488 92.087 298.259 91.8203 298.12C91.5536 297.971 91.223 297.907 90.8283 297.928C90.5083 297.928 90.215 297.981 89.9483 298.088C89.6816 298.184 89.447 298.323 89.2443 298.504C89.0523 298.685 88.8976 298.899 88.7803 299.144C88.6736 299.379 88.6203 299.635 88.6203 299.912V305H87.8043C87.6656 305 87.527 305 87.3883 305C87.2496 305 87.111 305 86.9723 305ZM100.972 305V296.6H102.62V298.328L102.332 298.52C102.439 298.147 102.647 297.805 102.956 297.496C103.266 297.176 103.634 296.92 104.06 296.728C104.487 296.525 104.924 296.424 105.372 296.424C106.012 296.424 106.546 296.552 106.972 296.808C107.399 297.053 107.719 297.432 107.932 297.944C108.146 298.456 108.252 299.101 108.252 299.88V305H106.604V299.992C106.604 299.512 106.54 299.117 106.412 298.808C106.284 298.488 106.087 298.259 105.82 298.12C105.554 297.971 105.223 297.907 104.828 297.928C104.508 297.928 104.215 297.981 103.948 298.088C103.682 298.184 103.447 298.323 103.244 298.504C103.052 298.685 102.898 298.899 102.78 299.144C102.674 299.379 102.62 299.635 102.62 299.912V305H101.804C101.666 305 101.527 305 101.388 305C101.25 305 101.111 305 100.972 305ZM114.264 305.16C113.443 305.16 112.707 304.973 112.056 304.6C111.416 304.216 110.909 303.699 110.536 303.048C110.163 302.387 109.976 301.635 109.976 300.792C109.976 299.949 110.163 299.203 110.536 298.552C110.909 297.891 111.416 297.373 112.056 297C112.707 296.616 113.443 296.424 114.264 296.424C115.075 296.424 115.8 296.616 116.44 297C117.091 297.373 117.603 297.891 117.976 298.552C118.349 299.203 118.536 299.949 118.536 300.792C118.536 301.635 118.349 302.387 117.976 303.048C117.603 303.699 117.091 304.216 116.44 304.6C115.8 304.973 115.075 305.16 114.264 305.16ZM114.264 303.656C114.765 303.656 115.213 303.533 115.608 303.288C116.003 303.032 116.312 302.691 116.536 302.264C116.76 301.827 116.867 301.336 116.856 300.792C116.867 300.237 116.76 299.747 116.536 299.32C116.312 298.883 116.003 298.541 115.608 298.296C115.213 298.051 114.765 297.928 114.264 297.928C113.763 297.928 113.309 298.056 112.904 298.312C112.509 298.557 112.2 298.899 111.976 299.336C111.752 299.763 111.645 300.248 111.656 300.792C111.645 301.336 111.752 301.827 111.976 302.264C112.2 302.691 112.509 303.032 112.904 303.288C113.309 303.533 113.763 303.656 114.264 303.656ZM122.083 305L119.219 296.6L120.883 296.584L122.931 302.872L122.563 302.84L124.787 297.928H125.779L128.019 302.856L127.587 302.888L129.651 296.6H131.315L128.483 305H127.347L125.011 299.656L125.379 299.704L123.203 305H122.083ZM140.1 305.16C139.396 305.16 138.762 305.037 138.196 304.792C137.631 304.547 137.162 304.184 136.788 303.704L137.908 302.744C138.228 303.117 138.575 303.389 138.948 303.56C139.332 303.72 139.764 303.8 140.244 303.8C140.436 303.8 140.612 303.779 140.772 303.736C140.943 303.683 141.087 303.608 141.204 303.512C141.332 303.416 141.428 303.304 141.492 303.176C141.556 303.037 141.588 302.888 141.588 302.728C141.588 302.451 141.487 302.227 141.284 302.056C141.178 301.981 141.007 301.901 140.772 301.816C140.548 301.72 140.255 301.624 139.892 301.528C139.274 301.368 138.767 301.187 138.372 300.984C137.978 300.781 137.674 300.552 137.46 300.296C137.3 300.093 137.183 299.875 137.108 299.64C137.034 299.395 136.996 299.128 136.996 298.84C136.996 298.488 137.071 298.168 137.22 297.88C137.38 297.581 137.594 297.325 137.86 297.112C138.138 296.888 138.458 296.717 138.82 296.6C139.194 296.483 139.588 296.424 140.004 296.424C140.399 296.424 140.788 296.477 141.172 296.584C141.567 296.691 141.93 296.845 142.26 297.048C142.591 297.251 142.868 297.491 143.092 297.768L142.148 298.808C141.946 298.605 141.722 298.429 141.476 298.28C141.242 298.12 141.002 297.997 140.756 297.912C140.511 297.827 140.287 297.784 140.084 297.784C139.86 297.784 139.658 297.805 139.476 297.848C139.295 297.891 139.14 297.955 139.012 298.04C138.895 298.125 138.804 298.232 138.74 298.36C138.676 298.488 138.644 298.632 138.644 298.792C138.655 298.931 138.687 299.064 138.74 299.192C138.804 299.309 138.89 299.411 138.996 299.496C139.114 299.581 139.29 299.672 139.524 299.768C139.759 299.864 140.058 299.955 140.42 300.04C140.954 300.179 141.391 300.333 141.732 300.504C142.084 300.664 142.362 300.851 142.564 301.064C142.778 301.267 142.927 301.501 143.012 301.768C143.098 302.035 143.14 302.333 143.14 302.664C143.14 303.144 143.002 303.576 142.724 303.96C142.458 304.333 142.095 304.627 141.636 304.84C141.178 305.053 140.666 305.16 140.1 305.16ZM145.229 305V296.6H146.877V305H145.229ZM146.029 294.744C145.677 294.744 145.405 294.653 145.213 294.472C145.021 294.291 144.925 294.035 144.925 293.704C144.925 293.395 145.021 293.144 145.213 292.952C145.415 292.76 145.687 292.664 146.029 292.664C146.381 292.664 146.653 292.755 146.845 292.936C147.037 293.117 147.133 293.373 147.133 293.704C147.133 294.013 147.031 294.264 146.829 294.456C146.637 294.648 146.37 294.744 146.029 294.744ZM153.17 308.68C152.572 308.68 151.975 308.584 151.378 308.392C150.791 308.211 150.316 307.971 149.954 307.672L150.562 306.392C150.775 306.552 151.026 306.691 151.314 306.808C151.602 306.936 151.906 307.032 152.226 307.096C152.546 307.171 152.86 307.208 153.17 307.208C153.756 307.208 154.247 307.112 154.642 306.92C155.036 306.728 155.335 306.445 155.538 306.072C155.74 305.699 155.842 305.235 155.842 304.68V303.064L156.018 303.176C155.964 303.507 155.788 303.827 155.49 304.136C155.202 304.435 154.839 304.68 154.402 304.872C153.964 305.064 153.516 305.16 153.058 305.16C152.258 305.16 151.543 304.973 150.914 304.6C150.295 304.216 149.804 303.699 149.442 303.048C149.079 302.387 148.898 301.635 148.898 300.792C148.898 299.949 149.074 299.203 149.426 298.552C149.788 297.891 150.279 297.373 150.898 297C151.527 296.616 152.231 296.424 153.01 296.424C153.33 296.424 153.639 296.467 153.938 296.552C154.236 296.627 154.514 296.739 154.77 296.888C155.026 297.027 155.255 297.181 155.458 297.352C155.66 297.523 155.826 297.704 155.954 297.896C156.082 298.088 156.162 298.269 156.194 298.44L155.842 298.568V296.6H157.49V304.488C157.49 305.16 157.388 305.752 157.186 306.264C156.994 306.787 156.711 307.224 156.338 307.576C155.964 307.939 155.511 308.211 154.978 308.392C154.444 308.584 153.842 308.68 153.17 308.68ZM153.234 303.64C153.756 303.64 154.22 303.517 154.626 303.272C155.031 303.027 155.346 302.691 155.57 302.264C155.794 301.837 155.906 301.347 155.906 300.792C155.906 300.237 155.788 299.747 155.554 299.32C155.33 298.883 155.015 298.541 154.61 298.296C154.215 298.051 153.756 297.928 153.234 297.928C152.722 297.928 152.263 298.056 151.858 298.312C151.463 298.557 151.148 298.899 150.914 299.336C150.69 299.763 150.578 300.248 150.578 300.792C150.578 301.336 150.69 301.827 150.914 302.264C151.148 302.691 151.463 303.027 151.858 303.272C152.263 303.517 152.722 303.64 153.234 303.64ZM159.8 305V296.6H161.448V298.328L161.16 298.52C161.267 298.147 161.475 297.805 161.784 297.496C162.094 297.176 162.462 296.92 162.888 296.728C163.315 296.525 163.752 296.424 164.2 296.424C164.84 296.424 165.374 296.552 165.8 296.808C166.227 297.053 166.547 297.432 166.76 297.944C166.974 298.456 167.08 299.101 167.08 299.88V305H165.432V299.992C165.432 299.512 165.368 299.117 165.24 298.808C165.112 298.488 164.915 298.259 164.648 298.12C164.382 297.971 164.051 297.907 163.656 297.928C163.336 297.928 163.043 297.981 162.776 298.088C162.51 298.184 162.275 298.323 162.072 298.504C161.88 298.685 161.726 298.899 161.608 299.144C161.502 299.379 161.448 299.635 161.448 299.912V305H160.632C160.494 305 160.355 305 160.216 305C160.078 305 159.939 305 159.8 305ZM174.072 305V296.6H175.72V305H174.072ZM174.872 294.744C174.52 294.744 174.248 294.653 174.056 294.472C173.864 294.291 173.768 294.035 173.768 293.704C173.768 293.395 173.864 293.144 174.056 292.952C174.259 292.76 174.531 292.664 174.872 292.664C175.224 292.664 175.496 292.755 175.688 292.936C175.88 293.117 175.976 293.373 175.976 293.704C175.976 294.013 175.875 294.264 175.672 294.456C175.48 294.648 175.214 294.744 174.872 294.744ZM178.254 305V296.6H179.902V298.328L179.614 298.52C179.72 298.147 179.928 297.805 180.238 297.496C180.547 297.176 180.915 296.92 181.342 296.728C181.768 296.525 182.206 296.424 182.654 296.424C183.294 296.424 183.827 296.552 184.254 296.808C184.68 297.053 185 297.432 185.214 297.944C185.427 298.456 185.534 299.101 185.534 299.88V305H183.886V299.992C183.886 299.512 183.822 299.117 183.694 298.808C183.566 298.488 183.368 298.259 183.102 298.12C182.835 297.971 182.504 297.907 182.11 297.928C181.79 297.928 181.496 297.981 181.23 298.088C180.963 298.184 180.728 298.323 180.526 298.504C180.334 298.685 180.179 298.899 180.062 299.144C179.955 299.379 179.902 299.635 179.902 299.912V305H179.086C178.947 305 178.808 305 178.67 305C178.531 305 178.392 305 178.254 305ZM195.198 305.16C194.6 305.16 194.078 305.021 193.63 304.744C193.192 304.467 192.851 304.077 192.606 303.576C192.371 303.075 192.254 302.477 192.254 301.784V296.6H193.902V301.336C193.902 301.827 193.976 302.253 194.126 302.616C194.286 302.968 194.51 303.24 194.798 303.432C195.096 303.624 195.454 303.72 195.87 303.72C196.179 303.72 196.462 303.672 196.718 303.576C196.974 303.469 197.192 303.325 197.374 303.144C197.566 302.963 197.715 302.744 197.822 302.488C197.928 302.232 197.982 301.955 197.982 301.656V296.6H199.63V305H197.982V303.24L198.27 303.048C198.142 303.443 197.923 303.8 197.614 304.12C197.315 304.44 196.958 304.696 196.542 304.888C196.126 305.069 195.678 305.16 195.198 305.16ZM204.741 305.16C204.037 305.16 203.402 305.037 202.837 304.792C202.272 304.547 201.802 304.184 201.429 303.704L202.549 302.744C202.869 303.117 203.216 303.389 203.589 303.56C203.973 303.72 204.405 303.8 204.885 303.8C205.077 303.8 205.253 303.779 205.413 303.736C205.584 303.683 205.728 303.608 205.845 303.512C205.973 303.416 206.069 303.304 206.133 303.176C206.197 303.037 206.229 302.888 206.229 302.728C206.229 302.451 206.128 302.227 205.925 302.056C205.818 301.981 205.648 301.901 205.413 301.816C205.189 301.72 204.896 301.624 204.533 301.528C203.914 301.368 203.408 301.187 203.013 300.984C202.618 300.781 202.314 300.552 202.101 300.296C201.941 300.093 201.824 299.875 201.749 299.64C201.674 299.395 201.637 299.128 201.637 298.84C201.637 298.488 201.712 298.168 201.861 297.88C202.021 297.581 202.234 297.325 202.501 297.112C202.778 296.888 203.098 296.717 203.461 296.6C203.834 296.483 204.229 296.424 204.645 296.424C205.04 296.424 205.429 296.477 205.813 296.584C206.208 296.691 206.57 296.845 206.901 297.048C207.232 297.251 207.509 297.491 207.733 297.768L206.789 298.808C206.586 298.605 206.362 298.429 206.117 298.28C205.882 298.12 205.642 297.997 205.397 297.912C205.152 297.827 204.928 297.784 204.725 297.784C204.501 297.784 204.298 297.805 204.117 297.848C203.936 297.891 203.781 297.955 203.653 298.04C203.536 298.125 203.445 298.232 203.381 298.36C203.317 298.488 203.285 298.632 203.285 298.792C203.296 298.931 203.328 299.064 203.381 299.192C203.445 299.309 203.53 299.411 203.637 299.496C203.754 299.581 203.93 299.672 204.165 299.768C204.4 299.864 204.698 299.955 205.061 300.04C205.594 300.179 206.032 300.333 206.373 300.504C206.725 300.664 207.002 300.851 207.205 301.064C207.418 301.267 207.568 301.501 207.653 301.768C207.738 302.035 207.781 302.333 207.781 302.664C207.781 303.144 207.642 303.576 207.365 303.96C207.098 304.333 206.736 304.627 206.277 304.84C205.818 305.053 205.306 305.16 204.741 305.16ZM209.869 305V296.6H211.517V305H209.869ZM210.669 294.744C210.317 294.744 210.045 294.653 209.853 294.472C209.661 294.291 209.565 294.035 209.565 293.704C209.565 293.395 209.661 293.144 209.853 292.952C210.056 292.76 210.328 292.664 210.669 292.664C211.021 292.664 211.293 292.755 211.485 292.936C211.677 293.117 211.773 293.373 211.773 293.704C211.773 294.013 211.672 294.264 211.469 294.456C211.277 294.648 211.011 294.744 210.669 294.744ZM214.05 305V296.6H215.698V298.328L215.41 298.52C215.517 298.147 215.725 297.805 216.034 297.496C216.344 297.176 216.712 296.92 217.138 296.728C217.565 296.525 218.002 296.424 218.45 296.424C219.09 296.424 219.624 296.552 220.05 296.808C220.477 297.053 220.797 297.432 221.01 297.944C221.224 298.456 221.33 299.101 221.33 299.88V305H219.682V299.992C219.682 299.512 219.618 299.117 219.49 298.808C219.362 298.488 219.165 298.259 218.898 298.12C218.632 297.971 218.301 297.907 217.906 297.928C217.586 297.928 217.293 297.981 217.026 298.088C216.76 298.184 216.525 298.323 216.322 298.504C216.13 298.685 215.976 298.899 215.858 299.144C215.752 299.379 215.698 299.635 215.698 299.912V305H214.882C214.744 305 214.605 305 214.466 305C214.328 305 214.189 305 214.05 305ZM227.326 308.68C226.729 308.68 226.131 308.584 225.534 308.392C224.947 308.211 224.473 307.971 224.11 307.672L224.718 306.392C224.931 306.552 225.182 306.691 225.47 306.808C225.758 306.936 226.062 307.032 226.382 307.096C226.702 307.171 227.017 307.208 227.326 307.208C227.913 307.208 228.403 307.112 228.798 306.92C229.193 306.728 229.491 306.445 229.694 306.072C229.897 305.699 229.998 305.235 229.998 304.68V303.064L230.174 303.176C230.121 303.507 229.945 303.827 229.646 304.136C229.358 304.435 228.995 304.68 228.558 304.872C228.121 305.064 227.673 305.16 227.214 305.16C226.414 305.16 225.699 304.973 225.07 304.6C224.451 304.216 223.961 303.699 223.598 303.048C223.235 302.387 223.054 301.635 223.054 300.792C223.054 299.949 223.23 299.203 223.582 298.552C223.945 297.891 224.435 297.373 225.054 297C225.683 296.616 226.387 296.424 227.166 296.424C227.486 296.424 227.795 296.467 228.094 296.552C228.393 296.627 228.67 296.739 228.926 296.888C229.182 297.027 229.411 297.181 229.614 297.352C229.817 297.523 229.982 297.704 230.11 297.896C230.238 298.088 230.318 298.269 230.35 298.44L229.998 298.568V296.6H231.646V304.488C231.646 305.16 231.545 305.752 231.342 306.264C231.15 306.787 230.867 307.224 230.494 307.576C230.121 307.939 229.667 308.211 229.134 308.392C228.601 308.584 227.998 308.68 227.326 308.68ZM227.39 303.64C227.913 303.64 228.377 303.517 228.782 303.272C229.187 303.027 229.502 302.691 229.726 302.264C229.95 301.837 230.062 301.347 230.062 300.792C230.062 300.237 229.945 299.747 229.71 299.32C229.486 298.883 229.171 298.541 228.766 298.296C228.371 298.051 227.913 297.928 227.39 297.928C226.878 297.928 226.419 298.056 226.014 298.312C225.619 298.557 225.305 298.899 225.07 299.336C224.846 299.763 224.734 300.248 224.734 300.792C224.734 301.336 224.846 301.827 225.07 302.264C225.305 302.691 225.619 303.027 226.014 303.272C226.419 303.517 226.878 303.64 227.39 303.64ZM238.857 305V293.8H240.585V305H238.857ZM239.625 300.232V298.568H245.401V300.232H239.625ZM239.625 295.464V293.8H246.121V295.464H239.625ZM251.064 305.16C250.37 305.16 249.736 304.968 249.16 304.584C248.594 304.2 248.141 303.677 247.8 303.016C247.458 302.355 247.288 301.608 247.288 300.776C247.288 299.933 247.458 299.187 247.8 298.536C248.152 297.875 248.621 297.357 249.208 296.984C249.805 296.611 250.472 296.424 251.208 296.424C251.645 296.424 252.045 296.488 252.408 296.616C252.77 296.744 253.085 296.925 253.352 297.16C253.629 297.384 253.853 297.645 254.024 297.944C254.205 298.243 254.317 298.563 254.36 298.904L253.992 298.776V296.6H255.656V305H253.992V303L254.376 302.888C254.312 303.176 254.178 303.459 253.976 303.736C253.784 304.003 253.533 304.243 253.224 304.456C252.925 304.669 252.589 304.84 252.216 304.968C251.853 305.096 251.469 305.16 251.064 305.16ZM251.496 303.64C251.997 303.64 252.44 303.517 252.824 303.272C253.208 303.027 253.506 302.691 253.72 302.264C253.944 301.827 254.056 301.331 254.056 300.776C254.056 300.232 253.944 299.747 253.72 299.32C253.506 298.893 253.208 298.557 252.824 298.312C252.44 298.067 251.997 297.944 251.496 297.944C251.005 297.944 250.568 298.067 250.184 298.312C249.81 298.557 249.512 298.893 249.288 299.32C249.074 299.747 248.968 300.232 248.968 300.776C248.968 301.331 249.074 301.827 249.288 302.264C249.512 302.691 249.81 303.027 250.184 303.272C250.568 303.517 251.005 303.64 251.496 303.64ZM261.525 305.16C260.746 305.16 260.047 304.968 259.429 304.584C258.821 304.2 258.335 303.677 257.973 303.016C257.621 302.355 257.445 301.613 257.445 300.792C257.445 299.971 257.621 299.229 257.973 298.568C258.335 297.907 258.821 297.384 259.429 297C260.047 296.616 260.746 296.424 261.525 296.424C262.271 296.424 262.949 296.579 263.557 296.888C264.175 297.187 264.645 297.597 264.965 298.12L264.053 299.24C263.882 298.995 263.663 298.771 263.397 298.568C263.13 298.365 262.847 298.205 262.549 298.088C262.25 297.971 261.962 297.912 261.685 297.912C261.173 297.912 260.714 298.04 260.309 298.296C259.914 298.541 259.599 298.883 259.365 299.32C259.13 299.757 259.013 300.248 259.013 300.792C259.013 301.336 259.135 301.827 259.381 302.264C259.626 302.691 259.951 303.032 260.357 303.288C260.762 303.544 261.21 303.672 261.701 303.672C261.989 303.672 262.266 303.624 262.533 303.528C262.81 303.432 263.077 303.288 263.333 303.096C263.589 302.904 263.829 302.669 264.053 302.392L264.965 303.512C264.623 303.992 264.133 304.387 263.493 304.696C262.863 305.005 262.207 305.16 261.525 305.16ZM270.439 305.16C269.575 305.16 268.807 304.979 268.135 304.616C267.474 304.243 266.951 303.736 266.567 303.096C266.194 302.456 266.007 301.72 266.007 300.888C266.007 300.227 266.114 299.624 266.327 299.08C266.541 298.536 266.834 298.067 267.207 297.672C267.591 297.267 268.045 296.957 268.567 296.744C269.101 296.52 269.677 296.408 270.295 296.408C270.839 296.408 271.346 296.515 271.815 296.728C272.285 296.931 272.69 297.213 273.031 297.576C273.383 297.939 273.65 298.371 273.831 298.872C274.023 299.363 274.114 299.901 274.103 300.488L274.087 301.192H267.223L266.855 299.88H272.663L272.423 300.152V299.768C272.391 299.416 272.274 299.101 272.071 298.824C271.869 298.547 271.613 298.328 271.303 298.168C270.994 298.008 270.658 297.928 270.295 297.928C269.719 297.928 269.234 298.04 268.839 298.264C268.445 298.477 268.146 298.797 267.943 299.224C267.741 299.64 267.639 300.157 267.639 300.776C267.639 301.363 267.762 301.875 268.007 302.312C268.253 302.739 268.599 303.069 269.047 303.304C269.495 303.539 270.013 303.656 270.599 303.656C271.015 303.656 271.399 303.587 271.751 303.448C272.114 303.309 272.503 303.059 272.919 302.696L273.751 303.864C273.495 304.12 273.181 304.344 272.807 304.536C272.445 304.728 272.055 304.883 271.639 305C271.234 305.107 270.834 305.16 270.439 305.16ZM280.379 305V303.4H282.187V295.4H280.379V293.8H285.723V295.4H283.915V303.4H285.723V305H280.379ZM288.435 305V293.8H292.819C293.619 293.8 294.339 293.933 294.979 294.2C295.63 294.467 296.185 294.851 296.643 295.352C297.102 295.853 297.454 296.445 297.699 297.128C297.945 297.811 298.067 298.568 298.067 299.4C298.067 300.232 297.945 300.995 297.699 301.688C297.454 302.371 297.102 302.963 296.643 303.464C296.195 303.955 295.646 304.333 294.995 304.6C294.345 304.867 293.619 305 292.819 305H288.435ZM290.163 303.512L290.115 303.336H292.739C293.305 303.336 293.806 303.245 294.243 303.064C294.691 302.883 295.065 302.627 295.363 302.296C295.673 301.955 295.907 301.539 296.067 301.048C296.227 300.557 296.307 300.008 296.307 299.4C296.307 298.792 296.227 298.248 296.067 297.768C295.907 297.277 295.673 296.861 295.363 296.52C295.054 296.179 294.681 295.917 294.243 295.736C293.806 295.555 293.305 295.464 292.739 295.464H290.067L290.163 295.32V303.512ZM300.347 305.176C299.995 305.176 299.723 305.075 299.531 304.872C299.339 304.659 299.243 304.36 299.243 303.976C299.243 303.624 299.345 303.336 299.547 303.112C299.75 302.888 300.017 302.776 300.347 302.776C300.699 302.776 300.971 302.883 301.163 303.096C301.355 303.299 301.451 303.592 301.451 303.976C301.451 304.328 301.35 304.616 301.147 304.84C300.945 305.064 300.678 305.176 300.347 305.176Z" fill="#0A0A0A"/>
<rect x="104" y="56" width="128" height="128" rx="64" fill="white"/>
<rect x="113" y="65" width="110" height="110" rx="55" fill="#00AA00"/>
<path d="M162.423 135L148 120.577L152.038 116.538L162.423 126.923L184.346 105L188.385 109.038L162.423 135Z" fill="white"/>
<rect x="104" y="56" width="128" height="128" rx="64" stroke="#00AA00" stroke-width="2"/>
<path d="M79.1381 30.2035C81.4186 27.9233 81.4188 24.2257 79.138 21.9449C76.8578 19.6647 73.1603 19.6644 70.8793 21.9447C70.8792 21.9448 70.8791 21.9449 70.879 21.945M79.1381 30.2035L68.4043 19.47M79.1381 30.2035C76.857 32.4843 73.1594 32.4841 70.8793 30.2038C68.5989 27.9231 68.5988 24.2259 70.879 21.945M79.1381 30.2035L70.879 21.945M70.879 21.945L68.4043 19.47M68.4043 19.47C64.7572 23.1176 64.7572 29.0309 68.4043 32.6785C72.0515 36.3262 77.9652 36.3257 81.6128 32.6785C85.2605 29.0314 85.2605 23.1176 81.6128 19.47C77.9657 15.8228 72.0519 15.8228 68.4043 19.47Z" fill="#32CD32" stroke="white" stroke-width="7"/>
<path d="M264.055 206.862C264.055 206.862 264.055 206.862 264.055 206.862C266.336 209.143 266.335 212.841 264.055 215.121L264.055 215.121C261.775 217.401 258.077 217.402 255.796 215.121C255.796 215.121 255.796 215.121 255.796 215.121L264.055 206.862Z" fill="#32CD32" stroke="white" stroke-width="7"/>
<path d="M263.133 31.0645L263.133 31.0646C260.87 33.3285 257.199 33.3285 254.936 31.0646L254.935 31.0643C252.672 28.8008 252.671 25.1307 254.936 22.8666L254.936 22.8664C257.199 20.6029 260.869 20.6026 263.134 22.8667C265.397 25.1302 265.398 28.8003 263.133 31.0645Z" fill="#32CD32" stroke="white" stroke-width="7"/>
<path d="M79.1378 206.862L79.138 206.862C81.4188 209.143 81.4186 212.84 79.1381 215.121C76.857 217.401 73.1594 217.401 70.8793 215.121C68.5987 212.84 68.599 209.142 70.8792 206.862C73.1601 204.581 76.8576 204.581 79.1378 206.862Z" fill="#32CD32" stroke="white" stroke-width="7"/>
<path d="M161.703 9.29688C161.703 6.37135 164.074 4 167 4C169.926 4 172.297 6.37135 172.297 9.29688V37.3305C172.297 40.2561 169.926 42.6274 167 42.6274C164.074 42.6274 161.703 40.2561 161.703 37.3305V9.29688Z" fill="#FFC600" stroke="white" stroke-width="8"/>
<path d="M57.2969 124.297C54.3713 124.297 52 121.926 52 119C52 116.074 54.3713 113.703 57.2969 113.703H85.3305C88.2561 113.703 90.6274 116.074 90.6274 119C90.6274 121.926 88.2561 124.297 85.3305 124.297H57.2969Z" fill="#FFC600" stroke="white" stroke-width="8"/>
<path d="M248.669 113.703H276.703C279.629 113.703 282 116.074 282 119C282 121.926 279.629 124.297 276.703 124.297H248.669C245.744 124.297 243.373 121.926 243.373 119C243.373 116.074 245.744 113.703 248.669 113.703Z" fill="#FFC600" stroke="white" stroke-width="8"/>
<path d="M113.578 65.5776C111.509 67.6461 108.155 67.6458 106.087 65.5774L97.5159 57.0067C95.4477 54.9385 95.4474 51.5847 97.5161 49.5158C99.5843 47.4473 102.938 47.4471 105.007 49.516L113.578 58.0867C115.646 60.1548 115.646 63.5085 113.578 65.5774C113.578 65.5775 113.578 65.5776 113.578 65.5776Z" fill="#FD6300" stroke="white" stroke-width="8"/>
<path d="M228.994 188.484L228.994 188.484C230.029 189.519 231.377 190.036 232.739 190.036C234.1 190.036 235.45 189.519 236.485 188.484C238.553 186.415 238.553 183.062 236.485 180.993L236.484 180.993M228.994 188.484L236.484 180.993M228.994 188.484L220.423 179.913C220.423 179.913 220.423 179.913 220.423 179.913C218.354 177.844 218.354 174.491 220.422 172.422C222.491 170.354 225.844 170.354 227.913 172.422C227.913 172.422 227.913 172.422 227.913 172.422L236.484 180.993M228.994 188.484L236.484 180.993" fill="#FD6300" stroke="white" stroke-width="8"/>
<path d="M106.087 172.423L106.087 172.422C108.155 170.354 111.509 170.354 113.578 172.423C115.646 174.491 115.646 177.844 113.578 179.913C113.578 179.913 113.578 179.913 113.578 179.914L105.007 188.484C102.938 190.553 99.5843 190.553 97.5161 188.484L97.5159 188.484C95.4478 186.416 95.4474 183.062 97.5159 180.993C97.516 180.993 97.5161 180.993 97.5161 180.993L106.087 172.423Z" fill="#FD6300" stroke="white" stroke-width="8"/>
<path d="M228.994 49.5158L228.994 49.516L220.423 58.0867C220.423 58.0867 220.423 58.0867 220.423 58.0868C218.354 60.1558 218.354 63.5092 220.422 65.5778C220.422 65.5778 220.422 65.5779 220.422 65.5779M228.994 49.5158L217.594 68.4064L220.422 65.5779M228.994 49.5158C231.061 47.4481 234.415 47.4472 236.485 49.516M228.994 49.5158L236.484 57.0072M220.422 65.5779C222.491 67.6463 225.844 67.6467 227.913 65.5781L227.913 65.5779L236.484 57.0072M220.422 65.5779L236.484 57.0072M236.484 57.0072L239.295 59.8176L236.484 57.0071C238.553 54.9382 238.553 51.5849 236.485 49.5163M236.485 49.5163L239.313 46.6879L236.485 49.516M236.485 49.5163C236.485 49.5162 236.485 49.5161 236.485 49.516M236.485 49.5163C236.485 49.5162 236.485 49.5161 236.485 49.516" fill="#FD6300" stroke="white" stroke-width="8"/>
</svg>
