<svg width="18" height="20" viewBox="0 0 18 20" fill="none" xmlns="http://www.w3.org/2000/svg">
<path d="M3 20C2.16667 20 1.45833 19.7083 0.875 19.125C0.291667 18.5417 0 17.8333 0 17V14H3V0L4.5 1.5L6 0L7.5 1.5L9 0L10.5 1.5L12 0L13.5 1.5L15 0L16.5 1.5L18 0V17C18 17.8333 17.7083 18.5417 17.125 19.125C16.5417 19.7083 15.8333 20 15 20H3ZM15 18C15.2833 18 15.5207 17.904 15.712 17.712C15.904 17.5207 16 17.2833 16 17V3H5V14H14V17C14 17.2833 14.096 17.5207 14.288 17.712C14.4793 17.904 14.7167 18 15 18ZM6 7V5H12V7H6ZM6 10V8H12V10H6ZM14 7C13.7167 7 13.4793 6.904 13.288 6.712C13.096 6.52067 13 6.28333 13 6C13 5.71667 13.096 5.479 13.288 5.287C13.4793 5.09567 13.7167 5 14 5C14.2833 5 14.5207 5.09567 14.712 5.287C14.904 5.479 15 5.71667 15 6C15 6.28333 14.904 6.52067 14.712 6.712C14.5207 6.904 14.2833 7 14 7ZM14 10C13.7167 10 13.4793 9.904 13.288 9.712C13.096 9.52067 13 9.28333 13 9C13 8.71667 13.096 8.479 13.288 8.287C13.4793 8.09567 13.7167 8 14 8C14.2833 8 14.5207 8.09567 14.712 8.287C14.904 8.479 15 8.71667 15 9C15 9.28333 14.904 9.52067 14.712 9.712C14.5207 9.904 14.2833 10 14 10Z" fill="#89909A"/>
</svg>
