<svg width="110" height="110" viewBox="0 0 110 110" fill="none" xmlns="http://www.w3.org/2000/svg">
<g clip-path="url(#clip0_5415_21856)">
<path d="M19.6054 32.8053C19.3021 32.6699 18.9659 32.6254 18.6378 32.6773C18.3096 32.7292 18.0036 32.8751 17.7568 33.0975L0.569246 48.5662C0.371678 48.7441 0.218062 48.9654 0.120477 49.2127C0.0228921 49.46 -0.0160024 49.7265 0.00685184 49.9914C0.0297061 50.2562 0.113686 50.5122 0.252189 50.7391C0.390691 50.966 0.579941 51.1577 0.805059 51.2991L17.9926 62.0928C18.2527 62.2561 18.5517 62.3467 18.8587 62.3552C19.1657 62.3638 19.4693 62.2899 19.7381 62.1413C20.0068 61.9927 20.2309 61.7748 20.3869 61.5103C20.5429 61.2458 20.6252 60.9443 20.6252 60.6372V34.3747C20.6252 34.0425 20.5288 33.7175 20.3478 33.4389C20.1669 33.1604 19.909 32.9403 19.6054 32.8053Z" fill="#028A02"/>
<path d="M109.431 48.5661L92.2434 33.0974C91.9965 32.8751 91.6904 32.7293 91.3623 32.6774C91.0342 32.6255 90.698 32.6698 90.3946 32.8049C90.0911 32.94 89.8333 33.1602 89.6523 33.4388C89.4714 33.7175 89.3751 34.0425 89.375 34.3747V60.6372C89.375 60.9444 89.4573 61.246 89.6134 61.5106C89.7694 61.7752 89.9936 61.9931 90.2624 62.1417C90.5313 62.2903 90.8351 62.3641 91.1422 62.3554C91.4493 62.3468 91.7484 62.256 92.0085 62.0925L109.196 51.2988C109.421 51.1573 109.61 50.9655 109.749 50.7386C109.887 50.5116 109.971 50.2557 109.994 49.9908C110.016 49.726 109.978 49.4595 109.88 49.2122C109.782 48.965 109.629 48.7438 109.431 48.5659V48.5661Z" fill="#028A02"/>
<path d="M92.625 18.9062L73.7188 0H18.7188C18.2629 0 17.8257 0.181082 17.5034 0.50341C17.1811 0.825738 17 1.26291 17 1.71875V60.6375C17 60.9282 17.0738 61.2142 17.2146 61.4687C17.3553 61.7231 17.5584 61.9376 17.8047 62.0921L39.6165 75.7733C39.9286 75.9702 40.296 76.061 40.6639 76.0323C41.0318 76.0035 41.3806 75.8568 41.6584 75.6138L54.8125 64.1544L67.9649 75.6148C68.243 75.8574 68.5919 76.0039 68.9599 76.0326C69.3278 76.0613 69.6952 75.9708 70.0076 75.7743L91.8203 62.0931C92.0667 61.9385 92.2699 61.7238 92.4107 61.4692C92.5514 61.2146 92.6252 60.9284 92.625 60.6375V18.9062Z" fill="#F5F6F8"/>
<path fill-rule="evenodd" clip-rule="evenodd" d="M54.5447 15.0001C51.1309 15.0001 48.3632 17.7681 48.3632 21.1816C48.3632 22.9173 49.0847 24.4822 50.2377 25.6051L45.3705 34.1218L48.0567 35.6508L52.93 27.1234C53.4477 27.264 53.982 27.3636 54.5447 27.3636C57.9585 27.3636 60.7262 24.5953 60.7262 21.1815C60.7262 17.768 57.9585 15 54.5447 15V15.0001ZM54.5447 24.2726C52.8375 24.2726 51.4536 22.8888 51.4536 21.1816C51.4536 19.4747 52.8375 18.0911 54.5447 18.0911C56.252 18.0911 57.6358 19.4747 57.6358 21.1816C57.6358 22.8888 56.252 24.2726 54.5447 24.2726ZM48.1443 41.2705C47.4548 38.6098 45.0585 36.6342 42.1815 36.6342C38.768 36.6342 36 39.4022 36 42.8157C36 46.2295 38.768 48.9979 42.1815 48.9979C45.0581 48.9979 47.4549 47.0219 48.1443 44.3616H57.7746V41.2705H48.1443ZM42.1815 45.9068C40.4743 45.9068 39.0911 44.5229 39.0911 42.8157C39.0911 41.1085 40.4746 39.7253 42.1815 39.7253C43.8887 39.7253 45.2726 41.1088 45.2726 42.8157C45.2726 44.5229 43.8887 45.9068 42.1815 45.9068ZM65.2938 36.8761C65.8113 36.7354 66.3452 36.6358 66.9086 36.6358V36.6364C70.322 36.6364 73.0901 39.4044 73.0901 42.8179C73.0901 46.2317 70.322 49 66.9086 49C63.4948 49 60.7264 46.2317 60.7264 42.8179C60.7264 41.0812 61.4483 39.5172 62.6009 38.3944L57.7337 29.8777L60.4205 28.3486L65.2938 36.8761ZM63.8175 42.8173C63.8175 44.5245 65.2013 45.9083 66.9086 45.9083C68.6155 45.9083 69.999 44.5245 69.999 42.8173C69.999 41.1104 68.6158 39.7269 66.9086 39.7269C65.2013 39.7269 63.8175 41.11 63.8175 42.8173Z" fill="#00AA00"/>
<path d="M109.114 48.3398C108.845 48.1898 108.542 48.1151 108.234 48.1237C107.927 48.1323 107.628 48.2237 107.368 48.3885L69.4449 72.1808L56.1287 60.5792C55.8159 60.3065 55.415 60.1563 55 60.1563C54.585 60.1563 54.1841 60.3065 53.8713 60.5792L40.5534 72.1791L2.63192 48.3885C2.37187 48.2254 2.07289 48.1349 1.76605 48.1265C1.45921 48.118 1.1557 48.1919 0.887072 48.3404C0.618443 48.489 0.394494 48.7067 0.238497 48.9711C0.0825001 49.2355 0.000148469 49.5368 0 49.8437L0 108.281C0 108.737 0.181082 109.174 0.50341 109.497C0.825738 109.819 1.26291 110 1.71875 110H108.281C108.737 110 109.174 109.819 109.497 109.497C109.819 109.174 110 108.737 110 108.281V49.8437C110 49.5367 109.918 49.2352 109.762 48.9707C109.606 48.7062 109.383 48.4883 109.114 48.3398Z" fill="#00AA00"/>
<path d="M40.5532 72.1786L0 107.499V108.281C0 108.737 0.181082 109.174 0.50341 109.496C0.825738 109.819 1.26291 110 1.71875 110H108.281C108.737 110 109.174 109.819 109.497 109.496C109.819 109.174 110 108.737 110 108.281V107.499L69.4475 72.1782L69.4449 72.1798L56.1287 60.5782C55.8159 60.3055 55.415 60.1553 55 60.1553C54.585 60.1553 54.1841 60.3055 53.8713 60.5782L40.5534 72.1781L40.5532 72.1786Z" fill="#028A02"/>
<path d="M73.9062 0V17.1875C73.9062 17.6433 74.0873 18.0805 74.4097 18.4028C74.732 18.7252 75.1692 18.9062 75.625 18.9062H92.8125L73.9062 0Z" fill="#CED3D9"/>
</g>
<defs>
<clipPath id="clip0_5415_21856">
<rect width="110" height="110" fill="white"/>
</clipPath>
</defs>
</svg>
