<svg width="22" height="21" viewBox="0 0 22 21" fill="none" xmlns="http://www.w3.org/2000/svg">
<path d="M13.5781 2.57812C13.5781 1.15625 12.4219 0 11 0C9.57812 0 8.42188 1.15625 8.42188 2.57812C8.42188 4 9.57812 5.15625 11 5.15625C12.4219 5.15625 13.5781 4 13.5781 2.57812Z" fill="#89909A"/>
<path d="M6.48828 12.8906C6.48828 11.4687 5.33204 10.3125 3.91016 10.3125C2.48828 10.3125 1.28906 11.4687 1.28906 12.8906C1.28906 14.3125 2.48828 15.4688 3.91016 15.4688C5.33204 15.4688 6.48828 14.3125 6.48828 12.8906Z" fill="#89909A"/>
<path d="M18.0898 15.4688C16.9181 15.4688 15.8792 16.0036 15.1695 16.8293L11.6445 14.4793V10.3125H14.2227C14.5789 10.3125 14.8672 10.0242 14.8672 9.66797V9.02344C14.8672 6.89094 13.1325 5.15625 11 5.15625C8.8675 5.15625 7.13281 6.89094 7.13281 9.02344V9.66797C7.13281 10.0242 7.42109 10.3125 7.77734 10.3125H10.3555V14.4793L6.83053 16.8293C6.12077 16.0036 5.08191 15.4688 3.91016 15.4688C1.77766 15.4688 0 17.2034 0 19.3359V19.9805C0 20.3367 0.288277 20.625 0.644531 20.625H7.13281C7.48907 20.625 7.77734 20.3367 7.77734 19.9805V19.3359C7.77734 18.8388 7.67508 18.3669 7.50346 17.9299L11 15.5988L14.4966 17.9299C14.325 18.3669 14.2227 18.8388 14.2227 19.3359V19.9805C14.2227 20.3367 14.5109 20.625 14.8672 20.625H21.3555C21.7117 20.625 22 20.3367 22 19.9805V19.3359C22 17.2034 20.2223 15.4688 18.0898 15.4688Z" fill="#89909A"/>
<path d="M20.7109 12.8906C20.7109 11.4687 19.5117 10.3125 18.0898 10.3125C16.668 10.3125 15.5117 11.4687 15.5117 12.8906C15.5117 14.3125 16.668 15.4688 18.0898 15.4688C19.5117 15.4688 20.7109 14.3125 20.7109 12.8906Z" fill="#89909A"/>
</svg>
