<svg width="200" height="124" viewBox="0 0 200 124" fill="none" xmlns="http://www.w3.org/2000/svg">
<path d="M52.0315 124C80.7678 124 104.063 100.813 104.063 72.2091C104.063 43.6057 80.7678 20.418 52.0315 20.418C23.2953 20.418 0 43.6057 0 72.2091C0 100.813 23.2953 124 52.0315 124Z" fill="#CCE6FF"/>
<mask id="mask0_921_5460" style="mask-type:alpha" maskUnits="userSpaceOnUse" x="0" y="20" width="105" height="104">
<path d="M52.0315 124C80.7678 124 104.063 100.813 104.063 72.2091C104.063 43.6057 80.7678 20.418 52.0315 20.418C23.2953 20.418 0 43.6057 0 72.2091C0 100.813 23.2953 124 52.0315 124Z" fill="#EFEFFF"/>
</mask>
<g mask="url(#mask0_921_5460)">
<path d="M11.0066 128.98V118.975C10.0073 118.883 9.0317 118.657 8.10489 118.304C6.8954 119.104 5.23064 119.388 3.76726 119.295C-11.9773 111.738 -29.5892 98.2652 -22.8176 78.6157C-15.657 57.8369 10.809 46.2238 31.0188 43.8645V37.56C23.5392 29.0057 16.4099 2.87107 34.5271 0.772038C43.7978 -9.39571 77.7946 1.37834 66.9993 16.6829C67.6097 25.5882 66.3827 39.9914 58.9182 45.6486C64.8243 47.0903 70.9017 47.2845 74.5402 52.75C78.0861 58.0772 78.2537 66.1497 81.0729 72.0845C82.3524 69.2771 83.4268 66.7896 86.9639 66.3576C89.528 60.9058 92.1483 60.0729 97.6479 59.428C99.105 59.2575 103.708 60.8498 104.059 60.8573C109.451 60.9643 113.661 57.1696 118.412 61.8694C128.455 71.8056 112.312 78.719 104.317 78.7887C99.8305 93.4708 85.2091 110.933 69.0393 98.0946V128.983H11.0066V128.98ZM-0.246428 87.5434C0.185085 88.4323 2.19755 91.4614 11.0066 96.1562V78.7128C3.0093 82.4365 0.401466 86.337 -0.246428 87.5434Z" fill="white"/>
<path fill-rule="evenodd" clip-rule="evenodd" d="M62.9391 56.4268C65.0645 55.8223 67.2798 57.0473 67.887 59.163C71.8767 73.0624 75.2409 80.9985 77.9864 85.043C79.3663 87.0758 80.2914 87.6716 80.6311 87.8122C80.6407 87.8161 80.6482 87.8216 80.6555 87.8269C80.6914 87.8529 80.7237 87.8763 80.9909 87.7167C81.511 87.4061 82.3074 86.6518 83.3242 85.1683C84.3046 83.7378 85.3002 81.9144 86.3291 79.806C87.3084 77.7991 88.2652 75.6449 89.2423 73.4447C89.2882 73.3415 89.3341 73.2382 89.38 73.1347C90.3901 70.8609 91.4282 68.5338 92.4781 66.4436C93.4667 64.4756 95.8708 63.678 97.8479 64.662C99.8251 65.6459 100.626 68.039 99.6379 70.007C98.6866 71.9007 97.7235 74.0555 96.7011 76.357C96.6492 76.4739 96.5971 76.5912 96.5448 76.7089C95.584 78.8724 94.5738 81.1472 93.5295 83.2872C92.4321 85.5362 91.2389 87.7589 89.9367 89.6588C88.6709 91.5056 87.0908 93.3657 85.1094 94.5491C82.9295 95.851 80.2842 96.2976 77.5582 95.1696C75.1149 94.1585 73.1007 92.0775 71.3537 89.5039C67.8454 84.3357 64.2053 75.34 60.1902 61.3519C59.5829 59.2363 60.8136 57.0312 62.9391 56.4268Z" fill="#FFC984"/>
<path d="M81.7343 97.4002C81.3941 97.4002 81.0477 97.3852 80.695 97.3541C71.338 96.5424 64.9817 91.0645 57.2445 60.2562C55.1232 51.8128 68.714 48.4289 70.8352 56.8748C75.9521 77.2465 79.6443 78.9272 81.6093 82.006C83.3153 79.3355 85.4166 74.6357 86.6898 71.791C87.6967 69.5375 100.476 75.252 99.4876 77.4618C95.1012 87.2698 90.5697 97.4002 81.7356 97.4002H81.7343Z" fill="#66CCFF"/>
<path d="M16.0098 52.2889C32.0182 46.9766 48.0279 46.9766 64.0389 52.2889V124H16.0098V52.2889Z" fill="#66CCFF"/>
<path d="M40.0246 56.2735C45.5508 56.2735 50.0307 54.4899 50.0307 52.2896C50.0307 50.0893 45.5508 48.3057 40.0246 48.3057C34.4984 48.3057 30.0186 50.0893 30.0186 52.2896C30.0186 54.4899 34.4984 56.2735 40.0246 56.2735Z" fill="#34BBFF"/>
<path d="M36 51.3204V32.0557C36 29.8162 38.9108 28 42.5 28C46.0892 28 49 29.8162 49 32.0557V51.3204C49 53.5599 36 53.5599 36 51.3204Z" fill="#FFC984"/>
<path d="M24.0054 114.042C23.2174 114.042 22.4457 113.889 21.7115 113.585L21.3963 113.456C19.8254 112.806 18.9598 112.449 18.0093 112.449C17.0587 112.449 16.1932 112.807 14.6222 113.456L14.3083 113.585C13.5728 113.889 12.8011 114.042 12.0131 114.042C9.57541 114.042 7.39784 112.593 6.46352 110.351C5.8494 108.877 5.8494 107.252 6.46352 105.778C7.07764 104.303 8.23084 103.155 9.71299 102.543C13.2514 101.084 15.6553 100.489 18.0093 100.489C20.3632 100.489 22.7672 101.084 26.3043 102.543C28.0529 103.264 28.7408 104.63 29.0097 105.65C29.3849 107.07 29.2236 108.741 28.5532 110.352C27.4763 112.939 26.1154 114.043 24.0042 114.043L24.0054 114.042Z" fill="#FFE5B1"/>
<path d="M4.8718 114.301C-5.53451 109.122 -19.3691 100.685 -19.3691 87.2713C-19.3691 75.6967 -8.00476 61.1292 16.0098 52.2898C19.6395 50.954 21.4981 53.3667 22.2748 57.139C23.0503 60.9113 22.8665 69.4357 19.1429 70.4765C-0.750359 76.0428 -5.36065 85.2569 -5.36065 87.2713C-5.36065 90.1671 -2.49892 95.0437 11.1381 101.83C14.5977 103.552 5.87866 114.803 4.87305 114.301H4.8718Z" fill="#66CCFF"/>
<path d="M61.9809 18.9237C60.8327 30.4834 52.3763 39.9751 45.0669 39.9751C37.7575 39.9751 29.4549 30.4647 28.1529 18.9237C26.8521 7.38774 35.3085 4.18316 37.2609 6.2934C42.0313 -3.30166 63.283 5.82031 61.9809 18.9237Z" fill="#1F3A93"/>
<path d="M61.0382 23.4097C61.0382 16.2588 55.2144 10.4619 48.0303 10.4619C40.8463 10.4619 35.0225 16.2588 35.0225 23.4097V31.3776C35.0225 38.5284 40.8463 44.3254 48.0303 44.3254C55.2144 44.3254 61.0382 38.5284 61.0382 31.3776V23.4097Z" fill="#FFE5B1"/>
<path d="M44.0271 22.4102C44.0271 25.7106 41.3392 28.3861 38.0234 28.3861V22.4102H44.0271Z" fill="#1F3A93"/>
<path d="M38.0234 16.4336L44.0271 22.4095H38.0234V16.4336Z" fill="#373ABF"/>
<path d="M44.0279 20.4181L35.0225 12.4502V22.41H44.0279V20.4181Z" fill="#1F3A93"/>
<path d="M36.0229 20.418C38.233 20.418 40.0254 22.202 40.0254 24.4019V32.3698C35.6039 32.3698 32.0205 28.8029 32.0205 24.4019C32.0205 22.202 33.8128 20.418 36.0229 20.418Z" fill="#FFE5B1"/>
</g>
<path fill-rule="evenodd" clip-rule="evenodd" d="M42.5 34C46.0899 34 49 35.7909 49 38V48C49 50.2091 46.0899 52 42.5 52C38.9101 52 36 50.2091 36 48V38C36 35.7909 38.9101 34 42.5 34Z" fill="#FFC984"/>
<path d="M61.9809 21.9237C60.8327 33.4834 52.3763 42.9751 45.0669 42.9751C37.7575 42.9751 29.4549 33.4647 28.1529 21.9237C26.8521 10.3877 35.3085 7.18316 37.2609 9.2934C42.0313 -0.30166 63.283 8.82031 61.9809 21.9237Z" fill="#0A0A0A"/>
<path d="M61.0382 26.4097C61.0382 19.2588 55.2144 13.4619 48.0303 13.4619C40.8463 13.4619 35.0225 19.2588 35.0225 26.4097V34.3776C35.0225 41.5284 40.8463 47.3254 48.0303 47.3254C55.2144 47.3254 61.0382 41.5284 61.0382 34.3776V26.4097Z" fill="#FFE5B1"/>
<path d="M44.0271 25.4102C44.0271 28.7106 41.3392 31.3861 38.0234 31.3861V25.4102H44.0271Z" fill="#0A0A0A"/>
<path d="M44.0279 23.4181L35.0225 15.4502V25.41H44.0279V23.4181Z" fill="#0A0A0A"/>
<path d="M36.0229 23.418C38.233 23.418 40.0254 25.202 40.0254 27.4019V35.3698C35.6039 35.3698 32.0205 31.8029 32.0205 27.4019C32.0205 25.202 33.8128 23.418 36.0229 23.418Z" fill="#FFE5B1"/>
<path d="M36.0226 13.458C36.0226 9.05699 38.3965 4.49414 45.028 4.49414C51.6596 4.49414 64.0396 9.05699 64.0396 13.458C64.0396 17.859 58.6638 21.4259 52.0323 21.4259C45.4008 21.4259 36.0226 17.859 36.0226 13.458Z" fill="#0A0A0A"/>
<path fill-rule="evenodd" clip-rule="evenodd" d="M92.3593 66.701C93.205 64.6681 95.5462 63.7026 97.5885 64.5444C101.734 66.253 106.389 66.253 110.534 64.5444C112.577 63.7026 114.918 64.6681 115.764 66.701C116.609 68.7338 115.639 71.0642 113.597 71.906C107.491 74.4229 100.632 74.4229 94.5259 71.906C92.4836 71.0642 91.5136 68.7338 92.3593 66.701Z" fill="#FFC984"/>
<path d="M114.016 12.9404H94.0036C90.6879 12.9404 88 15.6159 88 18.9163V38.836C88 42.1364 90.6879 44.8119 94.0036 44.8119H114.016C117.331 44.8119 120.019 42.1364 120.019 38.836V18.9163C120.019 15.6159 117.331 12.9404 114.016 12.9404Z" fill="#0080FF"/>
<path fill-rule="evenodd" clip-rule="evenodd" d="M94.4005 25.4799C94.0568 25.4799 93.7781 25.7572 93.7781 26.0993C93.7781 26.4415 94.0568 26.7188 94.4005 26.7188C94.7442 26.7188 95.0228 26.4415 95.0228 26.0993C95.0228 25.7572 94.7442 25.4799 94.4005 25.4799ZM94.4005 24.7055C93.6271 24.7055 93.0002 25.3295 93.0002 26.0993C93.0002 26.8691 93.6271 27.4932 94.4005 27.4932C95.1738 27.4932 95.8008 26.8691 95.8008 26.0993C95.8008 25.3296 95.1738 24.7055 94.4005 24.7055Z" fill="white"/>
<path fill-rule="evenodd" clip-rule="evenodd" d="M98.3508 23.2063C98.067 22.5243 97.6826 21.8896 97.2114 21.323L97.7968 20.7402C98.3432 21.3848 98.7874 22.1105 99.1127 22.8922C99.5271 23.888 99.7404 24.9554 99.7404 26.0333C99.7404 27.1112 99.5271 28.1785 99.1127 29.1744C98.776 29.9834 98.312 30.7324 97.7392 31.3936L97.1543 30.8114C97.6516 30.2277 98.0556 29.5697 98.3508 28.8603C98.7238 27.964 98.9158 27.0034 98.9158 26.0333C98.9158 25.0632 98.7238 24.1026 98.3508 23.2063Z" fill="white"/>
<path fill-rule="evenodd" clip-rule="evenodd" d="M101.959 21.6746C101.483 20.5301 100.826 19.4706 100.016 18.5356L100.637 17.917C101.528 18.9342 102.249 20.0902 102.769 21.3406C103.399 22.8532 103.723 24.4743 103.723 26.1115C103.723 27.7487 103.399 29.3699 102.769 30.8824C102.252 32.127 101.535 33.278 100.65 34.2918L100.028 33.6731C100.833 32.7416 101.486 31.6871 101.959 30.5485C102.545 29.1418 102.846 27.6341 102.846 26.1115C102.846 24.589 102.545 23.0813 101.959 21.6746Z" fill="white"/>
<path fill-rule="evenodd" clip-rule="evenodd" d="M113.869 32.2526C114.213 32.2526 114.491 31.9752 114.491 31.6331C114.491 31.291 114.213 31.0136 113.869 31.0136C113.525 31.0136 113.247 31.291 113.247 31.6331C113.247 31.9752 113.525 32.2526 113.869 32.2526ZM113.869 33.0269C114.642 33.0269 115.269 32.4029 115.269 31.6331C115.269 30.8633 114.642 30.2393 113.869 30.2393C113.096 30.2393 112.469 30.8633 112.469 31.6331C112.469 32.4029 113.096 33.0269 113.869 33.0269Z" fill="white"/>
<path fill-rule="evenodd" clip-rule="evenodd" d="M109.919 34.5246C110.202 35.2068 110.587 35.8417 111.059 36.4085L110.473 36.9912C109.927 36.3465 109.482 35.6206 109.157 34.8387C108.742 33.8428 108.529 32.7755 108.529 31.6976C108.529 30.6197 108.742 29.5523 109.157 28.5565C109.494 27.7468 109.958 26.9973 110.532 26.3357L111.116 26.9179C110.618 27.502 110.214 28.1606 109.919 28.8706C109.546 29.7668 109.354 30.7275 109.354 31.6976C109.354 32.6677 109.546 33.6283 109.919 34.5246Z" fill="white"/>
<path fill-rule="evenodd" clip-rule="evenodd" d="M106.312 36.0578C106.788 37.2023 107.445 38.2618 108.256 39.1968L107.634 39.8154C106.743 38.7982 106.022 37.6423 105.502 36.3918C104.873 34.8792 104.549 33.2581 104.549 31.6209C104.549 29.9837 104.873 28.3625 105.502 26.85C106.02 25.6059 106.736 24.4553 107.621 23.4419L108.242 24.0606C107.438 24.9918 106.786 26.0458 106.312 27.1839C105.727 28.5906 105.425 30.0983 105.425 31.6209C105.425 33.1435 105.727 34.6511 106.312 36.0578Z" fill="white"/>
<path d="M159.976 92.1377C182.081 92.1377 200.001 74.301 200.001 52.2983C200.001 30.2957 182.081 12.459 159.976 12.459C137.872 12.459 119.952 30.2957 119.952 52.2983C119.952 74.301 137.872 92.1377 159.976 92.1377Z" fill="#CCE6FF"/>
<mask id="mask1_921_5460" style="mask-type:alpha" maskUnits="userSpaceOnUse" x="119" y="12" width="82" height="81">
<path d="M159.976 92.1377C182.081 92.1377 200.001 74.301 200.001 52.2983C200.001 30.2957 182.081 12.459 159.976 12.459C137.872 12.459 119.952 30.2957 119.952 52.2983C119.952 74.301 137.872 92.1377 159.976 92.1377Z" fill="#E4E5FF"/>
</mask>
<g mask="url(#mask1_921_5460)">
<path d="M200.002 111.06V76.5782C200.002 63.242 202.516 49.6966 186.916 44.0432C191.194 36.7737 187.434 21.1853 185.307 13.3544C182.395 2.63638 171.651 -3.159 161.014 -2.3784C149.342 -1.52185 142.492 5.18859 141.646 16.7159C141.018 25.2751 135.49 40.1613 143.429 46.7821C132.936 53.6021 135.964 68.6602 135.964 79.3819V111.06H200.003H200.002Z" fill="white"/>
<path d="M187.994 118.033C184.126 118.033 180.99 114.912 180.99 111.061V55.286C180.99 51.4353 180.303 47.1551 183.992 48.3141C187.953 49.5591 194.998 52.7637 194.998 59.27V111.061C194.998 114.912 191.863 118.033 187.994 118.033Z" fill="#66CCFF"/>
<path d="M147.97 118.033C151.839 118.033 154.974 114.912 154.974 111.061V55.286C154.974 51.4353 155.661 47.1551 151.972 48.3141C148.011 49.5591 140.966 52.7637 140.966 59.27V111.061C140.966 114.912 144.101 118.033 147.97 118.033Z" fill="#66CCFF"/>
<path d="M151.972 48.3139C159.976 45.6584 175.985 45.6584 183.992 48.3139C183.992 48.3139 187.994 68.2336 187.994 100.105C187.994 105.417 147.97 105.417 147.97 100.105C147.97 68.2336 151.972 48.3139 151.972 48.3139Z" fill="#66CCFF"/>
<path d="M169.983 59.2702C177.168 59.2702 182.991 55.7034 182.991 51.3024C182.991 49.9839 182.46 48.7427 181.534 47.6471C175.389 46.2291 166.457 45.9477 159.23 46.8192C157.808 48.0965 156.975 49.6391 156.975 51.3011C156.975 55.7021 162.799 59.269 169.983 59.269V59.2702Z" fill="#FFE5B1"/>
<path d="M169.983 56.2817C175.509 56.2817 179.989 53.6063 179.989 50.3058C179.989 49.1019 179.388 47.984 178.363 47.0465C173.478 46.3082 167.579 46.1414 162.22 46.5385C160.819 47.5669 159.977 48.8766 159.977 50.3058C159.977 53.6063 164.458 56.2817 169.983 56.2817Z" fill="#FFE5B1"/>
<path d="M163.979 47.3175V34.3697C163.979 32.1698 165.772 30.3857 167.982 30.3857C170.192 30.3857 171.984 32.1698 171.984 34.3697V47.3175C171.984 49.5173 163.979 49.5173 163.979 47.3175Z" fill="#FFC984"/>
<path d="M173.985 21.7321C173.985 15.1313 168.609 9.78027 161.978 9.78027C155.346 9.78027 149.97 15.1313 149.97 21.7321V29.0874C149.97 35.6882 155.346 41.0392 161.978 41.0392C168.609 41.0392 173.985 35.6882 173.985 29.0874V21.7321Z" fill="#FFE5B1"/>
<path d="M156.986 8.47461C156.986 18.4332 170.995 15.1987 170.995 21.4212V8.47461H156.986Z" fill="#373ABF"/>
<path d="M177.987 12.46H170.983V22.4186H177.987V12.46Z" fill="#373ABF"/>
<path d="M177.987 26.4023H171.983V38.3541H177.987V26.4023Z" fill="#373ABF"/>
<path d="M172.985 18.4346C171.328 18.4346 169.983 19.7729 169.983 21.4225V30.3864C173.299 30.3864 175.987 27.7109 175.987 24.4105V21.4225C175.987 19.7729 174.642 18.4346 172.985 18.4346Z" fill="#FFE5B1"/>
</g>
<path d="M163.978 4.49707C155.136 4.49707 146.967 11.632 146.967 20.4328C146.967 26.4087 141.838 39.9914 145.967 44.3364C152.155 50.8477 175.8 50.8477 181.988 44.3364C186.117 39.9914 180.988 26.4087 180.988 20.4328C180.988 11.632 172.819 4.49707 163.978 4.49707Z" fill="#0A0A0A"/>
<path d="M169.982 59.2683C177.167 59.2683 182.99 55.7014 182.99 51.3004C182.99 49.982 182.459 48.7407 181.533 47.6451C175.388 46.2271 166.457 45.9457 159.23 46.8172C157.808 48.0946 156.975 49.6371 156.975 51.2992C156.975 55.7002 162.798 59.267 169.982 59.267V59.2683Z" fill="#FFE5B1"/>
<path d="M169.983 56.2798C175.508 56.2798 179.989 53.6043 179.989 50.3039C179.989 49.1 179.387 47.982 178.363 47.0445C173.477 46.3063 167.579 46.1394 162.219 46.5366C160.818 47.5649 159.977 48.8746 159.977 50.3039C159.977 53.6043 164.457 56.2798 169.983 56.2798Z" fill="#FFE5B1"/>
<path d="M160 47.3129V34.0736C160 31.8242 162.687 30 166 30C169.313 30 172 31.8242 172 34.0736V47.3129C172 49.5624 160 49.5624 160 47.3129Z" fill="#FFC984"/>
<path d="M173.985 23.7311C173.985 17.1303 168.609 11.7793 161.978 11.7793C155.347 11.7793 149.971 17.1303 149.971 23.7311V31.0864C149.971 37.6872 155.347 43.0382 161.978 43.0382C168.609 43.0382 173.985 37.6872 173.985 31.0864V23.7311Z" fill="#FFE5B1"/>
<path d="M156.985 10.4727C156.985 20.4312 170.994 17.1968 170.994 23.4192V10.4727H156.985Z" fill="#0A0A0A"/>
<path d="M177.988 14.458H170.983V24.4166H177.988V14.458Z" fill="#0A0A0A"/>
<path d="M177.986 26.4004H171.982V38.3522H177.986V26.4004Z" fill="#0A0A0A"/>
<path d="M172.984 20.4326C171.327 20.4326 169.982 21.771 169.982 23.4206V32.3844C173.298 32.3844 175.986 29.709 175.986 26.4085V23.4206C175.986 21.771 174.641 20.4326 172.984 20.4326Z" fill="#FFE5B1"/>
<path fill-rule="evenodd" clip-rule="evenodd" d="M104.06 0C104.336 0 104.56 0.222959 104.56 0.497992V4.48193C104.56 4.75696 104.336 4.97992 104.06 4.97992C103.784 4.97992 103.56 4.75696 103.56 4.48193V0.497992C103.56 0.222959 103.784 0 104.06 0Z" fill="#0080FF"/>
<path fill-rule="evenodd" clip-rule="evenodd" d="M90.8019 5.52877C91.0412 5.3912 91.3472 5.47275 91.4854 5.71091L92.486 7.4352C92.6242 7.67336 92.5423 7.97795 92.303 8.11551C92.0637 8.25307 91.7577 8.17153 91.6195 7.93337L90.6189 6.20907C90.4807 5.97091 90.5626 5.66633 90.8019 5.52877Z" fill="#0080FF"/>
<path fill-rule="evenodd" clip-rule="evenodd" d="M79.363 14.1925C79.5011 13.9543 79.8071 13.8726 80.0464 14.0101L83.5135 16.0021C83.7528 16.1396 83.8348 16.4441 83.6967 16.6823C83.5586 16.9206 83.2526 17.0022 83.0133 16.8647L79.5462 14.8727C79.3069 14.7352 79.2249 14.4307 79.363 14.1925Z" fill="#0080FF"/>
<path fill-rule="evenodd" clip-rule="evenodd" d="M77.5439 28.3857C77.5439 28.1107 77.7679 27.8877 78.0442 27.8877H80.0455C80.3218 27.8877 80.5458 28.1107 80.5458 28.3857C80.5458 28.6607 80.3218 28.8837 80.0455 28.8837H78.0442C77.7679 28.8837 77.5439 28.6607 77.5439 28.3857Z" fill="#0080FF"/>
<path fill-rule="evenodd" clip-rule="evenodd" d="M83.6967 40.088C83.8348 40.3262 83.7528 40.6308 83.5135 40.7682L80.0464 42.7602C79.8071 42.8977 79.5011 42.8161 79.363 42.5779C79.2249 42.3397 79.3069 42.0351 79.5462 41.8976L83.0133 39.9056C83.2526 39.7682 83.5586 39.8498 83.6967 40.088Z" fill="#0080FF"/>
<path fill-rule="evenodd" clip-rule="evenodd" d="M92.303 48.6557C92.5423 48.7933 92.6242 49.0979 92.486 49.336L91.4854 51.0603C91.3472 51.2985 91.0412 51.38 90.8019 51.2425C90.5626 51.1049 90.4807 50.8003 90.6189 50.5622L91.6195 48.8379C91.7577 48.5997 92.0637 48.5182 92.303 48.6557Z" fill="#0080FF"/>
<path fill-rule="evenodd" clip-rule="evenodd" d="M104.06 51.791C104.336 51.791 104.56 52.014 104.56 52.289V56.2729C104.56 56.548 104.336 56.7709 104.06 56.7709C103.784 56.7709 103.56 56.548 103.56 56.2729V52.289C103.56 52.014 103.784 51.791 104.06 51.791Z" fill="#0080FF"/>
<path fill-rule="evenodd" clip-rule="evenodd" d="M115.817 48.6557C116.056 48.5182 116.362 48.5997 116.5 48.8379L117.501 50.5622C117.639 50.8003 117.557 51.1049 117.318 51.2425C117.078 51.38 116.772 51.2985 116.634 51.0603L115.634 49.336C115.495 49.0979 115.577 48.7933 115.817 48.6557Z" fill="#0080FF"/>
<path fill-rule="evenodd" clip-rule="evenodd" d="M124.425 40.0879C124.563 39.8497 124.869 39.7682 125.108 39.9057L128.574 41.8976C128.813 42.0352 128.895 42.3397 128.757 42.5779C128.619 42.8161 128.313 42.8977 128.073 42.7602L124.608 40.7682C124.368 40.6307 124.286 40.3261 124.425 40.0879Z" fill="#0080FF"/>
<path fill-rule="evenodd" clip-rule="evenodd" d="M127.574 28.3857C127.574 28.1107 127.798 27.8877 128.075 27.8877H130.076C130.352 27.8877 130.576 28.1107 130.576 28.3857C130.576 28.6607 130.352 28.8837 130.076 28.8837H128.075C127.798 28.8837 127.574 28.6607 127.574 28.3857Z" fill="#0080FF"/>
<path fill-rule="evenodd" clip-rule="evenodd" d="M128.757 14.1924C128.895 14.4306 128.813 14.7352 128.574 14.8727L125.108 16.8647C124.869 17.0022 124.563 16.9206 124.425 16.6824C124.286 16.4442 124.368 16.1397 124.608 16.0021L128.073 14.0102C128.313 13.8726 128.619 13.9542 128.757 14.1924Z" fill="#0080FF"/>
<path fill-rule="evenodd" clip-rule="evenodd" d="M117.318 5.52877C117.557 5.66633 117.639 5.97091 117.501 6.20907L116.5 7.93337C116.362 8.17153 116.056 8.25307 115.817 8.11551C115.577 7.97795 115.495 7.67336 115.634 7.4352L116.634 5.71091C116.772 5.47275 117.078 5.3912 117.318 5.52877Z" fill="#0080FF"/>
</svg>
