<svg width="58" height="60" viewBox="0 0 58 60" fill="none" xmlns="http://www.w3.org/2000/svg">
<path fill-rule="evenodd" clip-rule="evenodd" d="M39.5469 24.6875C39.5469 23.3954 38.4952 22.3438 37.2031 22.3438C36.3929 22.3438 35.6513 22.7545 35.2177 23.4412C34.4361 24.6808 33.415 25.867 32.187 27.0312H25.813C24.585 25.867 23.5639 24.6808 22.7823 23.4412C22.3487 22.7545 21.6071 22.3438 20.7969 22.3438C19.5048 22.3438 18.4531 23.3954 18.4531 24.6875C18.4531 25.9796 19.5048 27.0312 20.7969 27.0312H16.7612C16.3575 26.3391 16.1094 25.545 16.1094 24.6875C16.1094 22.1024 18.2117 20 20.7969 20C22.4161 20 23.8993 20.8194 24.7645 22.1915C25.7432 23.7424 27.1512 25.2237 29 26.7007C30.8488 25.2237 32.2568 23.7424 33.2355 22.1915C34.1007 20.8194 35.5839 20 37.2031 20C39.7883 20 41.8906 22.1024 41.8906 24.6875C41.8906 25.545 41.6425 26.3391 41.2388 27.0312H37.2031C38.4952 27.0312 39.5469 25.9796 39.5469 24.6875ZM25.4844 29.375H9V36.4844H25.4844V29.375ZM32.5156 29.375H49V36.4844H32.5156V29.375ZM25.4844 38.8281H11.3438V60H25.4844V38.8281ZM32.5156 38.8281H46.6562V60H32.5156V38.8281ZM30.1719 60V29.375H27.8281V60H30.1719Z" fill="#47C560"/>
<path d="M3.15659 7.77385C3.40101 7.52947 3.40114 7.13305 3.1565 6.88842C2.91216 6.64407 2.51575 6.64389 2.27108 6.88833C2.27102 6.88839 2.27096 6.88845 2.2709 6.88851M3.15659 7.77385L2.2709 6.88851M3.15659 7.77385C2.91183 8.01859 2.51534 8.01833 2.27108 7.77403C2.02656 7.52949 2.0265 7.13313 2.2709 6.88851M3.15659 7.77385L2.2709 6.88851" fill="#32CD32" stroke="white" stroke-width="4"/>
<path d="M54.8919 8.01701L54.8918 8.0171C54.6521 8.25686 54.2634 8.25686 54.0236 8.0171L54.0234 8.01692C53.7837 7.77724 53.7836 7.38854 54.0235 7.14861L54.0236 7.14852C54.2632 6.90893 54.652 6.90867 54.892 7.1487C55.1317 7.38838 55.1319 7.77708 54.8919 8.01701Z" fill="#32CD32" stroke="white" stroke-width="4"/>
<path d="M26.4656 2.61408C26.4656 1.44646 27.412 0.5 28.5797 0.5C29.7473 0.5 30.6937 1.44646 30.6937 2.61408V10.4965C30.6937 11.6641 29.7473 12.6106 28.5797 12.6106C27.412 12.6106 26.4656 11.6641 26.4656 10.4965V2.61408Z" fill="#FFC600" stroke="white"/>
<path d="M14.0002 18.8812C13.1745 19.7068 11.8359 19.7067 11.0104 18.8812L8.60047 16.4713C7.77495 15.6457 7.77492 14.3072 8.6005 13.4815C9.42601 12.6559 10.7646 12.6559 11.5903 13.4816L14.0002 15.8914C14.8257 16.717 14.8258 18.0555 14.0002 18.8812C14.0002 18.8812 14.0002 18.8812 14.0002 18.8812Z" fill="#FD6300" stroke="white"/>
<path d="M45.5692 13.4815L45.5693 13.4814C46.3946 12.656 47.7332 12.6559 48.559 13.4815C49.3846 14.3071 49.3845 15.6456 48.5589 16.4713C48.5588 16.4713 48.5588 16.4713 48.5588 16.4713L46.1488 18.8812L46.1488 18.8812C45.3231 19.707 43.9846 19.7066 43.1591 18.8812C42.3335 18.0556 42.3335 16.7171 43.1592 15.8914C43.1592 15.8914 43.1592 15.8914 43.1592 15.8914L45.5692 13.4815Z" fill="#FD6300" stroke="white"/>
</svg>
