<svg width="18" height="19" viewBox="0 0 18 19" fill="none" xmlns="http://www.w3.org/2000/svg">
<path fill-rule="evenodd" clip-rule="evenodd" d="M13.7461 2.73438C13.7461 2.15292 13.2729 1.67969 12.6914 1.67969C12.3268 1.67969 11.9931 1.86453 11.7979 2.17352C11.4462 2.73135 10.9867 3.26515 10.4341 3.78906H7.56587C7.01326 3.26515 6.55376 2.73135 6.20206 2.17352C6.00691 1.86453 5.6732 1.67969 5.30859 1.67969C4.72714 1.67969 4.25391 2.15292 4.25391 2.73438C4.25391 3.31583 4.72714 3.78906 5.30859 3.78906H3.49255C3.31087 3.4776 3.19922 3.12027 3.19922 2.73438C3.19922 1.57106 4.14528 0.625 5.30859 0.625C6.03726 0.625 6.70468 0.993729 7.09401 1.61116C7.53442 2.30907 8.16806 2.97566 9 3.64034C9.83194 2.97566 10.4656 2.30907 10.906 1.61116C11.2953 0.993729 11.9627 0.625 12.6914 0.625C13.8547 0.625 14.8008 1.57106 14.8008 2.73438C14.8008 3.12027 14.6891 3.4776 14.5074 3.78906H12.6914C13.2729 3.78906 13.7461 3.31583 13.7461 2.73438ZM7.41797 4.84375H0V8.04297H7.41797V4.84375ZM10.582 4.84375H18V8.04297H10.582V4.84375ZM7.41797 9.09766H1.05469V18.625H7.41797V9.09766ZM10.582 9.09766H16.9453V18.625H10.582V9.09766ZM9.52734 18.625V4.84375H8.47266V18.625H9.52734Z" fill="#89909A"/>
</svg>
