<svg width="20" height="20" viewBox="0 0 20 20" fill="none" xmlns="http://www.w3.org/2000/svg">
<g clip-path="url(#clip0_4736_18635)">
<path d="M0.90918 0.90918H6.36371V2.72736H2.72736V6.36371H0.90918V0.90918ZM13.6364 0.90918H19.091V6.36371H17.2728V2.72736H13.6364V0.90918ZM0.90918 19.091H6.36371V17.2728H2.72736V13.6364H0.90918V19.091ZM13.6364 19.091H19.091V13.6364H17.2728V17.2728H13.6364V19.091Z" fill="#00AA00"/>
<path d="M0.90918 0.90918H6.36371V2.72736H2.72736V6.36371H0.90918V0.90918ZM13.6364 0.90918H19.091V6.36371H17.2728V2.72736H13.6364V0.90918ZM0.90918 19.091H6.36371V17.2728H2.72736V13.6364H0.90918V19.091ZM13.6364 19.091H19.091V13.6364H17.2728V17.2728H13.6364V19.091Z" stroke="white"/>
<rect x="7" y="7" width="6" height="6" stroke="#00AA00" stroke-width="2"/>
</g>
<defs>
<clipPath id="clip0_4736_18635">
<rect width="20" height="20" fill="white"/>
</clipPath>
</defs>
</svg>
