<svg width="20" height="20" viewBox="0 0 20 20" fill="none" xmlns="http://www.w3.org/2000/svg">
<path d="M0.909119 0.90918H6.36365V2.72736H2.7273V6.36371H0.909119V0.90918ZM13.6364 0.90918H19.0909V6.36371H17.2727V2.72736H13.6364V0.90918ZM0.909119 19.091H6.36365V17.2728H2.7273V13.6364H0.909119V19.091ZM13.6364 19.091H19.0909V13.6364H17.2727V17.2728H13.6364V19.091Z" fill="#0080FF"/>
<path d="M0.909119 0.90918H6.36365V2.72736H2.7273V6.36371H0.909119V0.90918ZM13.6364 0.90918H19.0909V6.36371H17.2727V2.72736H13.6364V0.90918ZM0.909119 19.091H6.36365V17.2728H2.7273V13.6364H0.909119V19.091ZM13.6364 19.091H19.0909V13.6364H17.2727V17.2728H13.6364V19.091Z" stroke="white"/>
<rect x="7" y="7" width="6" height="6" stroke="#0080FF" stroke-width="2"/>
</svg>
