<svg width="22" height="21" viewBox="0 0 22 21" fill="none" xmlns="http://www.w3.org/2000/svg">
<path d="M8.24995 20.625L7.84995 17.425C7.63329 17.3417 7.42928 17.2417 7.23795 17.125C7.04595 17.0083 6.85828 16.8833 6.67495 16.75L3.69995 18L0.949951 13.25L3.52495 11.3C3.50828 11.1833 3.49995 11.0707 3.49995 10.962V10.287C3.49995 10.179 3.50828 10.0667 3.52495 9.95L0.949951 8L3.69995 3.25L6.67495 4.5C6.85828 4.36667 7.04995 4.24167 7.24995 4.125C7.44995 4.00833 7.64995 3.90833 7.84995 3.825L8.24995 0.625H13.75L14.15 3.825C14.3666 3.90833 14.571 4.00833 14.763 4.125C14.9543 4.24167 15.1416 4.36667 15.325 4.5L18.2999 3.25L21.0499 8L18.475 9.95C18.4916 10.0667 18.5 10.179 18.5 10.287V10.962C18.5 11.0707 18.4833 11.1833 18.45 11.3L21.025 13.25L18.275 18L15.325 16.75C15.1416 16.8833 14.95 17.0083 14.75 17.125C14.55 17.2417 14.35 17.3417 14.15 17.425L13.75 20.625H8.24995ZM11.05 14.125C12.0166 14.125 12.8416 13.7833 13.525 13.1C14.2083 12.4167 14.55 11.5917 14.55 10.625C14.55 9.65833 14.2083 8.83333 13.525 8.15C12.8416 7.46667 12.0166 7.125 11.05 7.125C10.0666 7.125 9.23728 7.46667 8.56195 8.15C7.88729 8.83333 7.54995 9.65833 7.54995 10.625C7.54995 11.5917 7.88729 12.4167 8.56195 13.1C9.23728 13.7833 10.0666 14.125 11.05 14.125Z" fill="#89909A"/>
</svg>
