<svg width="20" height="20" viewBox="0 0 20 20" fill="none" xmlns="http://www.w3.org/2000/svg">
<circle cx="10" cy="10" r="9.5" fill="white" stroke="#CED3D9"/>
<path d="M15.2164 9.15603L12.8806 11.433L13.4322 14.649C13.4562 14.7897 13.3984 14.9318 13.2829 15.0158C13.2177 15.0634 13.1401 15.0874 13.0624 15.0874C13.0028 15.0874 12.9428 15.0732 12.8881 15.0443L9.99982 13.5259L7.11194 15.0439C6.98594 15.1107 6.83256 15.0998 6.71706 15.0154C6.60156 14.9314 6.54381 14.7893 6.56781 14.6487L7.11944 11.4327L4.78319 9.15603C4.68119 9.05628 4.64406 8.90703 4.68831 8.77166C4.73256 8.63628 4.84994 8.53691 4.99131 8.51628L8.21969 8.04753L9.66344 5.12178C9.78981 4.86566 10.2098 4.86566 10.3362 5.12178L11.7799 8.04753L15.0083 8.51628C15.1497 8.53691 15.2671 8.63591 15.3113 8.77166C15.3556 8.90741 15.3184 9.05591 15.2164 9.15603Z" fill="#00AA00"/>
</svg>
