<svg width="22" height="18" viewBox="0 0 22 18" fill="none" xmlns="http://www.w3.org/2000/svg">
<path d="M20.025 8.05V16C20.025 16.55 19.8293 17.021 19.438 17.413C19.046 17.8043 18.575 18 18.025 18H4.025C3.475 18 3.00433 17.8043 2.613 17.413C2.221 17.021 2.025 16.55 2.025 16V8.05C1.64167 7.7 1.346 7.25 1.138 6.7C0.929332 6.15 0.924999 5.55 1.125 4.9L2.175 1.5C2.30833 1.06667 2.546 0.708333 2.888 0.425C3.22933 0.141667 3.625 0 4.075 0H17.975C18.425 0 18.8167 0.137333 19.15 0.412C19.4833 0.687333 19.725 1.05 19.875 1.5L20.925 4.9C21.125 5.55 21.121 6.14167 20.913 6.675C20.7043 7.20833 20.4083 7.66667 20.025 8.05ZM13.225 7C13.675 7 14.0167 6.84567 14.25 6.537C14.4833 6.229 14.575 5.88333 14.525 5.5L13.975 2H12.025V5.7C12.025 6.05 12.1417 6.35433 12.375 6.613C12.6083 6.871 12.8917 7 13.225 7ZM8.725 7C9.10833 7 9.421 6.871 9.663 6.613C9.90433 6.35433 10.025 6.05 10.025 5.7V2H8.075L7.525 5.5C7.45833 5.9 7.546 6.25 7.788 6.55C8.02933 6.85 8.34167 7 8.725 7ZM4.275 7C4.575 7 4.83733 6.89167 5.062 6.675C5.28733 6.45833 5.425 6.18333 5.475 5.85L6.025 2H4.075L3.075 5.35C2.975 5.68333 3.029 6.04167 3.237 6.425C3.44567 6.80833 3.79167 7 4.275 7ZM17.775 7C18.2583 7 18.6083 6.80833 18.825 6.425C19.0417 6.04167 19.0917 5.68333 18.975 5.35L17.925 2H16.025L16.575 5.85C16.625 6.18333 16.7627 6.45833 16.988 6.675C17.2127 6.89167 17.475 7 17.775 7Z" fill="#89909A"/>
</svg>
