<svg width="20" height="21" viewBox="0 0 20 21" fill="none" xmlns="http://www.w3.org/2000/svg">
<path d="M10 20.625C8.61667 20.625 7.31667 20.3623 6.1 19.837C4.88333 19.3123 3.825 18.6 2.925 17.7C2.025 16.8 1.31267 15.7417 0.788 14.525C0.262667 13.3083 0 12.0083 0 10.625C0 9.24167 0.262667 7.94167 0.788 6.725C1.31267 5.50833 2.025 4.45 2.925 3.55C3.825 2.65 4.88333 1.93733 6.1 1.412C7.31667 0.887333 8.61667 0.625 10 0.625C11.3833 0.625 12.6833 0.887333 13.9 1.412C15.1167 1.93733 16.175 2.65 17.075 3.55C17.975 4.45 18.6873 5.50833 19.212 6.725C19.7373 7.94167 20 9.24167 20 10.625C20 12.0083 19.7373 13.3083 19.212 14.525C18.6873 15.7417 17.975 16.8 17.075 17.7C16.175 18.6 15.1167 19.3123 13.9 19.837C12.6833 20.3623 11.3833 20.625 10 20.625ZM7.1 18.075L8.3 15.325C7.6 15.075 6.996 14.6873 6.488 14.162C5.97933 13.6373 5.58333 13.025 5.3 12.325L2.55 13.475C2.93333 14.5417 3.525 15.475 4.325 16.275C5.125 17.075 6.05 17.675 7.1 18.075ZM5.3 8.925C5.58333 8.225 5.97933 7.61267 6.488 7.088C6.996 6.56267 7.6 6.175 8.3 5.925L7.15 3.175C6.08333 3.575 5.15 4.175 4.35 4.975C3.55 5.775 2.95 6.70833 2.55 7.775L5.3 8.925ZM10 13.625C10.8333 13.625 11.5417 13.3333 12.125 12.75C12.7083 12.1667 13 11.4583 13 10.625C13 9.79167 12.7083 9.08333 12.125 8.5C11.5417 7.91667 10.8333 7.625 10 7.625C9.16667 7.625 8.45833 7.91667 7.875 8.5C7.29167 9.08333 7 9.79167 7 10.625C7 11.4583 7.29167 12.1667 7.875 12.75C8.45833 13.3333 9.16667 13.625 10 13.625ZM12.9 18.075C13.95 17.675 14.871 17.0793 15.663 16.288C16.4543 15.496 17.05 14.575 17.45 13.525L14.7 12.325C14.45 13.025 14.0667 13.629 13.55 14.137C13.0333 14.6457 12.4333 15.0417 11.75 15.325L12.9 18.075ZM14.7 8.875L17.45 7.725C17.05 6.675 16.4543 5.754 15.663 4.962C14.871 4.17067 13.95 3.575 12.9 3.175L11.75 5.975C12.4333 6.225 13.025 6.604 13.525 7.112C14.025 7.62067 14.4167 8.20833 14.7 8.875Z" fill="#89909A"/>
</svg>
