<svg width="62" height="110" viewBox="0 0 62 110" fill="none" xmlns="http://www.w3.org/2000/svg">
<path fill-rule="evenodd" clip-rule="evenodd" d="M34.2902 53.1852C34.1971 53.3173 33.8006 53.9496 34.3092 54.6623C34.342 54.7077 34.3642 54.7437 34.3779 54.7754C40.4681 58.4348 58.7377 73.2385 58.7377 83.6732V105.29H3.60123V83.6648C3.60123 73.1634 22.1193 58.1239 28.0762 54.6623H28.0773C28.2687 54.3958 28.3311 54.1389 28.3311 53.9168C28.3311 53.4717 28.0773 53.1598 28.0773 53.1598C22.1066 49.6209 3.60123 34.6925 3.60123 24.1911V2.57422H58.7377V24.1996C58.7377 34.6839 40.2799 49.6928 34.2902 53.1852Z" fill="#CCE6FF"/>
<path fill-rule="evenodd" clip-rule="evenodd" d="M6.20544 23.2031V25.3431C6.20544 32.2079 24.677 47.0792 29.5618 50.892C30.3019 51.4693 30.7344 52.3553 30.7344 53.2942V91.4703C30.7344 92.774 30.0915 93.9878 29.0236 94.7353C25.1824 97.4241 18.7094 105.292 18.7094 105.292H43.1908C43.1908 105.292 36.6248 97.699 32.941 94.8802C32.0994 94.2373 31.6035 93.2413 31.6035 92.1829V53.2836C31.6035 52.35 32.0286 51.4671 32.7571 50.8835C37.5457 47.0485 55.6133 32.1225 55.6133 25.2625V23.2031H6.20544Z" fill="#00AA00"/>
<rect y="104.844" width="61.875" height="5.15625" fill="#00AA00"/>
<rect width="61.875" height="5.15625" fill="#00AA00"/>
</svg>
