<svg width="24" height="17" viewBox="0 0 24 17" fill="none" xmlns="http://www.w3.org/2000/svg">
<path d="M0 14.1094H24V15.3051H0V14.1094Z" fill="white"/>
<path d="M0 11.7168H24V12.9125H0V11.7168Z" fill="white"/>
<path d="M0 9.3252H24V10.5209H0V9.3252Z" fill="white"/>
<path d="M0 6.93848H24V8.13419H0V6.93848Z" fill="white"/>
<path d="M0 4.54785H24V5.74357H0V4.54785Z" fill="white"/>
<path d="M0 2.15625H24V3.35196H0V2.15625Z" fill="white"/>
<path d="M0 15.3047H24V16.5004H0V15.3047Z" fill="#BD3D44"/>
<path d="M0 12.9121H24V14.1078H0V12.9121Z" fill="#BD3D44"/>
<path d="M0 10.5215H24V11.7172H0V10.5215Z" fill="#BD3D44"/>
<path d="M0 8.13574H24V9.33146H0V8.13574Z" fill="#BD3D44"/>
<path d="M0 5.74316H24V6.93888H0V5.74316Z" fill="#BD3D44"/>
<path d="M0 3.35156H24V4.54728H0V3.35156Z" fill="#BD3D44"/>
<path d="M0 0.959961H24V2.15568H0V0.959961Z" fill="#BD3D44"/>
<path d="M0 0.959961H10.1186V8.01425H0V0.959961Z" fill="#192F5D"/>
<path d="M0.702843 2.07796L0.942843 1.90225L1.18284 2.07796L1.09284 1.79511L1.33284 1.62368H1.03713L0.942843 1.34082L0.852843 1.62368H0.557129L0.797129 1.79511L0.702843 2.07796Z" fill="white"/>
<path d="M0.942843 2.73535L0.852843 3.01821H0.557129L0.797129 3.18964L0.702843 3.47249L0.942843 3.29678L1.18284 3.47249L1.09284 3.18964L1.33284 3.01821H1.03713L0.942843 2.73535Z" fill="white"/>
<path d="M0.942843 4.12793L0.852843 4.41079H0.557129L0.797129 4.58222L0.702843 4.86507L0.942843 4.68936L1.18284 4.86507L1.09284 4.58222L1.33284 4.41079H1.03713L0.942843 4.12793Z" fill="white"/>
<path d="M0.942843 5.52051L0.852843 5.79908H0.557129L0.797129 5.97479L0.702843 6.25765L0.942843 6.08194L1.18284 6.25765L1.09284 5.97479L1.33284 5.79908H1.03713L0.942843 5.52051Z" fill="white"/>
<path d="M1.03713 7.19166L0.942843 6.91309L0.852843 7.19166H0.557129L0.797129 7.36737L0.702843 7.65023L0.942843 7.47451L1.18284 7.65023L1.09284 7.36737L1.33284 7.19166H1.03713Z" fill="white"/>
<path d="M2.26755 2.07796L2.50755 1.90225L2.74327 2.07796L2.65327 1.79511L2.89327 1.62368H2.59755L2.50755 1.34082L2.41327 1.62368H2.11755L2.35755 1.79511L2.26755 2.07796Z" fill="white"/>
<path d="M2.50755 2.73535L2.41327 3.01821H2.11755L2.35755 3.18964L2.26755 3.47249L2.50755 3.29678L2.74327 3.47249L2.65327 3.18964L2.89327 3.01821H2.59755L2.50755 2.73535Z" fill="white"/>
<path d="M2.50755 4.12793L2.41327 4.41079H2.11755L2.35755 4.58222L2.26755 4.86507L2.50755 4.68936L2.74327 4.86507L2.65327 4.58222L2.89327 4.41079H2.59755L2.50755 4.12793Z" fill="white"/>
<path d="M2.50755 5.52051L2.41327 5.79908H2.11755L2.35755 5.97479L2.26755 6.25765L2.50755 6.08194L2.74327 6.25765L2.65327 5.97479L2.89327 5.79908H2.59755L2.50755 5.52051Z" fill="white"/>
<path d="M2.59755 7.19166L2.50755 6.91309L2.41327 7.19166H2.11755L2.35755 7.36737L2.26755 7.65023L2.50755 7.47451L2.74327 7.65023L2.65327 7.36737L2.89327 7.19166H2.59755Z" fill="white"/>
<path d="M3.82688 2.07796L4.06688 1.90225L4.30259 2.07796L4.21259 1.79511L4.45259 1.62368H4.15688L4.06688 1.34082L3.97259 1.62368H3.67688L3.91688 1.79511L3.82688 2.07796Z" fill="white"/>
<path d="M4.06688 2.73535L3.97259 3.01821H3.67688L3.91688 3.18964L3.82688 3.47249L4.06688 3.29678L4.30259 3.47249L4.21259 3.18964L4.45259 3.01821H4.15688L4.06688 2.73535Z" fill="white"/>
<path d="M4.06688 4.12793L3.97259 4.41079H3.67688L3.91688 4.58222L3.82688 4.86507L4.06688 4.68936L4.30259 4.86507L4.21259 4.58222L4.45259 4.41079H4.15688L4.06688 4.12793Z" fill="white"/>
<path d="M4.06688 5.52051L3.97259 5.79908H3.67688L3.91688 5.97479L3.82688 6.25765L4.06688 6.08194L4.30259 6.25765L4.21259 5.97479L4.45259 5.79908H4.15688L4.06688 5.52051Z" fill="white"/>
<path d="M4.15688 7.19166L4.06688 6.91309L3.97259 7.19166H3.67688L3.91688 7.36737L3.82688 7.65023L4.06688 7.47451L4.30259 7.65023L4.21259 7.36737L4.45259 7.19166H4.15688Z" fill="white"/>
<path d="M5.38705 2.07796L5.62705 1.90225L5.86705 2.07796L5.77276 1.79511L6.01276 1.62368H5.71705L5.62705 1.34082L5.53276 1.62368H5.24133L5.47705 1.79511L5.38705 2.07796Z" fill="white"/>
<path d="M5.62705 2.73535L5.53276 3.01821H5.24133L5.47705 3.18964L5.38705 3.47249L5.62705 3.29678L5.86705 3.47249L5.77276 3.18964L6.01276 3.01821H5.71705L5.62705 2.73535Z" fill="white"/>
<path d="M5.62705 4.12793L5.53276 4.41079H5.24133L5.47705 4.58222L5.38705 4.86507L5.62705 4.68936L5.86705 4.86507L5.77276 4.58222L6.01276 4.41079H5.71705L5.62705 4.12793Z" fill="white"/>
<path d="M5.62705 5.52051L5.53276 5.79908H5.24133L5.47705 5.97479L5.38705 6.25765L5.62705 6.08194L5.86705 6.25765L5.77276 5.97479L6.01276 5.79908H5.71705L5.62705 5.52051Z" fill="white"/>
<path d="M5.71705 7.19166L5.62705 6.91309L5.53276 7.19166H5.24133L5.47705 7.36737L5.38705 7.65023L5.62705 7.47451L5.86705 7.65023L5.77276 7.36737L6.01276 7.19166H5.71705Z" fill="white"/>
<path d="M6.94656 2.07796L7.18656 1.90225L7.42656 2.07796L7.33227 1.79511L7.57227 1.62368H7.27656L7.18656 1.34082L7.09656 1.62368H6.80084L7.04084 1.79511L6.94656 2.07796Z" fill="white"/>
<path d="M7.18656 2.73535L7.09656 3.01821H6.80084L7.04084 3.18964L6.94656 3.47249L7.18656 3.29678L7.42656 3.47249L7.33227 3.18964L7.57227 3.01821H7.27656L7.18656 2.73535Z" fill="white"/>
<path d="M7.18656 4.12793L7.09656 4.41079H6.80084L7.04084 4.58222L6.94656 4.86507L7.18656 4.68936L7.42656 4.86507L7.33227 4.58222L7.57227 4.41079H7.27656L7.18656 4.12793Z" fill="white"/>
<path d="M7.18656 5.52051L7.09656 5.79908H6.80084L7.04084 5.97479L6.94656 6.25765L7.18656 6.08194L7.42656 6.25765L7.33227 5.97479L7.57227 5.79908H7.27656L7.18656 5.52051Z" fill="white"/>
<path d="M7.27656 7.19166L7.18656 6.91309L7.09656 7.19166H6.80084L7.04084 7.36737L6.94656 7.65023L7.18656 7.47451L7.42656 7.65023L7.33227 7.36737L7.57227 7.19166H7.27656Z" fill="white"/>
<path d="M8.51157 2.07796L8.74729 1.90225L8.98729 2.07796L8.89729 1.79511L9.13729 1.62368H8.84157L8.74729 1.34082L8.65729 1.62368H8.36157L8.60157 1.79511L8.51157 2.07796Z" fill="white"/>
<path d="M8.74729 2.73535L8.65729 3.01821H8.36157L8.60157 3.18964L8.51157 3.47249L8.74729 3.29678L8.98729 3.47249L8.89729 3.18964L9.13729 3.01821H8.84157L8.74729 2.73535Z" fill="white"/>
<path d="M8.74729 4.12793L8.65729 4.41079H8.36157L8.60157 4.58222L8.51157 4.86507L8.74729 4.68936L8.98729 4.86507L8.89729 4.58222L9.13729 4.41079H8.84157L8.74729 4.12793Z" fill="white"/>
<path d="M8.74729 5.52051L8.65729 5.79908H8.36157L8.60157 5.97479L8.51157 6.25765L8.74729 6.08194L8.98729 6.25765L8.89729 5.97479L9.13729 5.79908H8.84157L8.74729 5.52051Z" fill="white"/>
<path d="M8.84157 7.19166L8.74729 6.91309L8.65729 7.19166H8.36157L8.60157 7.36737L8.51157 7.65023L8.74729 7.47451L8.98729 7.65023L8.89729 7.36737L9.13729 7.19166H8.84157Z" fill="white"/>
<path d="M1.48759 2.84554L1.7233 2.66983L1.9633 2.84554L1.8733 2.56268L2.1133 2.38697H1.81759L1.7233 2.1084L1.6333 2.38697H1.33759L1.57759 2.56268L1.48759 2.84554Z" fill="white"/>
<path d="M1.7233 3.50195L1.6333 3.78053H1.33759L1.57759 3.95624L1.48759 4.23481L1.7233 4.06338L1.9633 4.23481L1.8733 3.95624L2.1133 3.78053H1.81759L1.7233 3.50195Z" fill="white"/>
<path d="M1.7233 4.89453L1.6333 5.1731H1.33759L1.57759 5.34882L1.48759 5.62739L1.7233 5.45596L1.9633 5.62739L1.8733 5.34882L2.1133 5.1731H1.81759L1.7233 4.89453Z" fill="white"/>
<path d="M1.7233 6.28711L1.6333 6.56568H1.33759L1.57759 6.7414L1.48759 7.01997L1.7233 6.84854L1.9633 7.01997L1.8733 6.7414L2.1133 6.56568H1.81759L1.7233 6.28711Z" fill="white"/>
<path d="M3.04758 2.84554L3.28758 2.66983L3.5233 2.84554L3.4333 2.56268L3.6733 2.38697H3.37758L3.28758 2.1084L3.1933 2.38697H2.89758L3.13758 2.56268L3.04758 2.84554Z" fill="white"/>
<path d="M3.28758 3.50195L3.1933 3.78053H2.89758L3.13758 3.95624L3.04758 4.23481L3.28758 4.06338L3.5233 4.23481L3.4333 3.95624L3.6733 3.78053H3.37758L3.28758 3.50195Z" fill="white"/>
<path d="M3.28758 4.89453L3.1933 5.1731H2.89758L3.13758 5.34882L3.04758 5.62739L3.28758 5.45596L3.5233 5.62739L3.4333 5.34882L3.6733 5.1731H3.37758L3.28758 4.89453Z" fill="white"/>
<path d="M3.28758 6.28711L3.1933 6.56568H2.89758L3.13758 6.7414L3.04758 7.01997L3.28758 6.84854L3.5233 7.01997L3.4333 6.7414L3.6733 6.56568H3.37758L3.28758 6.28711Z" fill="white"/>
<path d="M4.60685 2.84554L4.84685 2.66983L5.08685 2.84554L4.99256 2.56268L5.23256 2.38697H4.93685L4.84685 2.1084L4.75685 2.38697H4.45685L4.69685 2.56268L4.60685 2.84554Z" fill="white"/>
<path d="M4.84685 3.50195L4.75685 3.78053H4.45685L4.69685 3.95624L4.60685 4.23481L4.84685 4.06338L5.08685 4.23481L4.99256 3.95624L5.23256 3.78053H4.93685L4.84685 3.50195Z" fill="white"/>
<path d="M4.84685 4.89453L4.75685 5.1731H4.45685L4.69685 5.34882L4.60685 5.62739L4.84685 5.45596L5.08685 5.62739L4.99256 5.34882L5.23256 5.1731H4.93685L4.84685 4.89453Z" fill="white"/>
<path d="M4.84685 6.28711L4.75685 6.56568H4.45685L4.69685 6.7414L4.60685 7.01997L4.84685 6.84854L5.08685 7.01997L4.99256 6.7414L5.23256 6.56568H4.93685L4.84685 6.28711Z" fill="white"/>
<path d="M6.16683 2.84554L6.40683 2.66983L6.64683 2.84554L6.55255 2.56268L6.79255 2.38697H6.49683L6.40683 2.1084L6.31683 2.38697H6.02112L6.26112 2.56268L6.16683 2.84554Z" fill="white"/>
<path d="M6.40683 3.50195L6.31683 3.78053H6.02112L6.26112 3.95624L6.16683 4.23481L6.40683 4.06338L6.64683 4.23481L6.55255 3.95624L6.79255 3.78053H6.49683L6.40683 3.50195Z" fill="white"/>
<path d="M6.40683 4.89453L6.31683 5.1731H6.02112L6.26112 5.34882L6.16683 5.62739L6.40683 5.45596L6.64683 5.62739L6.55255 5.34882L6.79255 5.1731H6.49683L6.40683 4.89453Z" fill="white"/>
<path d="M6.40683 6.28711L6.31683 6.56568H6.02112L6.26112 6.7414L6.16683 7.01997L6.40683 6.84854L6.64683 7.01997L6.55255 6.7414L6.79255 6.56568H6.49683L6.40683 6.28711Z" fill="white"/>
<path d="M7.72726 2.84554L7.96726 2.66983L8.20726 2.84554L8.11726 2.56268L8.35297 2.38697H8.05726L7.96726 2.1084L7.87726 2.38697H7.58154L7.82154 2.56268L7.72726 2.84554Z" fill="white"/>
<path d="M7.96726 3.50195L7.87726 3.78053H7.58154L7.82154 3.95624L7.72726 4.23481L7.96726 4.06338L8.20726 4.23481L8.11726 3.95624L8.35297 3.78053H8.05726L7.96726 3.50195Z" fill="white"/>
<path d="M7.96726 4.89453L7.87726 5.1731H7.58154L7.82154 5.34882L7.72726 5.62739L7.96726 5.45596L8.20726 5.62739L8.11726 5.34882L8.35297 5.1731H8.05726L7.96726 4.89453Z" fill="white"/>
<path d="M7.96726 6.28711L7.87726 6.56568H7.58154L7.82154 6.7414L7.72726 7.01997L7.96726 6.84854L8.20726 7.01997L8.11726 6.7414L8.35297 6.56568H8.05726L7.96726 6.28711Z" fill="white"/>
</svg>
