<svg width="110" height="84" viewBox="0 0 110 84" fill="none" xmlns="http://www.w3.org/2000/svg">
<path d="M0 5.23804H96.0319V83.8096H0V5.23804Z" fill="#00AA00"/>
<rect x="88.1744" y="7.85645" width="10.4762" height="19.2064" fill="#0A0A0A"/>
<path d="M94.2855 17.4599H97.7775V8.72969H94.2855V17.4599ZM96.0315 24.444C96.5262 24.444 96.9412 24.2764 97.2764 23.9412C97.6105 23.6071 97.7775 23.1927 97.7775 22.698C97.7775 22.2033 97.6105 21.7883 97.2764 21.4531C96.9412 21.119 96.5262 20.9519 96.0315 20.9519C95.5368 20.9519 95.1224 21.119 94.7883 21.4531C94.4531 21.7883 94.2855 22.2033 94.2855 22.698C94.2855 23.1927 94.4531 23.6071 94.7883 23.9412C95.1224 24.2764 95.5368 24.444 96.0315 24.444ZM96.0315 34.9202C91.9865 33.9017 88.6475 31.5806 86.0145 27.957C83.3803 24.3346 82.0632 20.3117 82.0632 15.8884V5.23762L96.0315 -0.000488281L110 5.23762V15.8884C110 20.3117 108.683 24.3346 106.05 27.957C103.416 31.5806 100.076 33.9017 96.0315 34.9202Z" fill="#FFC600"/>
<path d="M28.3729 33.1748C26.4523 33.1748 24.8081 32.491 23.4404 31.1232C22.0727 29.7555 21.3888 28.1113 21.3888 26.1907C21.3888 24.27 22.0727 22.6259 23.4404 21.2581C24.8081 19.8904 26.4523 19.2065 28.3729 19.2065C30.2936 19.2065 31.9378 19.8904 33.3055 21.2581C34.6732 22.6259 35.3571 24.27 35.3571 26.1907C35.3571 28.1113 34.6732 29.7555 33.3055 31.1232C31.9378 32.491 30.2936 33.1748 28.3729 33.1748ZM14.4047 47.1431V42.2542C14.4047 41.2648 14.6596 40.3551 15.1694 39.5252C15.6781 38.6964 16.3544 38.0637 17.1983 37.6272C19.0026 36.7251 20.8359 36.0482 22.6983 35.5966C24.5608 35.1461 26.4523 34.9209 28.3729 34.9209C30.2936 34.9209 32.1851 35.1461 34.0476 35.5966C35.91 36.0482 37.7433 36.7251 39.5476 37.6272C40.3915 38.0637 41.0678 38.6964 41.5765 39.5252C42.0863 40.3551 42.3412 41.2648 42.3412 42.2542V47.1431H14.4047Z" fill="white"/>
<line x1="13.9685" y1="59.1106" x2="82.0639" y2="59.1106" stroke="white" stroke-width="4"/>
<line x1="13.9685" y1="67.8408" x2="41.9051" y2="67.8408" stroke="white" stroke-width="4"/>
</svg>
