<svg width="50" height="16" viewBox="0 0 50 16" fill="none" xmlns="http://www.w3.org/2000/svg">
<path d="M18.3333 14.7615L20.873 0.47583H24.8413L22.3809 14.7615H18.3333Z" fill="#3C58BF"/>
<path d="M18.3333 14.7615L21.5873 0.47583H24.8413L22.3809 14.7615H18.3333Z" fill="#293688"/>
<path d="M36.746 0.63492C35.9524 0.31746 34.6825 0 33.0952 0C29.127 0 26.2698 1.98413 26.2698 4.84127C26.2698 6.98413 28.2539 8.09524 29.8412 8.80953C31.4285 9.52381 31.9047 10 31.9047 10.6349C31.9047 11.5873 30.6349 12.0635 29.5238 12.0635C27.9365 12.0635 27.0635 11.8254 25.7143 11.2698L25.1587 11.0317L24.6031 14.2857C25.5555 14.6825 27.3016 15.0794 29.127 15.0794C33.3333 15.0794 36.1111 13.0952 36.1111 10.0794C36.1111 8.4127 35.0793 7.14286 32.6984 6.11111C31.2698 5.39683 30.3968 5 30.3968 4.28572C30.3968 3.65079 31.1111 3.01587 32.6984 3.01587C34.0476 3.01587 35 3.25397 35.7143 3.57143L36.1111 3.73016L36.746 0.63492Z" fill="#3C58BF"/>
<path d="M36.746 0.63492C35.9524 0.31746 34.6825 0 33.0952 0C29.127 0 26.9841 1.98413 26.9841 4.84127C26.9841 6.98413 28.2539 8.09524 29.8412 8.80953C31.4285 9.52381 31.9047 10 31.9047 10.6349C31.9047 11.5873 30.6349 12.0635 29.5238 12.0635C27.9365 12.0635 27.0635 11.8254 25.7143 11.2698L25.1587 11.0317L24.6031 14.2857C25.5555 14.6825 27.3016 15.0794 29.127 15.0794C33.3333 15.0794 36.1111 13.0952 36.1111 10.0794C36.1111 8.4127 35.0793 7.14286 32.6984 6.11111C31.2698 5.39683 30.3968 5 30.3968 4.28572C30.3968 3.65079 31.1111 3.01587 32.6984 3.01587C34.0476 3.01587 35 3.25397 35.7143 3.57143L36.1111 3.73016L36.746 0.63492Z" fill="#293688"/>
<path d="M43.5714 0.47583C42.619 0.47583 41.9048 0.555196 41.5079 1.50758L35.5555 14.7615H39.8413L40.6349 12.3806H45.7143L46.1905 14.7615H50L46.6667 0.47583H43.5714ZM41.746 9.99964C41.9841 9.28536 43.3333 5.79329 43.3333 5.79329C43.3333 5.79329 43.6508 4.92028 43.8889 4.36472L44.127 5.71393C44.127 5.71393 44.9206 9.28536 45.0794 10.079H41.746V9.99964Z" fill="#3C58BF"/>
<path d="M44.5238 0.47583C43.5714 0.47583 42.8571 0.555196 42.4603 1.50758L35.5555 14.7615H39.8413L40.6349 12.3806H45.7143L46.1905 14.7615H50L46.6667 0.47583H44.5238ZM41.746 9.99964C42.0635 9.20599 43.3333 5.79329 43.3333 5.79329C43.3333 5.79329 43.6508 4.92028 43.8889 4.36472L44.127 5.71393C44.127 5.71393 44.9206 9.28536 45.0794 10.079H41.746V9.99964Z" fill="#293688"/>
<path d="M11.0317 10.4789L10.6349 8.41537C9.92062 6.03442 7.61903 3.41537 5.07935 2.14553L8.65077 14.8439H12.9365L19.3651 0.558228H15.0793L11.0317 10.4789Z" fill="#3C58BF"/>
<path d="M11.0317 10.4789L10.6349 8.41537C9.92062 6.03442 7.61903 3.41537 5.07935 2.14553L8.65077 14.8439H12.9365L19.3651 0.558228H15.873L11.0317 10.4789Z" fill="#293688"/>
<path d="M0 0.47583L0.714286 0.634561C5.79365 1.82504 9.28572 4.84091 10.6349 8.41234L9.20635 1.66631C8.96826 0.713925 8.25397 0.47583 7.38095 0.47583H0Z" fill="#FFBC00"/>
<path d="M0 0.47583C5.07937 1.66631 9.28572 4.76155 10.6349 8.33298L9.28572 2.69806C9.04762 1.74567 8.25397 1.19012 7.38095 1.19012L0 0.47583Z" fill="#F7981D"/>
<path d="M0 0.47583C5.07937 1.66631 9.28572 4.76155 10.6349 8.33298L9.68254 5.23774C9.44445 4.28536 9.12699 3.33298 8.01588 2.93615L0 0.47583Z" fill="#ED7C00"/>
<path d="M15 9.9995L12.3016 7.30109L11.0317 10.317L10.7143 8.33283C9.99996 5.95188 7.69838 3.33283 5.15869 2.06299L8.73012 14.7614H13.0158L15 9.9995Z" fill="#051244"/>
<path d="M22.3809 14.7596L18.9682 11.2676L18.3333 14.7596H22.3809Z" fill="#051244"/>
<path d="M31.5079 9.83911C31.8254 10.1566 31.9841 10.3947 31.9047 10.7121C31.9047 11.6645 30.6349 12.1407 29.5238 12.1407C27.9365 12.1407 27.0635 11.9026 25.7143 11.347L25.1587 11.109L24.6031 14.3629C25.5555 14.7597 27.3016 15.1566 29.127 15.1566C31.6666 15.1566 33.7301 14.4423 34.9206 13.1724L31.5079 9.83911Z" fill="#051244"/>
<path d="M36.1111 14.7624H39.8412L40.6349 12.3815H45.7143L46.1905 14.7624H50L48.6508 8.96877L43.8889 4.3656L44.127 5.63544C44.127 5.63544 44.9206 9.20687 45.0793 10.0005H41.746C42.0635 9.20687 43.3333 5.79417 43.3333 5.79417C43.3333 5.79417 43.6508 4.92116 43.8889 4.3656" fill="#051244"/>
</svg>
