<svg width="18" height="18" viewBox="0 0 18 18" fill="none" xmlns="http://www.w3.org/2000/svg">
<path d="M11 17.7246V15.6746C12.5 15.2413 13.7083 14.4079 14.625 13.1746C15.5417 11.9413 16 10.5413 16 8.97461C16 7.40794 15.5417 6.00794 14.625 4.77461C13.7083 3.54128 12.5 2.70794 11 2.27461V0.224609C13.0667 0.691276 14.75 1.73694 16.05 3.36161C17.35 4.98694 18 6.85794 18 8.97461C18 11.0913 17.35 12.9619 16.05 14.5866C14.75 16.2119 13.0667 17.2579 11 17.7246ZM9 16.9996L4 11.9996H0V5.99961H4L9 0.999609V16.9996ZM11 12.9996V4.94961C11.75 5.29961 12.354 5.84128 12.812 6.57461C13.2707 7.30794 13.5 8.11628 13.5 8.99961C13.5 9.88294 13.2707 10.6829 12.812 11.3996C12.354 12.1163 11.75 12.6496 11 12.9996Z" fill="#89909A"/>
</svg>
