<svg width="103" height="110" viewBox="0 0 103 110" fill="none" xmlns="http://www.w3.org/2000/svg">
<rect y="27.5879" width="13.2829" height="13.2829" fill="#028A02"/>
<rect x="81.7407" y="27.5879" width="13.2829" height="13.2829" fill="#028A02"/>
<path fill-rule="evenodd" clip-rule="evenodd" d="M76.7476 17.8412C76.7887 18.0165 76.8153 18.1921 76.8415 18.3679C76.8665 18.4987 76.8856 18.6327 76.9017 18.7609C77.1318 20.3991 77.2328 22.3046 76.9705 24.4666C76.767 26.1033 76.3735 27.9791 75.5478 29.9974C75.2889 30.6304 75.0065 31.2615 74.6791 31.8938C73.4599 34.2533 71.7382 36.5264 69.4655 38.4815L69.4565 38.4788C66.7809 40.7575 63.1805 43.1316 59.093 43.8627C58.9261 43.8918 58.9474 43.9031 58.17 44.0108C54.6463 44.5061 50.7241 44.1762 46.9247 42.6247L46.9056 42.6191C43.8996 41.3838 40.918 39.3913 38.4649 36.4908C37.4155 35.2637 36.3168 33.6914 35.3721 31.6865C34.6838 30.2267 33.8817 28.0154 33.4874 25.8201C33.4578 25.6383 33.4503 25.6805 33.3422 24.9031C32.9075 21.6886 33.4058 18.033 34.695 14.466C34.7968 14.1757 34.9075 13.888 35.0272 13.6031L35.0242 13.5972C37.0878 8.56427 41.2079 4.04797 46.7507 1.71921L46.7567 1.71607C48.0002 1.20481 49.4686 0.70156 51.3219 0.362916C51.4884 0.333848 51.4671 0.32255 52.2385 0.217836C53.5789 0.0267036 55.1285 -0.0721737 56.9934 0.0614584L57.0024 0.0641894C60.7001 0.356444 64.4554 1.64305 67.699 3.88191C69.2182 4.92377 70.6271 6.18437 71.8752 7.63849L71.8782 7.64437C72.0738 7.88062 72.2788 8.11956 72.4629 8.36217C74.4625 10.9148 76.0573 14.1112 76.7476 17.8412Z" fill="#EFBA0F"/>
<path fill-rule="evenodd" clip-rule="evenodd" d="M73.6837 9.61067C73.8214 9.81202 73.9564 10.0171 74.0885 10.2256C74.1008 10.2445 74.1124 10.2635 74.1244 10.2823C75.506 12.4752 76.5782 15.0368 77.1105 17.9164C77.1521 18.0917 77.1783 18.2676 77.2048 18.4429C77.2299 18.5738 77.249 18.7078 77.2647 18.8361C77.4951 20.4744 77.5961 22.3795 77.3339 24.5418C77.1304 26.1785 76.7368 28.0543 75.9111 30.0726C75.6523 30.7056 75.3698 31.3364 75.0425 31.9694C73.8232 34.3281 72.1016 36.6012 69.8289 38.5563L69.8199 38.5541C67.1443 40.8324 63.6658 42.6936 59.5783 43.4242C59.4114 43.4534 59.4327 43.4646 58.6553 43.5728C55.1316 44.0677 51.1993 43.7351 47.3995 42.1833L47.3909 42.1811C44.3846 40.9458 41.4033 38.9529 38.9499 36.0528C38.5986 35.6413 38.2417 35.1916 37.8874 34.7C37.8504 34.6495 37.8137 34.5975 37.7767 34.5459C37.6667 34.3906 37.5574 34.2316 37.4482 34.0681C36.8953 33.2402 36.355 32.3038 35.8575 31.2485C35.1691 29.7887 34.5152 27.9989 34.1212 25.8037C34.0917 25.6219 34.0838 25.6641 33.9761 24.8867C33.5414 21.6722 33.7688 18.1083 35.0584 14.5413C35.1601 14.2509 35.2705 13.9633 35.3906 13.6783L35.3876 13.6724C37.4516 8.63948 41.5712 4.12312 47.1141 1.7944L47.12 1.79126C48.3636 1.28 49.8316 0.776745 51.6849 0.438138C51.8518 0.409145 51.8305 0.397622 52.6019 0.293134C53.9423 0.102001 55.4919 0.00297408 57.3568 0.136643L57.3658 0.139449C61.0635 0.431666 64.8188 1.71815 68.0623 3.95728C69.5812 4.99887 70.9905 6.2597 72.2381 7.71371L72.2415 7.71966C72.4372 7.95561 72.6422 8.19489 72.8259 8.43735C73.121 8.81438 73.408 9.20536 73.6837 9.61067Z" fill="#FFE61D"/>
<path fill-rule="evenodd" clip-rule="evenodd" d="M70.4474 12.3314C70.5633 12.5073 70.6756 12.6857 70.7848 12.8666C70.8346 12.9482 70.8836 13.0307 70.9315 13.1142C71.0078 13.2451 71.0826 13.3777 71.1555 13.5114C71.2049 13.6013 71.2532 13.6913 71.3007 13.7823C71.6598 14.4667 71.9752 15.1798 72.2431 15.9194C72.6093 16.9298 72.8866 17.9882 73.0643 19.088C74.5977 28.5726 68.1526 37.5048 58.6681 39.0387C52.4807 40.0387 46.529 37.6436 42.7124 33.2246C42.6151 33.1124 42.5189 32.9983 42.4247 32.8835C42.3136 32.7477 42.2036 32.6096 42.0958 32.4704C42.042 32.3997 41.9881 32.3286 41.935 32.2572C41.8418 32.133 41.7513 32.008 41.6619 31.8808C40.672 30.4761 39.8803 28.9097 39.3349 27.2153C39.3214 27.1734 39.308 27.1308 39.2949 27.0889C39.0472 26.2999 38.8534 25.4824 38.7172 24.6418C37.1841 15.157 43.6293 6.22504 53.1141 4.69149C58.1126 3.88333 62.9569 5.29085 66.6464 8.19188C68.1185 9.34923 69.4073 10.7445 70.4474 12.3314Z" fill="#FFC600"/>
<path fill-rule="evenodd" clip-rule="evenodd" d="M73.6837 9.61067C73.8214 9.81202 73.9564 10.0171 74.0885 10.2256C74.1008 10.2445 74.1124 10.2635 74.1244 10.2823C73.9168 10.5646 73.7035 10.8482 73.4843 11.1328C72.8038 12.0167 72.0765 12.9015 71.3025 13.7841C71.255 13.6931 71.2067 13.6031 71.1573 13.5132C71.0844 13.3795 71.0096 13.2468 70.9332 13.1159C70.8854 13.0324 70.8363 12.9499 70.7866 12.8683C70.6773 12.6874 70.5651 12.509 70.4491 12.3331C69.4091 10.7462 68.1203 9.35096 66.6482 8.19362C62.9587 5.29259 58.1144 3.88507 53.1159 4.69322C43.6311 6.22677 37.1859 15.1588 38.719 24.6436C38.8552 25.4842 39.049 26.3016 39.2967 27.0906C39.3098 27.1325 39.3232 27.1752 39.3367 27.2171C39.8821 28.9114 40.6738 30.4778 41.6637 31.8826C41.7531 32.0098 41.8436 32.1347 41.9368 32.2589C41.9899 32.3304 42.0437 32.4015 42.0976 32.4722C42.2054 32.6113 42.3154 32.7494 42.4265 32.8852C42.5207 33 42.6169 33.1141 42.7142 33.2264C41.8339 33.5436 40.9465 33.8351 40.0542 34.0977C39.7265 34.1931 39.7639 34.2039 38.2454 34.6061C38.1264 34.6379 38.0067 34.6689 37.8874 34.7C37.8504 34.6495 37.8137 34.5975 37.7767 34.5459C37.6667 34.3906 37.5574 34.2316 37.4482 34.0681C36.8953 33.2402 36.355 32.3038 35.8575 31.2485C35.1691 29.7887 34.5152 27.9989 34.1212 25.8037C34.0917 25.6219 34.0838 25.6641 33.9761 24.8867C33.5414 21.6722 33.7688 18.1083 35.0584 14.5413C35.1601 14.2509 35.2705 13.9633 35.3906 13.6783L35.3876 13.6724C37.4516 8.63948 41.5712 4.12312 47.1141 1.7944L47.12 1.79126C48.3636 1.28 49.8316 0.776745 51.6849 0.438138C51.8518 0.409145 51.8305 0.397622 52.6019 0.293134C53.9423 0.102001 55.4919 0.00297409 57.3568 0.136643L57.3658 0.139449C61.0635 0.431666 64.8188 1.71815 68.0623 3.95728C69.5812 4.99887 70.9905 6.2597 72.2381 7.71371L72.2415 7.71966C72.4372 7.95561 72.6422 8.19489 72.8259 8.43735C73.121 8.81438 73.408 9.20536 73.6837 9.61067Z" fill="url(#paint0_linear_5007_19938)"/>
<path fill-rule="evenodd" clip-rule="evenodd" d="M72.2447 15.9147C72.611 16.9249 72.8878 17.9836 73.0659 19.0833C74.1729 25.9289 71.1228 32.4874 65.7738 36.1828C63.7117 37.6078 61.3088 38.6071 58.6694 39.0336C50.0705 40.4241 41.9254 35.2562 39.3366 27.2102C39.0694 26.3819 38.8622 25.5226 38.7189 24.6371C37.6123 17.7915 40.6624 11.2335 46.0111 7.5376C48.0731 6.11273 50.4764 5.11352 53.1158 4.68677C61.5007 3.331 69.4539 8.21171 72.2447 15.9147ZM69.8284 10.2435C68.5059 8.66008 66.9346 7.32148 65.158 6.26477C63.3679 5.19986 61.4281 4.45688 59.3933 4.05651C57.2867 3.64207 55.1348 3.6072 52.9972 3.95288C51.6466 4.17125 50.3249 4.53993 49.0683 5.04868C47.8457 5.54374 46.6751 6.1752 45.5891 6.92559V6.92574C42.8075 8.84769 40.6201 11.5042 39.2632 14.6084C37.8693 17.7967 37.4271 21.3056 37.9849 24.7557C38.1327 25.6677 38.3493 26.5705 38.6291 27.4384C39.9437 31.5237 42.6886 35.0238 46.3582 37.2928C48.1749 38.4163 50.1521 39.2034 52.2351 39.6325C54.3911 40.0766 56.5961 40.1222 58.7884 39.7676C60.1389 39.5491 61.4607 39.1806 62.7173 38.6718C63.9395 38.1768 65.1105 37.545 66.1965 36.7945C68.9776 34.8731 71.1651 32.2165 72.522 29.1122C73.9159 25.9236 74.3577 22.4147 73.7999 18.9647C73.6174 17.8359 73.3293 16.7245 72.9436 15.6613C72.2272 13.6838 71.1789 11.8609 69.8284 10.2435Z" fill="#FFF596"/>
<path fill-rule="evenodd" clip-rule="evenodd" d="M53.1144 4.69149C48.2645 5.4757 44.2132 8.19693 41.6128 11.9348C44.22 8.45084 48.2024 6.10016 52.8372 5.35074C62.3216 3.81712 70.885 10.2132 72.4189 19.6978C73.1682 24.3328 72.2999 28.7143 69.8151 32.2863C72.5431 28.6406 73.8491 23.9381 73.0646 19.0881C71.5311 9.60347 62.5992 3.15786 53.1144 4.69149Z" fill="#EFBA0F"/>
<path fill-rule="evenodd" clip-rule="evenodd" d="M53.7222 30.3356C53.7117 30.5155 53.687 30.6914 53.6623 30.8672C53.6489 31 53.629 31.134 53.6077 31.2612C53.3612 32.8971 52.9145 34.7523 52.0469 36.7497C51.3848 38.2604 50.4727 39.9461 49.1057 41.6449C48.6773 42.1781 48.2262 42.7022 47.7323 43.2151C45.891 45.1287 43.5924 46.8163 40.8566 48.0422L40.8487 48.037C37.6344 49.4579 33.5064 50.707 29.38 50.2416C29.212 50.2222 29.2293 50.239 28.453 50.1208C24.9345 49.5903 21.2693 48.1556 18.0699 45.5851L18.0535 45.5742C15.5245 43.5331 13.2349 40.7729 11.7108 37.2933C11.055 35.8182 10.4504 33.9974 10.1167 31.8062C9.8732 30.2114 9.73478 27.8627 9.98318 25.6461C10.0068 25.4636 9.9873 25.5017 10.1059 24.7258C10.6057 21.521 12.1257 18.1593 14.3786 15.1081C14.5589 14.8588 14.7471 14.6147 14.9435 14.3758L14.942 14.3693C18.3554 10.1338 23.5922 6.97999 29.5689 6.32871L29.5757 6.32736C30.9135 6.192 32.4642 6.12837 34.337 6.3323C34.5049 6.35194 34.4877 6.33506 35.2573 6.45474C36.5962 6.65377 38.1099 7.00091 39.8592 7.66084L39.8671 7.666C43.3276 9.00064 46.5602 11.3048 49.0305 14.3757C50.1895 15.8075 51.1805 17.4176 51.9616 19.1672L51.9631 19.1737C52.0832 19.456 52.2116 19.7434 52.3189 20.0285C53.5075 23.0454 54.1244 26.5638 53.7222 30.3356Z" fill="#EFBA0F"/>
<path fill-rule="evenodd" clip-rule="evenodd" d="M53.1325 21.3278C53.207 21.56 53.278 21.7951 53.345 22.0327C53.3514 22.0542 53.3574 22.0758 53.3633 22.0973C54.0622 24.5932 54.3592 27.3541 54.0483 30.2658C54.0382 30.4457 54.0132 30.622 53.9885 30.7974C53.975 30.9298 53.9552 31.0638 53.9339 31.1913C53.6877 32.8273 53.241 34.6822 52.3731 36.6795C51.7109 38.1906 50.7992 39.8763 49.4318 41.5751C49.0031 42.1082 48.5527 42.6324 48.0585 43.1453C46.2171 45.0589 43.9186 46.7465 41.1827 47.972L41.1748 47.9672C37.9605 49.388 34.0959 50.1797 29.9695 49.7146C29.8015 49.6952 29.8184 49.712 29.0428 49.5938C25.5243 49.0633 21.8498 47.623 18.6508 45.0521L18.643 45.0473C16.114 43.0061 13.8248 40.2459 12.3003 36.7663C12.0807 36.2718 11.8671 35.739 11.6673 35.1666C11.6464 35.1075 11.6262 35.0477 11.6056 34.9874C11.5442 34.8071 11.4848 34.6238 11.4268 34.436C11.1327 33.4846 10.8821 32.433 10.7062 31.2793C10.4627 29.6841 10.3463 27.7825 10.5951 25.5659C10.6183 25.3833 10.5989 25.4215 10.7171 24.6455C11.2173 21.4405 12.4518 18.0895 14.7051 15.0384C14.885 14.789 15.0732 14.545 15.2696 14.306L15.2681 14.2994C18.6819 10.0641 23.9187 6.9102 29.8954 6.25895L29.9018 6.2576C31.2396 6.12221 32.7903 6.0585 34.6631 6.26247C34.8311 6.28226 34.8142 6.26516 35.5834 6.38499C36.9227 6.58409 38.436 6.931 40.1853 7.59104L40.1932 7.59632C43.6541 8.93092 46.8864 11.2349 49.3566 14.306C50.5156 15.7375 51.5066 17.3479 52.2878 19.0974L52.2893 19.1039C52.4097 19.386 52.5381 19.6738 52.6447 19.9586C52.8205 20.4042 52.9836 20.8607 53.1325 21.3278Z" fill="#FFE61D"/>
<path fill-rule="evenodd" clip-rule="evenodd" d="M49.2575 23.0141C49.3181 23.2158 49.3749 23.4189 49.428 23.6232C49.4524 23.7156 49.4759 23.8088 49.498 23.9023C49.5339 24.0497 49.568 24.1982 49.5994 24.3471C49.6211 24.4474 49.6417 24.5473 49.6615 24.6483C49.8104 25.4066 49.9092 26.1799 49.9552 26.9651C50.018 28.0381 49.9817 29.1316 49.8388 30.2363C48.6035 39.7645 39.8785 46.4877 30.3507 45.2527C24.1352 44.4473 19.1136 40.454 16.7155 35.1304C16.6542 34.9946 16.5947 34.8581 16.5374 34.7212C16.4694 34.5592 16.4035 34.3953 16.3399 34.2315C16.3081 34.148 16.2771 34.0646 16.2464 33.9812C16.1925 33.8357 16.1413 33.6898 16.0923 33.5427C15.5438 31.9139 15.2318 30.1866 15.1922 28.4069C15.191 28.3632 15.1907 28.3187 15.1899 28.2745C15.1776 27.4474 15.2247 26.609 15.3339 25.7646C16.5692 16.2363 25.2942 9.51329 34.8224 10.7483C39.8441 11.3992 44.0858 14.1298 46.7947 17.9626C47.8759 19.4917 48.7128 21.1964 49.2575 23.0141Z" fill="#FFC600"/>
<path fill-rule="evenodd" clip-rule="evenodd" d="M53.1325 21.3278C53.207 21.56 53.2781 21.7951 53.345 22.0327C53.3514 22.0542 53.3574 22.0758 53.3634 22.0973C53.0839 22.3086 52.7988 22.5196 52.507 22.7298C51.6028 23.3829 50.6533 24.0234 49.66 24.6489C49.6402 24.5479 49.6196 24.448 49.5979 24.3478C49.5665 24.1989 49.5325 24.0503 49.4966 23.9029C49.4745 23.8094 49.4509 23.7163 49.4266 23.6239C49.3735 23.4196 49.3166 23.2165 49.256 23.0148C48.7113 21.1971 47.8744 19.4923 46.7932 17.9632C44.0843 14.1304 39.8426 11.3999 34.821 10.7489C25.2928 9.51393 16.5678 16.2369 15.3325 25.7653C15.2232 26.6096 15.1761 27.448 15.1884 28.2752C15.1892 28.3193 15.1896 28.3638 15.1907 28.4076C15.2303 30.1872 15.5424 31.9145 16.0908 33.5434C16.1398 33.6904 16.1911 33.8363 16.2449 33.9818C16.2756 34.0653 16.3067 34.1487 16.3385 34.2321C16.4021 34.396 16.4679 34.5598 16.536 34.7218C16.5932 34.8588 16.6527 34.9953 16.7141 35.1311C15.7799 35.1842 14.8465 35.2103 13.9161 35.2074C13.5749 35.2052 13.6075 35.2265 12.0377 35.179C11.9142 35.1752 11.7908 35.1711 11.6673 35.1666C11.6464 35.1075 11.6262 35.0477 11.6056 34.9874C11.5442 34.8071 11.4848 34.6238 11.4268 34.436C11.1327 33.4846 10.8821 32.433 10.7062 31.2793C10.4627 29.6841 10.3463 27.7825 10.5951 25.5659C10.6183 25.3833 10.5989 25.4215 10.7171 24.6456C11.2173 21.4405 12.4518 18.0895 14.7051 15.0384C14.885 14.789 15.0732 14.545 15.2696 14.306L15.2681 14.2994C18.6819 10.0641 23.9187 6.9102 29.8954 6.25895L29.9018 6.2576C31.2396 6.12221 32.7903 6.0585 34.6631 6.26247C34.8311 6.28226 34.8142 6.26516 35.5834 6.38499C36.9227 6.58409 38.436 6.931 40.1853 7.59104L40.1932 7.59632C43.6541 8.93092 46.8864 11.2349 49.3566 14.306C50.5156 15.7375 51.5066 17.3479 52.2878 19.0974L52.2893 19.1039C52.4097 19.386 52.5381 19.6738 52.6447 19.9586C52.8205 20.4042 52.9836 20.8607 53.1325 21.3278Z" fill="url(#paint1_linear_5007_19938)"/>
<path fill-rule="evenodd" clip-rule="evenodd" d="M49.9553 26.9602C50.0182 28.0331 49.9819 29.1267 49.8386 30.2314C48.9475 37.1083 44.1536 42.5247 37.973 44.5415C35.5903 45.3193 33.0022 45.5916 30.3509 45.2478C21.7119 44.1281 15.3794 36.852 15.1923 28.402C15.1729 27.5318 15.2189 26.6489 15.3341 25.7597C16.226 18.8825 21.0195 13.4669 27.2001 11.4498C29.5832 10.6721 32.1713 10.3998 34.8226 10.7434C43.2461 11.8352 49.4772 18.7813 49.9553 26.9602ZM49.2565 20.8355C48.4406 18.9407 47.3164 17.2096 45.915 15.6901C44.5027 14.1589 42.8555 12.8936 41.0194 11.9295C39.1185 10.9317 37.0658 10.2845 34.9184 10.0062C33.5619 9.83036 32.1896 9.80675 30.8402 9.93608C29.5271 10.0619 28.2252 10.3333 26.97 10.7428V10.7429C23.7557 11.7918 20.902 13.7143 18.7157 16.3025C16.4707 18.961 15.0464 22.198 14.5971 25.6639C14.4785 26.5801 14.4288 27.5072 14.4493 28.4189C14.544 32.7095 16.177 36.8468 19.0472 40.0683C20.468 41.6631 22.1388 42.9814 24.0127 43.9867C25.9528 45.0274 28.0531 45.6997 30.2551 45.9852C31.612 46.161 32.9839 46.1846 34.3336 46.0551C35.6464 45.9294 36.9487 45.6578 38.2038 45.2482C41.4174 44.1995 44.2715 42.2774 46.4574 39.6889C48.7024 37.0301 50.1267 33.7929 50.576 30.3272C50.723 29.1933 50.7638 28.0459 50.6976 26.9168C50.5745 24.8169 50.09 22.7709 49.2565 20.8355Z" fill="#FFF596"/>
<path fill-rule="evenodd" clip-rule="evenodd" d="M34.8203 10.748C29.9483 10.1166 25.2891 11.5694 21.731 14.4105C25.2233 11.8147 29.7107 10.6974 34.3665 11.3009C43.8947 12.5358 50.2785 21.1083 49.0436 30.6364C48.4402 35.2925 46.3586 39.2446 42.958 41.9595C46.6123 39.2435 49.2052 35.1085 49.8367 30.2364C51.0717 20.7082 44.3485 11.983 34.8203 10.748Z" fill="#EFBA0F"/>
<path fill-rule="evenodd" clip-rule="evenodd" d="M27.2198 15.5015L23.5674 31.0455L23.8764 31.5221L33.9691 33.4289L40.2486 25.4218L40.216 24.7776L27.2198 15.5015Z" fill="#EFBA0F"/>
<path fill-rule="evenodd" clip-rule="evenodd" d="M26.6961 14.1143L23.6257 30.7349L23.5674 31.0495L33.6047 32.9395L33.7967 32.9754L40.216 24.7817L26.6961 14.1143Z" fill="#FFF596"/>
<path fill-rule="evenodd" clip-rule="evenodd" d="M26.9152 14.6934L23.9414 30.7901L33.6641 32.621L26.9152 14.6934Z" fill="#FFF596"/>
<path fill-rule="evenodd" clip-rule="evenodd" d="M26.915 14.6934L39.7657 24.8328L33.664 32.621L26.915 14.6934Z" fill="#FFE61D"/>
<path fill-rule="evenodd" clip-rule="evenodd" d="M30.6675 24.6611L23.9414 30.7898L33.6641 32.6207L30.6675 24.6611Z" fill="#F9D816"/>
<path fill-rule="evenodd" clip-rule="evenodd" d="M30.6665 24.6611L39.7663 24.837L33.6646 32.6252L30.6665 24.6611Z" fill="#F4CB1E"/>
<path fill-rule="evenodd" clip-rule="evenodd" d="M34.9192 35.9563L24.8115 33.1033L25.0929 33.8646L37.1998 42.1126L40.6487 28.1408L40.6364 27.146L34.9192 35.9563Z" fill="#EFBA0F"/>
<path fill-rule="evenodd" clip-rule="evenodd" d="M24.8115 33.103L34.5346 34.9335L36.9435 41.3331L24.8115 33.103Z" fill="#FFF596"/>
<path fill-rule="evenodd" clip-rule="evenodd" d="M34.7275 34.9602L40.2636 27.894L36.9135 40.7664L34.7275 34.9602Z" fill="#FFE61D"/>
<path fill-rule="evenodd" clip-rule="evenodd" d="M40.6369 27.146L34.5352 34.9338L36.944 41.3334L40.6369 27.146ZM36.8846 40.2065L34.922 34.9933L39.8928 28.6492L36.8846 40.2065Z" fill="#FFF596"/>
<path fill-rule="evenodd" clip-rule="evenodd" d="M83.4317 40.3172C83.3034 40.4433 83.1668 40.5567 83.0303 40.6704C82.9311 40.7594 82.8264 40.8455 82.725 40.9255C81.4433 41.9712 79.8657 43.0445 77.8806 43.9405C76.3752 44.6143 74.5668 45.2495 72.4127 45.5884C71.737 45.6951 71.0509 45.7804 70.3405 45.8279C67.6906 46.0074 64.8545 45.7123 62.0049 44.7811L62.0027 44.7721C58.6671 43.664 54.7715 41.8144 52.0285 38.6966C51.9174 38.569 51.9186 38.5933 51.4236 37.9839C49.1748 35.2267 47.4248 31.7007 46.7835 27.6473L46.7787 27.6278C46.2777 24.4168 46.4379 20.8344 47.6477 17.2334C48.1539 15.7004 48.9294 13.9459 50.155 12.0992C51.0469 10.7543 52.5227 8.92253 54.1965 7.44801C54.3364 7.32867 54.2964 7.3439 54.9055 6.84888C57.4299 4.81181 60.8145 3.34406 64.5335 2.5991C64.8347 2.53565 65.1381 2.4814 65.4437 2.43629L65.4471 2.43053C70.8212 1.5884 76.8185 2.77276 81.682 6.30754L81.688 6.31091C82.7695 7.10978 83.9603 8.10495 85.2102 9.51467C85.3213 9.64213 85.3202 9.61807 85.8091 10.2238C86.667 11.2712 87.5544 12.5454 88.4062 14.2097L88.4085 14.2189C90.074 17.5331 90.9191 21.4118 90.6845 25.3461C90.5802 27.1849 90.2319 29.0434 89.6344 30.8638L89.6311 30.8698C89.5304 31.1594 89.4324 31.4587 89.3202 31.7419C88.1728 34.7744 86.2648 37.7946 83.4317 40.3172Z" fill="#EFBA0F"/>
<path fill-rule="evenodd" clip-rule="evenodd" d="M89.0559 33.2425C88.9549 33.4647 88.8494 33.6865 88.7398 33.9076C88.7297 33.9275 88.7196 33.9477 88.7099 33.9675C87.5498 36.2855 85.9142 38.5294 83.7271 40.4766C83.5984 40.6031 83.4615 40.7164 83.3253 40.8298C83.2262 40.9192 83.1218 41.0049 83.0201 41.0849C81.7384 42.1306 80.1607 43.2039 78.1757 44.0999C76.6699 44.7736 74.8618 45.4089 72.7077 45.7482C72.0321 45.8545 71.3463 45.9398 70.6352 45.9876C67.9861 46.1668 65.1496 45.8717 62.3 44.9405L62.2977 44.9315C58.9626 43.8234 55.5686 41.8122 52.826 38.6944C52.7145 38.5672 52.716 38.5911 52.2211 37.9821C49.9723 35.2245 48.2192 31.6888 47.5784 27.6349L47.5758 27.626C47.0752 24.4146 47.2353 20.8324 48.4448 17.2313C48.6147 16.7178 48.8145 16.1794 49.0513 15.6216C49.0756 15.5638 49.101 15.5055 49.1261 15.4472C49.2017 15.2727 49.281 15.0968 49.3644 14.9188C49.786 14.0167 50.3072 13.0698 50.9521 12.0972C51.8444 10.7523 53.0363 9.26593 54.71 7.7916C54.85 7.67214 54.8099 7.68733 55.419 7.19235C57.9435 5.15528 61.1096 3.50359 64.8286 2.75877C65.1298 2.69521 65.4332 2.64085 65.7392 2.59585L65.7425 2.59012C71.1166 1.74815 77.114 2.93247 81.9774 6.46717L81.983 6.47061C83.0646 7.26945 84.2554 8.26428 85.5053 9.67412C85.6164 9.8018 85.6153 9.77763 86.1042 10.3834C86.9621 11.4309 87.8494 12.7048 88.7013 14.3693L88.7035 14.3785C90.3694 17.6928 91.2142 21.5711 90.9792 25.5055C90.8752 27.3443 90.5269 29.2028 89.9295 31.0236L89.9261 31.0292C89.8259 31.3192 89.7275 31.6181 89.6152 31.9009C89.4458 32.3491 89.2598 32.7969 89.0559 33.2425Z" fill="url(#paint2_linear_5007_19938)"/>
<path fill-rule="evenodd" clip-rule="evenodd" d="M85.0515 31.8889C84.9609 32.0793 84.8663 32.2675 84.7683 32.4549C84.7241 32.5395 84.6788 32.624 84.6325 32.7086C84.5599 32.8414 84.4854 32.9742 84.4087 33.1059C84.3575 33.1945 84.3055 33.2825 84.2524 33.3704C83.8528 34.0322 83.4061 34.6712 82.9123 35.2836C82.2382 36.1205 81.4761 36.9057 80.6276 37.6274C73.3093 43.8526 62.3303 42.967 56.1051 35.6491C52.0442 30.8751 51.0094 24.5433 52.8118 18.9894C52.8578 18.8479 52.9054 18.7069 52.9551 18.5666C53.0135 18.4011 53.0748 18.2356 53.1381 18.0715C53.1706 17.9885 53.2035 17.9057 53.2368 17.8231C53.2948 17.6794 53.355 17.537 53.4175 17.3948C54.1059 15.8203 55.0359 14.3316 56.2028 12.9874C56.2312 12.9543 56.2607 12.9207 56.2899 12.8878C56.8365 12.2669 57.4351 11.6779 58.0838 11.1259C65.4021 4.90085 76.3815 5.78671 82.6067 13.105C85.8872 16.9618 87.1929 21.8347 86.6227 26.4931C86.3956 28.3521 85.8696 30.177 85.0515 31.8889Z" fill="#FFC600"/>
<path fill-rule="evenodd" clip-rule="evenodd" d="M89.0554 33.2425C88.9544 33.4647 88.8489 33.6865 88.7393 33.9076C88.7292 33.9275 88.7191 33.9477 88.7094 33.9675C88.3603 33.9361 88.0072 33.9009 87.6503 33.8605C86.5414 33.7363 85.4079 33.5728 84.2522 33.3678C84.3054 33.2799 84.3574 33.192 84.4086 33.1033C84.4853 32.9716 84.5598 32.8388 84.6323 32.706C84.6787 32.6214 84.724 32.5369 84.7681 32.4523C84.8662 32.2649 84.9608 32.0767 85.0513 31.8863C85.8695 30.1744 86.3955 28.3495 86.6226 26.4905C87.1927 21.8321 85.8871 16.9592 82.6065 13.1024C76.3814 5.78412 65.402 4.89827 58.0837 11.1233C57.4349 11.6753 56.8364 12.2643 56.2898 12.8852C56.2606 12.9181 56.2311 12.9517 56.2026 12.9848C55.0358 14.329 54.1057 15.8177 53.4174 17.3922C53.3549 17.5344 53.2947 17.6768 53.2367 17.8205C53.2034 17.9031 53.1705 17.9859 53.1379 18.0689C53.0747 18.233 53.0133 18.3985 52.955 18.564C52.9052 18.7043 52.8577 18.8453 52.8117 18.9868C52.0844 18.3985 51.3755 17.7903 50.6886 17.1629C50.4376 16.9321 50.4473 16.9696 49.3168 15.8794C49.2281 15.7939 49.1394 15.7078 49.0508 15.6216C49.0751 15.5638 49.1005 15.5055 49.1256 15.4472C49.2012 15.2727 49.2805 15.0968 49.3639 14.9188C49.7855 14.0167 50.3067 13.0698 50.9516 12.0972C51.8439 10.7523 53.0358 9.26592 54.7096 7.7916C54.8495 7.67214 54.8094 7.68733 55.4185 7.19235C57.943 5.15528 61.1091 3.50359 64.8281 2.75877C65.1293 2.69521 65.4327 2.64085 65.7387 2.59585L65.7421 2.59012C71.1161 1.74815 77.1135 2.93247 81.9769 6.46717L81.9825 6.47061C83.0641 7.26945 84.2549 8.26428 85.5048 9.67412C85.6159 9.8018 85.6148 9.77763 86.1037 10.3834C86.9615 11.4309 87.8489 12.7048 88.7008 14.3693L88.703 14.3785C90.3689 17.6928 91.2137 21.5711 90.9787 25.5055C90.8747 27.3442 90.5264 29.2028 89.929 31.0236L89.9256 31.0292C89.8254 31.3192 89.727 31.6181 89.6147 31.9009C89.4453 32.3491 89.2593 32.7969 89.0554 33.2425Z" fill="url(#paint3_linear_5007_19938)"/>
<path fill-rule="evenodd" clip-rule="evenodd" d="M82.9112 35.2795C82.2371 36.116 81.475 36.9017 80.6265 37.6233C75.3445 42.1164 68.1548 42.9054 62.2226 40.2447C59.9356 39.2189 57.8361 37.6813 56.104 35.6446C50.4598 29.0098 50.6607 19.3658 56.2017 12.9833C56.7718 12.3257 57.3996 11.7031 58.0827 11.1219C63.3647 6.62889 70.5544 5.84057 76.4863 8.50093C78.7736 9.52659 80.8731 11.0646 82.6056 13.101C88.1091 19.5708 88.0545 28.9021 82.9112 35.2795ZM86.5105 30.2747C87.1798 28.3233 87.5105 26.2859 87.4941 24.219C87.4776 22.1358 87.1083 20.0919 86.3964 18.1438C85.6598 16.1275 84.5749 14.2688 83.1716 12.6193C82.2853 11.5773 81.2853 10.6377 80.1993 9.82655C79.1424 9.03722 77.9958 8.36311 76.7911 7.8229V7.82278C73.7062 6.43933 70.3007 5.94464 66.9427 6.39197C63.4934 6.85145 60.263 8.29121 57.6008 10.5556C56.8971 11.1543 56.2376 11.8072 55.6401 12.4962C52.8264 15.7371 51.2548 19.8981 51.2152 24.2126C51.1953 26.3484 51.5462 28.4475 52.2585 30.4513C52.9955 32.5257 54.0988 34.4352 55.5376 36.1265C56.4239 37.1684 57.4242 38.1082 58.5103 38.9192C59.5671 39.7086 60.7138 40.3827 61.9184 40.923C65.0026 42.3064 68.4081 42.801 71.7665 42.3536C75.2158 41.8942 78.4462 40.4542 81.108 38.1897C81.9789 37.4486 82.7806 36.6267 83.4903 35.746C84.8106 34.1089 85.8266 32.2679 86.5105 30.2747Z" fill="#FFF596"/>
<path fill-rule="evenodd" clip-rule="evenodd" d="M82.606 13.1054C79.4227 9.36337 74.9962 7.30767 70.4519 7.02002C74.7826 7.44501 78.8563 9.63366 81.8981 13.2098C88.1237 20.528 87.0889 31.1662 79.7706 37.3914C76.1945 40.4337 71.997 41.9608 67.6543 41.6858C72.1859 42.1306 76.8847 40.8115 80.6269 37.6282C87.9453 31.403 88.8311 20.4237 82.606 13.1054Z" fill="#EFBA0F"/>
<path fill-rule="evenodd" clip-rule="evenodd" d="M70.8378 29.6074C70.5355 30.2946 70.0506 30.7492 69.3829 30.9706C69.0099 31.0945 68.604 31.136 68.1644 31.0952C67.7607 31.0582 67.3286 30.9512 66.8685 30.775L64.6167 29.9127L66.4794 25.0489L68.757 25.9209C69.2074 26.0934 69.5935 26.2943 69.9152 26.5236C70.2796 26.7832 70.5613 27.0792 70.7607 27.4114C71.1356 28.0373 71.1823 28.7185 70.8999 29.4562C70.88 29.5079 70.8595 29.5584 70.8378 29.6074ZM69.3372 17.5856L70.8939 18.1818C71.6975 18.4894 72.3009 18.8428 72.7034 19.242C73.3159 19.8484 73.4651 20.5604 73.1524 21.3778C72.8729 22.1069 72.4068 22.5851 71.7543 22.8122C71.6062 22.8638 71.4524 22.9009 71.2938 22.9238C70.7536 23.0018 70.1516 22.9138 69.4891 22.66L67.6619 21.9603L69.3372 17.5856ZM75.8598 31.16C76.2321 30.0672 75.6559 28.833 75.2059 27.7855C74.7296 26.6785 73.8666 25.7926 72.617 25.1267L72.6365 25.0754C73.7947 25.1847 75.424 25.1057 76.3832 24.6171C77.3428 24.1285 78.0128 23.3871 78.394 22.392C78.9197 21.0195 78.7734 19.7438 77.956 18.5648C77.2885 17.6028 75.6368 16.6598 74.1423 15.9577L73.5029 12.2588L72.559 12.6987L71.6885 14.9726L71.5306 14.9119L70.5097 14.5199L71.3798 12.2471L69.855 10.8618L68.9111 11.3017L68.0417 13.5722L67.8838 13.5116L65.1853 11.6727L64.2415 12.1126L63.0716 15.1672L65.1872 15.9774L60.4558 28.3328L59.2841 27.0829L58.3403 27.5228L57.1704 30.5771L60.815 31.971L60.9729 32.0312L60.1049 34.2984L62.5737 35.2437L63.5176 34.8038L63.442 32.9759L64.4637 33.3668L64.6216 33.4271L63.7529 35.6953L66.222 36.6407L67.1659 36.2011L67.0985 34.3515C68.8961 34.9227 71.0338 35.1397 72.4375 34.6736C74.0267 34.1461 75.1445 33.0372 75.7917 31.3474C75.8157 31.2849 75.8385 31.2224 75.8598 31.16Z" fill="#EFBA0F"/>
<path fill-rule="evenodd" clip-rule="evenodd" d="M68.3844 21.6176L70.371 22.3783C70.8951 22.5791 71.3911 22.6809 71.8453 22.6809C71.9867 22.6809 72.1267 22.671 72.261 22.6516C72.4301 22.6273 72.5958 22.5871 72.7533 22.5323C73.4529 22.2888 73.9579 21.7725 74.2546 20.9978C74.5924 20.1151 74.4282 19.3352 73.7664 18.6797C73.3492 18.2659 72.7204 17.8963 71.8981 17.5813L70.1817 16.9241L68.3844 21.6176ZM65.3392 29.5703L67.7503 30.4936C68.2232 30.6746 68.6747 30.7858 69.0919 30.8239C69.2052 30.8348 69.3186 30.84 69.4282 30.84C69.763 30.84 70.0833 30.7899 70.3796 30.6915C71.0919 30.4554 71.616 29.9653 71.937 29.2351C71.9587 29.1853 71.9807 29.1318 72.0021 29.0761C72.3029 28.2908 72.2516 27.5531 71.8498 26.8823C71.6396 26.5317 71.3391 26.2156 70.9572 25.9433C70.6253 25.7068 70.2228 25.4973 69.7608 25.3204L67.3238 24.3874L65.3392 29.5703ZM64.9161 35.1561L65.7847 32.8875L65.4675 32.7663L64.2864 32.3144L63.4181 34.5822L61.2681 33.7588L62.1361 31.4921L61.8188 31.3705L58.334 30.0375L59.3815 27.302L61.4971 28.1124L66.3504 15.4379L64.2348 14.6278L65.2823 11.8921L69.0825 13.3518L69.9523 11.0811L72.1023 11.9044L71.2322 14.1771L72.4125 14.6302L72.7293 14.7522L73.6003 12.4781L75.7506 13.3014L74.8689 15.6037L75.0125 15.6712C76.4723 16.3569 77.5404 17.1775 78.1876 18.1101C78.5782 18.6735 78.8116 19.2668 78.8808 19.8734C78.9504 20.4807 78.858 21.1219 78.6066 21.779C78.243 22.7287 77.5939 23.4468 76.6777 23.913C75.9216 24.2983 75.0896 24.4936 74.2045 24.4936C74.0058 24.4936 73.8008 24.4835 73.5954 24.4644L73.4663 24.4521L73.3466 24.7652L73.4794 24.8363C74.6886 25.4801 75.5337 26.3469 75.992 27.4117C76.4229 28.415 76.4607 29.4539 76.1042 30.4996C76.0836 30.5598 76.0615 30.6211 76.0383 30.681C75.7252 31.4992 75.2927 32.1853 74.7536 32.7199C74.2161 33.253 73.5554 33.6522 72.7896 33.9066C72.1794 34.109 71.521 34.2118 70.833 34.2118C69.9838 34.2118 69.0619 34.0555 68.093 33.7476L67.9396 33.6989L67.0664 35.9791L64.9161 35.1561Z" fill="#FFE61D"/>
<path fill-rule="evenodd" clip-rule="evenodd" d="M69.4288 30.6706C69.3237 30.6706 69.2171 30.6653 69.1078 30.6552C68.7042 30.6182 68.2721 30.5116 67.8119 30.3354L65.5602 29.4731L67.4228 24.6089L69.7004 25.4809C70.1509 25.6534 70.5369 25.8543 70.8587 26.0836C71.2231 26.3433 71.5048 26.6392 71.7042 26.9714C72.079 27.5973 72.1258 28.2785 71.8433 29.0163C71.8235 29.0679 71.8029 29.1184 71.7812 29.1674C71.4789 29.8546 70.9941 30.3092 70.3263 30.5307C70.0461 30.6238 69.7468 30.6706 69.4288 30.6706ZM71.8459 22.5114C71.4109 22.5114 70.9395 22.4143 70.4326 22.2201L68.6054 21.5204L70.2807 17.1457L71.8373 17.7419C72.6409 18.0496 73.2444 18.4029 73.6469 18.8021C74.2593 19.4086 74.4086 20.1205 74.0958 20.938C73.8164 21.667 73.3502 22.1452 72.6978 22.3723C72.5496 22.4239 72.2706 22.5031 71.8459 22.5114ZM69.8546 10.8618L68.9851 13.1324L68.8273 13.0717L65.1849 11.6727L64.0151 14.7273L66.1307 15.5375L61.3993 27.8932L59.2837 27.0829L58.1143 30.1375L61.7585 31.531L61.9163 31.5916L61.0484 33.8584L63.5171 34.8037L64.3855 32.5359L65.4071 32.9268L65.565 32.9871L64.6963 35.2553L67.1655 36.201L68.042 33.9115C69.0323 34.2261 69.9627 34.3836 70.8332 34.3836C71.5433 34.3836 72.2137 34.2789 72.8441 34.0697C74.4333 33.5419 75.5511 32.4334 76.1983 30.7432C76.2223 30.6807 76.2451 30.6182 76.2664 30.5561C76.6387 29.463 76.5994 28.393 76.1493 27.3455C75.6735 26.2389 74.81 25.3526 73.5605 24.6867L73.5799 24.6354C73.7917 24.6553 74.0001 24.6654 74.2051 24.6654C75.1216 24.6654 75.972 24.4656 76.7558 24.0664C77.7153 23.5778 78.3854 22.8363 78.7666 21.8413C79.2922 20.4688 79.1459 19.1931 78.3281 18.014C77.6611 17.0521 76.5803 16.2199 75.0857 15.5178L75.9716 13.2043L73.5025 12.2588L72.6319 14.5327L71.4531 14.08L72.3233 11.8072L69.8546 10.8618ZM70.4337 30.8546C71.2122 30.6661 71.7524 30.081 72.0936 29.3051C72.1168 29.2527 72.14 29.1966 72.1621 29.1382C72.4827 28.3017 72.4269 27.5135 71.9967 26.7955C71.7745 26.4248 71.458 26.0915 71.0566 25.8057C70.7131 25.5606 70.2979 25.3444 69.8224 25.1622L67.5448 24.2901L67.2261 24.1678L67.1041 24.4869L65.1191 29.6698L65.4382 29.7918L67.69 30.6541C68.1774 30.8408 68.6439 30.9556 69.0764 30.9953C69.1954 31.0062 69.314 31.0192 69.4288 31.0118C69.6825 30.9957 70.1868 30.9145 70.4337 30.8546ZM72.2859 22.8218C72.4658 22.7958 72.642 22.7531 72.81 22.6947C73.5594 22.4338 74.0988 21.8839 74.4146 21.06C74.7737 20.1218 74.5915 19.2571 73.8875 18.5597C73.4531 18.129 72.8044 17.7466 71.9597 17.4231L70.4026 16.8269L70.0839 16.7048L68.1647 21.7172L70.3106 22.5389C70.8542 22.7472 71.3708 22.8527 71.8459 22.8527L72.2859 22.8218ZM71.8826 12.004L71.0124 14.2765L72.8284 14.9741L73.6993 12.6997L75.5306 13.401L74.6533 15.692L74.9406 15.8268C76.3727 16.4996 77.4183 17.301 78.0479 18.2086C78.4224 18.7486 78.6458 19.3156 78.712 19.8939C78.7782 20.4738 78.6895 21.0879 78.4479 21.7192C78.2731 22.1749 78.03 22.5772 77.7247 22.9149C77.4194 23.2531 77.0412 23.5382 76.6009 23.7623C75.8691 24.1349 75.0629 24.3238 74.2051 24.3238C74.0117 24.3238 73.8123 24.3145 73.6121 24.2954L73.354 24.2711L73.1336 24.8464L73.4 24.9882C73.9907 25.3029 74.4958 25.6732 74.9005 26.0889C75.3008 26.5 75.6155 26.968 75.8354 27.4802C76.0431 27.9628 76.1572 28.4558 76.1751 28.9463C76.1931 29.4371 76.1149 29.9418 75.9432 30.4457C75.9234 30.5037 75.902 30.5628 75.8796 30.6212C75.5751 31.4165 75.1561 32.0825 74.6342 32.5999C74.1157 33.1143 73.4771 33.4996 72.7367 33.7458C72.1437 33.9425 71.5036 34.0424 70.8332 34.0424C70.002 34.0424 69.0977 33.8887 68.1456 33.586L67.8385 33.4884L66.9687 35.76L65.1374 35.0589L65.8838 33.1094L66.0057 32.7903L65.687 32.6683L65.5291 32.6077L64.5074 32.2171L64.1887 32.0952L63.3204 34.363L61.4891 33.6616L62.357 31.3948L62.0383 31.2729L61.8804 31.2123L58.555 29.9403L59.4805 27.5239L61.2774 28.2119L61.5961 28.3339L66.4494 15.6595L66.5717 15.3407L64.4562 14.5306L65.3813 12.1139L68.7049 13.3903L68.8624 13.451L69.1815 13.5737L70.0513 11.3027L71.8826 12.004Z" fill="#FFF596"/>
<path fill-rule="evenodd" clip-rule="evenodd" d="M100.317 41.1098V100.496C100.317 101.533 100.15 102.533 99.841 103.465C99.7041 103.9 99.5256 104.32 99.3288 104.725C98.8384 105.709 98.1766 106.597 97.3965 107.351C97.3595 107.385 97.3221 107.422 97.2851 107.451C96.6053 108.087 95.8324 108.618 94.9888 109.031C93.7295 109.655 92.3101 110 90.8126 110H5.48517C2.45338 110 0.00146484 107.548 0.00146484 104.52V37.0859C0.00146484 36.3242 0.157095 35.6 0.435807 34.9419C0.603408 34.5558 0.811039 34.1881 1.0602 33.8536C1.97041 32.6089 3.39352 31.762 5.0209 31.628C5.17279 31.6134 5.32917 31.606 5.48517 31.606H90.8126C96.0625 31.606 100.317 35.86 100.317 41.1098Z" fill="#00AA00"/>
<rect y="96.7095" width="13.2829" height="13.2829" fill="#00AA00"/>
<rect x="86.8496" y="96.7095" width="13.2829" height="13.2829" fill="#00AA00"/>
<rect x="87.0537" y="31.6743" width="13.2829" height="13.2829" fill="#00AA00"/>
<rect x="0.204102" y="31.6743" width="13.2829" height="13.2829" fill="#00AA00"/>
<path fill-rule="evenodd" clip-rule="evenodd" d="M47.0208 106.097H49.6227C49.9306 106.097 50.1802 105.848 50.1802 105.54C50.1802 105.232 49.9306 104.982 49.6227 104.982H47.0208C46.7129 104.982 46.4634 105.232 46.4634 105.54C46.4634 105.848 46.7129 106.097 47.0208 106.097Z" fill="#FFC600"/>
<path fill-rule="evenodd" clip-rule="evenodd" d="M40.6302 35.8718H43.2321C43.54 35.8718 43.7895 35.6223 43.7895 35.3147C43.7895 35.0069 43.54 34.7573 43.2321 34.7573H40.6302C40.3223 34.7573 40.0728 35.0069 40.0728 35.3147C40.0728 35.6223 40.3223 35.8718 40.6302 35.8718Z" fill="#FFC600"/>
<path fill-rule="evenodd" clip-rule="evenodd" d="M39.5872 106.097H42.1895C42.4974 106.097 42.7469 105.848 42.7469 105.54C42.7469 105.232 42.4974 104.982 42.1895 104.982H39.5872C39.2793 104.982 39.0298 105.232 39.0298 105.54C39.0298 105.848 39.2793 106.097 39.5872 106.097Z" fill="#FFC600"/>
<path fill-rule="evenodd" clip-rule="evenodd" d="M61.888 106.097H64.4903C64.7982 106.097 65.0477 105.848 65.0477 105.54C65.0477 105.232 64.7982 104.982 64.4903 104.982H61.888C61.5801 104.982 61.3306 105.232 61.3306 105.54C61.3306 105.848 61.5801 106.097 61.888 106.097Z" fill="#FFC600"/>
<path fill-rule="evenodd" clip-rule="evenodd" d="M48.0638 35.8718H50.6661C50.9736 35.8718 51.2231 35.6223 51.2231 35.3147C51.2231 35.0069 50.9736 34.7573 50.6661 34.7573H48.0638C47.7559 34.7573 47.5063 35.0069 47.5063 35.3147C47.5063 35.6223 47.7559 35.8718 48.0638 35.8718Z" fill="#FFC600"/>
<path fill-rule="evenodd" clip-rule="evenodd" d="M33.1962 35.8718H35.7989C36.1064 35.8718 36.3559 35.6223 36.3559 35.3147C36.3559 35.0069 36.1064 34.7573 35.7989 34.7573H33.1962C32.8887 34.7573 32.6392 35.0069 32.6392 35.3147C32.6392 35.6223 32.8887 35.8718 33.1962 35.8718Z" fill="#FFC600"/>
<path fill-rule="evenodd" clip-rule="evenodd" d="M55.4969 35.8718H58.0996C58.4074 35.8718 58.657 35.6223 58.657 35.3147C58.657 35.0069 58.4074 34.7573 58.0996 34.7573H55.4969C55.189 34.7573 54.9395 35.0069 54.9395 35.3147C54.9395 35.6223 55.189 35.8718 55.4969 35.8718Z" fill="#FFC600"/>
<path fill-rule="evenodd" clip-rule="evenodd" d="M62.9316 35.8718H65.5339C65.8418 35.8718 66.0913 35.6223 66.0913 35.3147C66.0913 35.0069 65.8418 34.7573 65.5339 34.7573H62.9316C62.624 34.7573 62.3745 35.0069 62.3745 35.3147C62.3745 35.6223 62.624 35.8718 62.9316 35.8718Z" fill="#FFC600"/>
<path fill-rule="evenodd" clip-rule="evenodd" d="M32.1536 106.097H34.7559C35.0638 106.097 35.3133 105.848 35.3133 105.54C35.3133 105.232 35.0638 104.982 34.7559 104.982H32.1536C31.8457 104.982 31.5962 105.232 31.5962 105.54C31.5962 105.848 31.8457 106.097 32.1536 106.097Z" fill="#FFC600"/>
<path fill-rule="evenodd" clip-rule="evenodd" d="M17.2859 106.097H19.8882C20.1958 106.097 20.4453 105.848 20.4453 105.54C20.4453 105.232 20.1958 104.982 19.8882 104.982H17.2859C16.978 104.982 16.7285 105.232 16.7285 105.54C16.7285 105.848 16.978 106.097 17.2859 106.097Z" fill="#FFC600"/>
<path fill-rule="evenodd" clip-rule="evenodd" d="M9.68218 105.532C9.67806 105.842 9.92647 106.096 10.2366 106.097C10.9377 106.098 12.1274 106.099 12.8258 106.1C13.1333 106.1 13.3829 105.85 13.3829 105.542C13.3829 105.235 13.1341 104.985 12.8266 104.985C12.1274 104.985 10.9347 104.984 10.2389 104.982C9.93358 104.982 9.68629 105.227 9.68218 105.532Z" fill="#FFC600"/>
<path fill-rule="evenodd" clip-rule="evenodd" d="M10.8949 35.8718H13.4976C13.8051 35.8718 14.0547 35.6223 14.0547 35.3147C14.0547 35.0069 13.8051 34.7573 13.4976 34.7573H10.8949C10.5874 34.7573 10.3379 35.0069 10.3379 35.3147C10.3379 35.6223 10.5874 35.8718 10.8949 35.8718Z" fill="#FFC600"/>
<path fill-rule="evenodd" clip-rule="evenodd" d="M25.763 35.8718H28.3653C28.6728 35.8718 28.9223 35.6223 28.9223 35.3147C28.9223 35.0069 28.6728 34.7573 28.3653 34.7573H25.763C25.4551 34.7573 25.2056 35.0069 25.2056 35.3147C25.2056 35.6223 25.4551 35.8718 25.763 35.8718Z" fill="#FFC600"/>
<path fill-rule="evenodd" clip-rule="evenodd" d="M24.72 106.097H27.322C27.6298 106.097 27.8794 105.848 27.8794 105.54C27.8794 105.232 27.6298 104.982 27.322 104.982H24.72C24.4121 104.982 24.1626 105.232 24.1626 105.54C24.1626 105.848 24.4121 106.097 24.72 106.097Z" fill="#FFC600"/>
<path fill-rule="evenodd" clip-rule="evenodd" d="M18.3284 35.8718H20.9307C21.2386 35.8718 21.4882 35.6223 21.4882 35.3147C21.4882 35.0069 21.2386 34.7573 20.9307 34.7573H18.3284C18.0205 34.7573 17.771 35.0069 17.771 35.3147C17.771 35.6223 18.0205 35.8718 18.3284 35.8718Z" fill="#FFC600"/>
<path fill-rule="evenodd" clip-rule="evenodd" d="M54.4544 106.097H57.0571C57.3646 106.097 57.6141 105.848 57.6141 105.54C57.6141 105.232 57.3646 104.982 57.0571 104.982H54.4544C54.1465 104.982 53.897 105.232 53.897 105.54C53.897 105.848 54.1465 106.097 54.4544 106.097Z" fill="#FFC600"/>
<path fill-rule="evenodd" clip-rule="evenodd" d="M95.6724 77.2811H96.7868V73.564H95.6724V77.2811Z" fill="#FFC600"/>
<path fill-rule="evenodd" clip-rule="evenodd" d="M96.2298 80.9961C95.9219 80.9961 95.6724 81.2456 95.6724 81.5531V84.1577C95.6724 84.4656 95.9219 84.7151 96.2298 84.7151C96.5373 84.7151 96.7868 84.4656 96.7868 84.1577V81.5531C96.7868 81.2456 96.5373 80.9961 96.2298 80.9961Z" fill="#FFC600"/>
<path fill-rule="evenodd" clip-rule="evenodd" d="M95.6724 69.8452H96.7868V66.1284H95.6724V69.8452Z" fill="#FFC600"/>
<path fill-rule="evenodd" clip-rule="evenodd" d="M95.6733 97.0246C95.6733 97.6531 95.6724 98.5787 95.6724 98.9632C95.6036 99.246 95.7678 99.5329 96.0454 99.6205C96.3551 99.7181 96.6817 99.5314 96.7581 99.216C96.7878 98.5348 96.7878 97.7384 96.7878 97.0246V96.4241C96.7878 96.1162 96.5383 95.8667 96.2308 95.8667C95.9232 95.8667 95.6733 96.1162 95.6733 96.4241V97.0246Z" fill="#FFC600"/>
<path fill-rule="evenodd" clip-rule="evenodd" d="M96.2298 92.1493C96.5373 92.1493 96.7868 91.8998 96.7868 91.5922V88.9895C96.7868 88.6817 96.5373 88.4321 96.2298 88.4321C95.9219 88.4321 95.6724 88.6817 95.6724 88.9895V91.5922C95.6724 91.8998 95.9219 92.1493 96.2298 92.1493Z" fill="#FFC600"/>
<path fill-rule="evenodd" clip-rule="evenodd" d="M95.6724 62.4126H96.7868V58.6958H95.6724V62.4126Z" fill="#FFC600"/>
<path fill-rule="evenodd" clip-rule="evenodd" d="M95.6724 44.375V46.9915C95.6724 47.299 95.9219 47.5486 96.2298 47.5486C96.5373 47.5486 96.7868 47.299 96.7868 46.9915V44.375C96.7868 44.0615 96.5283 43.8097 96.2152 43.8176C95.9129 43.8254 95.6724 44.0727 95.6724 44.375Z" fill="#FFC600"/>
<path fill-rule="evenodd" clip-rule="evenodd" d="M95.6724 36.2012V38.8177C95.6724 39.1252 95.9219 39.3747 96.2298 39.3747C96.5373 39.3747 96.7868 39.1252 96.7868 38.8177V36.2012C96.7868 35.8877 96.5283 35.6359 96.2152 35.6437C95.9129 35.6516 95.6724 35.8989 95.6724 36.2012Z" fill="#FFC600"/>
<path fill-rule="evenodd" clip-rule="evenodd" d="M96.2298 54.978C96.5373 54.978 96.7868 54.7285 96.7868 54.4206V51.8187C96.7868 51.5108 96.5373 51.2612 96.2298 51.2612C95.9219 51.2612 95.6724 51.5108 95.6724 51.8187V54.4206C95.6724 54.7285 95.9219 54.978 96.2298 54.978Z" fill="#FFC600"/>
<path fill-rule="evenodd" clip-rule="evenodd" d="M70.3655 35.8718H72.9678C73.2754 35.8718 73.5249 35.6223 73.5249 35.3147C73.5249 35.0069 73.2754 34.7573 72.9678 34.7573H70.3655C70.0576 34.7573 69.8081 35.0069 69.8081 35.3147C69.8081 35.6223 70.0576 35.8718 70.3655 35.8718Z" fill="#FFC600"/>
<path fill-rule="evenodd" clip-rule="evenodd" d="M77.7991 35.8718H80.8118C81.1194 35.8718 81.3689 35.6223 81.3689 35.3147C81.3689 35.0069 81.1194 34.7573 80.8118 34.7573H77.7991C77.4912 34.7573 77.2417 35.0069 77.2417 35.3147C77.2417 35.6223 77.4912 35.8718 77.7991 35.8718Z" fill="#FFC600"/>
<path fill-rule="evenodd" clip-rule="evenodd" d="M76.7566 106.097H79.3586C79.6665 106.097 79.916 105.848 79.916 105.54C79.916 105.232 79.6665 104.982 79.3586 104.982H76.7566C76.4487 104.982 76.1992 105.232 76.1992 105.54C76.1992 105.848 76.4487 106.097 76.7566 106.097Z" fill="#FFC600"/>
<path fill-rule="evenodd" clip-rule="evenodd" d="M69.3227 106.097H71.925C72.2329 106.097 72.4824 105.848 72.4824 105.54C72.4824 105.232 72.2329 104.982 71.925 104.982H69.3227C69.0152 104.982 68.7656 105.232 68.7656 105.54C68.7656 105.848 69.0152 106.097 69.3227 106.097Z" fill="#FFC600"/>
<path fill-rule="evenodd" clip-rule="evenodd" d="M85.4561 35.3139C85.4561 35.6217 85.7056 35.8713 86.0131 35.8713H87.5417C88.1036 35.8713 88.6139 35.8528 89.2006 35.8528C89.4853 35.9108 89.7644 35.7323 89.84 35.4518C89.9245 35.1379 89.7229 34.821 89.4041 34.7567C88.8933 34.739 88.1717 34.7568 87.5417 34.7568H86.0131C85.7056 34.7568 85.4561 35.0063 85.4561 35.3139Z" fill="#FFC600"/>
<path fill-rule="evenodd" clip-rule="evenodd" d="M84.1902 106.097H86.7925C87.1004 106.097 87.3496 105.848 87.3496 105.54C87.3496 105.232 87.1004 104.982 86.7925 104.982H84.1902C83.8823 104.982 83.6328 105.232 83.6328 105.54C83.6328 105.848 83.8823 106.097 84.1902 106.097Z" fill="#FFC600"/>
<path fill-rule="evenodd" clip-rule="evenodd" d="M92.3645 106.097H94.9669C95.2748 106.097 95.5239 105.848 95.5239 105.54C95.5239 105.232 95.2748 104.982 94.9669 104.982H92.3645C92.0567 104.982 91.8071 105.232 91.8071 105.54C91.8071 105.848 92.0567 106.097 92.3645 106.097Z" fill="#FFC600"/>
<path fill-rule="evenodd" clip-rule="evenodd" d="M75.611 77.4555H100.594C101.468 77.4555 102.176 76.7473 102.176 75.8734V60.0889C102.176 59.215 101.468 58.5068 100.594 58.5068H75.611C70.3784 58.5068 66.1367 62.7485 66.1367 67.9812C66.1367 73.2135 70.3784 77.4555 75.611 77.4555Z" fill="url(#paint4_linear_5007_19938)"/>
<rect width="37.8051" height="19.4134" transform="matrix(-1 0 0 1 102.176 58.2402)" fill="url(#paint5_linear_5007_19938)"/>
<rect x="71.5229" y="65.021" width="5.57323" height="5.57323" fill="white"/>
<defs>
<linearGradient id="paint0_linear_5007_19938" x1="33.7744" y1="17.4925" x2="74.1244" y2="17.4925" gradientUnits="userSpaceOnUse">
<stop stop-color="#FD6300"/>
<stop offset="1" stop-color="#FFC600"/>
</linearGradient>
<linearGradient id="paint1_linear_5007_19938" x1="10.4565" y1="20.7592" x2="53.3633" y2="20.7592" gradientUnits="userSpaceOnUse">
<stop stop-color="#FD6300"/>
<stop offset="1" stop-color="#FFC600"/>
</linearGradient>
<linearGradient id="paint2_linear_5007_19938" x1="47.3096" y1="24.3164" x2="91.0179" y2="24.3164" gradientUnits="userSpaceOnUse">
<stop stop-color="#FD6300"/>
<stop offset="1" stop-color="#FFC600"/>
</linearGradient>
<linearGradient id="paint3_linear_5007_19938" x1="49.0508" y1="18.2449" x2="91.0174" y2="18.2449" gradientUnits="userSpaceOnUse">
<stop stop-color="#FD6300"/>
<stop offset="1" stop-color="#FFC600"/>
</linearGradient>
<linearGradient id="paint4_linear_5007_19938" x1="66.1367" y1="68.0386" x2="102.176" y2="68.0386" gradientUnits="userSpaceOnUse">
<stop stop-color="#00AA00"/>
<stop offset="1" stop-color="#76ED76"/>
</linearGradient>
<linearGradient id="paint5_linear_5007_19938" x1="-2.96832e-07" y1="9.76553" x2="37.8051" y2="9.76553" gradientUnits="userSpaceOnUse">
<stop stop-color="#00AA00"/>
<stop offset="1" stop-color="#76ED76"/>
</linearGradient>
</defs>
</svg>
