<svg width="16" height="14" viewBox="0 0 16 14" fill="none" xmlns="http://www.w3.org/2000/svg">
<path d="M0.666992 13.5026L8.00033 0.835938L15.3337 13.5026H0.666992ZM7.33366 9.5026H8.66699V6.16927H7.33366V9.5026ZM8.00033 11.5026C8.18922 11.5026 8.34766 11.4386 8.47566 11.3106C8.60322 11.183 8.66699 11.0248 8.66699 10.8359C8.66699 10.647 8.60322 10.4888 8.47566 10.3613C8.34766 10.2333 8.18922 10.1693 8.00033 10.1693C7.81144 10.1693 7.65322 10.2333 7.52566 10.3613C7.39766 10.4888 7.33366 10.647 7.33366 10.8359C7.33366 11.0248 7.39766 11.183 7.52566 11.3106C7.65322 11.4386 7.81144 11.5026 8.00033 11.5026Z" fill="#FF2700"/>
</svg>
