<svg width="23" height="22" viewBox="0 0 23 22" fill="none" xmlns="http://www.w3.org/2000/svg">
<g clip-path="url(#clip0_3272_13793)">
<path d="M21.7967 5.71886C21.5431 4.77641 20.8001 4.03352 19.8578 3.77974C18.1362 3.30859 11.2498 3.30859 11.2498 3.30859C11.2498 3.30859 4.36357 3.30859 2.64197 3.76178C1.71781 4.01539 0.956632 4.77657 0.703016 5.71886C0.25 7.44029 0.25 11.0104 0.25 11.0104C0.25 11.0104 0.25 14.5984 0.703016 16.3019C0.956799 17.2442 1.69969 17.9872 2.64214 18.241C4.3817 18.7122 11.25 18.7122 11.25 18.7122C11.25 18.7122 18.1362 18.7122 19.8578 18.259C20.8002 18.0054 21.5431 17.2623 21.7969 16.32C22.2499 14.5984 22.2499 11.0285 22.2499 11.0285C22.2499 11.0285 22.268 7.44029 21.7967 5.71886Z" fill="#FF0000"/>
<path d="M9.05719 14.3086L14.7836 11.0105L9.05719 7.71228V14.3086Z" fill="white"/>
</g>
<defs>
<clipPath id="clip0_3272_13793">
<rect width="22" height="22" fill="white" transform="translate(0.25)"/>
</clipPath>
</defs>
</svg>
